<svg width="566" height="588" viewBox="0 0 566 588" fill="none" xmlns="http://www.w3.org/2000/svg">
<path d="M202.54 37.847V79.7271H194.14V37.847H202.54ZM229.259 46.007C233.219 46.007 236.419 47.267 238.859 49.7871C241.299 52.2671 242.519 55.7471 242.519 60.227V79.7271H234.119V61.367C234.119 58.727 233.459 56.7071 232.139 55.3071C230.819 53.867 229.019 53.147 226.739 53.147C224.419 53.147 222.579 53.867 221.219 55.3071C219.899 56.7071 219.239 58.727 219.239 61.367V79.7271H210.839V46.487H219.239V50.627C220.359 49.187 221.779 48.067 223.499 47.2671C225.259 46.427 227.179 46.007 229.259 46.007ZM260.287 53.3871V69.4671C260.287 70.5871 260.547 71.4071 261.067 71.9271C261.627 72.4071 262.547 72.6471 263.827 72.6471H267.727V79.7271H262.447C255.367 79.7271 251.827 76.2871 251.827 69.4071V53.3871H247.867V46.487H251.827V38.267H260.287V46.487H267.727V53.3871H260.287ZM304.669 62.3871C304.669 63.5871 304.589 64.6671 304.429 65.627H280.129C280.329 68.0271 281.169 69.9071 282.649 71.2671C284.129 72.6271 285.949 73.3071 288.109 73.3071C291.229 73.3071 293.449 71.9671 294.769 69.2871H303.829C302.869 72.4871 301.029 75.1271 298.309 77.2071C295.589 79.2471 292.249 80.2671 288.289 80.2671C285.089 80.2671 282.209 79.5671 279.649 78.1671C277.129 76.7271 275.149 74.7071 273.709 72.1071C272.309 69.5071 271.609 66.5071 271.609 63.1071C271.609 59.6671 272.309 56.647 273.709 54.047C275.109 51.447 277.069 49.447 279.589 48.0471C282.109 46.647 285.009 45.947 288.289 45.947C291.449 45.947 294.269 46.627 296.749 47.987C299.269 49.347 301.209 51.287 302.569 53.8071C303.969 56.2871 304.669 59.1471 304.669 62.3871ZM295.969 59.987C295.929 57.827 295.149 56.107 293.629 54.827C292.109 53.507 290.249 52.847 288.049 52.847C285.969 52.847 284.209 53.4871 282.769 54.7671C281.369 56.007 280.509 57.747 280.189 59.987H295.969ZM319.2 35.3271V79.7271H310.8V35.3271H319.2ZM373.159 37.847V79.7271H364.759V52.487L353.539 79.7271H347.179L335.899 52.487V79.7271H327.499V37.847H337.039L350.359 68.9871L363.679 37.847H373.159ZM412.364 62.3871C412.364 63.5871 412.284 64.6671 412.124 65.627H387.824C388.024 68.0271 388.864 69.9071 390.344 71.2671C391.824 72.6271 393.644 73.3071 395.804 73.3071C398.924 73.3071 401.144 71.9671 402.464 69.2871H411.524C410.564 72.4871 408.724 75.1271 406.004 77.2071C403.284 79.2471 399.944 80.2671 395.984 80.2671C392.784 80.2671 389.904 79.5671 387.344 78.1671C384.824 76.7271 382.844 74.7071 381.404 72.1071C380.004 69.5071 379.304 66.5071 379.304 63.1071C379.304 59.6671 380.004 56.647 381.404 54.047C382.804 51.447 384.764 49.447 387.284 48.0471C389.804 46.647 392.704 45.947 395.984 45.947C399.144 45.947 401.964 46.627 404.444 47.987C406.964 49.347 408.904 51.287 410.264 53.8071C411.664 56.2871 412.364 59.1471 412.364 62.3871ZM403.664 59.987C403.624 57.827 402.844 56.107 401.324 54.827C399.804 53.507 397.944 52.847 395.744 52.847C393.664 52.847 391.904 53.4871 390.464 54.7671C389.064 56.007 388.204 57.747 387.884 59.987H403.664Z" fill="#098896" fill-opacity="0.7"/>
<ellipse rx="19.387" ry="18.8772" transform="matrix(0.967863 -0.251479 0.266341 0.963879 155.991 57.3204)" fill="#23B9C9" fill-opacity="0.7"/>
<ellipse rx="15.9657" ry="15.5459" transform="matrix(0.967863 -0.251479 0.266341 0.963879 112.649 67.4342)" fill="#23B9C9" fill-opacity="0.7"/>
<ellipse rx="15.9657" ry="15.5459" transform="matrix(0.967863 -0.251479 0.266341 0.963879 129.084 24.1617)" fill="#23B9C9" fill-opacity="0.7"/>
<path d="M201.16 114L195.78 107.78V114H193.5V100.1H195.78V106.44L201.18 100.1H204.04L198 107.06L204.14 114H201.16ZM216.056 108.22C216.056 108.633 216.03 109.007 215.976 109.34H207.556C207.623 110.22 207.95 110.927 208.536 111.46C209.123 111.993 209.843 112.26 210.696 112.26C211.923 112.26 212.79 111.747 213.296 110.72H215.756C215.423 111.733 214.816 112.567 213.936 113.22C213.07 113.86 211.99 114.18 210.696 114.18C209.643 114.18 208.696 113.947 207.856 113.48C207.03 113 206.376 112.333 205.896 111.48C205.43 110.613 205.196 109.613 205.196 108.48C205.196 107.347 205.423 106.353 205.876 105.5C206.343 104.633 206.99 103.967 207.816 103.5C208.656 103.033 209.616 102.8 210.696 102.8C211.736 102.8 212.663 103.027 213.476 103.48C214.29 103.933 214.923 104.573 215.376 105.4C215.83 106.213 216.056 107.153 216.056 108.22ZM213.676 107.5C213.663 106.66 213.363 105.987 212.776 105.48C212.19 104.973 211.463 104.72 210.596 104.72C209.81 104.72 209.136 104.973 208.576 105.48C208.016 105.973 207.683 106.647 207.576 107.5H213.676ZM228.2 108.22C228.2 108.633 228.173 109.007 228.12 109.34H219.7C219.767 110.22 220.093 110.927 220.68 111.46C221.267 111.993 221.987 112.26 222.84 112.26C224.067 112.26 224.933 111.747 225.44 110.72H227.9C227.567 111.733 226.96 112.567 226.08 113.22C225.213 113.86 224.133 114.18 222.84 114.18C221.787 114.18 220.84 113.947 220 113.48C219.173 113 218.52 112.333 218.04 111.48C217.573 110.613 217.34 109.613 217.34 108.48C217.34 107.347 217.567 106.353 218.02 105.5C218.487 104.633 219.133 103.967 219.96 103.5C220.8 103.033 221.76 102.8 222.84 102.8C223.88 102.8 224.807 103.027 225.62 103.48C226.433 103.933 227.067 104.573 227.52 105.4C227.973 106.213 228.2 107.153 228.2 108.22ZM225.82 107.5C225.807 106.66 225.507 105.987 224.92 105.48C224.333 104.973 223.607 104.72 222.74 104.72C221.953 104.72 221.28 104.973 220.72 105.48C220.16 105.973 219.827 106.647 219.72 107.5H225.82ZM232.524 104.6C232.91 104.093 233.437 103.667 234.104 103.32C234.77 102.973 235.524 102.8 236.364 102.8C237.324 102.8 238.197 103.04 238.984 103.52C239.784 103.987 240.41 104.647 240.864 105.5C241.317 106.353 241.544 107.333 241.544 108.44C241.544 109.547 241.317 110.54 240.864 111.42C240.41 112.287 239.784 112.967 238.984 113.46C238.197 113.94 237.324 114.18 236.364 114.18C235.524 114.18 234.777 114.013 234.124 113.68C233.47 113.333 232.937 112.907 232.524 112.4V119.24H230.244V102.98H232.524V104.6ZM239.224 108.44C239.224 107.68 239.064 107.027 238.744 106.48C238.437 105.92 238.024 105.5 237.504 105.22C236.997 104.927 236.45 104.78 235.864 104.78C235.29 104.78 234.744 104.927 234.224 105.22C233.717 105.513 233.304 105.94 232.984 106.5C232.677 107.06 232.524 107.72 232.524 108.48C232.524 109.24 232.677 109.907 232.984 110.48C233.304 111.04 233.717 111.467 234.224 111.76C234.744 112.053 235.29 112.2 235.864 112.2C236.45 112.2 236.997 112.053 237.504 111.76C238.024 111.453 238.437 111.013 238.744 110.44C239.064 109.867 239.224 109.2 239.224 108.44ZM258.514 102.98L251.754 119.18H249.394L251.634 113.82L247.294 102.98H249.834L252.934 111.38L256.154 102.98H258.514ZM264.814 114.18C263.774 114.18 262.834 113.947 261.994 113.48C261.154 113 260.494 112.333 260.014 111.48C259.534 110.613 259.294 109.613 259.294 108.48C259.294 107.36 259.541 106.367 260.034 105.5C260.528 104.633 261.201 103.967 262.054 103.5C262.908 103.033 263.861 102.8 264.914 102.8C265.968 102.8 266.921 103.033 267.774 103.5C268.628 103.967 269.301 104.633 269.794 105.5C270.288 106.367 270.534 107.36 270.534 108.48C270.534 109.6 270.281 110.593 269.774 111.46C269.268 112.327 268.574 113 267.694 113.48C266.828 113.947 265.868 114.18 264.814 114.18ZM264.814 112.2C265.401 112.2 265.948 112.06 266.454 111.78C266.974 111.5 267.394 111.08 267.714 110.52C268.034 109.96 268.194 109.28 268.194 108.48C268.194 107.68 268.041 107.007 267.734 106.46C267.428 105.9 267.021 105.48 266.514 105.2C266.008 104.92 265.461 104.78 264.874 104.78C264.288 104.78 263.741 104.92 263.234 105.2C262.741 105.48 262.348 105.9 262.054 106.46C261.761 107.007 261.614 107.68 261.614 108.48C261.614 109.667 261.914 110.587 262.514 111.24C263.128 111.88 263.894 112.2 264.814 112.2ZM282.568 102.98V114H280.288V112.7C279.928 113.153 279.455 113.513 278.868 113.78C278.295 114.033 277.682 114.16 277.028 114.16C276.162 114.16 275.382 113.98 274.688 113.62C274.008 113.26 273.468 112.727 273.068 112.02C272.682 111.313 272.488 110.46 272.488 109.46V102.98H274.748V109.12C274.748 110.107 274.995 110.867 275.488 111.4C275.982 111.92 276.655 112.18 277.508 112.18C278.362 112.18 279.035 111.92 279.528 111.4C280.035 110.867 280.288 110.107 280.288 109.12V102.98H282.568ZM287.657 104.58C287.99 104.02 288.43 103.587 288.977 103.28C289.537 102.96 290.197 102.8 290.957 102.8V105.16H290.377C289.483 105.16 288.803 105.387 288.337 105.84C287.883 106.293 287.657 107.08 287.657 108.2V114H285.377V102.98H287.657V104.58ZM300.128 104.6C300.514 104.093 301.041 103.667 301.708 103.32C302.374 102.973 303.128 102.8 303.968 102.8C304.928 102.8 305.801 103.04 306.588 103.52C307.388 103.987 308.014 104.647 308.468 105.5C308.921 106.353 309.148 107.333 309.148 108.44C309.148 109.547 308.921 110.54 308.468 111.42C308.014 112.287 307.388 112.967 306.588 113.46C305.801 113.94 304.928 114.18 303.968 114.18C303.128 114.18 302.381 114.013 301.728 113.68C301.074 113.333 300.541 112.907 300.128 112.4V119.24H297.848V102.98H300.128V104.6ZM306.828 108.44C306.828 107.68 306.668 107.027 306.348 106.48C306.041 105.92 305.628 105.5 305.108 105.22C304.601 104.927 304.054 104.78 303.468 104.78C302.894 104.78 302.348 104.927 301.828 105.22C301.321 105.513 300.908 105.94 300.588 106.5C300.281 107.06 300.128 107.72 300.128 108.48C300.128 109.24 300.281 109.907 300.588 110.48C300.908 111.04 301.321 111.467 301.828 111.76C302.348 112.053 302.894 112.2 303.468 112.2C304.054 112.2 304.601 112.053 305.108 111.76C305.628 111.453 306.041 111.013 306.348 110.44C306.668 109.867 306.828 109.2 306.828 108.44ZM313.482 104.58C313.816 104.02 314.256 103.587 314.802 103.28C315.362 102.96 316.022 102.8 316.782 102.8V105.16H316.202C315.309 105.16 314.629 105.387 314.162 105.84C313.709 106.293 313.482 107.08 313.482 108.2V114H311.202V102.98H313.482V104.58ZM323.458 114.18C322.418 114.18 321.478 113.947 320.638 113.48C319.798 113 319.138 112.333 318.658 111.48C318.178 110.613 317.938 109.613 317.938 108.48C317.938 107.36 318.185 106.367 318.678 105.5C319.171 104.633 319.845 103.967 320.698 103.5C321.551 103.033 322.505 102.8 323.558 102.8C324.611 102.8 325.565 103.033 326.418 103.5C327.271 103.967 327.945 104.633 328.438 105.5C328.931 106.367 329.178 107.36 329.178 108.48C329.178 109.6 328.925 110.593 328.418 111.46C327.911 112.327 327.218 113 326.338 113.48C325.471 113.947 324.511 114.18 323.458 114.18ZM323.458 112.2C324.045 112.2 324.591 112.06 325.098 111.78C325.618 111.5 326.038 111.08 326.358 110.52C326.678 109.96 326.838 109.28 326.838 108.48C326.838 107.68 326.685 107.007 326.378 106.46C326.071 105.9 325.665 105.48 325.158 105.2C324.651 104.92 324.105 104.78 323.518 104.78C322.931 104.78 322.385 104.92 321.878 105.2C321.385 105.48 320.991 105.9 320.698 106.46C320.405 107.007 320.258 107.68 320.258 108.48C320.258 109.667 320.558 110.587 321.158 111.24C321.771 111.88 322.538 112.2 323.458 112.2ZM332.392 101.52C331.979 101.52 331.632 101.38 331.352 101.1C331.072 100.82 330.932 100.473 330.932 100.06C330.932 99.6467 331.072 99.3 331.352 99.02C331.632 98.74 331.979 98.6 332.392 98.6C332.792 98.6 333.132 98.74 333.412 99.02C333.692 99.3 333.832 99.6467 333.832 100.06C333.832 100.473 333.692 100.82 333.412 101.1C333.132 101.38 332.792 101.52 332.392 101.52ZM333.512 116.16C333.512 117.24 333.239 118.02 332.692 118.5C332.159 118.993 331.379 119.24 330.352 119.24H329.172V117.32H329.952C330.419 117.32 330.745 117.227 330.932 117.04C331.132 116.867 331.232 116.573 331.232 116.16V102.98H333.512V116.16ZM346.405 108.22C346.405 108.633 346.379 109.007 346.325 109.34H337.905C337.972 110.22 338.299 110.927 338.885 111.46C339.472 111.993 340.192 112.26 341.045 112.26C342.272 112.26 343.139 111.747 343.645 110.72H346.105C345.772 111.733 345.165 112.567 344.285 113.22C343.419 113.86 342.339 114.18 341.045 114.18C339.992 114.18 339.045 113.947 338.205 113.48C337.379 113 336.725 112.333 336.245 111.48C335.779 110.613 335.545 109.613 335.545 108.48C335.545 107.347 335.772 106.353 336.225 105.5C336.692 104.633 337.339 103.967 338.165 103.5C339.005 103.033 339.965 102.8 341.045 102.8C342.085 102.8 343.012 103.027 343.825 103.48C344.639 103.933 345.272 104.573 345.725 105.4C346.179 106.213 346.405 107.153 346.405 108.22ZM344.025 107.5C344.012 106.66 343.712 105.987 343.125 105.48C342.539 104.973 341.812 104.72 340.945 104.72C340.159 104.72 339.485 104.973 338.925 105.48C338.365 105.973 338.032 106.647 337.925 107.5H344.025ZM347.689 108.48C347.689 107.347 347.916 106.353 348.369 105.5C348.836 104.633 349.476 103.967 350.289 103.5C351.103 103.033 352.036 102.8 353.089 102.8C354.423 102.8 355.523 103.12 356.389 103.76C357.269 104.387 357.863 105.287 358.169 106.46H355.709C355.509 105.913 355.189 105.487 354.749 105.18C354.309 104.873 353.756 104.72 353.089 104.72C352.156 104.72 351.409 105.053 350.849 105.72C350.303 106.373 350.029 107.293 350.029 108.48C350.029 109.667 350.303 110.593 350.849 111.26C351.409 111.927 352.156 112.26 353.089 112.26C354.409 112.26 355.283 111.68 355.709 110.52H358.169C357.849 111.64 357.249 112.533 356.369 113.2C355.489 113.853 354.396 114.18 353.089 114.18C352.036 114.18 351.103 113.947 350.289 113.48C349.476 113 348.836 112.333 348.369 111.48C347.916 110.613 347.689 109.613 347.689 108.48ZM362.901 104.84V110.94C362.901 111.353 362.995 111.653 363.181 111.84C363.381 112.013 363.715 112.1 364.181 112.1H365.581V114H363.781C362.755 114 361.968 113.76 361.421 113.28C360.875 112.8 360.601 112.02 360.601 110.94V104.84H359.301V102.98H360.601V100.24H362.901V102.98H365.581V104.84H362.901ZM371.483 114.18C370.616 114.18 369.836 114.027 369.143 113.72C368.463 113.4 367.923 112.973 367.523 112.44C367.123 111.893 366.909 111.287 366.883 110.62H369.243C369.283 111.087 369.503 111.48 369.903 111.8C370.316 112.107 370.829 112.26 371.443 112.26C372.083 112.26 372.576 112.14 372.923 111.9C373.283 111.647 373.463 111.327 373.463 110.94C373.463 110.527 373.263 110.22 372.863 110.02C372.476 109.82 371.856 109.6 371.003 109.36C370.176 109.133 369.503 108.913 368.983 108.7C368.463 108.487 368.009 108.16 367.623 107.72C367.249 107.28 367.063 106.7 367.063 105.98C367.063 105.393 367.236 104.86 367.583 104.38C367.929 103.887 368.423 103.5 369.063 103.22C369.716 102.94 370.463 102.8 371.303 102.8C372.556 102.8 373.563 103.12 374.323 103.76C375.096 104.387 375.509 105.247 375.563 106.34H373.283C373.243 105.847 373.043 105.453 372.683 105.16C372.323 104.867 371.836 104.72 371.223 104.72C370.623 104.72 370.163 104.833 369.843 105.06C369.523 105.287 369.363 105.587 369.363 105.96C369.363 106.253 369.469 106.5 369.683 106.7C369.896 106.9 370.156 107.06 370.463 107.18C370.769 107.287 371.223 107.427 371.823 107.6C372.623 107.813 373.276 108.033 373.783 108.26C374.303 108.473 374.749 108.793 375.123 109.22C375.496 109.647 375.689 110.213 375.703 110.92C375.703 111.547 375.529 112.107 375.183 112.6C374.836 113.093 374.343 113.48 373.703 113.76C373.076 114.04 372.336 114.18 371.483 114.18ZM387.742 114.18C386.702 114.18 385.762 113.947 384.922 113.48C384.082 113 383.422 112.333 382.942 111.48C382.462 110.613 382.222 109.613 382.222 108.48C382.222 107.36 382.468 106.367 382.962 105.5C383.455 104.633 384.128 103.967 384.982 103.5C385.835 103.033 386.788 102.8 387.842 102.8C388.895 102.8 389.848 103.033 390.702 103.5C391.555 103.967 392.228 104.633 392.722 105.5C393.215 106.367 393.462 107.36 393.462 108.48C393.462 109.6 393.208 110.593 392.702 111.46C392.195 112.327 391.502 113 390.622 113.48C389.755 113.947 388.795 114.18 387.742 114.18ZM387.742 112.2C388.328 112.2 388.875 112.06 389.382 111.78C389.902 111.5 390.322 111.08 390.642 110.52C390.962 109.96 391.122 109.28 391.122 108.48C391.122 107.68 390.968 107.007 390.662 106.46C390.355 105.9 389.948 105.48 389.442 105.2C388.935 104.92 388.388 104.78 387.802 104.78C387.215 104.78 386.668 104.92 386.162 105.2C385.668 105.48 385.275 105.9 384.982 106.46C384.688 107.007 384.542 107.68 384.542 108.48C384.542 109.667 384.842 110.587 385.442 111.24C386.055 111.88 386.822 112.2 387.742 112.2ZM397.796 104.58C398.129 104.02 398.569 103.587 399.116 103.28C399.676 102.96 400.336 102.8 401.096 102.8V105.16H400.516C399.622 105.16 398.942 105.387 398.476 105.84C398.022 106.293 397.796 107.08 397.796 108.2V114H395.516V102.98H397.796V104.58ZM407.431 102.8C408.285 102.8 409.038 102.973 409.691 103.32C410.358 103.653 410.878 104.073 411.251 104.58V102.98H413.551V114.18C413.551 115.193 413.338 116.093 412.911 116.88C412.485 117.68 411.865 118.307 411.051 118.76C410.251 119.213 409.291 119.44 408.171 119.44C406.678 119.44 405.438 119.087 404.451 118.38C403.465 117.687 402.905 116.74 402.771 115.54H405.031C405.205 116.113 405.571 116.573 406.131 116.92C406.705 117.28 407.385 117.46 408.171 117.46C409.091 117.46 409.831 117.18 410.391 116.62C410.965 116.06 411.251 115.247 411.251 114.18V112.34C410.865 112.86 410.338 113.3 409.671 113.66C409.018 114.007 408.271 114.18 407.431 114.18C406.471 114.18 405.591 113.94 404.791 113.46C404.005 112.967 403.378 112.287 402.911 111.42C402.458 110.54 402.231 109.547 402.231 108.44C402.231 107.333 402.458 106.353 402.911 105.5C403.378 104.647 404.005 103.987 404.791 103.52C405.591 103.04 406.471 102.8 407.431 102.8ZM411.251 108.48C411.251 107.72 411.091 107.06 410.771 106.5C410.465 105.94 410.058 105.513 409.551 105.22C409.045 104.927 408.498 104.78 407.911 104.78C407.325 104.78 406.778 104.927 406.271 105.22C405.765 105.5 405.351 105.92 405.031 106.48C404.725 107.027 404.571 107.68 404.571 108.44C404.571 109.2 404.725 109.867 405.031 110.44C405.351 111.013 405.765 111.453 406.271 111.76C406.791 112.053 407.338 112.2 407.911 112.2C408.498 112.2 409.045 112.053 409.551 111.76C410.058 111.467 410.465 111.04 410.771 110.48C411.091 109.907 411.251 109.24 411.251 108.48ZM415.586 108.44C415.586 107.333 415.813 106.353 416.266 105.5C416.733 104.647 417.359 103.987 418.146 103.52C418.946 103.04 419.826 102.8 420.786 102.8C421.653 102.8 422.406 102.973 423.046 103.32C423.699 103.653 424.219 104.073 424.606 104.58V102.98H426.906V114H424.606V112.36C424.219 112.88 423.693 113.313 423.026 113.66C422.359 114.007 421.599 114.18 420.746 114.18C419.799 114.18 418.933 113.94 418.146 113.46C417.359 112.967 416.733 112.287 416.266 111.42C415.813 110.54 415.586 109.547 415.586 108.44ZM424.606 108.48C424.606 107.72 424.446 107.06 424.126 106.5C423.819 105.94 423.413 105.513 422.906 105.22C422.399 104.927 421.853 104.78 421.266 104.78C420.679 104.78 420.133 104.927 419.626 105.22C419.119 105.5 418.706 105.92 418.386 106.48C418.079 107.027 417.926 107.68 417.926 108.44C417.926 109.2 418.079 109.867 418.386 110.44C418.706 111.013 419.119 111.453 419.626 111.76C420.146 112.053 420.693 112.2 421.266 112.2C421.853 112.2 422.399 112.053 422.906 111.76C423.413 111.467 423.819 111.04 424.126 110.48C424.446 109.907 424.606 109.24 424.606 108.48ZM435.261 102.8C436.127 102.8 436.901 102.98 437.581 103.34C438.274 103.7 438.814 104.233 439.201 104.94C439.587 105.647 439.781 106.5 439.781 107.5V114H437.521V107.84C437.521 106.853 437.274 106.1 436.781 105.58C436.287 105.047 435.614 104.78 434.761 104.78C433.907 104.78 433.227 105.047 432.721 105.58C432.227 106.1 431.981 106.853 431.981 107.84V114H429.701V102.98H431.981V104.24C432.354 103.787 432.827 103.433 433.401 103.18C433.987 102.927 434.607 102.8 435.261 102.8ZM443.649 101.52C443.236 101.52 442.889 101.38 442.609 101.1C442.329 100.82 442.189 100.473 442.189 100.06C442.189 99.6467 442.329 99.3 442.609 99.02C442.889 98.74 443.236 98.6 443.649 98.6C444.049 98.6 444.389 98.74 444.669 99.02C444.949 99.3 445.089 99.6467 445.089 100.06C445.089 100.473 444.949 100.82 444.669 101.1C444.389 101.38 444.049 101.52 443.649 101.52ZM444.769 102.98V114H442.489V102.98H444.769ZM451.563 114.18C450.696 114.18 449.916 114.027 449.223 113.72C448.543 113.4 448.003 112.973 447.603 112.44C447.203 111.893 446.989 111.287 446.963 110.62H449.323C449.363 111.087 449.583 111.48 449.983 111.8C450.396 112.107 450.909 112.26 451.523 112.26C452.163 112.26 452.656 112.14 453.003 111.9C453.363 111.647 453.543 111.327 453.543 110.94C453.543 110.527 453.343 110.22 452.943 110.02C452.556 109.82 451.936 109.6 451.083 109.36C450.256 109.133 449.583 108.913 449.063 108.7C448.543 108.487 448.089 108.16 447.703 107.72C447.329 107.28 447.143 106.7 447.143 105.98C447.143 105.393 447.316 104.86 447.663 104.38C448.009 103.887 448.503 103.5 449.143 103.22C449.796 102.94 450.543 102.8 451.383 102.8C452.636 102.8 453.643 103.12 454.403 103.76C455.176 104.387 455.589 105.247 455.643 106.34H453.363C453.323 105.847 453.123 105.453 452.763 105.16C452.403 104.867 451.916 104.72 451.303 104.72C450.703 104.72 450.243 104.833 449.923 105.06C449.603 105.287 449.443 105.587 449.443 105.96C449.443 106.253 449.549 106.5 449.763 106.7C449.976 106.9 450.236 107.06 450.543 107.18C450.849 107.287 451.303 107.427 451.903 107.6C452.703 107.813 453.356 108.033 453.863 108.26C454.383 108.473 454.829 108.793 455.203 109.22C455.576 109.647 455.769 110.213 455.783 110.92C455.783 111.547 455.609 112.107 455.263 112.6C454.916 113.093 454.423 113.48 453.783 113.76C453.156 114.04 452.416 114.18 451.563 114.18ZM468.146 108.22C468.146 108.633 468.119 109.007 468.066 109.34H459.646C459.713 110.22 460.039 110.927 460.626 111.46C461.213 111.993 461.933 112.26 462.786 112.26C464.013 112.26 464.879 111.747 465.386 110.72H467.846C467.513 111.733 466.906 112.567 466.026 113.22C465.159 113.86 464.079 114.18 462.786 114.18C461.733 114.18 460.786 113.947 459.946 113.48C459.119 113 458.466 112.333 457.986 111.48C457.519 110.613 457.286 109.613 457.286 108.48C457.286 107.347 457.513 106.353 457.966 105.5C458.433 104.633 459.079 103.967 459.906 103.5C460.746 103.033 461.706 102.8 462.786 102.8C463.826 102.8 464.753 103.027 465.566 103.48C466.379 103.933 467.013 104.573 467.466 105.4C467.919 106.213 468.146 107.153 468.146 108.22ZM465.766 107.5C465.753 106.66 465.453 105.987 464.866 105.48C464.279 104.973 463.553 104.72 462.686 104.72C461.899 104.72 461.226 104.973 460.666 105.48C460.106 105.973 459.773 106.647 459.666 107.5H465.766ZM469.43 108.44C469.43 107.333 469.657 106.353 470.11 105.5C470.577 104.647 471.203 103.987 471.99 103.52C472.79 103.04 473.677 102.8 474.65 102.8C475.37 102.8 476.077 102.96 476.77 103.28C477.477 103.587 478.037 104 478.45 104.52V99.2H480.75V114H478.45V112.34C478.077 112.873 477.557 113.313 476.89 113.66C476.237 114.007 475.483 114.18 474.63 114.18C473.67 114.18 472.79 113.94 471.99 113.46C471.203 112.967 470.577 112.287 470.11 111.42C469.657 110.54 469.43 109.547 469.43 108.44ZM478.45 108.48C478.45 107.72 478.29 107.06 477.97 106.5C477.663 105.94 477.257 105.513 476.75 105.22C476.243 104.927 475.697 104.78 475.11 104.78C474.523 104.78 473.977 104.927 473.47 105.22C472.963 105.5 472.55 105.92 472.23 106.48C471.923 107.027 471.77 107.68 471.77 108.44C471.77 109.2 471.923 109.867 472.23 110.44C472.55 111.013 472.963 111.453 473.47 111.76C473.99 112.053 474.537 112.2 475.11 112.2C475.697 112.2 476.243 112.053 476.75 111.76C477.257 111.467 477.663 111.04 477.97 110.48C478.29 109.907 478.45 109.24 478.45 108.48Z" fill="#3B7E85"/>
<path d="M283 588C404.224 588 502.495 582.27 502.495 575.202C502.495 568.134 404.224 562.404 283 562.404C161.776 562.404 63.5051 568.134 63.5051 575.202C63.5051 582.27 161.776 588 283 588Z" fill="#F5F5F5"/>
<path d="M335.751 542.47L350.128 534.089L358.844 551.644L346.845 558.666L335.751 542.47Z" fill="#FFC3BD"/>
<path opacity="0.2" d="M335.751 542.47L350.128 534.089L354.995 543.942L341.977 551.531L335.751 542.47Z" fill="black"/>
<path d="M340.845 485.841C351.033 462.283 367.787 434.875 360.882 409.618L315.149 402.37C315.149 402.37 305.753 458.885 307.564 481.99C309.489 506.114 337.902 548.812 337.902 548.812L354.316 539.186C354.429 539.299 347.298 502.716 340.845 485.841Z" fill="#089BAB"/>
<g opacity="0.4">
<path opacity="0.4" d="M340.845 485.841C351.033 462.283 367.787 434.875 360.882 409.618L315.149 402.37C315.149 402.37 305.753 458.885 307.564 481.99C309.489 506.114 337.902 548.812 337.902 548.812L354.316 539.186C354.429 539.299 347.298 502.716 340.845 485.841Z" fill="black"/>
</g>
<path d="M356.014 539.073L337.336 550.059L331.45 542.357L353.411 530.691L356.014 539.073Z" fill="#089BAB"/>
<path opacity="0.2" d="M344.241 478.366C349.788 466.474 356.127 453.789 359.637 440.991C348.882 442.803 339.713 451.637 344.241 478.366Z" fill="black"/>
<path d="M358.391 547.567C358.165 547.227 357.486 547.227 357.259 547.68C354.882 551.757 348.09 555.608 345.487 556.967C344.807 557.307 344.468 557.873 344.241 558.553C342.996 562.517 337.902 568.406 337.902 568.406C337.902 568.406 338.128 569.766 338.808 571.011C339.374 572.144 340.732 572.484 341.751 571.691L362.58 554.702C363.372 554.136 363.372 553.003 362.693 552.324C361.561 551.078 359.75 549.266 358.391 547.567Z" fill="#263238"/>
<path d="M362.693 550.398L379.22 550.625L377.748 570.105L363.938 569.992L362.693 550.398Z" fill="#FFC3BD"/>
<path d="M379.22 567.16C379.22 566.707 378.88 566.368 378.428 566.481C373.9 568.18 366.315 566.821 363.485 566.254C362.806 566.141 362.127 566.254 361.448 566.594C357.825 568.859 351.26 570.218 351.26 570.218C351.26 570.218 350.58 571.351 350.128 572.71C349.675 573.956 350.694 575.202 351.939 575.202H377.522C378.428 575.202 379.22 574.409 379.107 573.503C378.994 572.031 378.994 569.426 379.22 567.16Z" fill="#263238"/>
<path opacity="0.2" d="M362.693 550.398L379.22 550.625L378.428 561.498L363.372 561.384L362.693 550.398Z" fill="black"/>
<path d="M389.748 484.482C394.955 459.905 404.237 427.853 397.672 415.168L344.241 406.9C344.241 406.9 350.92 457.866 352.618 481.537C354.429 506.227 361.674 557.193 361.674 557.193H379.56C379.56 557.193 392.012 513.816 389.748 484.482Z" fill="#089BAB"/>
<path opacity="0.4" d="M389.748 484.482C394.955 459.905 404.237 427.853 397.672 415.168L344.241 406.9C344.241 406.9 350.92 457.866 352.618 481.537C354.429 506.227 361.674 557.193 361.674 557.193H379.56C379.56 557.193 392.012 513.816 389.748 484.482Z" fill="black"/>
<path d="M381.484 557.873H359.863L359.636 548.926L383.295 549.266L381.484 557.873Z" fill="#089BAB"/>
<path d="M358.278 329.205L356.92 330.338L355.674 331.357C354.882 332.037 353.976 332.603 353.071 333.283C351.373 334.528 349.562 335.661 347.864 336.794C344.354 339.059 340.619 341.211 336.883 343.136C333.034 345.061 329.072 346.874 324.771 348.233C320.469 349.705 315.941 350.838 310.847 351.291L309.942 351.404C307.564 351.63 305.187 350.951 303.376 349.478C299.64 346.647 297.376 343.023 295.792 339.852C294.999 338.266 294.433 336.567 293.98 334.981C293.528 333.396 293.188 331.81 292.848 330.338C292.622 328.752 292.396 327.28 292.282 325.807C292.169 324.335 292.169 322.863 292.169 321.39C292.169 319.918 292.282 318.446 292.396 317.087L292.622 314.935L292.962 312.67C293.528 309.498 296.584 307.346 299.754 307.799C301.791 308.139 303.376 309.498 304.168 311.31L304.621 312.443C304.848 312.896 304.961 313.462 305.187 314.029L305.753 315.728C306.093 316.86 306.546 317.993 306.998 319.012C307.791 321.164 308.696 323.316 309.715 325.128C310.621 327.053 311.753 328.639 312.772 329.885C313.79 331.131 314.809 331.697 315.262 331.81L307.791 329.998C310.508 329.432 313.451 328.299 316.507 326.94C317.979 326.261 319.564 325.581 321.035 324.788C322.507 323.995 324.092 323.203 325.563 322.296C328.62 320.484 331.676 318.672 334.619 316.634C336.091 315.614 337.562 314.595 339.034 313.576L341.185 311.99L343.222 310.518L343.675 310.178C348.996 306.44 356.354 307.686 360.089 312.896C364.164 318.219 363.146 325.241 358.278 329.205Z" fill="#FFC3BD"/>
<path d="M304.282 312.103L298.395 315.954C291.264 317.539 290.811 307.912 290.811 307.912L288.773 303.382C288.094 301.797 288.773 299.984 290.358 298.852L294.433 296.134C296.244 294.888 298.735 295.228 299.754 296.813L302.131 300.437C302.81 301.457 303.263 302.703 303.376 303.948L304.282 312.103Z" fill="#FFC3BD"/>
<path d="M357.938 305.421C346.732 304.741 323.752 319.238 323.752 319.238C321.148 327.733 325.676 343.702 332.468 347.666C332.468 347.666 349.562 340.304 357.712 333.169C367.334 324.448 380.578 306.666 357.938 305.421Z" fill="#263238"/>
<path d="M358.957 305.421C372.655 306.1 390.653 309.045 404.351 313.236C412.841 315.84 418.274 322.183 414.425 339.964C406.615 375.981 407.294 405.314 400.615 417.66C400.615 417.66 322.847 422.416 312.432 404.522C314.583 360.124 335.865 326.26 345.26 312.216C348.43 307.686 353.524 305.081 358.957 305.421Z" fill="#263238"/>
<path d="M363.372 310.291C365.41 308.819 366.994 310.178 368.24 307.686C368.919 305.874 368.919 303.949 368.24 301.57L390.653 293.642C389.068 301.23 387.823 307.233 390.766 310.744C390.88 316.634 377.409 321.957 365.976 319.805C355.901 317.879 360.429 312.33 363.372 310.291Z" fill="#FFC3BD"/>
<path opacity="0.2" d="M368.466 302.363L385.446 300.777C380.352 306.667 372.315 309.045 368.579 306.893C368.806 305.421 368.806 303.949 368.466 302.363Z" fill="black"/>
<path d="M366.768 281.07C365.863 272.349 374.353 261.363 381.484 265.101C388.503 268.952 366.768 281.07 366.768 281.07Z" fill="#263238"/>
<path d="M396.653 286.054C392.125 296.02 388.842 302.589 381.371 304.628C366.429 308.705 361.448 300.437 362.919 289.338C364.165 279.371 371.296 264.761 382.843 264.648C394.163 264.535 401.181 276.087 396.653 286.054Z" fill="#FFC3BD"/>
<path d="M394.049 293.982C388.955 293.189 385.22 284.015 390.54 279.145C395.86 274.275 394.049 269.631 390.2 268.272C386.352 266.913 379.22 267.932 377.635 264.421C376.05 260.91 386.804 258.419 393.03 262.383C399.256 266.347 398.917 263.968 398.917 263.968C398.917 263.968 400.275 266.007 397.785 266.46C402.766 269.745 408.199 277.673 403.105 280.844C409.444 284.468 399.596 292.963 394.049 293.982Z" fill="#263238"/>
<path d="M401.521 280.278C404.917 281.41 406.388 278.805 406.388 278.805C406.388 278.805 407.407 282.996 401.521 280.278Z" fill="#263238"/>
<path d="M376.39 290.81C376.843 290.584 377.296 290.357 377.749 290.017C377.862 289.904 377.862 289.791 377.862 289.678C377.749 289.564 377.635 289.564 377.409 289.564C374.013 291.83 370.617 290.584 370.617 290.471C370.504 290.357 370.277 290.471 370.277 290.584C370.277 290.697 370.277 290.924 370.391 290.924C370.617 291.037 373.221 292.169 376.39 290.81Z" fill="#263238"/>
<path opacity="0.2" d="M382.39 282.996C382.39 282.996 384.654 282.543 386.125 283.675C383.974 283.675 382.39 282.996 382.39 282.996Z" fill="black"/>
<path opacity="0.2" d="M382.276 283.902C382.276 283.902 384.314 283.902 385.333 285.374C383.522 284.921 382.276 283.902 382.276 283.902Z" fill="black"/>
<path d="M396.087 296.7C393.936 298.625 391.106 299.418 388.616 299.305C384.993 299.078 385.446 296.247 387.484 293.416C389.295 290.924 392.238 287.3 395.408 288.885C398.464 290.584 398.464 294.548 396.087 296.7Z" fill="#FFC3BD"/>
<path d="M380.352 282.656C380.012 283.449 379.333 284.015 378.767 283.788C378.201 283.562 378.088 282.769 378.314 281.863C378.654 281.07 379.333 280.504 379.899 280.731C380.465 280.957 380.578 281.863 380.352 282.656Z" fill="#263238"/>
<path d="M370.73 278.919C370.391 279.711 369.711 280.278 369.145 280.051C368.579 279.825 368.466 279.032 368.693 278.126C369.032 277.333 369.711 276.767 370.277 276.993C370.843 277.22 371.07 278.126 370.73 278.919Z" fill="#263238"/>
<path d="M373.786 280.277L371.409 287.526C371.409 287.526 368.919 288.432 366.655 285.94C368.919 282.203 373.786 280.277 373.786 280.277Z" fill="#ED847E"/>
<path d="M384.654 277.786C384.767 277.786 384.88 277.786 384.88 277.786C385.106 277.786 385.333 277.446 385.333 277.219C384.767 274.388 382.616 273.482 382.503 273.369C382.277 273.255 381.937 273.369 381.824 273.708C381.71 273.935 381.824 274.275 382.163 274.388C382.277 274.388 383.975 275.181 384.427 277.446C384.427 277.672 384.54 277.786 384.654 277.786Z" fill="#263238"/>
<path d="M367.108 275.068C367.221 275.068 367.447 275.068 367.561 274.954C369.259 273.482 371.07 273.935 371.183 273.935C371.409 274.048 371.749 273.822 371.862 273.595C371.975 273.369 371.749 273.029 371.523 272.916C371.409 272.916 369.145 272.236 366.995 274.162C366.768 274.388 366.768 274.728 366.995 274.841C366.995 274.954 367.108 275.068 367.108 275.068Z" fill="#263238"/>
<path d="M247.229 340.418L242.361 353.782C241.456 356.274 239.531 357.859 237.041 358.312L171.724 368.166C167.536 368.845 165.046 373.149 166.178 377.793L189.044 472.024C190.176 476.667 194.478 480.065 198.779 479.385L354.203 455.828C358.391 455.148 360.882 450.844 359.75 446.201L332.242 332.716C331.11 328.072 326.808 324.675 322.507 325.354L252.662 335.887C250.172 336.34 248.134 338.039 247.229 340.418Z" fill="#089BAB"/>
<path opacity="0.3" d="M247.229 340.418L242.361 353.782C241.456 356.274 239.531 357.859 237.041 358.312L171.724 368.166C167.536 368.845 165.046 373.149 166.178 377.793L189.044 472.024C190.176 476.667 194.478 480.065 198.779 479.385L354.203 455.828C358.391 455.148 360.882 450.844 359.75 446.201L332.242 332.716C331.11 328.072 326.808 324.675 322.507 325.354L252.662 335.887C250.172 336.34 248.134 338.039 247.229 340.418Z" fill="black"/>
<path d="M213.835 202.809C215.42 202.809 216.891 202.922 218.363 203.035C228.325 189.218 244.625 180.157 263.077 180.157C286.396 180.157 306.319 194.654 314.357 215.267C332.242 218.325 345.826 233.842 345.826 252.642C345.826 273.595 328.846 290.584 307.904 290.584H213.722C189.497 290.584 169.913 270.99 169.913 246.753C169.913 222.403 189.61 202.809 213.835 202.809Z" fill="#089BAB"/>
<path d="M217.797 275.067V384.362H297.943V298.852L274.17 275.067H217.797Z" fill="#089BAB"/>
<path opacity="0.6" d="M217.797 275.067V384.362H297.943V298.852L274.17 275.067H217.797Z" fill="white"/>
<path opacity="0.4" d="M274.17 298.852V275.067L297.942 298.852H274.17Z" fill="#089BAB"/>
<path d="M220.505 479.077L214.797 479.939L214.966 481.059L220.674 480.197L220.505 479.077Z" fill="#089BAB"/>
<path d="M246.577 475.081L226.765 478.076L226.934 479.196L246.746 476.201L246.577 475.081Z" fill="#089BAB"/>
<path d="M275.869 351.177L268.511 363.522C267.152 365.787 264.888 367.26 262.511 367.713L197.195 377.566C193.006 378.246 189.723 382.21 189.95 386.514L193.799 472.363C194.025 476.667 197.534 479.612 201.723 478.932L357.146 455.375C361.335 454.695 364.617 450.731 364.391 446.427L359.863 342.909C359.637 338.605 356.127 335.661 351.939 336.34L282.095 346.873C279.491 347.439 277.227 348.912 275.869 351.177Z" fill="#089BAB"/>
<path d="M278.133 259.212C277.793 259.212 277.453 259.098 277.114 258.759C276.548 258.192 276.548 257.286 277.114 256.72C287.755 246.074 287.755 228.858 277.114 218.212C272.02 213.116 265.115 210.284 257.87 210.284C250.625 210.284 243.72 213.116 238.626 218.212C233.532 223.309 230.702 230.218 230.702 237.466C230.702 244.715 233.532 251.623 238.626 256.72C239.192 257.286 239.192 258.192 238.626 258.759C238.06 259.325 237.154 259.325 236.588 258.759C230.928 253.096 227.759 245.507 227.759 237.579C227.759 229.651 230.928 222.063 236.588 216.4C242.248 210.737 249.833 207.566 257.757 207.566C265.794 207.566 273.265 210.737 278.925 216.4C290.585 228.066 290.585 247.206 278.925 258.872C278.812 259.098 278.472 259.212 278.133 259.212Z" fill="white"/>
<path d="M269.982 267.706V236.333C269.982 233.502 267.718 231.237 264.888 231.237H251.078C248.248 231.237 245.984 233.502 245.984 236.333V267.706H240.776L257.983 282.543L275.189 267.706H269.982Z" fill="white"/>
<path d="M409.558 345.515L408.878 347.1L408.199 348.572C407.746 349.479 407.294 350.385 406.841 351.291C405.935 353.103 404.916 354.915 403.898 356.614C401.86 360.125 399.709 363.636 397.219 366.92C395.974 368.619 394.728 370.318 393.37 371.904C392.012 373.489 390.653 375.188 389.068 376.774C386.125 379.945 382.729 383.003 378.767 385.721L377.975 386.287C377.635 386.514 377.182 386.74 376.73 386.967C371.975 388.779 368.126 389.119 364.391 389.345C360.655 389.572 357.146 389.232 353.637 388.892C350.241 388.439 346.845 387.986 343.562 387.194C340.279 386.401 337.11 385.608 333.827 384.475C330.77 383.343 329.072 379.945 330.204 376.887C330.997 374.622 333.034 373.149 335.298 372.923H335.525L344.694 372.13C347.75 371.904 350.807 371.564 353.637 371.224C355.108 370.998 356.58 370.884 357.938 370.545C359.297 370.318 360.655 369.978 362.014 369.752C364.504 369.185 366.994 368.279 368.126 367.6L366.089 368.846C368.126 367.034 370.164 364.655 372.202 362.163C373.22 360.918 374.126 359.559 375.145 358.199C376.164 356.84 377.069 355.481 377.975 354.009C379.786 351.064 381.597 348.119 383.295 345.061C384.201 343.589 384.993 342.003 385.786 340.418L388.05 336.001L388.276 335.435C391.219 329.658 398.351 327.393 404.124 330.338C409.784 333.169 412.048 339.852 409.558 345.515Z" fill="#FFC3BD"/>
<path d="M413.18 325.468C418.614 345.061 404.803 364.542 404.803 364.542C397.445 366.694 378.201 359.105 374.126 351.97C374.126 351.97 380.805 333.509 388.842 323.655C396.2 314.482 410.01 314.029 413.18 325.468Z" fill="#263238"/>
<path d="M337.676 373.263L338.808 380.171C337.336 387.307 328.393 383.796 328.393 383.796H323.413C321.715 383.796 320.243 382.436 319.903 380.511L319.111 375.641C318.771 373.489 320.017 371.337 321.941 370.997L326.243 370.318C327.488 370.091 328.733 370.205 329.978 370.658L337.676 373.263Z" fill="#FFC3BD"/>
</svg>
