<svg width="16" height="16" viewBox="0 0 16 16" fill="none" xmlns="http://www.w3.org/2000/svg">
    <path d="M8.00004 10.6666C9.4728 10.6666 10.6667 9.47268 10.6667 7.99992C10.6667 6.52716 9.4728 5.33325 8.00004 5.33325C6.52728 5.33325 5.33337 6.52716 5.33337 7.99992C5.33337 9.47268 6.52728 10.6666 8.00004 10.6666Z" stroke="#A5A5A5" stroke-linecap="round" stroke-linejoin="round"/>
    <path d="M10.6667 5.33333V8.66666C10.6667 9.19709 10.8774 9.7058 11.2525 10.0809C11.6276 10.4559 12.1363 10.6667 12.6667 10.6667C13.1971 10.6667 13.7059 10.4559 14.0809 10.0809C14.456 9.7058 14.6667 9.19709 14.6667 8.66666V7.99999C14.6666 6.49535 14.1575 5.03498 13.2222 3.85635C12.2869 2.67772 10.9804 1.85014 9.51514 1.50819C8.04986 1.16624 6.512 1.33002 5.15161 1.9729C3.79122 2.61579 2.68831 3.69996 2.02222 5.04914C1.35613 6.39832 1.16602 7.93315 1.48283 9.40407C1.79963 10.875 2.6047 12.1955 3.76713 13.1508C4.92957 14.1062 6.381 14.6402 7.88543 14.6661C9.38985 14.692 10.8588 14.2082 12.0534 13.2933" stroke="#A5A5A5" stroke-linecap="round" stroke-linejoin="round"/>
</svg>
