<svg width="525" height="407" viewBox="0 0 525 407" fill="none" xmlns="http://www.w3.org/2000/svg">
<path d="M444.191 88.132H369.493V148.928H444.191V88.132Z" fill="#C6E9EF"/>
<path d="M394.259 117.629C392.102 134.799 389.945 151.93 387.828 169.1C387.748 169.7 388.707 169.7 388.747 169.1C390.904 151.93 393.061 134.799 395.178 117.629C395.258 117.029 394.299 117.029 394.259 117.629Z" fill="#C6E9EF"/>
<path d="M413.673 99.3786H379.44V104.061H413.673V99.3786Z" fill="white"/>
<path d="M438.638 112.466H419.904V98.8983H438.638V112.466ZM420.823 111.546H437.72V99.8589H420.823V111.546Z" fill="white"/>
<path d="M413.673 107.784H379.44V112.466H413.673V107.784Z" fill="white"/>
<path d="M411.795 116.669H379.879C379.28 116.669 379.28 117.589 379.879 117.589H411.755C412.394 117.629 412.394 116.669 411.795 116.669Z" fill="white"/>
<path d="M399.093 128.836H379.879C379.28 128.836 379.28 129.756 379.879 129.756H399.093C399.692 129.797 399.692 128.836 399.093 128.836Z" fill="#EBF4FF"/>
<path d="M91.7542 229.896H39.2262V358.291H91.7542V229.896Z" fill="#EBF4FF"/>
<path d="M158.263 252.349H105.735V358.291H158.263V252.349Z" fill="#EBF4FF"/>
<path d="M224.812 160.455H172.284V358.331H224.812V160.455Z" fill="#EBF4FF"/>
<path d="M291.32 229.896H238.793V358.291H291.32V229.896Z" fill="#EBF4FF"/>
<path d="M357.829 198.317H305.301V358.291H357.829V198.317Z" fill="#EBF4FF"/>
<path d="M424.378 229.896H371.85V358.291H424.378V229.896Z" fill="#EBF4FF"/>
<path d="M490.887 256.551H438.359V358.291H490.887V256.551Z" fill="#EBF4FF"/>
<path d="M396.257 275.522C379.999 232.097 388.867 184.349 375.845 140.243C370.612 122.512 361.424 105.502 347.483 93.175C334.701 81.8883 318.284 75.6046 301.187 77.3656C285.249 79.0066 270.03 87.4916 262.8 102.22C253.932 120.311 257.167 141.323 251.415 160.254C248.659 169.3 243.826 177.985 235.677 183.188C227.009 188.711 216.223 189.352 206.317 187.631C185.026 183.868 168.09 168.98 147.837 162.256C127.625 155.572 105.296 156.933 85.323 163.817C66.389 170.34 49.4122 181.827 34.8722 195.515C31.1972 198.997 27.6421 202.599 24.2068 206.362C23.8074 206.802 24.4465 207.482 24.8859 207.042C53.0073 176.264 93.3919 152.37 136.453 160.335C147.398 162.376 157.424 166.818 167.211 172.021C176.198 176.784 185.066 182.027 194.693 185.509C211.19 191.433 231.802 191.833 243.866 177.144C255.57 162.896 255.29 143.244 257.447 125.914C258.725 115.708 261.042 105.222 267.154 96.697C272.067 89.853 279.177 84.81 286.966 81.7282C303.104 75.4445 321.439 77.3656 336.259 86.1708C352.317 95.6964 363.821 111.666 370.811 128.756C387.908 170.461 379.799 217.088 390.504 260.193C391.823 265.477 393.421 270.72 395.338 275.803C395.578 276.323 396.456 276.083 396.257 275.522Z" fill="#DE6262"/>
<path d="M30.4782 205.121C30.5182 208.883 27.8818 210.924 24.6861 210.924C21.4905 210.924 18.8941 208.323 18.8941 205.121C18.8941 201.919 20.8514 199.197 24.6063 199.077C27.8019 198.957 30.4383 201.919 30.4782 205.121Z" fill="#DE6262"/>
<path d="M181.032 177.385C181.072 180.346 178.995 181.947 176.478 181.947C173.961 181.947 171.924 179.906 171.924 177.385C171.924 174.863 173.482 172.702 176.438 172.622C178.955 172.542 180.992 174.863 181.032 177.385Z" fill="#DE6262"/>
<path d="M388.188 213.846C388.228 216.288 386.51 217.568 384.473 217.568C382.396 217.568 380.758 215.887 380.758 213.846C380.758 211.765 382.036 210.044 384.433 209.964C386.47 209.884 388.148 211.805 388.188 213.846Z" fill="#DE6262"/>
<path d="M60.9564 371.779C58.7994 370.659 64.9909 355.81 70.6631 341.281C63.6727 340.841 56.6423 340.681 49.6918 340C46.4163 357.411 43.1408 379.424 43.1408 382.025C43.1408 382.025 66.5088 374.621 60.9564 371.779Z" fill="#F1B7AC"/>
<path d="M47.9343 344.763C52.2483 344.683 70.2636 345.364 72.6603 345.444C74.4579 337.999 77.1742 324.471 78.2926 318.188C80.3298 306.501 90.5558 222.491 92.0338 211.685H56.7222C56.4026 213.566 56.0032 215.327 55.8434 217.048C55.5238 220.33 55.2842 223.492 55.0445 226.574C52.8076 255.271 52.9274 277.644 54.0459 320.669C52.6078 324.751 49.8117 334.357 47.9343 344.763Z" fill="#FF8A47"/>
<path d="M60.9564 371.779C60.9165 371.739 60.8366 371.699 60.7966 371.659C58.8792 372.54 56.8021 372.86 54.5252 372.62C51.1299 372.26 47.8544 371.259 44.459 371.499C43.6601 377.022 43.1408 381.025 43.1408 382.025H68.8655C69.5446 374.941 66.5088 374.621 60.9564 371.779Z" fill="#243B7F"/>
<path d="M118.717 370.899C116.6 368.938 117.878 355.65 119.037 341.441C112.166 341.681 105.336 341.802 98.5049 341.561C99.4237 359.172 101.701 382.065 101.701 382.065H134.336C134.895 371.579 124.549 376.302 118.717 370.899Z" fill="#F1B7AC"/>
<path d="M96.3079 346.084C104.417 346.324 112.885 346.204 119.916 346.324C120.595 331.916 120.515 324.111 120.155 315.666C118.997 289.571 112.645 249.747 108.731 225.973C108.012 221.611 107.373 217.768 106.853 214.687L70.4633 209.484C69.984 220.13 98.3451 324.231 98.3451 324.231C97.8658 328.434 96.7473 337.079 96.3079 346.084Z" fill="#FF8A47"/>
<path d="M119.077 371.219C116.68 371.899 114.243 372.34 111.727 372.46C107.972 372.66 104.337 371.699 100.662 371.379C101.221 377.703 101.661 382.025 101.661 382.025H134.296C134.895 371.779 124.989 376.102 119.077 371.219Z" fill="#243B7F"/>
<path d="M83.1659 268.278C82.2073 263.756 81.2486 259.193 80.2899 254.67C80.2499 254.51 80.21 254.35 80.17 254.19C80.3298 254.19 80.4896 254.23 80.6494 254.27C80.6893 254.43 80.7293 254.59 80.7293 254.75C81.688 259.233 82.6067 263.716 83.5654 268.198C83.6852 268.438 83.2458 268.558 83.1659 268.278Z" fill="black"/>
<path d="M80.8092 254.71C80.6494 254.67 80.4896 254.67 80.3298 254.63C76.2954 254.11 72.221 253.63 68.1865 253.109C67.9069 253.069 67.9069 252.589 68.1865 252.629C72.181 253.109 76.2155 253.63 80.21 254.11C80.3698 254.11 80.5296 254.15 80.6893 254.19C80.7293 254.39 80.7692 254.55 80.8092 254.71Z" fill="black"/>
<path d="M94.3506 151.609C94.071 151.89 91.5145 165.698 91.5145 165.698L80.1301 160.375L86.761 148.648L94.3506 151.609Z" fill="#F1B7AC"/>
<path d="M93.3919 155.812C93.8313 153.53 94.2308 151.729 94.3506 151.649L91.5544 150.569C91.4346 152.49 92.0338 154.611 93.3919 155.812Z" fill="black"/>
<path d="M83.2458 136.16C84.4442 133.159 90.1563 131.758 93.9511 132.678C95.5889 133.078 96.4277 131.958 96.7872 133.319C97.666 136.641 100.462 147.487 99.2239 149.968C97.0669 154.331 91.2349 153.29 88.3189 150.249C85.323 147.167 81.5681 140.443 83.2458 136.16Z" fill="#F1B7AC"/>
<path d="M96.3479 130.557C94.6702 130.037 92.1536 131.357 91.0751 132.398C87.7596 132.478 84.1646 133.839 83.2458 136.16C82.1274 139.042 74.6576 144.885 76.6549 150.289C77.8932 153.651 86.4015 157.333 89.5971 154.891C93.3919 152.01 91.874 142.564 92.3134 141.844C93.8313 139.882 93.2721 137.321 92.3533 135.48C93.4718 135.96 96.5875 134.839 97.1867 133.479C97.9457 131.518 96.8671 130.717 96.3479 130.557Z" fill="#58434A"/>
<path d="M87.4001 144.085C87.6398 142.244 90.0765 140.723 92.3533 141.844C92.8327 143.765 93.3919 145.686 93.9911 147.607C93.0724 148.327 90.9553 148.848 89.5172 148.167C87.8395 147.407 87.1605 146.046 87.4001 144.085Z" fill="#F1B7AC"/>
<path d="M99.5435 141.083C99.3038 140.363 98.4649 140.043 97.7859 140.363C97.5462 140.483 97.5063 140.803 97.6261 140.963C97.6261 141.003 97.666 141.003 97.666 141.003C97.5862 141.043 97.5462 141.083 97.4663 141.123C97.0269 141.483 97.666 142.124 98.1054 141.764C98.1054 141.764 98.1454 141.764 98.1054 141.804C97.7459 142.044 97.8658 142.644 98.3451 142.644C99.1041 142.644 99.7831 141.844 99.5435 141.083Z" fill="#F1B7AC"/>
<path d="M96.228 135.84C95.8685 136.08 95.509 136.32 95.1894 136.52C94.6702 136.841 95.1495 137.641 95.6688 137.321C96.0283 137.081 96.3878 136.841 96.7074 136.641C97.2267 136.32 96.7473 135.48 96.228 135.84Z" fill="#697CCC"/>
<path d="M96.9071 138.682C96.8672 139.122 96.8272 139.522 96.7873 139.963C96.7473 140.243 97.2267 140.243 97.2666 139.963C97.3065 139.522 97.3465 139.122 97.3864 138.682C97.3864 138.362 96.947 138.362 96.9071 138.682Z" fill="black"/>
<path d="M98.3451 146.646C97.7859 146.646 97.2666 146.286 97.0669 145.766C96.947 145.486 96.5076 145.606 96.6275 145.886C96.9071 146.606 97.5862 147.127 98.3451 147.127C98.6247 147.127 98.6247 146.646 98.3451 146.646Z" fill="#FF8A47"/>
<path d="M92.3533 145.045L90.9553 143.885C90.7156 143.685 90.396 144.005 90.6357 144.205C91.115 144.605 91.5544 144.965 92.0338 145.366C92.2335 145.566 92.5531 145.206 92.3533 145.045Z" fill="#FF8A47"/>
<path d="M108.731 226.013C109.57 215.567 110.329 199.878 110.928 187.591C112.126 161.735 102.819 160.134 86.042 160.254C62.3545 160.415 61.1561 159.654 58.4398 180.066C56.5225 194.675 55.3641 216.448 55.0046 226.534C58.5197 226.774 99.7033 225.853 108.731 226.013Z" fill="#C6E9EF"/>
<path d="M96.0283 194.034C94.2707 198.157 94.5104 203.12 96.0682 207.482C97.4663 211.445 100.063 214.366 103.418 215.527C101.661 210.444 99.5435 205.481 97.9856 200.398C97.3065 198.317 96.6674 196.196 96.0283 194.034Z" fill="black"/>
<path d="M104.856 173.422L117.559 170.741C117.559 170.741 127.705 190.993 127.146 191.193C126.546 191.433 115.002 194.715 114.643 194.475C114.323 194.235 104.856 173.422 104.856 173.422Z" fill="#C6E9EF"/>
<path d="M117.599 170.701C122.152 169.42 129.862 167.659 129.862 167.659C129.862 167.659 132.099 162.096 134.895 158.173C135.374 157.493 139.369 155.572 140.048 155.292C146.919 152.81 142.365 172.422 142.365 172.422C142.365 172.422 124.869 187.751 124.629 187.39C124.349 187.07 117.599 170.701 117.599 170.701Z" fill="#F1B7AC"/>
<path d="M134.136 165.337C134.096 163.696 133.816 162.216 133.217 160.695C133.617 159.854 133.936 158.974 134.136 158.013C134.256 157.453 133.617 156.852 133.097 157.253C132.099 158.013 131.34 158.894 130.861 159.934C130.821 159.974 130.781 160.014 130.781 160.094C129.582 162.576 129.063 165.137 129.223 167.939C129.263 168.339 129.502 168.539 129.822 168.579C130.102 168.779 130.461 168.779 130.701 168.579C130.94 169.02 131.619 169.22 131.899 168.659C132.059 168.379 132.179 168.139 132.299 167.859C132.458 167.779 132.578 167.659 132.658 167.419C132.818 167.018 132.978 166.538 133.097 166.018C133.537 166.138 134.136 165.858 134.136 165.337Z" fill="#F1B7AC"/>
<path d="M133.177 161.575C133.057 161.295 132.658 161.535 132.778 161.815C133.337 163.056 133.617 164.377 133.657 165.738C133.657 166.018 134.136 166.058 134.136 165.738C134.056 164.297 133.737 162.896 133.177 161.575Z" fill="#FF8A47"/>
<path d="M151.912 159.414C151.992 165.257 147.877 168.459 142.884 168.459C137.891 168.459 133.856 164.417 133.856 159.414C133.856 154.411 136.932 150.169 142.764 149.968C147.757 149.808 151.832 154.411 151.912 159.414Z" fill="#FF8A47"/>
<path d="M139.529 137.601C139.409 137.001 138.53 137.281 138.61 137.841C139.089 140.163 139.529 142.524 140.008 144.845C140.128 145.446 141.007 145.206 140.927 144.605C140.487 142.284 140.008 139.962 139.529 137.601Z" fill="#FF8A47"/>
<path d="M154.908 141.643C153.27 143.485 151.592 145.366 149.954 147.207C149.555 147.647 150.194 148.327 150.633 147.887L155.587 142.324C155.946 141.884 155.307 141.203 154.908 141.643Z" fill="#FF8A47"/>
<path d="M130.9 153.931C129.982 153.37 129.023 152.85 128.104 152.29C127.585 151.97 127.106 152.81 127.625 153.09C128.544 153.651 129.502 154.171 130.421 154.731C130.94 155.051 131.42 154.251 130.9 153.931Z" fill="#FF8A47"/>
<path d="M114.123 221.451C117.918 217.368 121.673 213.246 125.068 208.843C124.949 207.442 124.709 206.482 124.709 206.482C124.709 206.482 120.275 192.393 114.084 174.183C108.252 157.053 104.936 159.894 86.042 160.214C86.042 160.214 85.9621 161.375 85.8822 163.376C97.8658 181.347 107.493 200.878 114.123 221.451Z" fill="#C6E9EF"/>
<path d="M151.113 161.055C151.153 159.974 150.274 159.214 149.755 159.614C149.874 158.774 148.277 157.613 147.797 158.453C147.638 157.773 146.679 157.213 145.64 158.574C145.041 159.334 144.522 161.495 144.242 162.736C144.003 163.096 141.566 165.137 140.847 165.778C139.968 165.938 140.008 161.055 140.048 160.094C140.128 158.533 138.81 157.533 138.41 158.453C137.691 160.054 136.852 162.576 136.732 164.337C136.653 165.137 136.253 168.619 134.096 171.261C131.42 173.422 128.344 176.184 125.308 179.026C125.708 187.671 126.906 196.196 128.823 204.601C135.814 194.795 142.445 183.428 145.441 177.024C145.72 176.744 149.355 171.581 149.475 171.461C151.033 169.3 152.351 165.978 152.511 163.056C152.391 161.895 151.832 160.655 151.113 161.055Z" fill="#F1B7AC"/>
<path d="M145.48 165.698C145.281 165.898 144.921 165.618 145.121 165.418C146.799 163.697 147.638 161.455 147.478 159.094C147.438 158.814 147.917 158.734 147.957 159.054C148.077 161.495 147.238 163.897 145.48 165.698Z" fill="#FF8A47"/>
<path d="M147.478 166.578C148.796 164.657 149.435 162.496 149.315 160.214C149.315 159.894 149.755 159.934 149.795 160.254C149.874 162.656 149.195 164.897 147.877 166.858C147.717 167.099 147.318 166.818 147.478 166.578Z" fill="#FF8A47"/>
<path d="M149.036 167.659C150.154 165.778 150.833 163.777 151.033 161.575C151.073 161.255 151.512 161.335 151.512 161.655C151.312 163.937 150.633 166.018 149.435 167.939C149.235 168.219 148.876 167.939 149.036 167.659Z" fill="#FF8A47"/>
<path d="M128.024 176.464C122.832 181.187 117.439 186.51 114.203 189.592C107.612 195.916 108.172 222.251 108.172 222.251C113.884 225.933 121.234 221.771 140.248 193.234C136.213 188.951 131.3 181.347 128.024 176.464Z" fill="#C6E9EF"/>
<path d="M136.573 166.978C136.533 166.698 136.093 166.658 136.093 166.978C136.253 168.699 134.416 170.14 133.377 171.301C132.259 172.542 131.18 173.782 130.062 175.023C129.862 175.263 130.181 175.584 130.381 175.343C131.779 173.742 133.177 172.182 134.575 170.581C135.534 169.58 136.693 168.499 136.573 166.978Z" fill="#FF8A47"/>
<path d="M118.757 187.511C118.557 187.03 118.358 186.51 118.158 186.03C118.078 185.87 118.038 185.71 117.958 185.549C116.36 181.547 114.763 177.545 113.165 173.542C113.045 173.262 113.524 173.142 113.604 173.422C115.162 177.345 116.72 181.307 118.318 185.229C118.398 185.389 118.438 185.549 118.517 185.71C118.757 186.27 118.957 186.83 119.197 187.431C119.316 187.671 118.877 187.791 118.757 187.511Z" fill="white"/>
<path d="M121.513 182.908C120.515 183.828 119.516 184.749 118.517 185.669L118.158 185.99C118.078 185.83 118.038 185.669 117.958 185.509C118.078 185.389 118.198 185.309 118.318 185.189C119.276 184.309 120.235 183.428 121.154 182.548C121.433 182.388 121.753 182.708 121.513 182.908Z" fill="white"/>
<path d="M401.05 269.319C401.09 274.282 397.615 277.003 393.38 277.003C389.146 277.003 385.711 273.561 385.711 269.319C385.711 265.076 388.307 261.474 393.261 261.314C397.535 261.194 401.01 265.116 401.05 269.319Z" fill="#DE6262"/>
<path d="M387.828 279.805C386.59 282.166 385.352 284.488 384.153 286.849C383.874 287.369 384.672 287.85 384.952 287.329C386.19 284.968 387.429 282.647 388.627 280.285C388.907 279.725 388.108 279.285 387.828 279.805Z" fill="#DE6262"/>
<path d="M398.573 285.488C398.014 283.767 397.455 282.046 396.936 280.365C396.736 279.805 395.857 280.045 396.017 280.605C396.576 282.326 397.135 284.047 397.655 285.728C397.854 286.329 398.773 286.089 398.573 285.488Z" fill="#DE6262"/>
<path d="M385.152 259.673L381.437 253.109C381.157 252.589 380.318 253.069 380.638 253.589L384.353 260.153C384.672 260.634 385.471 260.193 385.152 259.673Z" fill="#DE6262"/>
<path d="M256.288 266.397H126.027V341.241H256.288V266.397Z" fill="#FFE2E1"/>
<path d="M185.306 307.061C185.226 307.061 185.146 307.021 185.066 306.981L137.811 277.524C137.611 277.404 137.531 277.083 137.651 276.883C137.771 276.683 138.091 276.603 138.29 276.723L185.546 306.18C185.745 306.301 185.825 306.621 185.705 306.821C185.585 306.981 185.466 307.061 185.306 307.061Z" fill="white"/>
<path d="M138.011 307.061C137.851 307.061 137.691 306.981 137.611 306.821C137.491 306.621 137.531 306.301 137.771 306.181L185.026 276.723C185.226 276.603 185.546 276.643 185.665 276.883C185.785 277.083 185.745 277.404 185.506 277.524L138.25 306.981C138.21 307.061 138.091 307.061 138.011 307.061Z" fill="white"/>
<path d="M192.536 315.506H136.053V319.709H192.536V315.506Z" fill="white"/>
<path d="M189.26 322.51H136.253C135.654 322.51 135.654 323.431 136.253 323.431H189.26C189.86 323.431 189.86 322.51 189.26 322.51Z" fill="white"/>
<path d="M189.26 326.272H136.253C135.654 326.272 135.654 327.193 136.253 327.193H189.26C189.86 327.193 189.86 326.272 189.26 326.272Z" fill="white"/>
<path d="M249.018 273.401H198.368V328.113H249.018V273.401Z" fill="white"/>
<path d="M239.951 287.93C236.955 293.453 233.959 299.016 230.963 304.54C228.367 301.258 225.81 298.016 223.214 294.734C223.014 294.494 222.615 294.614 222.495 294.814L205.199 320.389C204.879 320.869 205.678 321.349 205.997 320.869C211.63 312.544 217.262 304.179 222.894 295.854C225.491 299.136 228.087 302.418 230.684 305.7C230.883 305.94 231.283 305.86 231.403 305.62C234.518 299.897 237.634 294.133 240.75 288.41C241.029 287.85 240.231 287.369 239.951 287.93Z" fill="#DE6262"/>
<path d="M206.077 322.07C207.247 322.07 208.194 321.12 208.194 319.949C208.194 318.777 207.247 317.827 206.077 317.827C204.908 317.827 203.96 318.777 203.96 319.949C203.96 321.12 204.908 322.07 206.077 322.07Z" fill="#DE6262"/>
<path d="M222.934 297.976C224.103 297.976 225.051 297.026 225.051 295.855C225.051 294.683 224.103 293.733 222.934 293.733C221.765 293.733 220.817 294.683 220.817 295.855C220.817 297.026 221.765 297.976 222.934 297.976Z" fill="#DE6262"/>
<path d="M230.684 307.821C231.853 307.821 232.801 306.872 232.801 305.7C232.801 304.529 231.853 303.579 230.684 303.579C229.514 303.579 228.567 304.529 228.567 305.7C228.567 306.872 229.514 307.821 230.684 307.821Z" fill="#DE6262"/>
<path d="M239.951 290.051C241.12 290.051 242.068 289.101 242.068 287.93C242.068 286.758 241.12 285.809 239.951 285.809C238.782 285.809 237.834 286.758 237.834 287.93C237.834 289.101 238.782 290.051 239.951 290.051Z" fill="#DE6262"/>
<path d="M262.72 276.043C262.48 276.043 262.24 275.843 262.24 275.562V260.153H247.461C247.221 260.153 246.981 259.953 246.981 259.673C246.981 259.433 247.181 259.193 247.461 259.193H262.72C262.959 259.193 263.199 259.393 263.199 259.673V275.562C263.199 275.843 262.959 276.043 262.72 276.043Z" fill="black"/>
<path d="M119.236 275.723C118.997 275.723 118.757 275.523 118.757 275.242V259.953C118.757 259.713 118.957 259.473 119.236 259.473H135.095C135.334 259.473 135.574 259.673 135.574 259.953C135.574 260.193 135.374 260.434 135.095 260.434H119.676V275.242C119.676 275.523 119.476 275.723 119.236 275.723Z" fill="black"/>
<path d="M262.4 348.566H246.542C246.302 348.566 246.062 348.365 246.062 348.085C246.062 347.845 246.262 347.605 246.542 347.605H261.961V332.796C261.961 332.556 262.16 332.316 262.44 332.316C262.68 332.316 262.919 332.516 262.919 332.796V348.085C262.879 348.325 262.68 348.566 262.4 348.566Z" fill="black"/>
<path d="M171.205 192.474C165.813 217.728 160.42 242.943 155.027 268.198C155.347 268.238 155.666 268.238 155.946 268.278C161.339 243.063 166.731 217.848 172.124 192.634C172.284 192.033 171.365 191.913 171.205 192.474Z" fill="#FFE2E1"/>
<path d="M346.724 36.4214H332.264V50.91H346.724V36.4214Z" fill="#EBF4FF"/>
<path d="M65.1107 129.356C64.871 129.356 64.6314 129.156 64.6314 128.876V33.4597C64.6314 33.2196 64.8311 32.9794 65.1107 32.9794H351.718C351.957 32.9794 352.197 33.1795 352.197 33.4597V81.8883C352.197 82.1284 351.997 82.3685 351.718 82.3685C351.478 82.3685 351.238 82.1684 351.238 81.8883V33.9H65.5901V128.876C65.5901 129.116 65.3903 129.356 65.1107 129.356Z" fill="#C6E9EF"/>
<path d="M344.208 47.7081L335.5 38.983C335.06 38.5427 334.421 39.2231 334.821 39.6634L343.529 48.3885C343.968 48.7887 344.647 48.1483 344.208 47.7081Z" fill="#243B7F"/>
<path d="M335.5 48.3885L344.208 39.6634C344.647 39.2231 343.968 38.5827 343.529 38.983L334.821 47.7081C334.421 48.1484 335.06 48.7887 335.5 48.3885Z" fill="#243B7F"/>
<path d="M351.718 56.7534H65.1107V57.834H351.718V56.7534Z" fill="#C6E9EF"/>
<path d="M256.289 69.481H177.876C177.277 69.481 177.277 70.4015 177.876 70.4015H256.289C256.888 70.4015 256.888 69.481 256.289 69.481Z" fill="#697CCC"/>
<path d="M256.289 82.0884H177.876C177.277 82.0884 177.277 83.0089 177.876 83.0089H256.289C256.888 83.0089 256.888 82.0884 256.289 82.0884Z" fill="#697CCC"/>
<path d="M256.289 98.2179H177.876C177.277 98.2179 177.277 99.1385 177.876 99.1385H256.289C256.888 99.1785 256.888 98.2179 256.289 98.2179Z" fill="#697CCC"/>
<path d="M227.768 115.068H177.716C177.317 115.068 177.317 115.988 177.716 115.988H227.768C228.127 115.988 228.127 115.068 227.768 115.068Z" fill="#697CCC"/>
<path d="M452.26 82.2085C450.702 83.4492 449.144 84.69 447.586 85.9707C447.107 86.3309 447.786 87.0113 448.265 86.6511C449.823 85.4104 451.381 84.1697 452.939 82.8889C453.378 82.4887 452.699 81.8483 452.26 82.2085Z" fill="#EBF4FF"/>
<path d="M366.937 82.8489C364.74 79.727 362.543 76.6452 360.346 73.5234C359.986 73.0431 359.187 73.4833 359.547 74.0037C361.744 77.1255 363.941 80.2073 366.138 83.3292C366.497 83.8095 367.296 83.3292 366.937 82.8489Z" fill="#EBF4FF"/>
<path d="M369.413 80.4074C368.175 78.5263 366.937 76.6452 365.659 74.8041C365.339 74.3238 364.5 74.7641 364.86 75.2844C366.098 77.1655 367.336 79.0466 368.614 80.8877C368.934 81.408 369.733 80.9277 369.413 80.4074Z" fill="#EBF4FF"/>
<path d="M110.329 66.7594C108.012 70.7617 103.139 71.4421 98.9842 70.4015C94.7101 69.3209 91.0351 66.7994 86.9208 65.3185C81.4882 63.3573 73.7389 63.7976 71.9014 70.4415C71.7416 71.0419 72.6603 71.282 72.8201 70.6817C74.1383 65.8788 79.491 64.478 83.845 65.3585C87.9993 66.199 91.6343 68.6005 95.509 70.1614C100.742 72.3226 107.892 72.883 111.128 67.1996C111.447 66.7193 110.648 66.2391 110.329 66.7594Z" fill="#EBF4FF"/>
<path d="M110.329 71.8824C108.012 75.8848 103.139 76.5652 98.9842 75.5246C94.7101 74.4439 91.0351 71.9224 86.9208 70.4416C81.4882 68.4804 73.7389 68.9207 71.9014 75.5646C71.7416 76.1649 72.6603 76.4051 72.8201 75.8047C74.1383 71.0019 79.491 69.6011 83.845 70.4816C87.9993 71.3221 91.6343 73.7235 95.509 75.2844C100.742 77.4457 107.892 78.006 111.128 72.3227C111.447 71.8024 110.648 71.3621 110.329 71.8824Z" fill="#EBF4FF"/>
<path d="M50.4508 132.998C45.6174 134.84 40.7841 136.681 35.9507 138.522C35.3915 138.722 35.6311 139.642 36.1904 139.442C41.0237 137.601 45.8571 135.76 50.6905 133.919C51.2497 133.679 51.0101 132.758 50.4508 132.998Z" fill="#EBF4FF"/>
<path d="M58.9591 26.1754C57.2415 23.694 55.5238 21.1725 53.8062 18.691C53.4866 18.2108 52.6478 18.651 53.0073 19.1713C54.7249 21.6528 56.4426 24.1743 58.1602 26.6557C58.4798 27.136 59.2787 26.6557 58.9591 26.1754Z" fill="#EBF4FF"/>
<path d="M63.1933 25.1749C61.7952 22.9736 60.3972 20.8123 58.9991 18.611C58.6795 18.0907 57.8806 18.571 58.2002 19.0913C59.5982 21.2926 60.9963 23.4539 62.3944 25.6551C62.714 26.1755 63.5129 25.6952 63.1933 25.1749Z" fill="#EBF4FF"/>
<path d="M371.011 20.7323C366.378 23.4139 361.704 26.0954 357.07 28.777C356.551 29.0972 357.03 29.8977 357.55 29.5775C362.183 26.8959 366.857 24.2143 371.491 21.5327C372.01 21.2126 371.57 20.4121 371.011 20.7323Z" fill="#EBF4FF"/>
<path d="M426.136 52.1107C425.936 51.5504 425.017 51.7905 425.217 52.3509C426.855 56.7935 420.783 57.8741 417.947 58.3144C416.109 58.5946 414.312 58.9147 412.794 60.0754C410.078 62.1567 409.119 65.9989 410.357 69.1608C410.557 69.7211 411.476 69.481 411.276 68.9206C410.317 66.4392 410.717 63.5575 412.594 61.5563C414.671 59.315 417.707 59.395 420.463 58.9147C423.579 58.3144 427.494 55.8329 426.136 52.1107Z" fill="#EBF4FF"/>
<path d="M429.411 54.9525C429.211 54.3921 428.293 54.6323 428.492 55.1926C430.13 59.6352 424.058 60.7159 421.222 61.1561C419.385 61.4363 417.587 61.7565 416.069 62.9172C413.353 64.9984 412.394 68.8407 413.633 72.0025C413.832 72.5628 414.751 72.3227 414.551 71.7624C413.593 69.2809 413.992 66.3992 415.87 64.398C417.947 62.1567 420.983 62.2368 423.739 61.7565C426.855 61.1561 430.769 58.6346 429.411 54.9525Z" fill="#EBF4FF"/>
<path d="M239.472 222.211C238.273 219.529 237.075 216.888 235.877 214.206C235.637 213.646 234.838 214.126 235.078 214.687C236.276 217.368 237.474 220.01 238.673 222.691C238.912 223.252 239.751 222.771 239.472 222.211Z" fill="#EBF4FF"/>
<path d="M131.779 234.258C130.221 237.86 128.703 241.422 127.146 245.025C126.906 245.585 127.705 246.065 127.945 245.505C129.502 241.903 131.02 238.341 132.578 234.738C132.818 234.218 132.019 233.738 131.779 234.258Z" fill="#EBF4FF"/>
<path d="M132.738 238.501C131.619 240.982 130.501 243.464 129.383 245.945C129.143 246.505 129.942 246.946 130.181 246.425C131.3 243.944 132.418 241.462 133.537 238.981C133.816 238.421 133.018 237.94 132.738 238.501Z" fill="#EBF4FF"/>
<path d="M245.743 146.166C245.703 145.566 244.784 145.566 244.824 146.166C245.184 153.13 242.587 159.774 237.594 164.657C237.155 165.097 237.834 165.738 238.273 165.337C243.386 160.254 246.102 153.37 245.743 146.166Z" fill="#EBF4FF"/>
<path d="M241.069 147.567C241.069 152.61 239.152 157.253 235.637 160.815C235.197 161.255 235.877 161.896 236.316 161.495C240.031 157.733 242.068 152.85 242.028 147.567C242.028 146.967 241.069 146.967 241.069 147.567Z" fill="#EBF4FF"/>
<path d="M148.676 110.305H111.008C110.768 110.305 110.528 110.105 110.528 109.825V84.2497C110.528 84.0095 110.728 83.7694 111.008 83.7694H148.676C148.916 83.7694 149.155 83.9695 149.155 84.2497V109.825C149.115 110.065 148.916 110.305 148.676 110.305Z" fill="#FFE2E1"/>
<path d="M161.299 97.2173L154.308 90.6935C153.869 90.2932 153.19 90.9336 153.629 91.3739C154.668 92.3745 155.746 93.335 156.785 94.3356C157.264 94.7759 159.901 96.657 159.941 97.2974C160.06 98.2579 158.143 99.2585 157.464 99.8589C156.186 100.94 154.908 101.98 153.669 103.061C153.19 103.461 153.869 104.101 154.348 103.741C156.665 101.82 158.982 99.8589 161.259 97.9377C161.499 97.7376 161.459 97.3774 161.299 97.2173Z" fill="#697CCC"/>
<path d="M98.5448 97.2173L105.535 90.6935C105.975 90.2932 106.654 90.9336 106.214 91.3739C105.176 92.3745 104.097 93.335 103.059 94.3356C102.579 94.7759 99.9429 96.657 99.903 97.2974C99.7831 98.2579 101.701 99.2585 102.38 99.8589C103.658 100.94 104.936 101.98 106.174 103.061C106.654 103.461 105.975 104.101 105.495 103.741C103.178 101.82 100.862 99.8589 98.5848 97.9377C98.3851 97.7376 98.3851 97.3774 98.5448 97.2173Z" fill="#697CCC"/>
<path d="M145.88 86.4509H113.964V89.893H145.88V86.4509Z" fill="white"/>
<path d="M142.445 91.574H114.443C113.844 91.574 113.844 92.4945 114.443 92.4945H142.445C143.044 92.5345 143.044 91.574 142.445 91.574Z" fill="white"/>
<path d="M145.56 99.6988H135.894V106.103H145.56V99.6988Z" fill="white"/>
<path d="M126.227 109.505C128.344 120.231 130.501 130.917 132.618 141.644C132.738 142.244 133.617 142.004 133.537 141.403C131.42 130.757 129.303 120.151 127.186 109.505H126.227Z" fill="#FFE2E1"/>
<path d="M116.121 80.2073H110.528C109.929 80.2073 109.929 81.1278 110.528 81.1278H116.121C116.72 81.1278 116.72 80.2073 116.121 80.2073Z" fill="#FF5950"/>
<path d="M159.901 381.705H32.4355C31.8363 381.705 31.8363 382.626 32.4355 382.626H159.901C160.5 382.626 160.5 381.705 159.901 381.705Z" fill="#697CCC"/>
<path d="M506.785 381.705H256.528C255.33 381.705 255.33 382.626 256.528 382.626H506.785C507.943 382.626 507.943 381.705 506.785 381.705Z" fill="#697CCC"/>
<path d="M283.092 371.619C286.327 374.181 289.922 376.262 293.797 377.823C296.753 378.983 299.789 379.864 302.865 380.624C303.304 377.863 304.343 371.299 305.141 363.014C298.91 362.414 292.719 361.493 286.487 361.213C287.006 368.017 286.527 369.858 283.092 371.619Z" fill="#C6E9EF"/>
<path d="M285.528 369.778C284.929 370.538 284.09 371.139 282.932 371.699C277.22 374.541 268.072 372.74 268.072 382.025H302.665C302.665 382.025 303.184 379.064 303.863 374.221C292.878 374.821 293.398 370.939 285.528 369.778Z" fill="#DE6262"/>
<path d="M287.486 214.727C281.973 246.465 279.736 350.687 280.415 365.175L305.301 367.497C305.301 367.497 309.296 322.27 307.378 313.385C307.378 313.385 320.361 218.449 319.881 207.803L287.486 214.727Z" fill="#243B7F"/>
<path d="M351.318 371.739C351.158 371.819 351.039 371.859 350.879 371.939C357.15 375.221 364.34 377.182 371.371 377.463C371.011 374.061 370.252 369.578 369.054 362.854C362.623 362.254 352.397 355.249 345.966 355.009C347.923 357.411 355.033 369.938 351.318 371.739Z" fill="#C6E9EF"/>
<path d="M365.019 372.9C362.743 372.82 360.506 372.34 358.389 371.619C356.271 370.899 354.434 369.778 352.357 369.538C352.357 370.578 352.037 371.379 351.318 371.699C345.446 374.541 335.979 372.74 335.979 382.025H371.65C371.65 379.504 371.331 376.502 370.572 371.859C368.894 372.62 367.017 372.98 365.019 372.9Z" fill="#DE6262"/>
<path d="M368.774 362.814L344.088 366.416C339.055 355.85 328.709 326.633 325.074 312.544C322.118 301.018 304.742 222.451 303.184 211.645H340.613C340.972 213.526 341.252 215.327 341.532 217.008C342.211 221.09 342.69 224.572 343.01 227.614C343.209 229.375 343.489 231.777 343.848 234.658C346.645 256.511 353.715 305.22 353.715 305.22C357.19 309.863 368.774 362.814 368.774 362.814Z" fill="#243B7F"/>
<path d="M313.929 263.195C312.531 256.471 311.093 249.747 309.695 243.023C309.655 242.863 309.655 242.743 309.615 242.583C309.735 242.623 309.895 242.663 310.015 242.703C310.055 242.863 310.095 242.983 310.095 243.143C311.493 249.787 312.891 256.431 314.289 263.075C314.369 263.315 313.969 263.435 313.929 263.195Z" fill="black"/>
<path d="M310.095 243.143C309.975 243.103 309.815 243.063 309.655 243.023L302.465 240.942C302.265 240.862 302.305 240.582 302.505 240.582C302.825 240.542 307.538 242.063 309.535 242.623C309.655 242.663 309.815 242.703 309.935 242.743C310.055 242.863 310.095 242.983 310.095 243.143Z" fill="black"/>
<path d="M343.01 227.614L285.888 226.173C285.888 214.526 285.129 192.554 285.009 182.027C284.969 178.785 285.009 176.624 285.129 176.224L291.4 167.739L305.581 166.298L308.137 166.018L317.365 165.097C317.365 165.097 317.764 164.977 318.443 164.777C322.797 163.536 339.335 159.574 341.292 169.66C341.532 170.861 341.731 172.262 341.931 173.903C342.131 175.824 342.331 178.065 342.49 180.466C342.77 184.789 342.93 189.672 343.05 194.675C343.329 210.764 343.01 227.614 343.01 227.614Z" fill="#F1B7AC"/>
<path d="M327.87 100.98C329.548 99.7388 331.186 98.4581 332.824 97.1773C326.273 91.574 321.199 87.5316 321.199 87.5316L313.011 96.8971C314.169 99.0984 316.446 102.861 319.162 107.143C321.839 104.862 325.074 103.061 327.87 100.98Z" fill="#952C28"/>
<path d="M347.643 169.82C346.045 173.102 344.328 176.624 342.45 180.466C342.41 180.586 342.33 180.707 342.291 180.827L339.015 178.745L318.164 165.578L317.365 165.057C317.365 165.057 317.724 164.377 318.403 163.216C318.443 163.136 318.483 163.096 318.523 163.016C320.001 160.455 322.757 155.732 325.793 150.769C329.708 144.325 334.142 137.361 336.858 133.999C336.858 133.999 325.793 117.709 318.483 106.103C320.92 104.021 328.949 96.697 330.587 95.2562C339.375 102.701 352.077 113.867 358.269 121.592C366.338 131.678 363.102 138.001 347.643 169.82Z" fill="#F1B7AC"/>
<path d="M341.412 132.598C340.253 132.838 339.095 133.078 337.897 133.319C337.617 133.359 337.737 133.839 338.016 133.759C339.175 133.519 340.333 133.279 341.532 133.038C341.811 132.998 341.691 132.558 341.412 132.598Z" fill="black"/>
<path d="M297.752 111.866C299.629 107.103 301.147 102.901 301.866 100.499L292.399 92.6546C292.399 92.6546 288.884 96.8171 284.17 102.701C288.404 106.183 293.038 109.104 297.752 111.866Z" fill="#952C28"/>
<path d="M308.137 166.018C307.458 165.177 306.58 164.097 305.581 162.936C300.029 156.252 290.601 145.166 285.888 140.963C285.888 140.963 293.438 123.113 298.311 110.505C293.797 107.663 289.243 104.902 285.009 101.7C277.979 110.465 267.833 123.673 263.319 132.358C257.207 144.085 262.081 149.768 285.009 182.027C286.327 183.868 287.725 185.83 289.163 187.871L308.737 169.46L310.015 168.259C309.975 168.259 309.296 167.419 308.137 166.018Z" fill="#F1B7AC"/>
<path d="M285.409 139.962C285.009 139.402 284.65 138.882 284.25 138.322C284.09 138.081 283.691 138.322 283.851 138.562C284.25 139.122 284.61 139.642 285.009 140.203C285.169 140.443 285.568 140.203 285.409 139.962Z" fill="black"/>
<path d="M295.754 102.18C295.954 102.741 296.713 103.141 297.272 102.941C297.392 102.901 297.552 102.861 297.672 102.781L297.712 103.021C297.752 103.341 297.871 103.621 298.071 103.821C297.911 104.862 297.672 105.902 297.352 106.903C297.272 107.183 297.272 107.463 297.392 107.703C298.95 105.342 300.867 103.181 301.946 100.539C302.066 100.259 302.225 99.9789 302.385 99.6988C302.385 99.6587 302.385 99.6187 302.385 99.6187C304.662 94.976 303.743 81.1678 301.866 81.9283C299.869 82.7287 300.308 84.4898 300.428 86.1708C299.869 86.2908 298.511 87.4115 298.351 87.6116C298.111 87.0913 297.871 86.611 297.632 86.1307C298.99 84.0095 299.869 81.6081 300.268 79.0466C300.508 77.4456 298.111 76.7652 297.832 78.3261C297.712 78.3261 297.592 78.3261 297.512 78.3662C294.436 80.4074 292.479 82.9289 291.72 86.3709C290.961 89.893 290.801 93.4551 290.881 97.0572C290.761 98.3379 290.601 99.6587 290.482 100.939C290.402 101.62 290.841 102.02 291.36 102.14C291.72 102.5 292.279 102.62 292.759 102.42C292.958 102.38 293.158 102.3 293.318 102.18C293.438 102.3 293.557 102.46 293.717 102.58C294.436 103.221 295.355 102.981 295.754 102.18Z" fill="#952C28"/>
<path d="M296.673 85.6505C296.593 86.3709 296.513 87.0913 296.433 87.8518C296.394 88.132 296.873 88.132 296.913 87.8518C296.993 87.1314 297.073 86.4109 297.152 85.6505C297.152 85.3703 296.673 85.3703 296.673 85.6505Z" fill="black"/>
<path d="M295.315 87.0513C295.115 86.531 295.635 86.0907 295.874 85.5704C296.194 84.93 296.354 84.2496 296.473 83.5292C296.513 83.249 296.074 83.0889 296.034 83.4091C295.834 84.6499 295.395 85.7305 294.636 86.6911C294.556 86.7711 294.516 86.9312 294.636 87.0113C295.435 87.7317 295.754 88.6922 295.555 89.7729C295.475 90.053 295.954 90.1731 295.994 89.893C296.114 89.4127 296.114 88.9324 296.034 88.4521C295.914 87.8918 295.515 87.5716 295.315 87.0513Z" fill="black"/>
<path d="M317.804 81.7282C317.884 88.6122 313.051 92.3744 307.179 92.3744C301.307 92.3744 296.553 87.6116 296.553 81.7282C296.553 75.8447 300.188 70.8417 307.059 70.6016C312.931 70.4015 317.724 75.8447 317.804 81.7282Z" fill="#DE6262"/>
<path d="M326.392 62.757C324.315 64.7182 322.238 66.6793 320.121 68.6405C319.682 69.0407 320.361 69.7211 320.8 69.3209C322.877 67.3597 324.954 65.3986 327.071 63.4374C327.471 62.9971 326.832 62.3167 326.392 62.757Z" fill="#DE6262"/>
<path d="M296.513 71.9224L293.238 68.6405C292.798 68.2002 292.159 68.8806 292.559 69.3209L295.834 72.6028C296.274 73.003 296.913 72.3226 296.513 71.9224Z" fill="#DE6262"/>
<path d="M328.749 73.2432C326.712 73.5634 324.715 73.8835 322.677 74.2037C322.078 74.2838 322.318 75.2043 322.917 75.1243C324.954 74.8041 326.952 74.4839 328.989 74.1637C329.588 74.0436 329.348 73.1631 328.749 73.2432Z" fill="#DE6262"/>
<path d="M321.958 89.853C321.998 89.6929 322.038 89.5328 321.998 89.3327C321.599 87.8518 321.239 86.3309 320.84 84.85C320.88 80.8877 318.803 76.9654 315.168 73.5233C314.009 72.4427 313.21 73.6034 314.129 75.0843C314.728 76.7252 315.567 78.1661 316.766 79.4468C316.766 79.6069 316.126 84.5698 316.126 87.0113C316.126 87.3315 311.573 89.5728 310.494 91.654C310.614 94.3756 312.092 96.8171 314.688 98.2579C315.647 98.7782 316.366 97.6976 315.887 96.9371C315.967 96.8971 316.047 96.8171 316.126 96.737C316.766 96.8971 317.525 96.4168 317.285 95.6164C317.285 95.5763 317.245 95.5363 317.245 95.4963C317.804 95.4963 318.363 95.016 318.244 94.3756C318.403 94.3756 318.603 94.2956 318.723 94.2155L318.763 94.2556C319.202 94.7358 320.201 94.5357 320.321 93.8553C320.48 92.8547 320.52 91.8541 320.52 90.8936C321.16 91.2938 322.238 90.8135 321.958 89.853Z" fill="#952C28"/>
<path d="M298.111 78.006C297.792 77.966 296.194 79.3668 295.794 79.9672C295.635 80.2073 295.635 80.4875 295.714 80.6876C295.315 81.1679 294.876 81.6481 294.396 82.0884C293.517 82.8889 294.836 84.2096 295.714 83.4092C297.033 82.2085 298.151 80.8477 299.11 79.3668C299.589 78.6064 298.83 77.9259 298.111 78.006Z" fill="#952C28"/>
<path d="M318.483 163.296C316.047 159.174 311.493 151.369 311.293 150.689L302.305 153.49L304.942 160.855L306.46 165.137L307.658 168.459L313.77 167.139C315.088 165.618 316.766 164.417 318.483 163.296Z" fill="#952C28"/>
<path d="M309.735 151.169L302.305 153.49L304.742 160.295C307.219 157.813 309.336 154.611 309.735 151.169Z" fill="black"/>
<path d="M319.602 147.327C320.201 142.684 310.854 136.16 307.658 139.442C305.221 141.884 298.91 147.447 298.63 151.169C298.271 156.052 304.063 158.133 308.217 156.973C312.292 155.852 318.963 151.89 319.602 147.327Z" fill="#952C28"/>
<path d="M317.085 151.81C318.403 150.449 319.402 148.928 319.602 147.327C320.001 144.365 316.326 140.643 312.771 139.202C312.731 139.082 312.651 139.002 312.571 138.882C312.172 138.362 311.453 138.001 310.894 138.121C310.374 137.441 309.416 137.081 308.577 137.561C307.418 138.161 307.458 139.642 307.418 139.722C308.137 140.963 309.575 142.164 310.494 143.004C311.892 144.325 313.69 145.726 315.008 146.446C314.928 146.486 312.811 150.449 317.085 151.81Z" fill="black"/>
<path d="M318.004 154.651C318.523 153.09 317.165 150.929 314.928 151.009C313.81 152.41 312.611 153.731 311.413 155.091C311.852 156.012 313.37 157.213 314.768 157.213C316.406 157.173 317.445 156.332 318.004 154.651Z" fill="#952C28"/>
<path d="M305.861 168.019C304.622 166.178 305.102 164.217 305.541 162.936C307.299 163.096 316.686 163.136 318.523 163.056C318.523 163.096 317.165 167.779 313.45 169.5C311.173 170.581 307.099 169.86 305.861 168.019Z" fill="#952C28"/>
<path d="M315.767 154.251L314.249 154.131C313.969 154.091 313.969 154.571 314.249 154.611L315.767 154.731C316.086 154.731 316.086 154.251 315.767 154.251Z" fill="black"/>
<path d="M304.662 147.727C304.223 147.527 303.743 147.327 303.464 146.927C303.224 146.566 303.224 145.966 303.703 145.806C303.983 145.726 303.863 145.286 303.584 145.366C303.024 145.526 302.745 146.126 302.865 146.686C302.984 147.447 303.783 147.847 304.422 148.127C304.702 148.247 304.942 147.847 304.662 147.727Z" fill="black"/>
<path d="M305.581 151.85C305.221 152.17 304.662 152.25 304.223 152.05C303.943 151.93 303.703 152.33 303.983 152.45C304.662 152.73 305.341 152.65 305.9 152.17C306.14 151.97 305.821 151.649 305.581 151.85Z" fill="black"/>
<path d="M311.253 145.806C311.173 145.646 311.093 145.486 311.013 145.326C310.734 144.805 309.935 145.246 310.215 145.806C310.294 145.966 310.374 146.126 310.454 146.286C310.694 146.807 311.493 146.326 311.253 145.806Z" fill="black"/>
<path d="M306.46 141.403C306.18 141.283 305.9 141.163 305.661 141.043C305.421 140.963 305.142 140.963 305.022 141.203C304.902 141.403 304.942 141.724 305.181 141.844C305.461 141.964 305.741 142.084 305.98 142.204C306.22 142.284 306.5 142.284 306.619 142.044C306.739 141.884 306.699 141.523 306.46 141.403Z" fill="black"/>
<path d="M309.615 146.967C309.296 147.207 309.016 147.447 308.697 147.727C308.457 147.927 308.816 148.247 309.016 148.047C309.336 147.807 309.615 147.567 309.935 147.287C310.175 147.127 309.815 146.767 309.615 146.967Z" fill="black"/>
<path d="M305.221 142.644C304.902 142.884 304.622 143.124 304.303 143.405C304.063 143.605 304.422 143.925 304.622 143.725C304.942 143.485 305.221 143.244 305.541 142.964C305.781 142.764 305.461 142.444 305.221 142.644Z" fill="black"/>
<path d="M475.188 183.668L470.355 208.163L466.8 226.053L421.861 211.125C421.861 211.125 423.779 204.361 426.415 196.236C425.377 193.674 428.213 187.911 428.732 185.83C430.13 180.506 430.09 179.826 430.21 179.466L453.099 172.942L457.213 171.781L461.727 173.782L467.679 178.145L475.188 183.668Z" fill="#FF8A47"/>
<path d="M466.84 161.575C466.281 163.616 463.245 165.618 465.122 166.538C462.646 169.58 461.527 174.983 464.163 177.585C465.641 179.026 473.83 179.466 475.787 180.066C477.385 180.546 479.423 180.346 480.142 178.665C481.659 179.666 483.697 179.546 485.135 178.345C486.732 176.984 487.212 174.703 486.732 172.702C486.173 170.42 484.535 168.659 482.618 167.379C481.3 166.498 479.622 165.738 478.104 166.258C479.462 164.457 479.502 161.935 477.945 160.174C476.267 158.293 473.511 158.133 471.553 159.534C471.633 158.974 471.713 158.373 471.793 157.813C471.873 157.733 471.873 157.613 471.793 157.573C471.713 157.453 471.553 157.453 471.513 157.573C469.396 157.973 467.439 159.414 466.84 161.575Z" fill="#58434A"/>
<path d="M455.097 217.209C454.018 217.008 452.9 216.848 451.821 216.648C446.149 215.688 440.437 214.767 434.805 213.726C430.491 212.926 426.216 211.765 421.902 211.085C410.718 245.145 402.888 299.417 401.65 308.302C400.731 314.746 399.094 346.605 398.814 361.614C398.694 367.337 397.016 370.299 394.26 371.66C386.79 375.342 380.359 373.18 379.88 381.585H411.157C411.157 381.585 425.657 336.239 423.26 322.991C423.181 323.031 447.787 242.503 455.097 217.209Z" fill="#F1B7AC"/>
<path d="M398.693 363.054C398.334 367.857 396.736 370.458 394.179 371.699C386.71 375.381 380.278 373.22 379.799 381.625H411.076C411.076 381.625 413.273 374.741 415.83 365.536C410.118 364.775 404.405 363.855 398.693 363.054Z" fill="#FF8A47"/>
<path d="M416.828 361.813C420.583 347.885 424.498 330.435 423.18 323.03C423.18 323.03 447.786 242.503 455.096 217.168C454.017 216.968 452.899 216.808 451.82 216.608C446.148 215.647 440.436 214.727 434.804 213.686C430.49 212.886 426.215 211.725 421.901 211.044C410.717 245.105 402.887 299.377 401.649 308.262C400.77 314.545 399.173 345.003 398.813 360.453C404.805 360.893 410.837 361.373 416.828 361.813Z" fill="#243B7F"/>
<path d="M396.296 370.058C395.697 370.739 394.978 371.299 394.179 371.699C386.71 375.381 380.278 373.22 379.799 381.625H411.076C411.076 381.625 412.115 378.343 413.593 373.34C405.044 373.82 404.126 370.659 396.296 370.058Z" fill="#243B7F"/>
<path d="M481.859 372.62C468.957 375.621 470.155 378.663 469.556 381.625H501.952C495.321 337.159 483.337 319.749 483.337 319.749C481.22 302.018 467.439 234.138 467.439 234.138L468.557 219.409C462.965 218.489 457.373 217.608 451.78 216.648C446.108 215.687 440.396 214.767 434.764 213.726C434.125 213.606 433.525 213.486 432.886 213.366L428.732 228.735C428.732 228.735 450.622 293.333 457.812 316.146C465.042 338.96 490.927 370.498 481.859 372.62Z" fill="#F1B7AC"/>
<path d="M482.698 365.415C484.216 369.418 484.256 372.059 481.859 372.62C468.957 375.621 470.155 378.663 469.556 381.625H501.952C501.033 375.421 499.994 369.698 498.916 364.535C493.523 365.215 488.131 365.415 482.698 365.415Z" fill="#FF8A47"/>
<path d="M492.724 373.3C489.489 373.06 486.333 372.3 483.097 371.939C482.778 372.259 482.378 372.5 481.859 372.62C468.957 375.621 470.155 378.663 469.556 381.625H501.952C501.472 378.263 500.913 375.101 500.394 372.059C498.037 373.1 495.481 373.5 492.724 373.3Z" fill="#243B7F"/>
<path d="M497.837 359.692C491.326 331.315 483.337 319.749 483.337 319.749C481.22 302.018 467.439 234.138 467.439 234.138L468.557 219.409C462.965 218.489 457.373 217.608 451.78 216.648C446.108 215.687 440.396 214.767 434.764 213.726C434.125 213.606 433.525 213.486 432.886 213.366L428.732 228.735C428.732 228.735 450.622 293.333 457.812 316.146C462.606 331.315 475.628 350.327 481.14 362.013C486.732 361.133 492.325 360.533 497.837 359.692Z" fill="#243B7F"/>
<path d="M454.736 232.257C458.731 237.02 463.564 240.462 469.157 242.623C468.118 237.38 467.439 234.138 467.439 234.138L468.557 219.409C462.965 218.489 457.373 217.608 451.78 216.648C450.023 216.368 448.265 216.047 446.548 215.767C447.267 221.811 451.141 227.974 454.736 232.257Z" fill="black"/>
<path d="M440.196 263.155C439.278 259.393 438.319 255.591 437.4 251.829C437.36 251.628 437.32 251.468 437.24 251.268C437.4 251.348 437.6 251.388 437.76 251.468C437.8 251.668 437.839 251.829 437.879 252.029C438.798 255.711 439.717 259.353 440.596 263.035C440.716 263.355 440.276 263.475 440.196 263.155Z" fill="black"/>
<path d="M437.919 252.029C437.76 251.949 437.56 251.869 437.4 251.828C436.162 251.348 434.924 250.868 433.645 250.388C433.366 250.268 433.485 249.827 433.765 249.947C434.924 250.388 436.082 250.828 437.24 251.308C437.4 251.388 437.6 251.428 437.76 251.508C437.84 251.668 437.88 251.869 437.919 252.029Z" fill="black"/>
<path d="M457.213 171.741L452.819 174.343L427.534 189.392L418.226 194.955C414.791 188.671 410.757 182.748 407.042 176.584C408.68 175.784 410.437 174.903 412.315 173.903C432.247 163.376 435.802 162.936 453.618 170.22C454.776 170.701 455.975 171.221 457.213 171.741Z" fill="#FF8A47"/>
<path d="M400.611 251.468C399.572 253.87 398.493 256.271 397.455 258.673C396.736 260.313 399.252 261.354 399.971 259.753C401.01 257.352 402.248 254.71 403.287 252.309C404.046 250.628 401.33 249.827 400.611 251.468Z" fill="#089BAB"/>
<path d="M417.268 244.544C417.028 245.024 416.669 245.625 416.229 246.225C416.029 246.465 415.83 246.745 415.63 246.986C411.875 251.668 403.567 258.432 399.732 256.831C395.218 254.95 395.258 244.144 396.376 238.461C396.416 238.18 396.496 237.94 396.536 237.7C396.536 237.66 396.576 237.58 396.576 237.54C396.656 237.26 396.696 236.98 396.776 236.78C396.896 236.339 397.015 235.979 397.175 235.659L425.337 171.821L426.855 168.379L439.837 138.962C439.957 138.682 440.076 138.442 440.236 138.241C440.396 137.961 440.636 137.721 440.835 137.481C442.833 135.48 446.667 135 450.662 136.08C450.822 136.12 451.021 136.16 451.181 136.24C451.221 136.24 451.261 136.28 451.301 136.28C451.421 136.32 451.541 136.36 451.661 136.4C451.86 136.48 452.02 136.52 452.22 136.601C452.42 136.681 452.579 136.721 452.779 136.801C452.899 136.841 453.059 136.921 453.179 136.961C453.338 137.041 453.498 137.121 453.658 137.201C453.818 137.281 453.977 137.361 454.137 137.441C454.297 137.521 454.457 137.601 454.577 137.681C458.172 139.802 460.369 143.244 460.249 146.126C460.249 146.446 460.209 146.767 460.129 147.087C460.089 147.367 459.969 147.607 459.889 147.887L446.907 177.305L446.548 178.145L445.389 180.747L417.268 244.544Z" fill="#089BAB"/>
<path d="M448.585 176.944L446.667 181.267L424.058 171.221L425.217 168.619L426.255 166.298L438.519 138.482C438.638 138.201 438.798 137.921 438.998 137.641C438.998 137.641 438.998 137.601 439.038 137.601C439.238 137.361 439.477 137.121 439.717 136.921C439.717 136.921 439.717 136.881 439.757 136.881C442.074 135.04 446.588 134.88 450.702 136C450.862 136.04 451.061 136.08 451.221 136.16C451.261 136.16 451.301 136.2 451.341 136.2C451.461 136.24 451.581 136.28 451.701 136.32C451.9 136.4 452.06 136.44 452.26 136.52C452.459 136.601 452.619 136.641 452.819 136.721C452.939 136.761 453.099 136.841 453.218 136.881C453.378 136.961 453.538 137.041 453.698 137.121C453.858 137.201 454.017 137.281 454.177 137.361C454.337 137.441 454.497 137.521 454.617 137.601C458.252 139.682 461.128 143.284 461.447 146.246C461.447 146.366 461.487 146.446 461.487 146.566C461.487 146.807 461.487 147.047 461.487 147.247C461.487 147.367 461.447 147.447 461.447 147.567C461.407 147.847 461.327 148.127 461.207 148.367L448.984 176.024L448.585 176.944Z" fill="#089BAB"/>
<path d="M443.152 140.443C440.875 139.642 438.598 138.882 436.322 138.081C435.762 137.881 435.003 138.242 434.764 138.762C430.729 147.167 426.655 155.612 422.62 164.017C421.821 165.658 424.298 167.018 425.057 165.377C428.932 157.293 432.806 149.248 436.681 141.163C438.598 141.844 440.516 142.484 442.433 143.164C444.191 143.725 444.83 141.003 443.152 140.443Z" fill="#089BAB"/>
<path d="M425.584 167.8L425.212 168.642L447.858 178.687L448.23 177.845L425.584 167.8Z" fill="white"/>
<path d="M461.407 147.607L438.998 137.681C438.998 137.681 438.998 137.641 439.038 137.641C439.238 137.401 439.477 137.161 439.717 136.961L461.487 146.606C461.487 146.847 461.487 147.087 461.487 147.287C461.447 147.407 461.407 147.527 461.407 147.607Z" fill="white"/>
<path d="M416.189 246.265C415.989 246.505 415.79 246.786 415.59 247.026L396.376 238.501C396.416 238.22 396.496 237.98 396.536 237.74C396.536 237.7 396.576 237.62 396.576 237.58L416.189 246.265Z" fill="white"/>
<path d="M421.622 236.299C419.704 235.979 418.666 233.338 417.947 231.657C418.466 230.696 419.225 229.816 419.984 232.417C420.423 233.858 423.26 234.698 422.221 231.777C421.742 230.416 421.302 227.654 419.585 225.173C419.025 224.412 417.827 223.052 416.509 222.131C415.59 216.488 413.633 204.761 412.554 198.317L415.231 194.755L416.549 191.793C413.553 185.269 411.635 182.267 408.719 175.744C390.584 184.869 386.43 184.149 393.54 203.56C396.696 212.205 402.848 223.852 405.124 228.255C406.682 234.178 409.998 239.661 412.474 241.823C414.112 243.263 415.55 242.783 415.43 241.943C415.55 241.943 415.71 241.903 415.83 241.903C417.148 242.543 418.586 241.903 418.466 241.142C418.586 241.062 418.746 241.022 418.866 240.942C419.425 241.062 420.224 241.062 420.863 240.502C421.702 239.821 421.382 239.341 421.102 239.061C421.142 239.021 421.182 238.981 421.222 238.901C422.7 238.941 423.26 236.58 421.622 236.299Z" fill="#F1B7AC"/>
<path d="M420.623 238.541C418.186 237.74 416.389 235.739 415.83 233.258C415.75 232.977 415.31 233.097 415.39 233.378C415.99 236.019 417.947 238.14 420.503 238.981C420.783 239.101 420.903 238.621 420.623 238.541Z" fill="#FF8A47"/>
<path d="M418.386 240.382C416.269 239.461 414.711 237.7 413.992 235.499C413.912 235.219 413.433 235.339 413.553 235.619C414.272 237.94 415.91 239.821 418.147 240.782C418.426 240.902 418.666 240.502 418.386 240.382Z" fill="#FF8A47"/>
<path d="M415.63 241.502C413.992 240.342 412.754 238.781 411.995 236.9C411.875 236.619 411.436 236.74 411.556 237.02C412.354 239.021 413.633 240.662 415.39 241.903C415.63 242.103 415.87 241.703 415.63 241.502Z" fill="#FF8A47"/>
<path d="M412.275 197.076C411.875 196.076 411.476 195.035 411.116 194.034C410.996 193.754 410.557 193.874 410.677 194.154C411.076 195.155 411.476 196.196 411.835 197.196C411.955 197.476 412.394 197.356 412.275 197.076Z" fill="black"/>
<path d="M473.75 206.001C469.396 205.241 464.882 204.12 460.409 203.96L458.092 210.724C448.065 208.163 434.644 206.482 428.572 205.801C427.973 204.04 427.014 202.439 425.616 201.199C423.779 199.518 420.943 198.757 419.784 196.436C419.265 195.395 417.507 195.875 417.627 197.036C417.747 198.877 418.786 199.958 420.184 201.079C420.543 201.359 421.182 201.719 421.422 202.159C422.7 204.32 420.663 204.681 419.425 204.4C417.627 204.04 415.71 200.758 414.911 200.038C414.072 198.877 412.115 200.038 412.954 201.279C413.153 201.599 413.393 201.959 413.673 202.319C412.834 202.359 412.075 203.16 412.674 204C412.834 204.2 412.994 204.4 413.153 204.641C412.354 204.681 411.595 205.841 412.315 206.682C412.474 206.882 412.634 207.082 412.794 207.282C412.235 207.522 411.795 208.203 412.195 208.923C414.831 213.806 419.345 217.328 424.498 218.889C428.173 221.09 437.36 226.013 455.655 232.777C474.629 239.781 473.87 231.056 480.821 210.284C481.14 209.243 476.387 206.442 473.75 206.001Z" fill="#F1B7AC"/>
<path d="M484.176 199.237C483.057 203.04 482.139 206.482 480.861 210.204C477.385 209.484 473.87 208.763 470.355 208.123C466.44 207.402 462.526 206.722 458.571 206.202L460.968 181.707L461.727 173.742C464.723 174.903 467.479 175.904 469.955 176.864C482.898 181.747 488.45 184.669 484.176 199.237Z" fill="#FF8A47"/>
<path d="M463.404 196.236C462.246 199.157 461.088 202.079 459.929 204.961C459.809 205.241 460.249 205.401 460.369 205.121C461.527 202.199 462.685 199.277 463.844 196.396C463.924 196.156 463.484 195.956 463.404 196.236Z" fill="white"/>
<path d="M464.203 211.805C462.526 211.365 460.848 210.924 459.17 210.524C458.891 210.444 458.771 210.884 459.05 210.964C460.728 211.405 462.406 211.845 464.084 212.245C464.363 212.325 464.483 211.845 464.203 211.805Z" fill="black"/>
<path d="M417.947 206.722C416.509 205.721 415.31 204.441 414.392 202.96C414.232 202.719 413.832 202.92 413.992 203.2C414.951 204.761 416.189 206.081 417.707 207.162C417.987 207.282 418.226 206.882 417.947 206.722Z" fill="#FF8A47"/>
<path d="M416.349 208.203C415.39 207.402 414.591 206.482 413.912 205.401C413.792 205.201 413.433 205.401 413.553 205.601C414.232 206.682 415.071 207.642 416.029 208.483C416.269 208.643 416.549 208.363 416.349 208.203Z" fill="#FF8A47"/>
<path d="M413.593 203C413.553 202.72 413.074 202.84 413.153 203.12C413.633 205.961 414.112 208.803 414.591 211.645C414.631 211.925 415.111 211.805 415.031 211.525C414.551 208.683 414.072 205.841 413.593 203Z" fill="#FF8A47"/>
<path d="M459.57 164.937C459.57 165.177 456.294 169.9 453.898 173.342C453.818 174.503 453.778 175.704 453.698 176.864L464.842 177.224L468.078 168.499L459.57 164.937Z" fill="#F1B7AC"/>
<path d="M455.935 170.42C457.812 167.699 459.57 165.137 459.57 164.937L464.044 166.978C462.326 169.26 459.011 170.26 455.935 170.42Z" fill="black"/>
<path d="M475.468 157.253C475.348 154.011 470.355 150.809 466.52 150.449C464.843 150.289 464.403 148.968 463.644 150.128C461.727 153.01 455.535 161.735 455.895 165.057C456.454 169.9 462.326 170.821 466.121 168.9C469.916 166.978 475.668 161.855 475.468 157.253Z" fill="#F1B7AC"/>
<path d="M464.922 147.647C466.68 147.727 468.637 149.768 469.276 151.089C472.392 152.25 475.348 154.731 475.468 157.213C475.588 160.294 473.071 163.616 470.235 166.058C469.396 164.977 469.596 163.817 469.236 162.296C466.52 159.134 468.078 156.292 468.717 154.731C467.479 154.811 463.325 151.609 463.165 150.169C463.085 148.047 464.363 147.647 464.922 147.647Z" fill="#58434A"/>
<path d="M473.151 166.058C473.551 164.257 471.713 162.016 469.196 162.336C468.078 164.017 466.96 165.618 465.761 167.259C466.4 168.219 468.238 169.42 469.836 169.26C471.673 169.02 472.752 167.979 473.151 166.058Z" fill="#F1B7AC"/>
<path d="M471.074 165.458C470.315 165.578 469.596 165.698 468.837 165.818C468.557 165.858 468.677 166.298 468.957 166.258C469.716 166.138 470.435 166.018 471.194 165.898C471.513 165.858 471.354 165.418 471.074 165.458Z" fill="#FF8A47"/>
<path d="M462.566 164.817C462.166 165.177 461.567 165.217 461.128 164.857C460.888 164.657 460.568 164.977 460.808 165.177C461.407 165.698 462.326 165.698 462.885 165.137C463.085 164.937 462.765 164.577 462.566 164.817Z" fill="#FF8A47"/>
<path d="M461.287 159.374C460.928 159.294 460.528 159.174 460.249 158.934C459.969 158.654 459.849 158.093 460.329 157.973C460.608 157.893 460.488 157.453 460.209 157.533C459.65 157.653 459.37 158.253 459.57 158.774C459.809 159.414 460.528 159.654 461.128 159.814C461.447 159.894 461.567 159.454 461.287 159.374Z" fill="#FF8A47"/>
<path d="M461.927 153.731C461.807 153.691 461.687 153.651 461.567 153.611C461.008 153.41 460.728 154.291 461.327 154.491C461.447 154.531 461.567 154.571 461.687 154.611C462.246 154.811 462.486 153.931 461.927 153.731Z" fill="#58434A"/>
<path d="M466.48 156.372C466.36 156.292 466.201 156.172 466.081 156.092C465.881 155.932 465.561 156.052 465.442 156.252C465.322 156.492 465.402 156.732 465.601 156.892C465.721 156.973 465.881 157.093 466.001 157.173C466.201 157.333 466.52 157.213 466.64 157.013C466.8 156.772 466.68 156.532 466.48 156.372Z" fill="#58434A"/>
<path d="M465.322 157.613C465.082 157.933 464.843 158.253 464.603 158.533C464.403 158.774 464.843 159.014 465.002 158.774C465.242 158.453 465.482 158.133 465.721 157.853C465.921 157.613 465.522 157.373 465.322 157.613Z" fill="black"/>
<path d="M461.008 154.931C460.768 155.252 460.528 155.572 460.289 155.852C460.089 156.092 460.528 156.332 460.688 156.092C460.928 155.772 461.168 155.452 461.407 155.172C461.607 154.931 461.208 154.691 461.008 154.931Z" fill="black"/>
<path d="M469.956 176.864L467.639 178.105L460.928 181.707L450.223 187.471L452.819 174.343L453.099 172.902L453.618 170.26C454.736 170.741 455.935 171.221 457.173 171.741L461.687 173.742C464.723 174.903 467.479 175.904 469.956 176.864Z" fill="#F1B7AC"/>
</svg>
