<svg width="20" height="20" viewBox="0 0 20 20" fill="none" xmlns="http://www.w3.org/2000/svg">
<path d="M9.89905 3.03762C9.11309 3.03762 8.4642 3.30649 7.90811 3.86258C7.35189 4.4188 7.08291 5.06781 7.08291 5.85352C7.08291 6.63946 7.35189 7.28847 7.9081 7.84456C8.46445 8.40067 9.11335 8.66965 9.89905 8.66965C10.6849 8.66965 11.3339 8.40079 11.8901 7.84458C11.8901 7.84458 11.8901 7.84457 11.8901 7.84457M9.89905 3.03762L11.9608 3.79187C12.5356 4.36682 12.8152 5.04126 12.8152 5.85352C12.8152 6.66602 12.5356 7.34033 11.9608 7.91528L11.8901 7.84457M9.89905 3.03762C10.6849 3.03762 11.3339 3.30649 11.8901 3.86257M9.89905 3.03762L11.8901 3.86257M11.8901 7.84457C12.4462 7.28835 12.7152 6.63946 12.7152 5.85352C12.7152 5.06781 12.4462 4.4188 11.8901 3.86257M11.8901 7.84457L11.8901 3.86257M12.6946 8.64896L12.6946 8.64895C13.4624 7.88107 13.8528 6.93902 13.8528 5.85352C13.8528 4.76838 13.4625 3.82621 12.6945 3.05808L12.6945 3.05806C11.9265 2.2903 10.9843 1.9 9.89905 1.9C8.81355 1.9 7.8715 2.29031 7.10361 3.0582C6.33572 3.82608 5.94529 4.76826 5.94529 5.85352C5.94529 6.93901 6.33572 7.88119 7.10361 8.64908L7.10362 8.6491C7.87174 9.41684 8.81391 9.80728 9.89905 9.80728C10.9844 9.80728 11.9266 9.41697 12.6946 8.64896Z" fill="#495057" stroke="#495057" stroke-width="0.2"/>
<path d="M16.6109 13.2746L16.6109 13.2746C16.6757 13.6367 16.72 13.9804 16.7419 14.2963M16.6109 13.2746L16.7419 14.2963M16.6109 13.2746C16.5453 12.9089 16.4606 12.5626 16.359 12.2453L16.359 12.2452M16.6109 13.2746L16.359 12.2452M16.7419 14.2963C16.7634 14.6034 16.7743 14.9237 16.7744 15.2483V15.2483C16.7744 16.1065 16.5008 16.8107 15.9542 17.3309L15.8853 17.2584M16.7419 14.2963L15.8853 17.2584M15.8853 17.2584L15.9542 17.3309C15.4153 17.8435 14.7051 18.1 13.8521 18.1H6.14795C5.29469 18.1 4.58443 17.8435 4.04569 17.3309M15.8853 17.2584L4.04569 17.3309M16.359 12.2452C16.2533 11.9154 16.11 11.59 15.9328 11.2784C15.7482 10.9535 15.5305 10.6692 15.2849 10.4343C15.0261 10.1866 14.7103 9.9887 14.3475 9.8449L14.3475 9.84488M16.359 12.2452L14.3475 9.84488M14.3475 9.84488C13.9838 9.701 13.5823 9.62876 13.1552 9.62876C12.9598 9.62876 12.78 9.71155 12.4742 9.91058L12.4742 9.91062M14.3475 9.84488L12.4742 9.91062M12.4742 9.91062C12.2868 10.0329 12.0674 10.1743 11.8225 10.3308C11.6226 10.4581 11.3474 10.5801 11.0014 10.6918L11.0013 10.6918M12.4742 9.91062L11.0013 10.6918M11.0013 10.6918C10.6686 10.7995 10.3316 10.8539 9.99951 10.8539C9.6677 10.8539 9.33065 10.7995 8.99769 10.6918L8.99765 10.6918M11.0013 10.6918L8.99765 10.6918M8.99765 10.6918C8.6519 10.5801 8.37655 10.4582 8.17709 10.3309M8.99765 10.6918L8.17709 10.3309M3.64047 12.2454L3.64048 12.2454C3.74617 11.9152 3.88963 11.5899 4.06661 11.2784C4.06661 11.2784 4.06661 11.2784 4.06661 11.2784L4.15356 11.3278L3.64047 12.2454ZM3.64047 12.2454C3.53901 12.5627 3.45439 12.9089 3.38876 13.2745L3.64047 12.2454ZM4.04569 17.3309L4.04566 17.3308C3.49916 16.8103 3.22556 16.1064 3.22556 15.2484L4.04569 17.3309ZM15.1698 16.5067L15.1698 16.5067C15.4804 16.2111 15.6367 15.8048 15.6368 15.2485C15.6367 14.95 15.6268 14.6564 15.607 14.3758L15.6065 14.3688H15.6066C15.5874 14.0964 15.5485 13.7959 15.4912 13.4754C15.4342 13.158 15.3616 12.8608 15.2756 12.5921C15.1941 12.3374 15.0824 12.0843 14.9437 11.8405L14.9437 11.8404C14.8124 11.6093 14.6624 11.4131 14.4985 11.2563L14.5676 11.1841L14.4985 11.2563C14.3484 11.1127 14.1572 10.9931 13.9288 10.9027C13.7273 10.823 13.4999 10.7773 13.251 10.7681C13.2185 10.7863 13.1684 10.8161 13.0954 10.8636L13.0409 10.7798M15.1698 16.5067L11.3206 11.6792M15.1698 16.5067C14.8512 16.81 14.4246 16.9624 13.8519 16.9624H6.14795C5.57511 16.9624 5.14859 16.81 4.83006 16.5068C4.51947 16.2111 4.36318 15.8046 4.36318 15.2484C4.36318 14.9508 4.373 14.6571 4.39261 14.3753L4.39261 14.3753C4.4116 14.1007 4.45051 13.7981 4.50846 13.4756L4.50846 13.4756C4.56553 13.1579 4.63802 12.8606 4.7239 12.5923M15.1698 16.5067L5.0557 11.8403M13.0409 10.7798L13.0955 10.8635C12.9024 10.9895 12.6862 11.1288 12.4347 11.2896L12.4346 11.2896C12.1481 11.4723 11.7832 11.6348 11.3513 11.7744M13.0409 10.7798C13.1356 10.7181 13.1941 10.6847 13.2269 10.6672L13.0409 10.7798ZM11.3513 11.7744L11.3206 11.6792M11.3513 11.7744C11.3513 11.7744 11.3513 11.7744 11.3513 11.7744L11.3206 11.6792M11.3513 11.7744C10.9063 11.9182 10.4515 11.9915 9.99963 11.9915C9.54773 11.9915 9.09303 11.9182 8.64782 11.7742M11.3206 11.6792C10.8851 11.8199 10.4407 11.8915 9.99963 11.8915C9.55859 11.8915 9.11426 11.8199 8.67859 11.6791C8.25244 11.5415 7.89575 11.3821 7.6189 11.2056C7.37329 11.0487 7.15112 10.9054 6.95837 10.7798C6.86365 10.718 6.80518 10.6847 6.77234 10.6672M8.64782 11.7742C8.64784 11.7742 8.64785 11.7742 8.64787 11.7742L8.67858 11.6791L8.64782 11.7742ZM8.64782 11.7742C8.2163 11.6349 7.85123 11.4723 7.56514 11.2899L7.56507 11.2898C7.31924 11.1328 7.09681 10.9894 6.90378 10.8636L6.90375 10.8636C6.83092 10.8161 6.78083 10.7863 6.74829 10.7681M6.74829 10.7681C6.75717 10.7677 6.76608 10.7674 6.77501 10.7672L6.77234 10.6672M6.74829 10.7681C6.73938 10.7631 6.73178 10.7589 6.7254 10.7555L6.77234 10.6672M6.74829 10.7681C6.49947 10.7773 6.27213 10.823 6.07074 10.9027L6.07073 10.9027C5.84216 10.9931 5.65102 11.1126 5.50092 11.2563L5.50092 11.2563C5.33703 11.4132 5.187 11.6094 5.0557 11.8403M6.77234 10.6672C6.50293 10.6744 6.25476 10.7223 6.03394 10.8097M6.03394 10.8097C5.79517 10.9042 5.59253 11.0302 5.43176 11.1841L6.03394 10.8097ZM6.03394 10.8097L5.0557 11.8403M4.7239 12.5923C4.80557 12.3373 4.91712 12.0843 5.0557 11.8403M4.7239 12.5923L4.62866 12.5618L4.7239 12.5923C4.7239 12.5923 4.7239 12.5923 4.7239 12.5923ZM8.17709 10.3309C7.9345 10.1758 7.71504 10.0344 7.52481 9.91048L8.17709 10.3309ZM4.71431 10.4345L4.71431 10.4345L5.65189 9.84502C5.28928 9.98858 4.97343 10.1865 4.71431 10.4345ZM6.84412 9.62864C6.41679 9.62864 6.01548 9.701 5.65191 9.84501L6.84412 9.62864ZM3.38876 13.2746C3.32376 13.6362 3.27968 13.98 3.25778 14.2967L3.38876 13.2746Z" fill="#495057" stroke="#495057" stroke-width="0.2"/>
</svg>
