<svg width="18" height="15" viewBox="0 0 18 15" fill="none" xmlns="http://www.w3.org/2000/svg">
<path d="M15.6004 5.72205e-05C15.5216 -7.05719e-05 15.4435 0.0154047 15.3708 0.0455904C15.298 0.0757751 15.2319 0.120073 15.1763 0.175929L1.97653 13.3757C1.86876 13.4891 1.80957 13.6402 1.81157 13.7966C1.81358 13.9531 1.87662 14.1025 1.98726 14.2132C2.09789 14.3238 2.24738 14.3869 2.40383 14.3889C2.56028 14.3909 2.71133 14.3317 2.82477 14.2239L16.0245 1.02416C16.1084 0.940253 16.1655 0.833371 16.1886 0.717021C16.2117 0.600672 16.1998 0.480078 16.1544 0.370478C16.1091 0.260879 16.0322 0.167193 15.9336 0.101262C15.835 0.0353308 15.719 0.000112534 15.6004 5.72205e-05Z" fill="#4D4D4D"/>
<path d="M8.98782 2.39999C7.43198 2.39999 5.93163 2.86048 4.52841 3.76871C3.25081 4.5937 2.10071 5.7753 1.20222 7.18115V7.18415C1.94996 8.2555 2.76894 9.16148 3.64868 9.89197C3.65664 9.89862 3.66313 9.90686 3.66774 9.91615C3.67236 9.92544 3.67499 9.93558 3.67549 9.94594C3.67598 9.9563 3.67432 9.96665 3.67061 9.97634C3.6669 9.98603 3.66122 9.99484 3.65393 10.0022L2.90694 10.7481C2.89367 10.7615 2.87584 10.7694 2.85701 10.7702C2.83818 10.771 2.81972 10.7647 2.80532 10.7526C1.87084 9.96509 1.00348 8.99911 0.214869 7.86813C0.0791907 7.6734 0.00446741 7.44272 0.000194108 7.20542C-0.0040792 6.96812 0.0622904 6.7349 0.190869 6.53541C1.18122 4.98557 2.45583 3.68022 3.8763 2.76111C5.47564 1.72501 7.19686 1.20002 8.98782 1.20002C9.95454 1.20302 10.9144 1.36232 11.8303 1.67176C11.8424 1.67585 11.8532 1.68297 11.8618 1.69242C11.8703 1.70188 11.8763 1.71336 11.8792 1.72579C11.8821 1.73821 11.8818 1.75117 11.8783 1.76344C11.8748 1.7757 11.8682 1.78687 11.8591 1.79588L11.0499 2.60511C11.0313 2.62329 11.0082 2.6363 10.9831 2.64287C10.9579 2.64945 10.9314 2.64936 10.9063 2.64261C10.2796 2.48123 9.63498 2.39971 8.98782 2.39999Z" fill="#4D4D4D"/>
<path d="M17.8069 7.85231C16.8147 9.38678 15.5273 10.6903 14.0843 11.6221C12.488 12.6541 10.7255 13.1997 8.98782 13.1997C8.03135 13.198 7.08199 13.0354 6.1795 12.7186C6.16748 12.7144 6.15671 12.7072 6.14823 12.6977C6.13975 12.6882 6.13382 12.6767 6.131 12.6643C6.12819 12.6519 6.12858 12.639 6.13215 12.6268C6.13571 12.6145 6.14233 12.6034 6.15138 12.5945L6.95949 11.7864C6.9783 11.7679 7.00166 11.7547 7.0272 11.7481C7.05275 11.7415 7.07957 11.7418 7.10498 11.7489C7.71883 11.9149 8.35191 11.9993 8.98782 11.9997C10.5137 11.9997 12.0095 11.5336 13.4334 10.6123C14.735 9.77227 15.8986 8.5918 16.7993 7.19982C16.8 7.19897 16.8003 7.19791 16.8003 7.19682C16.8003 7.19574 16.8 7.19468 16.7993 7.19382C16.1455 6.1645 15.3341 5.24419 14.3948 4.4665C14.3868 4.45987 14.3802 4.45164 14.3755 4.44233C14.3709 4.43302 14.3682 4.42284 14.3676 4.41243C14.3671 4.40202 14.3687 4.39162 14.3725 4.38188C14.3762 4.37214 14.3819 4.36329 14.3892 4.35588L15.1355 3.61002C15.1487 3.59669 15.1664 3.58879 15.1851 3.58789C15.2039 3.58698 15.2223 3.59314 15.2367 3.60514C16.2394 4.44944 17.1074 5.44185 17.8106 6.54809C17.9349 6.74303 18.0007 6.96955 18 7.20075C17.9993 7.43194 17.9323 7.65809 17.8069 7.85231Z" fill="#4D4D4D"/>
<path d="M9.00064 10.7998C8.73099 10.7999 8.46218 10.7698 8.19928 10.7098C8.186 10.707 8.17372 10.7007 8.16374 10.6916C8.15376 10.6824 8.14646 10.6707 8.14261 10.6577C8.13876 10.6446 8.13851 10.6308 8.14189 10.6177C8.14526 10.6046 8.15214 10.5926 8.16178 10.5831L12.3838 6.36214C12.3934 6.3525 12.4053 6.34562 12.4185 6.34225C12.4316 6.33887 12.4454 6.33912 12.4584 6.34297C12.4714 6.34682 12.4831 6.35412 12.4923 6.3641C12.5015 6.37408 12.5078 6.38636 12.5106 6.39964C12.6308 6.92686 12.6307 7.4744 12.5102 8.00157C12.3898 8.52874 12.1522 9.02202 11.815 9.44475C11.4778 9.86749 11.0496 10.2088 10.5624 10.4434C10.0752 10.678 9.54139 10.7998 9.00064 10.7998Z" fill="#4D4D4D"/>
<path d="M5.61741 8.03756C5.60787 8.0472 5.59589 8.05408 5.58276 8.05745C5.56962 8.06083 5.55582 8.06058 5.54281 8.05673C5.52981 8.05289 5.51809 8.04558 5.50891 8.0356C5.49972 8.02563 5.49342 8.01334 5.49066 8.00006C5.35467 7.40594 5.37174 6.78702 5.54029 6.20131C5.70883 5.61559 6.02333 5.08226 6.4543 4.65129C6.88527 4.22032 7.4186 3.90582 8.00432 3.73728C8.59004 3.56873 9.20896 3.55165 9.80308 3.68765C9.81635 3.6904 9.82864 3.69671 9.83862 3.7059C9.8486 3.71508 9.8559 3.7268 9.85974 3.7398C9.86359 3.75281 9.86384 3.76661 9.86047 3.77975C9.85709 3.79288 9.85022 3.80486 9.84057 3.81439L5.61741 8.03756Z" fill="#4D4D4D"/>
</svg>
