<svg width="17" height="16" viewBox="0 0 17 16" fill="none" xmlns="http://www.w3.org/2000/svg">
    <path d="M15.2333 7.36678L9.02274 13.4934C8.2619 14.244 7.22997 14.6657 6.15397 14.6657C5.07798 14.6657 4.04605 14.244 3.28521 13.4934C2.52436 12.7429 2.09692 11.7249 2.09692 10.6634C2.09692 9.60199 2.52436 8.58401 3.28521 7.83344L9.4958 1.70678C10.003 1.2064 10.691 0.925293 11.4083 0.925293C12.1256 0.925293 12.8136 1.2064 13.3208 1.70678C13.8281 2.20715 14.113 2.88581 14.113 3.59344C14.113 4.30108 13.8281 4.97973 13.3208 5.48011L7.10347 11.6068C6.84986 11.857 6.50588 11.9975 6.14722 11.9975C5.78855 11.9975 5.44457 11.857 5.19096 11.6068C4.93734 11.3566 4.79487 11.0173 4.79487 10.6634C4.79487 10.3096 4.93734 9.9703 5.19096 9.72011L10.9285 4.06678" stroke="#089BAB" stroke-width="1.2" stroke-linecap="round" stroke-linejoin="round"/>
</svg>
