<svg width="352" height="444" viewBox="0 0 352 444" fill="none" xmlns="http://www.w3.org/2000/svg">
<path d="M352 67H0V444H352V67Z" fill="white"/>
<path d="M182.416 400.719C241.345 400.719 289.117 397.21 289.117 392.883C289.117 388.555 241.345 385.047 182.416 385.047C123.487 385.047 75.7148 388.555 75.7148 392.883C75.7148 397.21 123.487 400.719 182.416 400.719Z" fill="#F5F5F5"/>
<path d="M182.112 175.43C190.325 175.43 196.982 168.651 196.982 160.289C196.982 151.926 190.325 145.147 182.112 145.147C173.9 145.147 167.242 151.926 167.242 160.289C167.242 168.651 173.9 175.43 182.112 175.43Z" fill="#BFDBF5"/>
<path d="M182.112 173.787C189.434 173.787 195.369 167.744 195.369 160.289C195.369 152.834 189.434 146.79 182.112 146.79C174.79 146.79 168.854 152.834 168.854 160.289C168.854 167.744 174.79 173.787 182.112 173.787Z" fill="#F9FAFA"/>
<path d="M183.222 160.289C183.22 160.509 183.152 160.723 183.028 160.905C182.905 161.087 182.73 161.228 182.527 161.31C182.324 161.392 182.102 161.412 181.887 161.368C181.673 161.323 181.476 161.216 181.322 161.059C181.168 160.902 181.064 160.703 181.022 160.487C180.981 160.271 181.003 160.047 181.088 159.844C181.172 159.641 181.314 159.467 181.497 159.345C181.679 159.223 181.893 159.158 182.112 159.158C182.259 159.159 182.404 159.189 182.539 159.246C182.674 159.304 182.797 159.387 182.9 159.492C183.003 159.597 183.085 159.721 183.14 159.858C183.195 159.995 183.223 160.141 183.222 160.289Z" fill="#BFDBF5"/>
<path d="M182.394 147.283H181.86V149.752H182.394V147.283Z" fill="#BFDBF5"/>
<path d="M182.394 170.839H181.86V173.309H182.394V170.839Z" fill="#BFDBF5"/>
<path d="M194.907 160.568V160.024H192.482V160.568H194.907Z" fill="#BFDBF5"/>
<path d="M171.771 160.568V160.024H169.346V160.568H171.771Z" fill="#BFDBF5"/>
<path d="M181.834 159.897L182.133 151.337L182.43 159.897H181.834Z" fill="#BFDBF5"/>
<path d="M181.787 160.441L176.059 154.169L182.209 160.013L181.787 160.441Z" fill="#BFDBF5"/>
<path d="M271 133H219V287H271V133Z" fill="#EDF5F6"/>
<path d="M338 133H279V287H338V133Z" fill="#EDF5F6"/>
<path d="M261.135 181.192C262.113 180.61 262.953 179.841 263.228 178.772C263.723 176.841 261.875 175.481 260.259 174.953C258.389 174.342 256.049 174.255 254.228 175.07C253.124 175.56 252.054 176.313 251.358 177.303C251.191 177.534 251.037 177.774 250.895 178.021C250.719 176.974 250.381 175.96 249.894 175.017C249.288 173.828 248.241 172.556 246.768 172.582C245.402 172.605 244.492 174.084 243.963 175.135C243.533 175.985 243.207 176.884 242.992 177.813C242.673 176.859 241.861 175.941 241.217 175.39C240.681 174.931 239.953 174.541 239.22 174.646C238.344 174.772 237.708 175.361 237.269 176.09C236.757 176.942 236.512 178.037 236.529 179.096C234.654 178.048 231.473 179.026 231.114 181.191L261.135 181.192Z" fill="#F3F9FF"/>
<path d="M324.058 230.286C325.036 229.704 325.876 228.934 326.151 227.866C326.646 225.934 324.797 224.575 323.181 224.047C321.311 223.436 318.972 223.349 317.151 224.164C316.047 224.654 314.976 225.407 314.28 226.397C314.113 226.628 313.959 226.867 313.817 227.115C313.64 226.067 313.302 225.054 312.815 224.111C312.21 222.922 311.163 221.65 309.689 221.676C308.324 221.699 307.414 223.178 306.884 224.229C306.455 225.079 306.129 225.978 305.914 226.907C305.595 225.953 304.782 225.035 304.139 224.484C303.603 224.025 302.875 223.635 302.141 223.74C301.266 223.866 300.636 224.455 300.191 225.184C299.677 226.036 299.433 227.131 299.451 228.189C297.576 227.142 294.395 228.12 294.036 230.291L324.058 230.286Z" fill="#E9F5FF"/>
<path d="M66 133H14V287H66V133Z" fill="#EDF5F6"/>
<path d="M50.61 244.338C51.8001 243.633 52.8223 242.693 53.1568 241.394C53.76 239.044 51.5118 237.391 49.545 236.749C47.2702 236.007 44.4246 235.903 42.21 236.887C40.866 237.483 39.5636 238.4 38.7174 239.603C38.5141 239.884 38.3255 240.176 38.1525 240.477C37.9374 239.202 37.5262 237.97 36.9334 236.823C36.1983 235.376 34.9238 233.83 33.1282 233.86C31.467 233.889 30.3603 235.686 29.7166 236.966C29.1934 238 28.7969 239.095 28.5358 240.225C28.148 239.061 27.1582 237.949 26.3768 237.28C25.725 236.721 24.8383 236.246 23.9457 236.374C22.8795 236.527 22.1073 237.244 21.5737 238.13C20.9485 239.167 20.6475 240.5 20.6718 241.787C18.3913 240.506 14.5224 241.703 14.0859 244.348L50.61 244.338Z" fill="#F3F9FF"/>
<path d="M133 133H73V287H133V133Z" fill="#EDF5F6"/>
<path d="M55.8846 181.192C56.864 180.61 57.7045 179.841 57.9777 178.772C58.4743 176.841 56.6256 175.481 55.0095 174.953C53.1387 174.342 50.8002 174.255 48.9792 175.07C47.8736 175.56 46.804 176.313 46.1082 177.303C45.9415 177.534 45.7869 177.774 45.6452 178.021C45.4682 176.974 45.1299 175.96 44.6426 175.017C44.0383 173.828 42.9907 172.556 41.517 172.582C40.1509 172.605 39.2422 174.084 38.7119 175.135C38.2829 175.985 37.9571 176.884 37.7418 177.813C37.4235 176.859 36.6096 175.941 35.9671 175.39C35.4311 174.931 34.7018 174.541 33.969 174.646C33.0927 174.772 32.4641 175.361 32.0195 176.09C31.5055 176.942 31.2613 178.037 31.2775 179.096C29.4032 178.048 26.222 179.026 25.8643 181.191L55.8846 181.192Z" fill="#F3F9FF"/>
<path d="M118.807 230.286C119.786 229.704 120.626 228.934 120.9 227.866C121.396 225.934 119.548 224.575 117.932 224.047C116.061 223.436 113.723 223.349 111.902 224.164C110.796 224.654 109.727 225.407 109.031 226.397C108.864 226.628 108.71 226.867 108.568 227.115C108.391 226.067 108.054 225.054 107.567 224.111C106.962 222.922 105.915 221.65 104.441 221.676C103.075 221.699 102.166 223.178 101.636 224.229C101.206 225.079 100.881 225.978 100.666 226.907C100.347 225.953 99.5336 225.035 98.8911 224.484C98.354 224.025 97.6258 223.635 96.893 223.74C96.0167 223.866 95.3811 224.455 94.9435 225.184C94.4295 226.036 94.1853 227.131 94.2015 228.189C92.3272 227.142 89.146 228.12 88.7871 230.291L118.807 230.286Z" fill="#E9F5FF"/>
<path d="M275.915 264.265C275.915 264.265 278.554 280.796 277.255 282.994C275.957 285.192 268.675 285.295 268.675 285.295L275.915 264.265Z" fill="#FEC513"/>
<path d="M249.843 288.543C246.773 292.629 245.473 290.057 245.473 290.057C245.076 288.707 244.555 287.355 244.473 285.952C243.912 276.35 243.236 268.14 243.236 267.613C243.236 267.013 238.374 263.873 237.644 262.774C236.913 261.675 232.519 259.872 232.703 259.217C232.887 258.561 238.059 260.001 239.23 260.84C240.4 261.678 243.166 262.906 244.745 263.098C246.324 263.29 246.011 262.329 246.755 260.916C247.498 259.504 248.853 259.452 249.253 259.644C249.652 259.836 248.838 260.36 248.558 262.554C248.278 264.749 247.259 266.077 246.896 266.513C246.532 266.948 246.617 267.767 246.617 267.767C246.832 272.603 248.155 275.948 248.754 277.231C248.931 277.612 249.044 277.813 249.044 277.813C249.044 277.813 252.912 284.457 249.843 288.543Z" fill="#F1B5AB"/>
<path d="M249.843 288.543C246.773 292.629 245.473 290.057 245.473 290.057C245.076 288.707 244.747 287.33 244.473 285.952C244.473 285.952 245.862 289.315 246.721 288.28C247.793 286.98 248.514 276.755 248.514 276.755C248.69 277.135 249.044 277.813 249.044 277.813C249.044 277.813 252.912 284.457 249.843 288.543Z" fill="#E88B87"/>
<path d="M270.548 224.313C270.548 224.313 261.634 220.414 262.105 231.745C262.576 243.076 266.388 247.68 262.915 250.469C259.442 253.259 262.083 257.027 263.61 257.933C265.137 258.838 269.853 250.749 269.853 250.749L270.548 224.313Z" fill="#4F3B43"/>
<path d="M269.4 224.945C269.4 224.945 263.886 224.561 262.43 230.315C262.43 230.315 262.013 232.411 261.65 233.141C261.286 233.871 256.447 236.856 257.123 237.797C257.799 238.739 259.101 238.687 258.996 239.629C258.892 240.57 258.268 243.761 259.881 244.598C261.493 245.435 267.32 245.959 267.476 248.051C267.632 250.143 266.071 255.637 266.071 255.637L271.377 256.579C271.377 256.579 277.88 248.261 277.204 245.959C276.528 243.658 274.865 226.226 274.865 226.226L269.4 224.945Z" fill="#F1B5AB"/>
<path d="M267.655 225.107C267.655 225.107 272.017 225.742 269.934 228.772C267.585 232.189 263.335 237.702 268.675 241.739C274.709 246.304 268.12 254.803 267.703 255.127C267.287 255.451 274.418 255.725 276.228 251.261C278.039 246.796 272.143 224.369 272.143 224.369L267.655 225.107Z" fill="#E88B87"/>
<path d="M291.426 249.214C290.173 252.807 287.091 254.283 284.153 254.831C283.297 254.99 282.431 255.083 281.562 255.11C280.221 255.162 278.878 255.08 277.553 254.865L279.752 249.15L281.927 243.494L276.915 225.429C277.776 225.154 278.694 225.108 279.578 225.297C281.546 225.717 284.037 227.496 284.911 233.519C286.431 244.054 294.131 241.476 291.426 249.214Z" fill="#443139"/>
<path d="M288.653 247.629C287.332 250.558 285.564 253.197 284.153 254.831C283.298 254.989 282.432 255.082 281.562 255.11C281.068 253.815 280.422 251.692 279.749 249.15C276.9 238.363 273.593 220.019 279.569 225.294C279.64 225.361 280.842 226.518 281.372 233.816C281.923 241.351 290.663 243.165 288.653 247.629Z" fill="#331A24"/>
<path d="M271.546 286.646C271.525 286.903 271.515 287.145 271.518 287.368C271.588 292.044 266.598 293.228 266.598 293.228L257.606 289.41L255.564 288.543L249.605 293.228C249.605 293.228 247.801 289.386 248.563 283.951C249.324 278.515 249.049 277.813 249.049 277.813C249.049 277.813 253.741 269.673 256.522 263.543C256.985 262.525 257.393 261.564 257.72 260.702C258.374 258.935 259.476 257.37 260.916 256.162C261.612 255.586 262.378 255.101 263.197 254.72C266.729 253.082 266.6 253.623 266.6 253.623C266.6 253.623 268.816 255.209 272.423 253.185C272.423 253.185 274.572 254.022 275.751 261.765C276.872 269.141 271.957 281.452 271.546 286.646Z" fill="#FF8A47"/>
<path d="M262.636 280.996C262.026 284.336 260.005 287.15 257.606 289.411L255.564 288.543L249.604 293.228C249.604 293.228 249.11 292.18 248.747 290.392C248.323 288.271 248.261 286.093 248.563 283.951C249.328 278.509 249.049 277.813 249.049 277.813C249.049 277.813 253.741 269.673 256.521 263.543C256.521 263.543 260.973 267.857 262.436 274.15C262.976 276.393 263.044 278.725 262.636 280.996Z" fill="#FEC513"/>
<path opacity="0.37" d="M262.637 280.996C262.027 284.336 260.005 287.15 257.607 289.41L255.564 288.543L249.605 293.228C249.605 293.228 249.111 292.18 248.747 290.392C253.638 286.641 262.28 274.375 262.439 274.149C262.978 276.393 263.046 278.725 262.637 280.996Z" fill="#F89739"/>
<path d="M271.546 286.646C271.525 286.903 271.516 287.145 271.518 287.368C271.589 292.044 266.598 293.228 266.598 293.228L255.564 288.543C255.564 288.543 259.653 285.491 262.637 280.996C262.507 281.247 259.431 287.29 262.637 287.699C265.917 288.119 271.546 286.646 271.546 286.646Z" fill="#D74F29"/>
<path opacity="0.37" d="M276.188 266.063L272.682 284.937L271.721 285.295L275.915 264.265L276.188 266.063Z" fill="#F89739"/>
<path d="M253.207 372.886C253.207 372.886 252.602 375.803 252.784 377.832C252.965 379.861 249.565 388.615 248.837 389.173C248.109 389.732 246.132 391.44 242.387 391.58L242.633 390.723C242.633 390.723 245.377 388.092 246.685 384.36C247.993 380.627 247.757 371.037 247.757 371.037L253.207 372.886Z" fill="#F1B5AB"/>
<path d="M272.014 372.641C272.014 372.641 271.41 375.558 271.59 377.588C271.771 379.617 268.373 388.37 267.645 388.929C266.917 389.488 264.94 391.195 261.193 391.335L261.44 390.477C261.44 390.477 264.861 386.933 265.878 383.109C267.114 378.465 266.573 370.792 266.573 370.792L272.014 372.641Z" fill="#F1B5AB"/>
<path d="M252.418 379.347C252.296 379.891 252.134 380.424 251.934 380.944C251.32 382.404 250.322 383.738 249.459 385.073C248.523 386.516 247.668 388.006 246.717 389.439C246.233 390.169 245.675 390.746 244.74 390.9C244.308 390.969 243.868 390.977 243.433 390.922C243.166 390.888 242.891 390.732 242.633 390.723C242.412 390.714 242.2 390.85 242.018 390.95C241.324 391.338 240.685 391.817 239.991 392.212C239.385 392.561 238.728 392.778 238.102 393.084C237.908 393.179 237.631 393.3 237.57 393.522C237.479 393.847 237.85 394.169 238.119 394.298C238.938 394.686 240.141 394.471 241.014 394.452C242.873 394.41 244.812 394.495 246.657 394.219C247.261 394.127 247.881 393.979 248.271 393.501C248.996 392.612 249.209 391.307 249.606 390.283C249.941 389.419 250.344 388.521 251.025 387.838C251.537 387.343 252.145 386.961 252.811 386.715C253.043 386.626 253.159 386.556 253.274 386.782C253.47 387.152 253.333 387.793 253.353 388.199C253.394 389.014 253.556 393.14 253.566 393.438C253.566 393.554 253.519 393.861 253.586 393.963C253.673 394.097 253.561 394.019 253.801 394.051C253.917 394.068 254.496 394.095 254.598 394.024C254.748 393.917 254.642 393.086 254.642 392.854C254.642 392.04 254.669 391.219 254.713 390.403C254.798 388.835 254.844 387.214 255.226 385.68C255.541 384.415 255.914 383.351 255.805 382.025C255.746 381.327 255.602 380.594 255.218 379.986C254.664 379.109 253.604 378.472 252.787 377.838L252.418 379.347Z" fill="#282E5B"/>
<path d="M271.291 378.789C271.169 379.333 271.007 379.866 270.807 380.386C270.192 381.845 269.194 383.18 268.331 384.516C267.396 385.958 266.541 387.448 265.589 388.88C265.105 389.61 264.547 390.188 263.612 390.342C263.18 390.411 262.739 390.418 262.305 390.363C262.039 390.33 261.763 390.174 261.505 390.164C261.284 390.156 261.072 390.291 260.891 390.397C260.197 390.784 259.557 391.264 258.863 391.658C258.258 392.007 257.6 392.225 256.975 392.531C256.779 392.625 256.504 392.747 256.443 392.967C256.352 393.293 256.722 393.616 256.992 393.744C257.81 394.131 259.013 393.918 259.887 393.899C261.746 393.856 263.685 393.941 265.53 393.666C266.135 393.574 266.754 393.426 267.144 392.948C267.869 392.058 268.081 390.754 268.479 389.73C268.815 388.865 269.216 387.968 269.897 387.285C270.408 386.789 271.017 386.407 271.684 386.162C271.916 386.072 272.032 386.003 272.147 386.228C272.344 386.598 272.206 387.24 272.227 387.646C272.268 388.461 272.43 392.587 272.44 392.885C272.44 393.001 272.393 393.308 272.459 393.411C272.547 393.545 272.435 393.467 272.674 393.499C272.79 393.516 273.369 393.544 273.471 393.471C273.622 393.365 273.515 392.534 273.516 392.307C273.516 391.488 273.54 390.671 273.588 389.855C273.672 388.287 273.717 386.667 274.099 385.131C274.414 383.867 274.794 382.803 274.678 381.478C274.62 380.78 274.477 380.046 274.091 379.437C273.538 378.562 272.479 377.924 271.66 377.291L271.291 378.789Z" fill="#282E5B"/>
<path d="M272.642 311.863C271.252 321.504 269.962 336.245 270.413 338.567C270.422 338.608 270.429 338.657 270.439 338.709C270.451 338.793 270.468 338.892 270.484 339.004C270.5 339.116 270.513 339.209 270.529 339.327C270.528 339.341 270.528 339.355 270.529 339.368C271.269 344.956 273.55 371.661 273.158 372.973C272.687 373.144 271.167 373.549 268.784 373.549C267.938 373.548 267.092 373.5 266.25 373.406C266.073 373.385 265.894 373.365 265.71 373.34C263.494 373.043 261.247 372.714 257.644 371.628C257.644 371.628 258.686 342.159 258.478 336.927C258.372 334.308 258.246 331.819 258.14 329.987L258.13 329.827L258.107 329.439C258.076 328.876 258.046 328.391 258.022 328.006C258.012 327.835 258.001 327.682 257.994 327.552L257.987 327.459L257.978 327.318V327.202L257.968 327.085V326.991L252.766 335.054C252.766 335.054 254.432 346.557 254.85 355.345C255.267 364.133 254.539 373.568 254.539 373.568C254.539 373.568 252.224 374.337 247.776 374.164C245.489 374.077 242.635 373.739 239.243 372.923C239.243 372.923 239.347 336.407 242.054 329.921C244.098 325.015 250.902 305.164 254.008 294.797C254.007 294.794 254.007 294.791 254.008 294.788V294.781C254.012 294.771 254.015 294.762 254.017 294.752C254.029 294.713 254.046 294.649 254.072 294.567C255.036 291.345 255.623 289.087 255.577 288.548C255.577 288.548 256.539 288.769 258.034 288.975C261.457 289.441 267.669 289.848 271.53 287.373C271.53 287.373 272.225 289.327 273.614 292.465C275.003 295.604 275.28 298.395 273.614 306.202C273.285 307.672 272.959 309.628 272.642 311.863Z" fill="#1F1F51"/>
<path d="M273.158 372.973C272.687 373.144 271.167 373.549 268.785 373.549C267.938 373.548 267.092 373.5 266.251 373.406C266.761 364.753 267.61 347.445 266.178 340.659C264.235 331.452 258.14 329.987 258.14 329.987L258.131 329.827L258.108 329.439L258.022 328.006L257.994 327.552L257.987 327.459L257.978 327.318V327.202L257.969 327.085V326.991L269.864 308.784C270.004 313.04 272.648 311.865 272.648 311.865C271.259 321.506 269.968 336.247 270.419 338.57C270.429 338.61 270.436 338.659 270.445 338.712C270.458 338.795 270.474 338.894 270.49 339.006C270.506 339.118 270.517 339.211 270.535 339.33C270.534 339.343 270.534 339.357 270.535 339.371C271.241 344.956 273.329 371.695 273.158 372.973Z" fill="#0E0E33"/>
<path opacity="0.51" d="M270.287 310.943L258.14 329.987L257.958 326.988L269.854 308.783C269.854 308.783 269.949 310.094 270.287 310.943Z" fill="#110708"/>
<path d="M257.959 326.988L252.756 335.051C252.756 335.051 254.422 346.555 254.84 355.343C255.258 364.131 254.53 373.565 254.53 373.565C254.53 373.565 252.214 374.335 247.767 374.161C249.686 364.465 250.545 336.233 250.783 334.73C251.06 332.984 269.858 308.783 269.858 308.783L257.959 326.988Z" fill="#0E0E33"/>
<path d="M258.022 288.974L257.606 289.414C257.606 289.414 255.628 291.393 253.999 294.786V294.779C254.003 294.77 254.006 294.76 254.008 294.75C254.02 294.712 254.037 294.648 254.063 294.565C254.325 293.66 255.274 290.346 255.568 288.547C255.564 288.543 256.526 288.764 258.022 288.974Z" fill="#0E0E33"/>
<path d="M285.046 243.261C282.829 240.144 279.359 236.918 279.637 230.176C279.637 230.046 279.645 229.918 279.647 229.793C279.653 229.461 279.638 229.128 279.602 228.798V228.782C279.779 222.961 271.441 220.991 267.589 225.124L267.658 225.111C268.13 225.022 270.629 224.707 271.383 227.734C272.215 231.084 264.958 235.129 267.58 238.547C270.202 241.965 278.389 246.498 268.816 254.659C268.816 254.659 281.231 260.31 285.741 251.661C287.684 247.926 286.726 245.624 285.046 243.261Z" fill="#4F3B43"/>
<path d="M274.848 257.541C274.554 257.567 270.079 256.626 267.999 255.945L269.604 254.974C269.604 254.974 273.674 256.154 274.42 256.255L274.848 257.541Z" fill="#D74F29"/>
<path d="M267.859 238.89C267.958 239.007 271.9 245.885 269.159 249.931C269.159 249.931 271.506 247.735 270.645 241.805L267.859 238.89Z" fill="#331A24"/>
<path d="M240.076 228.78C237.614 230.925 234.426 232.037 231.172 231.887C227.918 231.736 224.846 230.333 222.59 227.97C220.335 225.606 219.069 222.461 219.054 219.185C219.039 215.909 220.276 212.752 222.509 210.367C224.743 207.983 227.802 206.552 231.055 206.371C234.308 206.19 237.505 207.272 239.987 209.395C242.468 211.517 244.044 214.517 244.388 217.775C244.733 221.033 243.82 224.299 241.838 226.898C241.838 226.898 244.191 229.268 245.899 229.683C245.9 229.681 242.459 229.512 240.076 228.78Z" fill="#FFDBB1"/>
<path d="M133.06 207.679C129.321 208.441 125.434 207.73 122.202 205.691C118.971 203.653 116.641 200.444 115.695 196.728C114.749 193.012 115.259 189.072 117.12 185.723C118.981 182.374 122.05 179.872 125.693 178.734C129.336 177.596 133.275 177.909 136.695 179.609C140.115 181.308 142.755 184.264 144.069 187.865C145.384 191.467 145.272 195.438 143.757 198.959C142.242 202.48 139.44 205.281 135.93 206.783H135.937C135.937 206.783 136.979 210.556 138.484 211.967C138.478 211.968 135.067 209.803 133.06 207.679Z" fill="#F3CEB6"/>
<path d="M136.527 189.273C135.855 188.089 134.82 187.48 133.476 187.418C133.075 187.395 132.673 187.456 132.296 187.597C131.919 187.739 131.575 187.958 131.287 188.24C130.757 188.743 130.442 189.374 130.24 190.069C130.179 190.277 130.129 190.489 130.091 190.702C130.091 190.727 130.086 190.753 130.054 190.757C130.023 190.76 130.021 190.73 130.011 190.71L129.984 190.643C129.786 190.137 129.509 189.665 129.165 189.246C128.373 188.322 127.379 187.914 126.176 188.138C125.474 188.261 124.827 188.599 124.324 189.106C124.164 189.268 124.018 189.443 123.887 189.629C123.838 189.7 123.795 189.774 123.747 189.847C123.741 189.858 123.733 189.867 123.722 189.873C123.642 190.013 123.572 190.159 123.512 190.309C123.506 190.343 123.497 190.376 123.485 190.408C123.356 190.742 123.287 191.097 123.281 191.455C123.283 191.485 123.277 191.515 123.265 191.543C123.265 191.629 123.265 191.717 123.265 191.807C123.275 191.829 123.281 191.853 123.281 191.878C123.298 192.18 123.35 192.48 123.436 192.77V192.779C123.436 192.793 123.444 192.806 123.448 192.819L123.467 192.884C123.707 193.609 124.059 194.292 124.509 194.907C125.139 195.807 125.898 196.592 126.679 197.359C127.459 198.126 128.289 198.855 129.099 199.6C129.647 200.104 130.19 200.613 130.736 201.119C130.814 201.193 130.901 201.255 130.995 201.304C131.017 201.317 131.043 201.323 131.068 201.32C131.094 201.317 131.117 201.306 131.136 201.288C131.245 201.198 131.342 201.094 131.423 200.977C131.82 200.431 132.214 199.882 132.614 199.336C133.363 198.31 134.14 197.307 134.846 196.249C135.407 195.408 135.943 194.551 136.344 193.617C136.681 192.828 136.93 192.017 136.95 191.149C136.983 190.497 136.837 189.847 136.527 189.273Z" fill="white"/>
<path d="M235.713 221.94C235.739 222.018 235.702 222.075 235.597 222.11C235.539 222.13 235.448 222.154 235.324 222.186C235.2 222.217 235.107 222.242 235.046 222.263C234.985 222.284 234.886 222.323 234.759 222.379C234.632 222.435 234.535 222.472 234.471 222.496C234.456 222.503 234.439 222.507 234.422 222.507C234.405 222.507 234.388 222.504 234.373 222.496C234.358 222.488 234.345 222.477 234.334 222.464C234.324 222.45 234.317 222.434 234.314 222.418C234.21 222.107 234.064 221.641 233.877 221.021C233.689 220.4 233.543 219.934 233.439 219.624C233.394 219.49 233.323 219.427 233.245 219.433C233.134 219.44 232.542 219.626 231.469 219.991C230.396 220.357 229.813 220.57 229.72 220.632C229.652 220.678 229.641 220.768 229.685 220.901C229.787 221.201 229.948 221.651 230.168 222.25C230.388 222.849 230.549 223.298 230.65 223.598C230.687 223.714 230.664 223.782 230.58 223.811C230.515 223.833 230.417 223.86 230.285 223.894C230.153 223.928 230.053 223.955 229.988 223.978C229.923 224 229.839 224.035 229.721 224.086C229.603 224.137 229.515 224.173 229.453 224.194C229.438 224.202 229.421 224.207 229.403 224.208C229.386 224.208 229.368 224.205 229.352 224.198C229.336 224.191 229.322 224.18 229.31 224.166C229.299 224.153 229.291 224.137 229.287 224.12C229.16 223.743 228.988 223.173 228.77 222.408C228.553 221.644 228.381 221.073 228.254 220.697C228.121 220.301 227.902 219.712 227.6 218.931C227.297 218.149 227.079 217.56 226.946 217.164C226.92 217.088 226.946 217.037 227.035 217.008C227.097 216.987 227.192 216.96 227.32 216.927C227.449 216.895 227.551 216.868 227.61 216.846C227.669 216.824 227.765 216.788 227.891 216.729C228.016 216.671 228.109 216.639 228.171 216.613C228.249 216.586 228.298 216.604 228.319 216.665C228.418 216.959 228.554 217.404 228.726 218.002C228.898 218.6 229.034 219.045 229.134 219.34C229.166 219.435 229.222 219.48 229.299 219.477C229.394 219.477 229.997 219.289 231.108 218.912C232.194 218.544 232.784 218.326 232.875 218.26C232.946 218.213 232.961 218.126 232.918 218C232.823 217.713 232.668 217.286 232.455 216.719C232.242 216.152 232.088 215.723 231.992 215.433C231.969 215.365 231.992 215.316 232.074 215.291C232.157 215.265 232.235 215.242 232.363 215.21C232.49 215.179 232.586 215.151 232.651 215.129C232.716 215.107 232.801 215.072 232.921 215.019C233.04 214.967 233.129 214.932 233.19 214.911C233.278 214.881 233.335 214.903 233.36 214.979C233.493 215.374 233.676 215.975 233.91 216.781C234.144 217.586 234.327 218.187 234.46 218.583C234.587 218.959 234.796 219.517 235.087 220.257C235.377 220.997 235.586 221.558 235.713 221.94Z" fill="white"/>
<path d="M236.052 215.129C236.194 215.549 236.032 215.838 235.566 215.997C235.101 216.156 234.794 216.026 234.646 215.607C234.614 215.518 234.604 215.424 234.614 215.33C234.625 215.236 234.657 215.146 234.708 215.067C234.808 214.906 234.961 214.785 235.14 214.725C235.32 214.665 235.514 214.67 235.69 214.739C235.776 214.772 235.853 214.825 235.916 214.892C235.978 214.96 236.025 215.041 236.052 215.129ZM236.483 216.526C236.572 216.789 236.69 217.191 236.836 217.733C236.983 218.275 237.101 218.679 237.19 218.946C237.274 219.195 237.404 219.567 237.582 220.06C237.759 220.554 237.889 220.923 237.972 221.168C237.996 221.241 237.978 221.285 237.917 221.307L236.924 221.646C236.852 221.67 236.793 221.612 236.746 221.472C236.669 221.239 236.555 220.883 236.406 220.402C236.256 219.922 236.142 219.564 236.064 219.329C235.975 219.063 235.821 218.67 235.601 218.15C235.381 217.63 235.227 217.237 235.138 216.972C235.118 216.913 235.145 216.873 235.216 216.848C235.311 216.819 235.409 216.795 235.507 216.777C235.607 216.76 235.706 216.735 235.804 216.705C235.899 216.67 235.992 216.629 236.083 216.582C236.173 216.535 236.266 216.494 236.362 216.458C236.422 216.447 236.461 216.464 236.483 216.529V216.526Z" fill="white"/>
<path d="M177.433 389.765C173.728 388.781 171.863 382.178 172.389 378.541C172.689 376.456 171.01 364.466 169.755 353.918C168.822 346.064 168.123 339.011 168.652 337.442C169.52 334.865 169.517 329.147 169.437 325.957C169.405 324.595 169.355 323.693 169.355 323.693C169.355 323.693 183.936 324.675 182.26 327.094C181.742 327.846 181.547 329.176 181.488 330.758C181.489 330.772 181.489 330.785 181.488 330.799C181.364 334.315 181.883 339.054 180.95 341.471C179.591 344.985 177.211 376.628 177.866 379.959C178.521 383.29 183.452 387.538 185.391 389.907C187.001 391.874 181.141 390.749 177.433 389.765Z" fill="#F1B5AB"/>
<path d="M181.488 327.408V330.799C181.311 330.844 172.921 331.763 172.458 333.847C171.521 337.992 169.25 349.459 169.25 349.459C168.316 341.604 168.129 339.011 168.658 337.441C169.526 334.865 169.522 329.147 169.443 325.957L181.488 327.408Z" fill="#E88B87"/>
<path d="M187.628 389.936C186.863 389.386 184.082 388.128 183.808 387.928C183.591 387.773 182.777 389.004 180.74 388.728C179.617 388.563 178.592 387.993 177.856 387.125C177.189 386.35 176.543 385.565 175.859 384.796C174.972 383.802 173.954 382.809 173.312 381.712C173.101 381.327 172.925 380.923 172.787 380.506L172.38 379.361C171.599 379.864 170.587 380.381 170.075 381.063C169.72 381.537 169.604 382.1 169.569 382.633C169.505 383.643 169.905 384.449 170.254 385.405C170.679 386.569 170.776 387.8 170.911 388.993C170.981 389.615 171.033 390.237 171.062 390.856C171.071 391.031 170.993 391.671 171.144 391.746C171.245 391.797 171.808 391.761 171.923 391.746C172.155 391.715 172.049 391.777 172.129 391.673C172.192 391.594 172.8 388.249 172.813 387.623C172.813 387.623 176.564 390.524 177.3 391.183C177.697 391.532 178.306 391.633 178.9 391.688C180.71 391.852 182.599 391.737 184.415 391.719C185.271 391.712 186.452 391.844 187.237 391.526C187.428 391.454 187.594 391.327 187.715 391.161C187.715 391.161 188.392 390.489 187.628 389.936Z" fill="#200E2B"/>
<path d="M158.159 323.692C158.159 323.692 158.695 333.766 157.457 337.441C156.218 341.117 162.127 375.103 161.35 378.694C160.413 383.028 162.004 387.916 165.712 388.901C169.42 389.886 176.289 390.161 174.003 389.056C171.34 387.775 167.323 383.291 166.667 379.958C166.011 376.625 168.393 344.985 169.751 341.469C171.109 337.954 169.391 329.517 171.065 327.096C172.739 324.674 158.159 323.692 158.159 323.692Z" fill="#F1B5AB"/>
<path d="M170.272 332.558C170.272 332.558 165.972 334.071 162.849 334.254C159.726 334.437 157.285 339.091 157.285 339.091C157.285 339.091 158.601 331.616 158.226 329.292C157.851 326.969 170.407 330.171 170.407 330.171L170.272 332.558Z" fill="#E88B87"/>
<path d="M176.541 389.936C175.776 389.386 172.995 388.128 172.721 387.928C172.504 387.773 171.69 389.004 169.653 388.728C168.53 388.563 167.505 387.993 166.769 387.125C166.102 386.35 165.456 385.565 164.772 384.796C163.885 383.802 162.867 382.809 162.225 381.712C162.014 381.327 161.839 380.923 161.7 380.506L161.293 379.361C160.513 379.864 159.5 380.381 158.988 381.063C158.633 381.537 158.517 382.1 158.483 382.633C158.418 383.643 158.818 384.449 159.167 385.405C159.592 386.569 159.689 387.8 159.824 388.993C159.895 389.614 159.945 390.235 159.975 390.856C159.984 391.031 159.906 391.671 160.057 391.746C160.158 391.797 160.721 391.761 160.836 391.746C161.068 391.715 160.962 391.777 161.042 391.673C161.105 391.594 161.714 388.249 161.726 387.623C161.726 387.623 165.477 390.524 166.213 391.183C166.61 391.532 167.219 391.633 167.813 391.688C169.623 391.852 171.512 391.737 173.328 391.719C174.184 391.712 175.365 391.844 176.15 391.526C176.341 391.454 176.507 391.327 176.628 391.161C176.628 391.161 177.305 390.489 176.541 389.936Z" fill="#3A2246"/>
<path d="M185.335 328.494C174.278 333.488 155.073 330.124 155.073 330.124C154.071 325.4 153.368 320.617 152.968 315.804C151.769 301.073 154.053 290.26 157.218 286.195C158.463 284.59 159.849 284.038 161.209 284.705C161.695 284.939 162.198 285.134 162.714 285.287C165.356 286.102 168.645 286.136 171.538 285.916C175.307 285.628 178.401 284.913 178.499 284.938C179.407 285.958 180.243 287.041 180.999 288.18C181.908 289.564 182.715 291.145 182.715 292.381C182.715 293.04 182.859 295.364 183.079 298.534C183.795 308.95 185.335 328.494 185.335 328.494Z" fill="#055D67"/>
<path opacity="0.4" d="M183.215 300.535C183.215 300.535 174.598 301.014 169.594 303.163C159.144 307.651 154.692 309.915 152.968 315.81C151.769 301.079 154.053 290.266 157.218 286.201C158.909 285.675 160.76 285.386 162.709 285.296C165.516 285.163 168.523 285.424 171.532 285.925C174.73 286.479 177.89 287.235 180.994 288.189C181.902 289.574 182.709 291.154 182.709 292.391C182.712 293.049 182.994 297.365 183.215 300.535Z" fill="#00343F"/>
<path opacity="0.67" d="M153.022 300.305C153.022 300.305 157.791 302.844 161.572 302.372C161.572 302.372 164.794 292.877 165.284 289.47C165.371 288.866 165.648 288.274 166.253 288.245L171.247 288.09C171.419 288.082 171.59 288.108 171.751 288.169C171.912 288.229 172.059 288.321 172.183 288.44C172.308 288.56 172.406 288.703 172.474 288.862C172.541 289.02 172.576 289.191 172.575 289.364C172.566 292.312 172.712 299.157 174.262 299.881C174.262 299.881 182.427 298.507 183.06 298.319L182.797 294.374L179.006 284.806L157.858 285.481L153.279 298.178L153.022 300.305Z" fill="#001D3F"/>
<path d="M174.936 223.714C174.936 223.714 177.644 221.543 174.04 219.031C170.436 216.519 174.936 223.714 174.936 223.714Z" fill="#38262D"/>
<path d="M156.264 227.995C156.264 227.995 153.949 231.617 150.485 228.507C147.021 225.398 153.379 223.714 153.379 223.714L156.264 227.995Z" fill="#120D0A"/>
<path d="M150.921 227.561C152.114 228.478 153.725 228.521 155.012 227.754C156.274 227.002 157.866 225.449 156.264 222.837C153.841 218.885 147.305 222.69 150.378 227.044C150.538 227.237 150.72 227.411 150.921 227.561Z" fill="#58434A"/>
<path d="M163.761 241.282C163.761 241.282 158.471 241.897 155.714 236.811C152.958 231.725 156.321 225.908 156.321 225.908L163.761 241.282Z" fill="#120D0A"/>
<path d="M174.616 256.181C174.588 256.468 174.508 256.671 174.36 256.752C173.284 257.354 165.52 261.469 161.473 259.287L160.065 247.979C160.065 247.979 164.1 247.566 163.912 243.274C163.725 238.981 162.827 237.128 162.827 237.128L161.199 235.615L158.212 232.838L162.969 224.252L171.78 221.13C171.78 221.13 175.394 222.077 175.914 225.345C176.433 228.614 176.81 229.798 178.505 230.97C178.505 230.97 180.165 232.25 179.27 232.936C178.375 233.622 176.82 233.764 177.055 234.789C177.29 235.815 178.329 238.301 176.255 239.178C174.182 240.055 170.318 239.911 170.083 241.666C169.848 243.42 169.779 245.586 170.532 246.513C170.937 247.009 172.704 246.788 173.323 247.302C173.544 247.484 172.768 248.942 172.927 249.134L174.093 248.174C174.093 248.174 174.2 248.669 174.208 248.672C174.44 248.947 173.306 249.702 173.293 250.007C173.293 250.062 173.293 250.124 173.293 250.21L174.616 256.181Z" fill="#F1B5AB"/>
<path opacity="0.33" d="M172.093 246.931C172.093 246.931 172.672 253.954 171.222 254.631C169.771 255.309 164.729 254.891 164.729 254.891V257.053C164.729 257.053 175.727 258.915 175.369 256.383C175.012 253.851 173.075 247.093 173.075 247.093L172.093 246.931Z" fill="#FFA58D"/>
<path opacity="0.46" d="M175.243 223.407C175.243 223.407 173.32 224.314 170.586 226.986C167.851 229.658 166.262 234.142 166.262 234.142C166.262 234.142 164.565 231.3 165.725 226.393C166.885 221.486 173.842 219.073 175.243 223.407Z" fill="#E88B87"/>
<path d="M159.191 248.172L162.679 260.255C166.731 262.438 173.28 257.355 174.357 256.753C174.505 256.672 174.588 256.469 174.613 256.182C174.743 254.883 173.824 251.838 173.289 250.21C173.087 249.594 172.942 249.182 172.927 249.14L172.348 248.579C172.348 248.579 172.724 252.46 172.927 254.225C173.13 255.99 168.644 255.635 167.05 255.475C165.455 255.316 164.756 250.768 164.191 249.082C164.16 248.99 164.131 248.902 164.104 248.816C163.852 247.967 163.925 247.053 164.309 246.255C164.833 245.127 164.815 243.314 165.011 242.562C165.249 241.638 167.649 242.08 168.088 239.749C168.527 237.417 166.957 236.271 166.957 236.271L161.212 235.166C161.212 235.166 161.212 235.324 161.205 235.615L162.833 237.128C162.833 237.128 163.729 238.981 163.918 243.274C164.107 247.566 159.191 248.172 159.191 248.172Z" fill="#E88B87"/>
<path d="M174.69 222.64C174.69 222.64 176.137 218.959 172.015 217.592C167.892 216.225 158.668 218.048 156.515 225.421C156.515 225.421 173.621 224.688 174.69 222.64Z" fill="#6D5861"/>
<path d="M155.494 230.261C155.95 239.888 163.76 241.282 163.76 241.282C163.76 241.282 164.925 237.592 163.347 236.299C162.587 235.676 161.908 234.779 161.673 233.946C161.419 233.051 161.673 232.233 162.899 231.922C163.275 231.821 163.669 231.812 164.049 231.897C165.521 232.247 166.205 233.993 166.263 234.142C165.775 232.745 166.432 229.69 166.432 229.69C166.432 229.69 159.012 223.74 157.422 224.627C157.202 224.753 157.007 224.917 156.843 225.11C156.424 225.591 156.125 226.26 155.917 226.904C155.89 226.983 155.866 227.064 155.843 227.145C155.555 228.157 155.438 229.21 155.494 230.261Z" fill="#38262D"/>
<path d="M164.823 240.66C166.289 240.66 167.477 239.43 167.477 237.912C167.477 236.395 166.289 235.165 164.823 235.165C163.358 235.165 162.17 236.395 162.17 237.912C162.17 239.43 163.358 240.66 164.823 240.66Z" fill="#FC983A"/>
<path d="M155.845 227.145C155.845 227.145 156.139 232.89 161.672 233.943C161.419 233.047 161.672 232.229 162.898 231.918C163.274 231.817 163.669 231.809 164.049 231.894L164.526 230.81C164.526 230.81 159.186 223.791 156.843 225.106C156.355 225.384 155.999 226.015 155.845 227.145Z" fill="#120D0A"/>
<path d="M169.379 226.497C169.379 226.497 166.093 236.462 158.207 230.276C157.658 229.845 156.724 228.082 156.471 227.421C156.239 226.823 156.123 226.087 156.511 225.421C156.515 225.421 169.462 224.912 169.379 226.497Z" fill="#47333B"/>
<path d="M174.317 222.349C174.317 222.349 165.324 233.372 156.515 225.421C156.515 225.421 163.634 214.4 173.451 220.192C173.748 220.364 173.996 220.61 174.172 220.905C174.304 221.119 174.385 221.36 174.41 221.61C174.435 221.86 174.403 222.113 174.317 222.349Z" fill="#58434A"/>
<path d="M165.305 255.423C165.305 255.423 170.908 258.915 175.065 253.631L176.959 285.878C176.959 285.878 168.147 287.282 162.513 285.878C156.879 284.474 165.305 255.423 165.305 255.423Z" fill="#FC983A"/>
<path d="M174.839 267.157C174.839 267.157 174.632 281.912 161.277 280.443C153.483 279.585 166.038 286.38 166.038 286.38C166.038 286.38 172.578 286.779 175.531 286.031C178.484 285.282 174.839 267.157 174.839 267.157Z" fill="#066D78"/>
<path d="M186.57 264.674C186.57 264.674 186.57 264.577 186.56 264.422C186.546 264.072 186.517 263.462 186.465 262.685C186.272 259.774 185.77 254.507 184.541 251.353C184.512 251.279 184.484 251.205 184.453 251.133C184.128 250.346 183.758 249.703 183.323 249.292C183.15 249.121 182.947 248.982 182.725 248.884L182.58 248.825C179.131 247.454 172.624 247.093 172.624 247.093C172.624 247.093 175.657 257.92 174.63 272.259C173.603 286.598 179.388 298.11 179.388 298.11L186.134 297.383L185.75 295.202L185.334 287.402L187.179 287.845C187.179 287.845 188.337 277.78 188.323 277.615C188.309 277.45 186.57 264.674 186.57 264.674Z" fill="#089BAB"/>
<path opacity="0.4" d="M176.109 247.42C176.109 247.42 179.126 253.389 178.259 254.551C177.392 255.713 177.011 255.503 177.442 256.383C177.872 257.263 179.246 259.151 178.415 260.313C177.584 261.475 174.763 268.221 174.763 268.221L175.065 260.072V247.297L176.109 247.42Z" fill="#001D3F"/>
<path d="M165.993 278.037C165.993 278.037 165.761 276.216 165.389 273.452C167.541 269.988 169.344 266.85 169.344 266.85C169.344 266.85 165.319 265.593 164.945 262.892C164.945 262.892 164.563 263.135 163.963 263.565C162.896 256.727 161.611 249.552 160.591 247.297C159.38 247.436 158.181 247.663 157.002 247.977C156.95 247.991 157.056 248.284 157.002 248.298C153.957 249.123 149.999 250.302 149.466 251.629C149.052 252.664 148.666 256.653 148.966 260.582C149.301 264.992 150.355 269.326 150.355 269.326C150.355 269.326 150.958 272.187 152.661 275.634C152.907 276.133 153.703 277.496 153.973 277.969C154.027 278.066 154.083 278.161 154.138 278.255C154.138 278.255 155.037 282.729 153.958 286.661C152.909 290.491 151.99 294.612 149.468 295.951C149.468 295.951 159.369 299.366 164.665 299.947C164.665 299.947 165.733 292.031 166.224 283.416C166.338 281.619 166.261 279.815 165.993 278.035V278.037Z" fill="#089BAB"/>
<path d="M172.352 246.512L174.844 266.254L177.778 258.602L176.076 255.665L177.778 253.437L175.466 246.818L172.352 246.512Z" fill="#089BAB"/>
<path opacity="0.4" d="M163.25 264.091C163.25 264.091 156.579 268.787 156.251 274.753C156.251 274.753 155.64 273.204 155.273 268.607L154.314 259.667C154.314 259.667 157.185 267.712 163.25 264.091Z" fill="#001D3F"/>
<path opacity="0.4" d="M157 248.302L158.729 255.947L160.36 256.383L158.96 259.667L164.492 265.372C164.492 265.372 158.513 261.156 157.747 259.878C156.981 258.6 159.328 257.433 158.4 256.836C157.472 256.239 156.024 248.544 156.024 248.544L157 248.302Z" fill="#001D3F"/>
<path opacity="0.4" d="M165.401 273.626L165.872 277.096C165.872 277.096 158.834 285.245 153.948 286.664C155.027 282.732 154.001 278.037 154.001 278.037L155.456 279.253C156.063 279.762 156.836 280.028 157.627 279.999C158.417 279.97 159.169 279.65 159.739 279.098L165.401 273.626Z" fill="#001D3F"/>
<path opacity="0.4" d="M185.335 287.406L183.669 279.777C182.579 271.771 185.547 270.58 183.364 266.643C181.18 262.706 180.764 254.893 180.764 254.893C180.764 254.893 181.274 257.005 183.104 262.658C183.313 263.303 185.512 266.469 184.869 270.436C184.84 272.212 184.337 273.317 184.35 275.619C184.367 278.349 184.815 282.097 185.335 287.406Z" fill="#001D3F"/>
<path d="M158.992 250.346L161.149 256.763L170.96 253.228L168.717 246.931L158.992 250.346Z" fill="#223256"/>
<path d="M154.683 256.364L154.092 254.444L171.417 248.65L179.941 273.01L162.347 279.08L154.683 256.364Z" fill="#FFD9B2"/>
<path d="M171.387 249.657L152.918 256.161L161.423 280.582L179.892 274.078L171.387 249.657Z" fill="#0A183D"/>
<path d="M158.924 260.251L169.033 256.487L170.586 260.549L160.297 264.197L158.924 260.251Z" fill="#FFD9B2"/>
<path opacity="0.48" d="M164.353 258.23L163.354 263.113L167.878 261.509L169.033 256.487L164.353 258.23Z" fill="white"/>
<path d="M164.425 263.532L166.019 262.045C166.019 262.045 167.324 264.381 170.049 264.537C170.049 264.537 169.397 266.839 168.634 267.627C167.871 268.415 164.425 263.532 164.425 263.532Z" fill="#E67225"/>
<path d="M175.91 255.421C176.041 255.852 176.27 257.772 175.956 258.708C175.919 258.829 175.862 258.942 175.787 259.043C175.237 259.732 168.831 265.488 168.831 265.488C168.831 265.488 165.126 263.318 165.459 262.714C165.459 262.714 166.817 261.183 167.392 259.439C168.068 257.39 166.801 255.193 167.483 254.071C168.165 252.949 170.131 250.832 170.315 250.325C170.499 249.817 171.675 250.491 170.814 252.262C170.814 252.262 171.525 251.318 173.206 252.495C174.887 253.672 175.761 254.93 175.91 255.421Z" fill="#F1B5AB"/>
<path d="M170.815 252.263C170.815 252.263 169.186 253.427 169.132 254.513C169.079 255.6 168.867 257.373 168.867 257.373C168.867 257.373 170.372 255.694 170.681 253.899C170.99 252.104 170.815 252.263 170.815 252.263Z" fill="#E88B87"/>
<path opacity="0.46" d="M175.911 255.422C176.041 255.852 176.271 257.772 175.957 258.708C171.905 253.622 170.536 254.488 170.536 254.488C170.173 254.022 170.816 252.263 170.816 252.263C170.816 252.263 171.527 251.319 173.207 252.496C174.888 253.673 175.761 254.93 175.911 255.422Z" fill="#E88B87"/>
<path opacity="0.55" d="M154.561 261.945L157.041 271.503C157.041 271.503 158.094 268.222 163.024 264.199C163.024 264.199 160.262 265.121 157.855 268.919C157.855 268.919 157.276 270.106 156.758 267.779C156.239 265.452 154.561 261.945 154.561 261.945Z" fill="#001D3F"/>
<path d="M157.197 271.148C157.197 271.148 158.711 268.073 163.545 263.438C163.588 263.396 163.64 263.364 163.696 263.343C163.753 263.322 163.813 263.313 163.873 263.316C163.933 263.319 163.992 263.335 164.046 263.361C164.1 263.388 164.148 263.426 164.187 263.472C164.912 264.327 167.032 266.53 168.28 267.375C168.473 267.506 168.611 267.705 168.667 267.933C168.722 268.16 168.692 268.401 168.581 268.607C167.485 270.652 164.385 275.784 159.1 279.577L157.197 271.148Z" fill="#089BAB"/>
<path d="M133.48 291.069C133.412 291.186 133.331 291.294 133.238 291.392C132.746 291.923 131.69 292.42 130.506 292.656C130.359 292.693 130.21 292.718 130.06 292.731C129.528 292.807 128.988 292.818 128.453 292.764C128.332 292.751 128.215 292.716 128.106 292.663C125.683 291.979 121.739 287.999 120.559 287.729C119.264 287.432 121.362 284.725 121.362 284.725C121.362 284.725 121.678 285.096 123.33 284.725C124.982 284.353 127.218 283.467 128.928 283.73C129.868 283.877 130.331 284.917 130.918 285.464C130.974 285.517 131.035 285.567 131.098 285.612C131.435 285.824 131.807 285.974 132.197 286.055C132.261 286.071 132.319 286.105 132.363 286.153C132.408 286.202 132.437 286.263 132.447 286.328C132.457 286.393 132.447 286.46 132.419 286.519C132.391 286.579 132.346 286.629 132.29 286.663C132.231 286.701 132.158 286.742 132.081 286.779C131.801 286.919 130.966 286.726 130.122 286.521H130.11C129.241 286.311 128.366 286.091 128.086 286.224C128.07 286.23 128.056 286.239 128.043 286.251C127.837 286.429 128.189 287.561 128.738 288.774C128.738 288.774 130.937 290.287 133.242 290.287C133.238 290.281 133.803 290.487 133.48 291.069Z" fill="#F1B5AB"/>
<path d="M133.48 291.069C127.95 291.259 127.095 288.112 127.243 286.67C127.384 285.283 129.905 286.424 130.11 286.519C129.242 286.309 128.367 286.089 128.086 286.222C128.071 286.228 128.056 286.237 128.044 286.249C127.838 286.427 128.189 287.558 128.738 288.771C128.738 288.771 130.938 290.285 133.243 290.285C133.238 290.281 133.803 290.487 133.48 291.069Z" fill="#E88B87"/>
<path d="M120.561 297.437C120.561 297.437 121.887 300.902 121.534 301.524C121.181 302.145 117.559 306.322 117.559 306.322L116.027 296.881L120.561 297.437Z" fill="#F1B5AB"/>
<path d="M97.4878 369.498L96.7295 383.034L95.8555 385.576L91.9774 384.509L91.5282 379.511L90.7236 370.56L97.4878 369.498Z" fill="#F6D6CB"/>
<path d="M96.9172 379.676L96.7297 383.034L95.8556 385.576L91.9775 384.509L91.5283 379.511C92.8978 379.895 94.9226 380.22 96.9172 379.676Z" fill="#089BAB"/>
<path d="M113.101 366.011L112.296 377.541L111.905 383.143L106.962 383.971L106.73 377.796L106.42 369.441L113.101 366.011Z" fill="#F6D6CB"/>
<path d="M112.295 377.541L111.904 383.143L106.961 383.971L106.729 377.801C107.945 378.087 110.369 378.47 112.295 377.541Z" fill="#089BAB"/>
<path d="M117.794 333.396C116.032 344.273 113.37 370.067 113.37 370.067C111.353 371.453 109.42 371.522 107.997 371.255C107.189 371.112 106.412 370.823 105.705 370.404C104.316 363.214 103.134 336.502 103.076 335.175C103.076 335.344 103.058 335.566 103.028 335.829C102.761 338.298 101.42 344.318 101.42 344.318C98.9573 350.819 97.7498 371.922 97.7498 371.922C91.6802 374.125 90.0074 371.215 90.0074 371.215C90.0074 371.215 87.1133 342.324 88.7271 338.502C90.3408 334.68 88.9042 316.444 87.9491 309.803C87.625 307.553 87.5937 305.163 87.6944 302.985C87.8128 300.403 88.1091 297.832 88.5812 295.291L92.7592 294.919L117.168 292.758C117.168 292.758 117.253 293.805 117.378 295.579C117.425 296.238 117.477 296.999 117.532 297.843C118.119 306.826 119.101 325.32 117.794 333.396Z" fill="#FF8A47"/>
<path d="M117.526 297.843C117.526 297.843 98.2082 298.607 94.0927 298.603C90.0409 298.603 87.7638 302.858 87.6943 302.99C87.8127 300.408 88.109 297.837 88.5811 295.296L92.7591 294.925C100.474 294.886 116.572 295.547 117.372 295.579H117.402L117.526 297.843Z" fill="#D74F29"/>
<path d="M105.708 370.407C104.319 363.161 103.119 336.083 103.078 335.153C103.074 335.38 103.058 335.607 103.031 335.833L103.078 335.128L108.448 303.403C108.448 303.403 109.856 309.049 106.847 325.503C104.228 339.822 107.194 364.991 108.005 371.255C107.195 371.112 106.417 370.825 105.708 370.407Z" fill="#D74F29"/>
<path d="M112.785 381.105C112.785 381.105 109.725 383.33 106.929 381.518C106.929 381.518 106.572 380.774 106.17 384.619C105.769 388.464 105.905 389.291 105.905 389.291C105.905 389.291 113.002 390.733 125.782 390.29C125.782 390.29 128.515 389.795 127.919 386.489C127.919 386.489 127.579 385.661 127.159 385.348C126.738 385.035 117.946 383.668 112.785 381.105Z" fill="#5A434B"/>
<path d="M105.883 388.626C105.883 388.626 123.928 390.13 127.632 388.936C127.632 388.936 127.619 389.108 126.938 391.077L105.868 390.563L105.883 388.626Z" fill="#0E0506"/>
<path opacity="0.32" d="M106.171 384.619C106.171 384.619 110.184 388.81 125.503 389.276C125.503 389.276 112.075 390.494 105.886 388.626L106.171 384.619Z" fill="#0E0506"/>
<path d="M112.227 230.03C112.582 232.193 110.704 239.533 107.018 239.626C104.51 239.688 102.216 238.801 102.131 238.768C102.131 238.768 101.129 242.397 102.985 246.129C103.191 246.544 103.225 246.885 103.119 247.163C102.309 249.403 92.7347 247.682 92.7347 247.682C92.7347 247.682 93.4942 247.031 94.2223 245.652C94.4584 245.205 94.6619 244.742 94.8313 244.265C95.3974 242.673 95.7574 240.498 95.3858 237.688C94.4597 230.758 90.35 226.493 94.1934 223.783C98.0368 221.073 107.637 215.845 107.637 215.845C107.637 215.845 111.937 216.142 112.232 220.703C112.527 225.264 111.874 227.868 112.227 230.03Z" fill="#F1B5AB"/>
<path d="M103.114 247.161C100.044 247.149 95.0559 245.871 94.2178 245.647C94.4538 245.201 94.6574 244.737 94.8267 244.261C96.6489 244.524 100.623 245.049 101.479 244.775C102.597 244.426 100.205 238.705 100.379 238.232C100.552 237.758 102.127 238.764 102.127 238.764C102.127 238.764 101.124 242.392 102.98 246.125C103.186 246.541 103.221 246.882 103.114 247.161Z" fill="#E88B87"/>
<path d="M121.181 288.951H120.474C120.474 288.951 121.4 293.571 120.651 297.66L117.516 298.054L117.252 296.721C117.252 296.721 115.849 297.078 108.075 297.195C100.302 297.313 87.8162 298.054 87.8162 298.054L87.5222 294.115C87.5222 294.115 82.4551 293.522 82.5743 292.16C82.6785 290.947 84.1823 285.182 85.1767 281.799C85.3006 281.382 85.4083 281 85.5183 280.67C85.7889 279.808 85.8241 278.888 85.6201 278.007C85.0413 276.702 84.2622 274.85 84.3467 273.089C84.4625 270.483 83.6973 250.168 86.2904 247.916C86.2904 247.916 86.6875 247.176 90.737 245.605C94.7865 244.035 94.6232 244.81 94.6232 244.81C94.6232 244.81 97.9353 247.036 102.449 244.826C102.449 244.826 102.693 244.45 103.223 244.953C103.754 245.456 111.148 252.12 111.674 253.219C112.201 254.318 119.685 283.577 119.685 283.577L121.19 283.926C121.19 283.926 121.976 286.463 121.181 288.951Z" fill="#C6E9EF"/>
<path opacity="0.36" d="M94.5872 252.775C94.5872 252.775 94.4622 272.418 95.5805 273.07C95.5805 273.07 101.773 275.166 106.368 277.712C110.962 280.258 116.027 282.273 116.027 282.273L115.796 281.147C115.796 281.147 104.073 274.395 101.717 274.454C99.3614 274.514 98.0127 270.545 97.6527 268.052C97.2926 265.558 96.1188 250.169 94.5872 252.775Z" fill="#6DCAD2"/>
<path d="M117.558 289.44C117.558 289.44 116.499 288.136 112.551 288.966C108.604 289.796 85.1738 281.803 85.1738 281.803C85.2977 281.386 85.4054 281.004 85.5153 280.673C85.786 279.811 85.8211 278.892 85.6172 278.011C86.1358 279.393 87.9985 282.366 94.5856 283.576C103.303 285.174 107.014 287.958 114.789 287.129L117.263 288.076L117.558 289.44Z" fill="#6DCAD2"/>
<path d="M109.875 256.654L116.03 282.273C116.03 282.273 116.798 283.162 119.683 283.577L119.523 282.951C119.523 282.951 117.65 282.443 117.323 281.554C116.997 280.664 110.623 254.748 109.875 256.654Z" fill="#6DCAD2"/>
<path d="M117.264 288.078L120.474 288.951L120.561 289.441C120.561 289.441 118.265 288.818 118.486 289.84C118.707 290.862 120.917 292.867 119.68 294.95C119.68 294.95 119.206 296.035 119.531 297.802L117.516 298.054L117.252 296.721C117.252 296.721 118.458 296.499 117.965 295.699C117.472 294.9 117.913 294.186 118.708 293.7C119.504 293.215 117.56 289.258 117.56 289.258L117.264 288.078Z" fill="#6DCAD2"/>
<path d="M96.7314 383.038C96.7314 383.038 94.5631 385.313 91.7651 383.504C91.7651 383.504 91.4097 382.76 91.008 386.605C90.6063 390.45 90.7417 391.277 90.7417 391.277C90.7417 391.277 97.8382 392.721 110.619 392.276C110.619 392.276 113.352 391.781 112.756 388.475C112.756 388.475 112.417 387.647 111.995 387.335C111.574 387.023 101.888 385.599 96.7314 383.038Z" fill="#5A434B"/>
<path d="M90.719 390.605C90.719 390.605 108.765 392.109 112.469 390.916C112.469 390.916 112.456 391.087 111.774 393.057L90.7051 392.542L90.719 390.605Z" fill="#0E0506"/>
<path opacity="0.32" d="M91.0057 386.595C91.0057 386.595 95.0181 390.786 110.339 391.251C110.339 391.251 96.9097 392.468 90.7197 390.601L91.0057 386.595Z" fill="#0E0506"/>
<path d="M112.227 220.7C109.96 215.221 102.441 219.605 102.441 219.605C98.574 221.618 98.1213 228.667 98.1213 228.667L97.4731 227.483C97.4731 227.483 94.9401 225.41 94.1737 228.075C93.4074 230.741 96.2946 231.096 96.2946 231.096C95.2932 231.865 95.0813 235.968 95.0813 235.968C90.5572 233.276 88.2801 228.326 88.4341 223.647C88.4769 222.088 88.8107 220.552 89.4181 219.117C91.833 213.488 102.055 210.077 108.428 213.09C111.387 214.487 112.156 216.982 112.303 218.733C112.362 219.389 112.337 220.051 112.227 220.7Z" fill="#412B2E"/>
<path d="M112.227 220.7C109.96 215.221 102.441 219.605 102.441 219.605C98.574 221.618 98.1213 228.667 98.1213 228.667L97.4731 227.483C97.4731 227.483 94.9401 225.409 94.1737 228.075C93.4074 230.741 96.2946 231.096 96.2946 231.096C95.2932 231.865 95.0813 235.968 95.0813 235.968C90.5572 233.276 88.2801 228.326 88.4341 223.647C91.1175 224.636 95.4275 225.344 98.6504 221.649C103.334 216.279 109.164 215.903 112.303 218.739C112.362 219.393 112.336 220.053 112.227 220.7Z" fill="#110809"/>
<path d="M87.5195 294.12C87.5195 294.12 102.538 294.95 104.335 294.712C106.131 294.475 117.337 294.755 117.337 294.755C117.337 294.755 116.956 295.06 117.453 295.57C117.95 296.08 87.6828 296.347 87.6828 296.347L87.5195 294.12Z" fill="#7AC7CF"/>
<path d="M116.027 282.273C116.027 282.273 116.925 284.951 114.789 287.13L121.049 289.263C121.049 289.263 122.881 286.131 121.534 283.954L116.027 282.273Z" fill="#C6E9EF"/>
<g opacity="0.66">
<path opacity="0.66" d="M323.352 329.15C324.069 327.908 324.885 326.687 326.022 325.819C326.911 325.14 327.956 324.707 328.988 324.282C331.548 323.226 336.897 321.837 336.897 321.837C336.897 321.837 337.29 325.149 336.736 326.741C334.263 333.842 329.353 339.787 324.33 345.361C322.198 347.728 319.222 353.103 319.222 353.103C319.222 353.103 319.296 336.172 323.352 329.15Z" fill="#FFD8AF"/>
<path opacity="0.66" d="M334.137 325.153C327.202 336.138 320.254 347.354 317.426 360.216C317.298 360.798 316.384 360.657 316.516 360.074C319.38 347.052 334.451 324.653 334.137 325.149V325.153Z" fill="white"/>
<path opacity="0.66" d="M313.012 336.77C312.5 335.697 311.906 334.634 311.024 333.841C310.335 333.222 309.5 332.793 308.675 332.375C306.63 331.333 302.308 329.833 302.308 329.833C302.308 329.833 301.766 332.543 302.119 333.893C303.697 339.922 307.362 345.159 311.149 350.097C312.755 352.193 314.861 356.83 314.861 356.83C314.861 356.83 315.901 342.839 313.012 336.77Z" fill="#F7D9CE"/>
<path opacity="0.66" d="M304.37 332.753C309.378 342.287 314.382 352.012 315.875 362.824C315.942 363.309 316.703 363.257 316.636 362.766C315.124 351.823 304.144 332.32 304.365 332.753H304.37Z" fill="white"/>
<g opacity="0.6">
<path opacity="0.6" d="M325.04 328.003C325.251 325.594 325.131 323.169 325.234 320.752C325.311 318.971 325.507 317.167 325.145 315.42C324.587 312.735 322.782 310.51 321.035 308.402C319.386 310.212 317.165 311.485 315.781 313.508C314.861 314.849 314.372 316.434 313.96 318.008C312.455 323.781 311.841 329.883 312.996 335.735C313.483 338.201 314.103 341.624 315.459 343.768C316.945 346.118 318.816 342.85 319.885 341.416C322.803 337.51 324.587 332.867 325.04 328.003Z" fill="#FF9C85"/>
<path opacity="0.91" d="M320.272 312.902C317.885 327.081 315.586 341.492 318.304 355.473C318.426 356.102 317.418 356.419 317.294 355.784C314.546 341.628 320.385 312.258 320.276 312.902H320.272Z" fill="white"/>
</g>
<path opacity="0.48" d="M322.074 372.156H310.525L308.793 358.229H324.383L322.074 372.156Z" fill="#100708"/>
<path opacity="0.48" d="M324.817 358.66H308.361C308.054 358.66 307.759 358.537 307.542 358.319C307.325 358.1 307.203 357.804 307.203 357.496C307.203 357.187 307.325 356.891 307.542 356.672C307.759 356.454 308.054 356.331 308.361 356.331H324.817C325.124 356.331 325.418 356.454 325.636 356.672C325.853 356.891 325.975 357.187 325.975 357.496C325.975 357.648 325.945 357.8 325.886 357.941C325.828 358.082 325.743 358.211 325.636 358.319C325.528 358.427 325.4 358.513 325.26 358.571C325.119 358.63 324.969 358.66 324.817 358.66Z" fill="#3E2A2C"/>
</g>
</svg>
