<svg width="392" height="484" viewBox="0 0 392 484" fill="none" xmlns="http://www.w3.org/2000/svg">
<g filter="url(#filter0_d)">
<g clip-path="url(#clip0)">
<g filter="url(#filter1_d)">
<rect x="20" y="16" width="352" height="444" rx="10" fill="white"/>
</g>
<path d="M372 83H20V460H372V83Z" fill="white"/>
<path d="M202.416 416.719C261.345 416.719 309.117 413.21 309.117 408.883C309.117 404.555 261.345 401.047 202.416 401.047C143.487 401.047 95.7148 404.555 95.7148 408.883C95.7148 413.21 143.487 416.719 202.416 416.719Z" fill="#F5F5F5"/>
<path d="M202.112 191.43C210.325 191.43 216.982 184.651 216.982 176.289C216.982 167.926 210.325 161.147 202.112 161.147C193.9 161.147 187.242 167.926 187.242 176.289C187.242 184.651 193.9 191.43 202.112 191.43Z" fill="#BFDBF5"/>
<path d="M202.112 189.787C209.434 189.787 215.369 183.744 215.369 176.289C215.369 168.834 209.434 162.79 202.112 162.79C194.79 162.79 188.854 168.834 188.854 176.289C188.854 183.744 194.79 189.787 202.112 189.787Z" fill="#F9FAFA"/>
<path d="M203.222 176.289C203.22 176.509 203.152 176.723 203.028 176.905C202.905 177.087 202.73 177.228 202.527 177.31C202.324 177.392 202.102 177.412 201.887 177.368C201.673 177.323 201.476 177.216 201.322 177.059C201.168 176.902 201.064 176.703 201.022 176.487C200.981 176.271 201.003 176.047 201.088 175.844C201.172 175.641 201.314 175.467 201.497 175.345C201.679 175.223 201.893 175.158 202.112 175.158C202.259 175.159 202.404 175.189 202.539 175.246C202.674 175.304 202.797 175.387 202.9 175.492C203.003 175.597 203.085 175.721 203.14 175.858C203.195 175.995 203.223 176.141 203.222 176.289Z" fill="#BFDBF5"/>
<path d="M202.394 163.283H201.86V165.752H202.394V163.283Z" fill="#BFDBF5"/>
<path d="M202.394 186.839H201.86V189.309H202.394V186.839Z" fill="#BFDBF5"/>
<path d="M214.907 176.568V176.024H212.482V176.568H214.907Z" fill="#BFDBF5"/>
<path d="M191.771 176.568V176.024H189.346V176.568H191.771Z" fill="#BFDBF5"/>
<path d="M201.834 175.897L202.133 167.337L202.43 175.897H201.834Z" fill="#BFDBF5"/>
<path d="M201.787 176.441L196.059 170.169L202.209 176.013L201.787 176.441Z" fill="#BFDBF5"/>
<path d="M291 149H239V303H291V149Z" fill="#EDF5F6"/>
<path d="M358 149H299V303H358V149Z" fill="#EDF5F6"/>
<path d="M281.135 197.192C282.113 196.61 282.953 195.841 283.228 194.772C283.723 192.841 281.875 191.481 280.259 190.953C278.389 190.342 276.049 190.255 274.228 191.07C273.124 191.56 272.054 192.313 271.358 193.303C271.191 193.534 271.037 193.774 270.895 194.021C270.719 192.974 270.381 191.96 269.894 191.017C269.288 189.828 268.241 188.556 266.768 188.582C265.402 188.605 264.492 190.084 263.963 191.135C263.533 191.985 263.207 192.884 262.992 193.813C262.673 192.859 261.861 191.941 261.217 191.39C260.681 190.931 259.953 190.541 259.22 190.646C258.344 190.772 257.708 191.361 257.269 192.09C256.757 192.942 256.512 194.037 256.529 195.096C254.654 194.048 251.473 195.026 251.114 197.191L281.135 197.192Z" fill="#F3F9FF"/>
<path d="M344.058 246.286C345.036 245.704 345.876 244.934 346.151 243.866C346.646 241.934 344.797 240.575 343.181 240.047C341.311 239.436 338.972 239.349 337.151 240.164C336.047 240.654 334.976 241.407 334.28 242.397C334.113 242.628 333.959 242.867 333.817 243.115C333.64 242.067 333.302 241.054 332.815 240.111C332.21 238.922 331.163 237.65 329.689 237.676C328.324 237.699 327.414 239.178 326.884 240.229C326.455 241.079 326.129 241.978 325.914 242.907C325.595 241.953 324.782 241.035 324.139 240.484C323.603 240.025 322.875 239.635 322.141 239.74C321.266 239.866 320.636 240.455 320.191 241.184C319.677 242.036 319.433 243.131 319.451 244.189C317.576 243.142 314.395 244.12 314.036 246.291L344.058 246.286Z" fill="#E9F5FF"/>
<path d="M86 149H34V303H86V149Z" fill="#EDF5F6"/>
<path d="M70.61 260.338C71.8001 259.633 72.8223 258.693 73.1568 257.394C73.76 255.044 71.5118 253.391 69.545 252.749C67.2702 252.007 64.4246 251.903 62.21 252.887C60.866 253.483 59.5636 254.4 58.7174 255.603C58.5141 255.884 58.3255 256.176 58.1525 256.477C57.9374 255.202 57.5262 253.97 56.9334 252.823C56.1983 251.376 54.9238 249.83 53.1282 249.86C51.467 249.889 50.3603 251.686 49.7166 252.966C49.1934 254 48.7969 255.095 48.5358 256.225C48.148 255.061 47.1582 253.949 46.3768 253.28C45.725 252.721 44.8383 252.246 43.9457 252.374C42.8795 252.527 42.1073 253.244 41.5737 254.13C40.9485 255.167 40.6475 256.5 40.6718 257.787C38.3913 256.506 34.5224 257.703 34.0859 260.348L70.61 260.338Z" fill="#F3F9FF"/>
<path d="M153 149H93V303H153V149Z" fill="#EDF5F6"/>
<path d="M75.8846 197.192C76.864 196.61 77.7045 195.841 77.9777 194.772C78.4743 192.841 76.6256 191.481 75.0095 190.953C73.1387 190.342 70.8002 190.255 68.9792 191.07C67.8736 191.56 66.804 192.313 66.1082 193.303C65.9415 193.534 65.7869 193.774 65.6452 194.021C65.4682 192.974 65.1299 191.96 64.6426 191.017C64.0383 189.828 62.9907 188.556 61.517 188.582C60.1509 188.605 59.2422 190.084 58.7119 191.135C58.2829 191.985 57.9571 192.884 57.7418 193.813C57.4235 192.859 56.6096 191.941 55.9671 191.39C55.4311 190.931 54.7018 190.541 53.969 190.646C53.0927 190.772 52.4641 191.361 52.0195 192.09C51.5055 192.942 51.2613 194.037 51.2775 195.096C49.4032 194.048 46.222 195.026 45.8643 197.191L75.8846 197.192Z" fill="#F3F9FF"/>
<path d="M138.807 246.286C139.786 245.704 140.626 244.934 140.9 243.866C141.396 241.934 139.548 240.575 137.932 240.047C136.061 239.436 133.723 239.349 131.902 240.164C130.796 240.654 129.727 241.407 129.031 242.397C128.864 242.628 128.71 242.867 128.568 243.115C128.391 242.067 128.054 241.054 127.567 240.111C126.962 238.922 125.915 237.65 124.441 237.676C123.075 237.699 122.166 239.178 121.636 240.229C121.206 241.079 120.881 241.978 120.666 242.907C120.347 241.953 119.534 241.035 118.891 240.484C118.354 240.025 117.626 239.635 116.893 239.74C116.017 239.866 115.381 240.455 114.944 241.184C114.43 242.036 114.185 243.131 114.201 244.189C112.327 243.142 109.146 244.12 108.787 246.291L138.807 246.286Z" fill="#E9F5FF"/>
<path d="M295.915 280.265C295.915 280.265 298.554 296.796 297.255 298.994C295.957 301.192 288.675 301.295 288.675 301.295L295.915 280.265Z" fill="#FEC513"/>
<path d="M269.843 304.543C266.773 308.629 265.473 306.057 265.473 306.057C265.076 304.707 264.555 303.355 264.473 301.952C263.912 292.35 263.236 284.14 263.236 283.613C263.236 283.013 258.374 279.873 257.644 278.774C256.913 277.675 252.519 275.872 252.703 275.217C252.887 274.561 258.059 276.001 259.23 276.84C260.4 277.678 263.166 278.906 264.745 279.098C266.324 279.29 266.011 278.329 266.755 276.916C267.498 275.504 268.853 275.452 269.253 275.644C269.652 275.836 268.838 276.36 268.558 278.554C268.278 280.749 267.259 282.077 266.896 282.513C266.532 282.948 266.617 283.767 266.617 283.767C266.832 288.603 268.155 291.948 268.754 293.231C268.931 293.612 269.044 293.813 269.044 293.813C269.044 293.813 272.912 300.457 269.843 304.543Z" fill="#F1B5AB"/>
<path d="M269.843 304.543C266.773 308.629 265.473 306.057 265.473 306.057C265.076 304.707 264.747 303.33 264.473 301.952C264.473 301.952 265.862 305.315 266.721 304.28C267.793 302.98 268.514 292.755 268.514 292.755C268.69 293.135 269.044 293.813 269.044 293.813C269.044 293.813 272.912 300.457 269.843 304.543Z" fill="#E88B87"/>
<path d="M290.548 240.313C290.548 240.313 281.634 236.414 282.105 247.745C282.576 259.076 286.388 263.68 282.915 266.469C279.442 269.259 282.083 273.027 283.61 273.933C285.137 274.838 289.853 266.749 289.853 266.749L290.548 240.313Z" fill="#4F3B43"/>
<path d="M289.4 240.945C289.4 240.945 283.886 240.561 282.43 246.315C282.43 246.315 282.013 248.411 281.65 249.141C281.286 249.871 276.447 252.856 277.123 253.797C277.799 254.739 279.101 254.687 278.996 255.629C278.892 256.57 278.268 259.761 279.881 260.598C281.493 261.435 287.32 261.959 287.476 264.051C287.632 266.143 286.071 271.637 286.071 271.637L291.377 272.579C291.377 272.579 297.88 264.261 297.204 261.959C296.528 259.658 294.865 242.226 294.865 242.226L289.4 240.945Z" fill="#F1B5AB"/>
<path d="M287.655 241.107C287.655 241.107 292.017 241.742 289.934 244.772C287.585 248.189 283.335 253.702 288.675 257.739C294.709 262.304 288.12 270.803 287.703 271.127C287.287 271.451 294.418 271.725 296.228 267.261C298.039 262.796 292.143 240.369 292.143 240.369L287.655 241.107Z" fill="#E88B87"/>
<path d="M311.426 265.214C310.173 268.807 307.091 270.283 304.153 270.831C303.297 270.99 302.431 271.083 301.562 271.11C300.221 271.162 298.878 271.08 297.553 270.865L299.752 265.15L301.927 259.494L296.915 241.429C297.776 241.154 298.694 241.108 299.578 241.297C301.546 241.717 304.037 243.496 304.911 249.519C306.431 260.054 314.131 257.476 311.426 265.214Z" fill="#443139"/>
<path d="M308.653 263.629C307.332 266.558 305.564 269.197 304.153 270.831C303.298 270.989 302.432 271.082 301.562 271.11C301.068 269.815 300.422 267.692 299.749 265.15C296.9 254.363 293.593 236.019 299.569 241.294C299.64 241.361 300.842 242.518 301.372 249.816C301.923 257.351 310.663 259.165 308.653 263.629Z" fill="#331A24"/>
<path d="M291.546 302.646C291.525 302.903 291.515 303.145 291.518 303.368C291.588 308.044 286.598 309.228 286.598 309.228L277.606 305.41L275.564 304.543L269.605 309.228C269.605 309.228 267.801 305.386 268.563 299.951C269.324 294.515 269.049 293.813 269.049 293.813C269.049 293.813 273.741 285.673 276.522 279.543C276.985 278.525 277.393 277.564 277.72 276.702C278.374 274.935 279.476 273.37 280.916 272.162C281.612 271.586 282.378 271.101 283.197 270.72C286.729 269.082 286.6 269.623 286.6 269.623C286.6 269.623 288.816 271.209 292.423 269.185C292.423 269.185 294.572 270.022 295.751 277.765C296.872 285.141 291.957 297.452 291.546 302.646Z" fill="#FF8A47"/>
<path d="M282.636 296.996C282.026 300.336 280.005 303.15 277.606 305.411L275.564 304.543L269.604 309.228C269.604 309.228 269.11 308.18 268.747 306.392C268.323 304.271 268.261 302.093 268.563 299.951C269.328 294.509 269.049 293.813 269.049 293.813C269.049 293.813 273.741 285.673 276.521 279.543C276.521 279.543 280.973 283.857 282.436 290.15C282.976 292.393 283.044 294.725 282.636 296.996Z" fill="#FEC513"/>
<path opacity="0.37" d="M282.637 296.996C282.027 300.336 280.005 303.15 277.607 305.41L275.564 304.543L269.605 309.228C269.605 309.228 269.111 308.18 268.747 306.392C273.638 302.641 282.28 290.375 282.439 290.149C282.978 292.393 283.046 294.725 282.637 296.996Z" fill="#F89739"/>
<path d="M291.546 302.646C291.525 302.903 291.516 303.145 291.518 303.368C291.589 308.044 286.598 309.228 286.598 309.228L275.564 304.543C275.564 304.543 279.653 301.491 282.637 296.996C282.507 297.247 279.431 303.29 282.637 303.699C285.917 304.119 291.546 302.646 291.546 302.646Z" fill="#D74F29"/>
<path opacity="0.37" d="M296.188 282.063L292.682 300.937L291.721 301.295L295.915 280.265L296.188 282.063Z" fill="#F89739"/>
<path d="M273.207 388.886C273.207 388.886 272.602 391.803 272.784 393.832C272.965 395.861 269.565 404.615 268.837 405.173C268.109 405.732 266.132 407.44 262.387 407.58L262.633 406.723C262.633 406.723 265.377 404.092 266.685 400.36C267.993 396.627 267.757 387.037 267.757 387.037L273.207 388.886Z" fill="#F1B5AB"/>
<path d="M292.014 388.641C292.014 388.641 291.41 391.558 291.59 393.588C291.771 395.617 288.373 404.37 287.645 404.929C286.917 405.488 284.94 407.195 281.193 407.335L281.44 406.477C281.44 406.477 284.861 402.933 285.878 399.109C287.114 394.465 286.573 386.792 286.573 386.792L292.014 388.641Z" fill="#F1B5AB"/>
<path d="M272.418 395.347C272.296 395.891 272.134 396.424 271.934 396.944C271.32 398.404 270.322 399.738 269.459 401.073C268.523 402.516 267.668 404.006 266.717 405.439C266.233 406.169 265.675 406.746 264.74 406.9C264.308 406.969 263.868 406.977 263.433 406.922C263.166 406.888 262.891 406.732 262.633 406.723C262.412 406.714 262.2 406.85 262.018 406.95C261.324 407.338 260.685 407.817 259.991 408.212C259.385 408.561 258.728 408.778 258.102 409.084C257.908 409.179 257.631 409.3 257.57 409.522C257.479 409.847 257.85 410.169 258.119 410.298C258.938 410.686 260.141 410.471 261.014 410.452C262.873 410.41 264.812 410.495 266.657 410.219C267.261 410.127 267.881 409.979 268.271 409.501C268.996 408.612 269.209 407.307 269.606 406.283C269.941 405.419 270.344 404.521 271.025 403.838C271.537 403.343 272.145 402.961 272.811 402.715C273.043 402.626 273.159 402.556 273.274 402.782C273.47 403.152 273.333 403.793 273.353 404.199C273.394 405.014 273.556 409.14 273.566 409.438C273.566 409.554 273.519 409.861 273.586 409.963C273.673 410.097 273.561 410.019 273.801 410.051C273.917 410.068 274.496 410.095 274.598 410.024C274.748 409.917 274.642 409.086 274.642 408.854C274.642 408.04 274.669 407.219 274.713 406.403C274.798 404.835 274.844 403.214 275.226 401.68C275.541 400.415 275.914 399.351 275.805 398.025C275.746 397.327 275.602 396.594 275.218 395.986C274.664 395.109 273.604 394.472 272.787 393.838L272.418 395.347Z" fill="#282E5B"/>
<path d="M291.291 394.789C291.169 395.333 291.007 395.866 290.807 396.386C290.192 397.845 289.194 399.18 288.331 400.516C287.396 401.958 286.541 403.448 285.589 404.88C285.105 405.61 284.547 406.188 283.612 406.342C283.18 406.411 282.739 406.418 282.305 406.363C282.039 406.33 281.763 406.174 281.505 406.164C281.284 406.156 281.072 406.291 280.891 406.397C280.197 406.784 279.557 407.264 278.863 407.658C278.258 408.007 277.6 408.225 276.975 408.531C276.779 408.625 276.504 408.747 276.443 408.967C276.352 409.293 276.722 409.616 276.992 409.744C277.81 410.131 279.013 409.918 279.887 409.899C281.746 409.856 283.685 409.941 285.53 409.666C286.135 409.574 286.754 409.426 287.144 408.948C287.869 408.058 288.081 406.754 288.479 405.73C288.815 404.865 289.216 403.968 289.897 403.285C290.408 402.789 291.017 402.407 291.684 402.162C291.916 402.072 292.032 402.003 292.147 402.228C292.344 402.598 292.206 403.24 292.227 403.646C292.268 404.461 292.43 408.587 292.44 408.885C292.44 409.001 292.393 409.308 292.459 409.411C292.547 409.545 292.435 409.467 292.674 409.499C292.79 409.516 293.369 409.544 293.471 409.471C293.622 409.365 293.515 408.534 293.516 408.307C293.516 407.488 293.54 406.671 293.588 405.855C293.672 404.287 293.717 402.667 294.099 401.131C294.414 399.867 294.794 398.803 294.678 397.478C294.62 396.78 294.477 396.046 294.091 395.437C293.538 394.562 292.479 393.924 291.66 393.291L291.291 394.789Z" fill="#282E5B"/>
<path d="M292.642 327.863C291.252 337.504 289.962 352.245 290.413 354.567C290.422 354.608 290.429 354.657 290.439 354.709C290.451 354.793 290.468 354.892 290.484 355.004C290.5 355.116 290.513 355.209 290.529 355.327C290.528 355.341 290.528 355.355 290.529 355.368C291.269 360.956 293.55 387.661 293.158 388.973C292.687 389.144 291.167 389.549 288.784 389.549C287.938 389.548 287.092 389.5 286.25 389.406C286.073 389.385 285.894 389.365 285.71 389.34C283.494 389.043 281.247 388.714 277.644 387.628C277.644 387.628 278.686 358.159 278.478 352.927C278.372 350.308 278.246 347.819 278.14 345.987L278.13 345.827L278.107 345.439C278.076 344.876 278.046 344.391 278.022 344.006C278.012 343.835 278.001 343.682 277.994 343.552L277.987 343.459L277.978 343.318V343.202L277.968 343.085V342.991L272.766 351.054C272.766 351.054 274.432 362.557 274.85 371.345C275.267 380.133 274.539 389.568 274.539 389.568C274.539 389.568 272.224 390.337 267.776 390.164C265.489 390.077 262.635 389.739 259.243 388.923C259.243 388.923 259.347 352.407 262.054 345.921C264.098 341.015 270.902 321.164 274.008 310.797C274.007 310.794 274.007 310.791 274.008 310.788V310.781C274.012 310.771 274.015 310.762 274.017 310.752C274.029 310.713 274.046 310.649 274.072 310.567C275.036 307.345 275.623 305.087 275.577 304.548C275.577 304.548 276.539 304.769 278.034 304.975C281.457 305.441 287.669 305.848 291.53 303.373C291.53 303.373 292.225 305.327 293.614 308.465C295.003 311.604 295.28 314.395 293.614 322.202C293.285 323.672 292.959 325.628 292.642 327.863Z" fill="#1F1F51"/>
<path d="M293.158 388.973C292.687 389.144 291.167 389.549 288.785 389.549C287.938 389.548 287.092 389.5 286.251 389.406C286.761 380.753 287.61 363.445 286.178 356.659C284.235 347.452 278.14 345.987 278.14 345.987L278.131 345.827L278.108 345.439L278.022 344.006L277.994 343.552L277.987 343.459L277.978 343.318V343.202L277.969 343.085V342.991L289.864 324.784C290.004 329.04 292.648 327.865 292.648 327.865C291.259 337.506 289.968 352.247 290.419 354.57C290.429 354.61 290.436 354.659 290.445 354.712C290.458 354.795 290.474 354.894 290.49 355.006C290.506 355.118 290.517 355.211 290.535 355.33C290.534 355.343 290.534 355.357 290.535 355.371C291.241 360.956 293.329 387.695 293.158 388.973Z" fill="#0E0E33"/>
<path opacity="0.51" d="M290.287 326.943L278.14 345.987L277.958 342.988L289.854 324.783C289.854 324.783 289.949 326.094 290.287 326.943Z" fill="#110708"/>
<path d="M277.959 342.988L272.756 351.051C272.756 351.051 274.422 362.555 274.84 371.343C275.258 380.131 274.53 389.565 274.53 389.565C274.53 389.565 272.214 390.335 267.767 390.161C269.686 380.465 270.545 352.233 270.783 350.73C271.06 348.984 289.858 324.783 289.858 324.783L277.959 342.988Z" fill="#0E0E33"/>
<path d="M278.022 304.974L277.606 305.414C277.606 305.414 275.628 307.393 273.999 310.786V310.779C274.003 310.77 274.006 310.76 274.008 310.75C274.02 310.712 274.037 310.648 274.063 310.565C274.325 309.66 275.274 306.346 275.568 304.547C275.564 304.543 276.526 304.764 278.022 304.974Z" fill="#0E0E33"/>
<path d="M305.046 259.261C302.829 256.144 299.359 252.918 299.637 246.176C299.637 246.046 299.645 245.918 299.647 245.793C299.653 245.461 299.638 245.128 299.602 244.798V244.782C299.779 238.961 291.441 236.991 287.589 241.124L287.658 241.111C288.13 241.022 290.629 240.707 291.383 243.734C292.215 247.084 284.958 251.129 287.58 254.547C290.202 257.965 298.389 262.498 288.816 270.659C288.816 270.659 301.231 276.31 305.741 267.661C307.684 263.926 306.726 261.624 305.046 259.261Z" fill="#4F3B43"/>
<path d="M294.848 273.541C294.554 273.567 290.079 272.626 287.999 271.945L289.604 270.974C289.604 270.974 293.674 272.154 294.42 272.255L294.848 273.541Z" fill="#D74F29"/>
<path d="M287.859 254.89C287.958 255.007 291.9 261.885 289.159 265.931C289.159 265.931 291.506 263.735 290.645 257.805L287.859 254.89Z" fill="#331A24"/>
<path d="M260.076 244.78C257.614 246.925 254.426 248.037 251.172 247.887C247.918 247.736 244.846 246.333 242.59 243.97C240.335 241.606 239.069 238.461 239.054 235.185C239.039 231.909 240.276 228.752 242.509 226.367C244.743 223.983 247.802 222.552 251.055 222.371C254.308 222.19 257.505 223.272 259.987 225.395C262.468 227.517 264.044 230.517 264.388 233.775C264.733 237.033 263.82 240.299 261.838 242.898C261.838 242.898 264.191 245.268 265.899 245.683C265.9 245.681 262.459 245.512 260.076 244.78Z" fill="#FFDBB1"/>
<path d="M153.06 223.679C149.321 224.441 145.434 223.73 142.202 221.691C138.971 219.653 136.641 216.444 135.695 212.728C134.749 209.012 135.259 205.072 137.12 201.723C138.981 198.374 142.05 195.872 145.693 194.734C149.336 193.596 153.275 193.909 156.695 195.609C160.115 197.308 162.755 200.264 164.069 203.865C165.384 207.467 165.272 211.438 163.757 214.959C162.242 218.48 159.44 221.281 155.93 222.783H155.937C155.937 222.783 156.979 226.556 158.484 227.967C158.478 227.968 155.067 225.803 153.06 223.679Z" fill="#F3CEB6"/>
<path d="M156.527 205.273C155.855 204.089 154.82 203.48 153.476 203.418C153.075 203.395 152.673 203.456 152.296 203.597C151.919 203.739 151.575 203.958 151.287 204.24C150.757 204.743 150.442 205.374 150.24 206.069C150.179 206.277 150.129 206.489 150.091 206.702C150.091 206.727 150.086 206.753 150.054 206.757C150.023 206.76 150.021 206.73 150.011 206.71L149.984 206.643C149.786 206.137 149.509 205.665 149.165 205.246C148.373 204.322 147.379 203.914 146.176 204.138C145.474 204.261 144.827 204.599 144.324 205.106C144.164 205.268 144.018 205.443 143.887 205.629C143.838 205.7 143.795 205.774 143.747 205.847C143.741 205.858 143.733 205.867 143.722 205.873C143.642 206.013 143.572 206.159 143.512 206.309C143.506 206.343 143.497 206.376 143.485 206.408C143.356 206.742 143.287 207.097 143.281 207.455C143.283 207.485 143.277 207.515 143.265 207.543C143.265 207.629 143.265 207.717 143.265 207.807C143.275 207.829 143.281 207.853 143.281 207.878C143.298 208.18 143.35 208.48 143.436 208.77V208.779C143.436 208.793 143.444 208.806 143.448 208.819L143.467 208.884C143.707 209.609 144.059 210.292 144.509 210.907C145.139 211.807 145.898 212.592 146.679 213.359C147.459 214.126 148.289 214.855 149.099 215.6C149.647 216.104 150.19 216.613 150.736 217.119C150.814 217.193 150.901 217.255 150.995 217.304C151.017 217.317 151.043 217.323 151.068 217.32C151.094 217.317 151.117 217.306 151.136 217.288C151.245 217.198 151.342 217.094 151.423 216.977C151.82 216.431 152.214 215.882 152.614 215.336C153.363 214.31 154.14 213.307 154.846 212.249C155.407 211.408 155.943 210.551 156.344 209.617C156.681 208.828 156.93 208.017 156.95 207.149C156.983 206.497 156.837 205.847 156.527 205.273Z" fill="white"/>
<path d="M255.713 237.94C255.739 238.018 255.702 238.075 255.597 238.11C255.539 238.13 255.448 238.154 255.324 238.186C255.2 238.217 255.107 238.242 255.046 238.263C254.985 238.284 254.886 238.323 254.759 238.379C254.632 238.435 254.535 238.472 254.471 238.496C254.456 238.503 254.439 238.507 254.422 238.507C254.405 238.507 254.388 238.504 254.373 238.496C254.358 238.488 254.345 238.477 254.334 238.464C254.324 238.45 254.317 238.434 254.314 238.418C254.21 238.107 254.064 237.641 253.877 237.021C253.689 236.4 253.543 235.934 253.439 235.624C253.394 235.49 253.323 235.427 253.245 235.433C253.134 235.44 252.542 235.626 251.469 235.991C250.396 236.357 249.813 236.57 249.72 236.632C249.652 236.678 249.641 236.768 249.685 236.901C249.787 237.201 249.948 237.651 250.168 238.25C250.388 238.849 250.549 239.298 250.65 239.598C250.687 239.714 250.664 239.782 250.58 239.811C250.515 239.833 250.417 239.86 250.285 239.894C250.153 239.928 250.053 239.955 249.988 239.978C249.923 240 249.839 240.035 249.721 240.086C249.603 240.137 249.515 240.173 249.453 240.194C249.438 240.202 249.421 240.207 249.403 240.208C249.386 240.208 249.368 240.205 249.352 240.198C249.336 240.191 249.322 240.18 249.31 240.166C249.299 240.153 249.291 240.137 249.287 240.12C249.16 239.743 248.988 239.173 248.77 238.408C248.553 237.644 248.381 237.073 248.254 236.697C248.121 236.301 247.902 235.712 247.6 234.931C247.297 234.149 247.079 233.56 246.946 233.164C246.92 233.088 246.946 233.037 247.035 233.008C247.097 232.987 247.192 232.96 247.32 232.927C247.449 232.895 247.551 232.868 247.61 232.846C247.669 232.824 247.765 232.788 247.891 232.729C248.016 232.671 248.109 232.639 248.171 232.613C248.249 232.586 248.298 232.604 248.319 232.665C248.418 232.959 248.554 233.404 248.726 234.002C248.898 234.6 249.034 235.045 249.134 235.34C249.166 235.435 249.222 235.48 249.299 235.477C249.394 235.477 249.997 235.289 251.108 234.912C252.194 234.544 252.784 234.326 252.875 234.26C252.946 234.213 252.961 234.126 252.918 234C252.823 233.713 252.668 233.286 252.455 232.719C252.242 232.152 252.088 231.723 251.992 231.433C251.969 231.365 251.992 231.316 252.074 231.291C252.157 231.265 252.235 231.242 252.363 231.21C252.49 231.179 252.586 231.151 252.651 231.129C252.716 231.107 252.801 231.072 252.921 231.019C253.04 230.967 253.129 230.932 253.19 230.911C253.278 230.881 253.335 230.903 253.36 230.979C253.493 231.374 253.676 231.975 253.91 232.781C254.144 233.586 254.327 234.187 254.46 234.583C254.587 234.959 254.796 235.517 255.087 236.257C255.377 236.997 255.586 237.558 255.713 237.94Z" fill="white"/>
<path d="M256.052 231.129C256.194 231.549 256.032 231.838 255.566 231.997C255.101 232.156 254.794 232.026 254.646 231.607C254.614 231.518 254.604 231.424 254.614 231.33C254.625 231.236 254.657 231.146 254.708 231.067C254.808 230.906 254.961 230.785 255.14 230.725C255.32 230.665 255.514 230.67 255.69 230.739C255.776 230.772 255.853 230.825 255.916 230.892C255.978 230.96 256.025 231.041 256.052 231.129ZM256.483 232.526C256.572 232.789 256.69 233.191 256.836 233.733C256.983 234.275 257.101 234.679 257.19 234.946C257.274 235.195 257.404 235.567 257.582 236.06C257.759 236.554 257.889 236.923 257.972 237.168C257.996 237.241 257.978 237.285 257.917 237.307L256.924 237.646C256.852 237.67 256.793 237.612 256.746 237.472C256.669 237.239 256.555 236.883 256.406 236.402C256.256 235.922 256.142 235.564 256.064 235.329C255.975 235.063 255.821 234.67 255.601 234.15C255.381 233.63 255.227 233.237 255.138 232.972C255.118 232.913 255.145 232.873 255.216 232.848C255.311 232.819 255.409 232.795 255.507 232.777C255.607 232.76 255.706 232.735 255.804 232.705C255.899 232.67 255.992 232.629 256.083 232.582C256.173 232.535 256.266 232.494 256.362 232.458C256.422 232.447 256.461 232.464 256.483 232.529V232.526Z" fill="white"/>
<path d="M197.433 405.765C193.728 404.781 191.863 398.178 192.389 394.541C192.689 392.456 191.01 380.466 189.755 369.918C188.822 362.064 188.123 355.011 188.652 353.442C189.52 350.865 189.517 345.147 189.437 341.957C189.405 340.595 189.355 339.693 189.355 339.693C189.355 339.693 203.936 340.675 202.26 343.094C201.742 343.846 201.547 345.176 201.488 346.758C201.489 346.772 201.489 346.785 201.488 346.799C201.364 350.315 201.883 355.054 200.95 357.471C199.591 360.985 197.211 392.628 197.866 395.959C198.521 399.29 203.452 403.538 205.391 405.907C207.001 407.874 201.141 406.749 197.433 405.765Z" fill="#F1B5AB"/>
<path d="M201.488 343.408V346.799C201.311 346.844 192.921 347.763 192.458 349.847C191.521 353.992 189.25 365.459 189.25 365.459C188.316 357.604 188.129 355.011 188.658 353.441C189.526 350.865 189.522 345.147 189.443 341.957L201.488 343.408Z" fill="#E88B87"/>
<path d="M207.628 405.936C206.863 405.386 204.082 404.128 203.808 403.928C203.591 403.773 202.777 405.004 200.74 404.728C199.617 404.563 198.592 403.993 197.856 403.125C197.189 402.35 196.543 401.565 195.859 400.796C194.972 399.802 193.954 398.809 193.312 397.712C193.101 397.327 192.925 396.923 192.787 396.506L192.38 395.361C191.599 395.864 190.587 396.381 190.075 397.063C189.72 397.537 189.604 398.1 189.569 398.633C189.505 399.643 189.905 400.449 190.254 401.405C190.679 402.569 190.776 403.8 190.911 404.993C190.981 405.615 191.033 406.237 191.062 406.856C191.071 407.031 190.993 407.671 191.144 407.746C191.245 407.797 191.808 407.761 191.923 407.746C192.155 407.715 192.049 407.777 192.129 407.673C192.192 407.594 192.8 404.249 192.813 403.623C192.813 403.623 196.564 406.524 197.3 407.183C197.697 407.532 198.306 407.633 198.9 407.688C200.71 407.852 202.599 407.737 204.415 407.719C205.271 407.712 206.452 407.844 207.237 407.526C207.428 407.454 207.594 407.327 207.715 407.161C207.715 407.161 208.392 406.489 207.628 405.936Z" fill="#200E2B"/>
<path d="M178.159 339.692C178.159 339.692 178.695 349.766 177.457 353.441C176.218 357.117 182.127 391.103 181.35 394.694C180.413 399.028 182.004 403.916 185.712 404.901C189.42 405.886 196.289 406.161 194.003 405.056C191.34 403.775 187.323 399.291 186.667 395.958C186.011 392.625 188.393 360.985 189.751 357.469C191.109 353.954 189.391 345.517 191.065 343.096C192.739 340.674 178.159 339.692 178.159 339.692Z" fill="#F1B5AB"/>
<path d="M190.272 348.558C190.272 348.558 185.972 350.071 182.849 350.254C179.726 350.437 177.285 355.091 177.285 355.091C177.285 355.091 178.601 347.616 178.226 345.292C177.851 342.969 190.407 346.171 190.407 346.171L190.272 348.558Z" fill="#E88B87"/>
<path d="M196.541 405.936C195.776 405.386 192.995 404.128 192.721 403.928C192.504 403.773 191.69 405.004 189.653 404.728C188.53 404.563 187.505 403.993 186.769 403.125C186.102 402.35 185.456 401.565 184.772 400.796C183.885 399.802 182.867 398.809 182.225 397.712C182.014 397.327 181.839 396.923 181.7 396.506L181.293 395.361C180.513 395.864 179.5 396.381 178.988 397.063C178.633 397.537 178.517 398.1 178.483 398.633C178.418 399.643 178.818 400.449 179.167 401.405C179.592 402.569 179.689 403.8 179.824 404.993C179.895 405.614 179.945 406.235 179.975 406.856C179.984 407.031 179.906 407.671 180.057 407.746C180.158 407.797 180.721 407.761 180.836 407.746C181.068 407.715 180.962 407.777 181.042 407.673C181.105 407.594 181.714 404.249 181.726 403.623C181.726 403.623 185.477 406.524 186.213 407.183C186.61 407.532 187.219 407.633 187.813 407.688C189.623 407.852 191.512 407.737 193.328 407.719C194.184 407.712 195.365 407.844 196.15 407.526C196.341 407.454 196.507 407.327 196.628 407.161C196.628 407.161 197.305 406.489 196.541 405.936Z" fill="#3A2246"/>
<path d="M205.335 344.494C194.278 349.488 175.073 346.124 175.073 346.124C174.071 341.4 173.368 336.617 172.968 331.804C171.769 317.073 174.053 306.26 177.218 302.195C178.463 300.59 179.849 300.038 181.209 300.705C181.695 300.939 182.198 301.134 182.714 301.287C185.356 302.102 188.645 302.136 191.538 301.916C195.307 301.628 198.401 300.913 198.499 300.938C199.407 301.958 200.243 303.041 200.999 304.18C201.908 305.564 202.715 307.145 202.715 308.381C202.715 309.04 202.859 311.364 203.079 314.534C203.795 324.95 205.335 344.494 205.335 344.494Z" fill="#055D67"/>
<path opacity="0.4" d="M203.215 316.535C203.215 316.535 194.598 317.014 189.594 319.163C179.144 323.651 174.692 325.915 172.968 331.81C171.769 317.079 174.053 306.266 177.218 302.201C178.909 301.675 180.76 301.386 182.709 301.296C185.516 301.163 188.523 301.424 191.532 301.925C194.73 302.479 197.89 303.235 200.994 304.189C201.902 305.574 202.709 307.154 202.709 308.391C202.712 309.049 202.994 313.365 203.215 316.535Z" fill="#00343F"/>
<path opacity="0.67" d="M173.022 316.305C173.022 316.305 177.791 318.844 181.572 318.372C181.572 318.372 184.794 308.877 185.284 305.47C185.371 304.866 185.648 304.274 186.253 304.245L191.247 304.09C191.419 304.082 191.59 304.108 191.751 304.169C191.912 304.229 192.059 304.321 192.183 304.44C192.308 304.56 192.406 304.703 192.474 304.862C192.541 305.02 192.576 305.191 192.575 305.364C192.566 308.312 192.712 315.157 194.262 315.881C194.262 315.881 202.427 314.507 203.06 314.319L202.797 310.374L199.006 300.806L177.858 301.481L173.279 314.178L173.022 316.305Z" fill="#001D3F"/>
<path d="M194.936 239.714C194.936 239.714 197.644 237.543 194.04 235.031C190.436 232.519 194.936 239.714 194.936 239.714Z" fill="#38262D"/>
<path d="M176.264 243.995C176.264 243.995 173.949 247.617 170.485 244.507C167.021 241.398 173.379 239.714 173.379 239.714L176.264 243.995Z" fill="#120D0A"/>
<path d="M170.921 243.561C172.114 244.478 173.725 244.521 175.012 243.754C176.274 243.002 177.866 241.449 176.264 238.837C173.841 234.885 167.305 238.69 170.378 243.044C170.538 243.237 170.72 243.411 170.921 243.561Z" fill="#58434A"/>
<path d="M183.761 257.282C183.761 257.282 178.471 257.897 175.714 252.811C172.958 247.725 176.321 241.908 176.321 241.908L183.761 257.282Z" fill="#120D0A"/>
<path d="M194.616 272.181C194.588 272.468 194.508 272.671 194.36 272.752C193.284 273.354 185.52 277.469 181.473 275.287L180.065 263.979C180.065 263.979 184.1 263.566 183.912 259.274C183.725 254.981 182.827 253.128 182.827 253.128L181.199 251.615L178.212 248.838L182.969 240.252L191.78 237.13C191.78 237.13 195.394 238.077 195.914 241.345C196.433 244.614 196.81 245.798 198.505 246.97C198.505 246.97 200.165 248.25 199.27 248.936C198.375 249.622 196.82 249.764 197.055 250.789C197.29 251.815 198.329 254.301 196.255 255.178C194.182 256.055 190.318 255.911 190.083 257.666C189.848 259.42 189.779 261.586 190.532 262.513C190.937 263.009 192.704 262.788 193.323 263.302C193.544 263.484 192.768 264.942 192.927 265.134L194.093 264.174C194.093 264.174 194.2 264.669 194.208 264.672C194.44 264.947 193.306 265.702 193.293 266.007C193.293 266.062 193.293 266.124 193.293 266.21L194.616 272.181Z" fill="#F1B5AB"/>
<path opacity="0.33" d="M192.093 262.931C192.093 262.931 192.672 269.954 191.222 270.631C189.771 271.309 184.729 270.891 184.729 270.891V273.053C184.729 273.053 195.727 274.915 195.369 272.383C195.012 269.851 193.075 263.093 193.075 263.093L192.093 262.931Z" fill="#FFA58D"/>
<path opacity="0.46" d="M195.243 239.407C195.243 239.407 193.32 240.314 190.586 242.986C187.851 245.658 186.262 250.142 186.262 250.142C186.262 250.142 184.565 247.3 185.725 242.393C186.885 237.486 193.842 235.073 195.243 239.407Z" fill="#E88B87"/>
<path d="M179.191 264.172L182.679 276.255C186.731 278.438 193.28 273.355 194.357 272.753C194.505 272.672 194.588 272.469 194.613 272.182C194.743 270.883 193.824 267.838 193.289 266.21C193.087 265.594 192.942 265.182 192.927 265.14L192.348 264.579C192.348 264.579 192.724 268.46 192.927 270.225C193.13 271.99 188.644 271.635 187.05 271.475C185.455 271.316 184.756 266.768 184.191 265.082C184.16 264.99 184.131 264.902 184.104 264.816C183.852 263.967 183.925 263.053 184.309 262.255C184.833 261.127 184.815 259.314 185.011 258.562C185.249 257.638 187.649 258.08 188.088 255.749C188.527 253.417 186.957 252.271 186.957 252.271L181.212 251.166C181.212 251.166 181.212 251.324 181.205 251.615L182.833 253.128C182.833 253.128 183.729 254.981 183.918 259.274C184.107 263.566 179.191 264.172 179.191 264.172Z" fill="#E88B87"/>
<path d="M194.69 238.64C194.69 238.64 196.137 234.959 192.015 233.592C187.892 232.225 178.668 234.048 176.515 241.421C176.515 241.421 193.621 240.688 194.69 238.64Z" fill="#6D5861"/>
<path d="M175.494 246.261C175.95 255.888 183.76 257.282 183.76 257.282C183.76 257.282 184.925 253.592 183.347 252.299C182.587 251.676 181.908 250.779 181.673 249.946C181.419 249.051 181.673 248.233 182.899 247.922C183.275 247.821 183.669 247.812 184.049 247.897C185.521 248.247 186.205 249.993 186.263 250.142C185.775 248.745 186.432 245.69 186.432 245.69C186.432 245.69 179.012 239.74 177.422 240.627C177.202 240.753 177.007 240.917 176.843 241.11C176.424 241.591 176.125 242.26 175.917 242.904C175.89 242.983 175.866 243.064 175.843 243.145C175.555 244.157 175.438 245.21 175.494 246.261Z" fill="#38262D"/>
<path d="M184.823 256.66C186.289 256.66 187.477 255.43 187.477 253.912C187.477 252.395 186.289 251.165 184.823 251.165C183.358 251.165 182.17 252.395 182.17 253.912C182.17 255.43 183.358 256.66 184.823 256.66Z" fill="#FC983A"/>
<path d="M175.845 243.145C175.845 243.145 176.139 248.89 181.672 249.943C181.419 249.047 181.672 248.229 182.898 247.918C183.274 247.817 183.669 247.809 184.049 247.894L184.526 246.81C184.526 246.81 179.186 239.791 176.843 241.106C176.355 241.384 175.999 242.015 175.845 243.145Z" fill="#120D0A"/>
<path d="M189.379 242.497C189.379 242.497 186.093 252.462 178.207 246.276C177.658 245.845 176.724 244.082 176.471 243.421C176.239 242.823 176.123 242.087 176.511 241.421C176.515 241.421 189.462 240.912 189.379 242.497Z" fill="#47333B"/>
<path d="M194.317 238.349C194.317 238.349 185.324 249.372 176.515 241.421C176.515 241.421 183.634 230.4 193.451 236.192C193.748 236.364 193.996 236.61 194.172 236.905C194.304 237.119 194.385 237.36 194.41 237.61C194.435 237.86 194.403 238.113 194.317 238.349Z" fill="#58434A"/>
<path d="M185.305 271.423C185.305 271.423 190.908 274.915 195.065 269.631L196.959 301.878C196.959 301.878 188.147 303.282 182.513 301.878C176.879 300.474 185.305 271.423 185.305 271.423Z" fill="#FC983A"/>
<path d="M194.839 283.157C194.839 283.157 194.632 297.912 181.277 296.443C173.483 295.585 186.038 302.38 186.038 302.38C186.038 302.38 192.578 302.779 195.531 302.031C198.484 301.282 194.839 283.157 194.839 283.157Z" fill="#066D78"/>
<path d="M206.57 280.674C206.57 280.674 206.57 280.577 206.56 280.422C206.546 280.072 206.517 279.462 206.465 278.685C206.272 275.774 205.77 270.507 204.541 267.353C204.512 267.279 204.484 267.205 204.453 267.133C204.128 266.346 203.758 265.703 203.323 265.292C203.15 265.121 202.947 264.982 202.725 264.884L202.58 264.825C199.131 263.454 192.624 263.093 192.624 263.093C192.624 263.093 195.657 273.92 194.63 288.259C193.603 302.598 199.388 314.11 199.388 314.11L206.134 313.383L205.75 311.202L205.334 303.402L207.179 303.845C207.179 303.845 208.337 293.78 208.323 293.615C208.309 293.45 206.57 280.674 206.57 280.674Z" fill="#089BAB"/>
<path opacity="0.4" d="M196.109 263.42C196.109 263.42 199.126 269.389 198.259 270.551C197.392 271.713 197.011 271.503 197.442 272.383C197.872 273.263 199.246 275.151 198.415 276.313C197.584 277.475 194.763 284.221 194.763 284.221L195.065 276.072V263.297L196.109 263.42Z" fill="#001D3F"/>
<path d="M185.993 294.037C185.993 294.037 185.761 292.216 185.389 289.452C187.541 285.988 189.344 282.85 189.344 282.85C189.344 282.85 185.319 281.593 184.945 278.892C184.945 278.892 184.563 279.135 183.963 279.565C182.896 272.727 181.611 265.552 180.591 263.297C179.38 263.436 178.181 263.663 177.002 263.977C176.95 263.991 177.056 264.284 177.002 264.298C173.957 265.123 169.999 266.302 169.466 267.629C169.052 268.664 168.666 272.653 168.966 276.582C169.301 280.992 170.355 285.326 170.355 285.326C170.355 285.326 170.958 288.187 172.661 291.634C172.907 292.133 173.703 293.496 173.973 293.969C174.027 294.066 174.083 294.161 174.138 294.255C174.138 294.255 175.037 298.729 173.958 302.661C172.909 306.491 171.99 310.612 169.468 311.951C169.468 311.951 179.369 315.366 184.665 315.947C184.665 315.947 185.733 308.031 186.224 299.416C186.338 297.619 186.261 295.815 185.993 294.035V294.037Z" fill="#089BAB"/>
<path d="M192.352 262.512L194.844 282.254L197.778 274.602L196.076 271.665L197.778 269.437L195.466 262.818L192.352 262.512Z" fill="#089BAB"/>
<path opacity="0.4" d="M183.25 280.091C183.25 280.091 176.579 284.787 176.251 290.753C176.251 290.753 175.64 289.204 175.273 284.607L174.314 275.667C174.314 275.667 177.185 283.712 183.25 280.091Z" fill="#001D3F"/>
<path opacity="0.4" d="M177 264.302L178.729 271.947L180.36 272.383L178.96 275.667L184.492 281.372C184.492 281.372 178.513 277.156 177.747 275.878C176.981 274.6 179.328 273.433 178.4 272.836C177.472 272.239 176.024 264.544 176.024 264.544L177 264.302Z" fill="#001D3F"/>
<path opacity="0.4" d="M185.401 289.626L185.872 293.096C185.872 293.096 178.834 301.245 173.948 302.664C175.027 298.732 174.001 294.037 174.001 294.037L175.456 295.253C176.063 295.762 176.836 296.028 177.627 295.999C178.417 295.97 179.169 295.65 179.739 295.098L185.401 289.626Z" fill="#001D3F"/>
<path opacity="0.4" d="M205.335 303.406L203.669 295.777C202.579 287.771 205.547 286.58 203.364 282.643C201.18 278.706 200.764 270.893 200.764 270.893C200.764 270.893 201.274 273.005 203.104 278.658C203.313 279.303 205.512 282.469 204.869 286.436C204.84 288.212 204.337 289.317 204.35 291.619C204.367 294.349 204.815 298.097 205.335 303.406Z" fill="#001D3F"/>
<path d="M178.992 266.346L181.149 272.763L190.96 269.228L188.717 262.931L178.992 266.346Z" fill="#223256"/>
<path d="M174.683 272.364L174.092 270.444L191.417 264.65L199.941 289.01L182.347 295.08L174.683 272.364Z" fill="#FFD9B2"/>
<path d="M191.387 265.657L172.918 272.161L181.423 296.582L199.892 290.078L191.387 265.657Z" fill="#0A183D"/>
<path d="M178.924 276.251L189.033 272.487L190.586 276.549L180.297 280.197L178.924 276.251Z" fill="#FFD9B2"/>
<path opacity="0.48" d="M184.353 274.23L183.354 279.113L187.878 277.509L189.033 272.487L184.353 274.23Z" fill="white"/>
<path d="M184.425 279.532L186.019 278.045C186.019 278.045 187.324 280.381 190.049 280.537C190.049 280.537 189.397 282.839 188.634 283.627C187.871 284.415 184.425 279.532 184.425 279.532Z" fill="#E67225"/>
<path d="M195.91 271.421C196.041 271.852 196.27 273.772 195.956 274.708C195.919 274.829 195.862 274.942 195.787 275.043C195.237 275.732 188.831 281.488 188.831 281.488C188.831 281.488 185.126 279.318 185.459 278.714C185.459 278.714 186.817 277.183 187.392 275.439C188.068 273.39 186.801 271.193 187.483 270.071C188.165 268.949 190.131 266.832 190.315 266.325C190.499 265.817 191.675 266.491 190.814 268.262C190.814 268.262 191.525 267.318 193.206 268.495C194.887 269.672 195.761 270.93 195.91 271.421Z" fill="#F1B5AB"/>
<path d="M190.815 268.263C190.815 268.263 189.186 269.427 189.132 270.513C189.079 271.6 188.867 273.373 188.867 273.373C188.867 273.373 190.372 271.694 190.681 269.899C190.99 268.104 190.815 268.263 190.815 268.263Z" fill="#E88B87"/>
<path opacity="0.46" d="M195.911 271.422C196.041 271.852 196.271 273.772 195.957 274.708C191.905 269.622 190.536 270.488 190.536 270.488C190.173 270.022 190.816 268.263 190.816 268.263C190.816 268.263 191.527 267.319 193.207 268.496C194.888 269.673 195.761 270.93 195.911 271.422Z" fill="#E88B87"/>
<path opacity="0.55" d="M174.561 277.945L177.041 287.503C177.041 287.503 178.094 284.222 183.024 280.199C183.024 280.199 180.262 281.121 177.855 284.919C177.855 284.919 177.276 286.106 176.758 283.779C176.239 281.452 174.561 277.945 174.561 277.945Z" fill="#001D3F"/>
<path d="M177.197 287.148C177.197 287.148 178.711 284.073 183.545 279.438C183.588 279.396 183.64 279.364 183.696 279.343C183.753 279.322 183.813 279.313 183.873 279.316C183.933 279.319 183.992 279.335 184.046 279.361C184.1 279.388 184.148 279.426 184.187 279.472C184.912 280.327 187.032 282.53 188.28 283.375C188.473 283.506 188.611 283.705 188.667 283.933C188.722 284.16 188.692 284.401 188.581 284.607C187.485 286.652 184.385 291.784 179.1 295.577L177.197 287.148Z" fill="#089BAB"/>
<path d="M153.48 307.069C153.412 307.186 153.331 307.294 153.238 307.392C152.746 307.923 151.69 308.42 150.506 308.656C150.359 308.693 150.21 308.718 150.06 308.731C149.528 308.807 148.988 308.818 148.453 308.764C148.332 308.751 148.215 308.716 148.106 308.663C145.683 307.979 141.739 303.999 140.559 303.729C139.264 303.432 141.362 300.725 141.362 300.725C141.362 300.725 141.678 301.096 143.33 300.725C144.982 300.353 147.218 299.467 148.928 299.73C149.868 299.877 150.331 300.917 150.918 301.464C150.974 301.517 151.035 301.567 151.098 301.612C151.435 301.824 151.807 301.974 152.197 302.055C152.261 302.071 152.319 302.105 152.363 302.153C152.408 302.202 152.437 302.263 152.447 302.328C152.457 302.393 152.447 302.46 152.419 302.519C152.391 302.579 152.346 302.629 152.29 302.663C152.231 302.701 152.158 302.742 152.081 302.779C151.801 302.919 150.966 302.726 150.122 302.521H150.11C149.241 302.311 148.366 302.091 148.086 302.224C148.07 302.23 148.056 302.239 148.043 302.251C147.837 302.429 148.189 303.561 148.738 304.774C148.738 304.774 150.937 306.287 153.242 306.287C153.238 306.281 153.803 306.487 153.48 307.069Z" fill="#F1B5AB"/>
<path d="M153.48 307.069C147.95 307.259 147.095 304.112 147.243 302.67C147.384 301.283 149.905 302.424 150.11 302.519C149.242 302.309 148.367 302.089 148.086 302.222C148.071 302.228 148.056 302.237 148.044 302.249C147.838 302.427 148.189 303.558 148.738 304.771C148.738 304.771 150.938 306.285 153.243 306.285C153.238 306.281 153.803 306.487 153.48 307.069Z" fill="#E88B87"/>
<path d="M140.561 313.437C140.561 313.437 141.887 316.902 141.534 317.524C141.181 318.145 137.559 322.322 137.559 322.322L136.027 312.881L140.561 313.437Z" fill="#F1B5AB"/>
<path d="M117.488 385.498L116.73 399.034L115.856 401.576L111.977 400.509L111.528 395.511L110.724 386.56L117.488 385.498Z" fill="#F6D6CB"/>
<path d="M116.917 395.676L116.73 399.034L115.856 401.576L111.977 400.509L111.528 395.511C112.898 395.895 114.923 396.22 116.917 395.676Z" fill="#089BAB"/>
<path d="M133.101 382.011L132.296 393.541L131.905 399.143L126.962 399.971L126.73 393.796L126.42 385.441L133.101 382.011Z" fill="#F6D6CB"/>
<path d="M132.295 393.541L131.904 399.143L126.961 399.971L126.729 393.801C127.945 394.087 130.369 394.47 132.295 393.541Z" fill="#089BAB"/>
<path d="M137.794 349.396C136.032 360.273 133.37 386.067 133.37 386.067C131.353 387.453 129.42 387.522 127.997 387.255C127.189 387.112 126.412 386.823 125.705 386.404C124.316 379.214 123.134 352.502 123.076 351.175C123.076 351.344 123.058 351.566 123.028 351.829C122.761 354.298 121.42 360.318 121.42 360.318C118.957 366.819 117.75 387.922 117.75 387.922C111.68 390.125 110.007 387.215 110.007 387.215C110.007 387.215 107.113 358.324 108.727 354.502C110.341 350.68 108.904 332.444 107.949 325.803C107.625 323.553 107.594 321.163 107.694 318.985C107.813 316.403 108.109 313.832 108.581 311.291L112.759 310.919L137.168 308.758C137.168 308.758 137.253 309.805 137.378 311.579C137.425 312.238 137.477 312.999 137.532 313.843C138.119 322.826 139.101 341.32 137.794 349.396Z" fill="#FF8A47"/>
<path d="M137.526 313.843C137.526 313.843 118.208 314.607 114.093 314.603C110.041 314.603 107.764 318.858 107.694 318.99C107.813 316.408 108.109 313.837 108.581 311.296L112.759 310.925C120.474 310.886 136.572 311.547 137.372 311.579H137.402L137.526 313.843Z" fill="#D74F29"/>
<path d="M125.708 386.407C124.319 379.161 123.119 352.083 123.078 351.153C123.074 351.38 123.058 351.607 123.031 351.833L123.078 351.128L128.448 319.403C128.448 319.403 129.856 325.049 126.847 341.503C124.228 355.822 127.194 380.991 128.005 387.255C127.195 387.112 126.417 386.825 125.708 386.407Z" fill="#D74F29"/>
<path d="M132.785 397.105C132.785 397.105 129.725 399.33 126.929 397.518C126.929 397.518 126.572 396.774 126.17 400.619C125.769 404.464 125.905 405.291 125.905 405.291C125.905 405.291 133.002 406.733 145.782 406.29C145.782 406.29 148.515 405.795 147.919 402.489C147.919 402.489 147.579 401.661 147.159 401.348C146.738 401.035 137.946 399.668 132.785 397.105Z" fill="#5A434B"/>
<path d="M125.883 404.626C125.883 404.626 143.928 406.13 147.632 404.936C147.632 404.936 147.619 405.108 146.938 407.077L125.868 406.563L125.883 404.626Z" fill="#0E0506"/>
<path opacity="0.32" d="M126.171 400.619C126.171 400.619 130.184 404.81 145.503 405.276C145.503 405.276 132.075 406.494 125.886 404.626L126.171 400.619Z" fill="#0E0506"/>
<path d="M132.227 246.03C132.582 248.193 130.704 255.533 127.018 255.626C124.51 255.688 122.216 254.801 122.131 254.768C122.131 254.768 121.129 258.397 122.985 262.129C123.191 262.544 123.225 262.885 123.119 263.163C122.309 265.403 112.735 263.682 112.735 263.682C112.735 263.682 113.494 263.031 114.222 261.652C114.458 261.205 114.662 260.742 114.831 260.265C115.397 258.673 115.757 256.498 115.386 253.688C114.46 246.758 110.35 242.493 114.193 239.783C118.037 237.073 127.637 231.845 127.637 231.845C127.637 231.845 131.937 232.142 132.232 236.703C132.527 241.264 131.874 243.868 132.227 246.03Z" fill="#F1B5AB"/>
<path d="M123.114 263.161C120.044 263.149 115.056 261.871 114.218 261.647C114.454 261.201 114.657 260.737 114.827 260.261C116.649 260.524 120.623 261.049 121.479 260.775C122.597 260.426 120.205 254.705 120.379 254.232C120.552 253.758 122.127 254.764 122.127 254.764C122.127 254.764 121.124 258.392 122.98 262.125C123.186 262.541 123.221 262.882 123.114 263.161Z" fill="#E88B87"/>
<path d="M141.181 304.951H140.474C140.474 304.951 141.4 309.571 140.651 313.66L137.516 314.054L137.252 312.721C137.252 312.721 135.849 313.078 128.075 313.195C120.302 313.313 107.816 314.054 107.816 314.054L107.522 310.115C107.522 310.115 102.455 309.522 102.574 308.16C102.679 306.947 104.182 301.182 105.177 297.799C105.301 297.382 105.408 297 105.518 296.67C105.789 295.808 105.824 294.888 105.62 294.007C105.041 292.702 104.262 290.85 104.347 289.089C104.462 286.483 103.697 266.168 106.29 263.916C106.29 263.916 106.687 263.176 110.737 261.605C114.786 260.035 114.623 260.81 114.623 260.81C114.623 260.81 117.935 263.036 122.449 260.826C122.449 260.826 122.693 260.45 123.223 260.953C123.754 261.456 131.148 268.12 131.674 269.219C132.201 270.318 139.685 299.577 139.685 299.577L141.19 299.926C141.19 299.926 141.976 302.463 141.181 304.951Z" fill="#C6E9EF"/>
<path opacity="0.36" d="M114.587 268.775C114.587 268.775 114.462 288.418 115.58 289.07C115.58 289.07 121.773 291.166 126.368 293.712C130.962 296.258 136.027 298.273 136.027 298.273L135.796 297.147C135.796 297.147 124.073 290.395 121.717 290.454C119.361 290.514 118.013 286.545 117.653 284.052C117.293 281.558 116.119 266.169 114.587 268.775Z" fill="#6DCAD2"/>
<path d="M137.558 305.44C137.558 305.44 136.499 304.136 132.551 304.966C128.604 305.796 105.174 297.803 105.174 297.803C105.298 297.386 105.405 297.004 105.515 296.673C105.786 295.811 105.821 294.892 105.617 294.011C106.136 295.393 107.999 298.366 114.586 299.576C123.303 301.174 127.014 303.958 134.789 303.129L137.263 304.076L137.558 305.44Z" fill="#6DCAD2"/>
<path d="M129.875 272.654L136.03 298.273C136.03 298.273 136.798 299.162 139.683 299.577L139.523 298.951C139.523 298.951 137.65 298.443 137.323 297.554C136.997 296.664 130.623 270.748 129.875 272.654Z" fill="#6DCAD2"/>
<path d="M137.264 304.078L140.474 304.951L140.561 305.441C140.561 305.441 138.265 304.818 138.486 305.84C138.707 306.862 140.917 308.867 139.68 310.95C139.68 310.95 139.206 312.035 139.531 313.802L137.516 314.054L137.252 312.721C137.252 312.721 138.458 312.499 137.965 311.699C137.472 310.9 137.913 310.186 138.708 309.7C139.504 309.215 137.56 305.258 137.56 305.258L137.264 304.078Z" fill="#6DCAD2"/>
<path d="M116.731 399.038C116.731 399.038 114.563 401.313 111.765 399.504C111.765 399.504 111.41 398.76 111.008 402.605C110.606 406.45 110.742 407.277 110.742 407.277C110.742 407.277 117.838 408.721 130.619 408.276C130.619 408.276 133.352 407.781 132.756 404.475C132.756 404.475 132.417 403.647 131.995 403.335C131.574 403.023 121.888 401.599 116.731 399.038Z" fill="#5A434B"/>
<path d="M110.719 406.605C110.719 406.605 128.765 408.109 132.469 406.916C132.469 406.916 132.456 407.087 131.774 409.057L110.705 408.542L110.719 406.605Z" fill="#0E0506"/>
<path opacity="0.32" d="M111.006 402.595C111.006 402.595 115.018 406.786 130.339 407.251C130.339 407.251 116.91 408.468 110.72 406.601L111.006 402.595Z" fill="#0E0506"/>
<path d="M132.227 236.7C129.96 231.221 122.441 235.605 122.441 235.605C118.574 237.618 118.121 244.667 118.121 244.667L117.473 243.483C117.473 243.483 114.94 241.41 114.174 244.075C113.407 246.741 116.295 247.096 116.295 247.096C115.293 247.865 115.081 251.968 115.081 251.968C110.557 249.276 108.28 244.326 108.434 239.647C108.477 238.088 108.811 236.552 109.418 235.117C111.833 229.488 122.055 226.077 128.428 229.09C131.387 230.487 132.156 232.982 132.303 234.733C132.362 235.389 132.337 236.051 132.227 236.7Z" fill="#412B2E"/>
<path d="M132.227 236.7C129.96 231.221 122.441 235.605 122.441 235.605C118.574 237.618 118.121 244.667 118.121 244.667L117.473 243.483C117.473 243.483 114.94 241.409 114.174 244.075C113.407 246.741 116.295 247.096 116.295 247.096C115.293 247.865 115.081 251.968 115.081 251.968C110.557 249.276 108.28 244.326 108.434 239.647C111.118 240.636 115.427 241.344 118.65 237.649C123.334 232.279 129.164 231.903 132.303 234.739C132.362 235.393 132.336 236.053 132.227 236.7Z" fill="#110809"/>
<path d="M107.52 310.12C107.52 310.12 122.538 310.95 124.335 310.712C126.131 310.475 137.337 310.755 137.337 310.755C137.337 310.755 136.956 311.06 137.453 311.57C137.95 312.08 107.683 312.347 107.683 312.347L107.52 310.12Z" fill="#7AC7CF"/>
<path d="M136.027 298.273C136.027 298.273 136.925 300.951 134.789 303.13L141.049 305.263C141.049 305.263 142.881 302.131 141.534 299.954L136.027 298.273Z" fill="#C6E9EF"/>
<g opacity="0.66">
<path opacity="0.66" d="M343.352 345.15C344.069 343.908 344.885 342.687 346.022 341.819C346.911 341.14 347.956 340.707 348.988 340.282C351.548 339.226 356.897 337.837 356.897 337.837C356.897 337.837 357.29 341.149 356.736 342.741C354.263 349.842 349.353 355.787 344.33 361.361C342.198 363.728 339.222 369.103 339.222 369.103C339.222 369.103 339.296 352.172 343.352 345.15Z" fill="#FFD8AF"/>
<path opacity="0.66" d="M354.137 341.153C347.202 352.138 340.254 363.354 337.426 376.216C337.298 376.798 336.384 376.657 336.516 376.074C339.38 363.052 354.451 340.653 354.137 341.149V341.153Z" fill="white"/>
<path opacity="0.66" d="M333.012 352.77C332.5 351.697 331.906 350.634 331.024 349.841C330.335 349.222 329.5 348.793 328.675 348.375C326.63 347.333 322.308 345.833 322.308 345.833C322.308 345.833 321.766 348.543 322.119 349.893C323.697 355.922 327.362 361.159 331.149 366.097C332.755 368.193 334.861 372.83 334.861 372.83C334.861 372.83 335.901 358.839 333.012 352.77Z" fill="#F7D9CE"/>
<path opacity="0.66" d="M324.37 348.753C329.378 358.287 334.382 368.012 335.875 378.824C335.942 379.309 336.703 379.257 336.636 378.766C335.124 367.823 324.144 348.32 324.365 348.753H324.37Z" fill="white"/>
<g opacity="0.6">
<path opacity="0.6" d="M345.04 344.003C345.251 341.594 345.131 339.169 345.234 336.752C345.311 334.971 345.507 333.167 345.145 331.42C344.587 328.735 342.782 326.51 341.035 324.402C339.386 326.212 337.165 327.485 335.781 329.508C334.861 330.849 334.372 332.434 333.96 334.008C332.455 339.781 331.841 345.883 332.996 351.735C333.483 354.201 334.103 357.624 335.459 359.768C336.945 362.118 338.816 358.85 339.885 357.416C342.803 353.51 344.587 348.867 345.04 344.003Z" fill="#FF9C85"/>
<path opacity="0.91" d="M340.272 328.902C337.885 343.081 335.586 357.492 338.304 371.473C338.426 372.102 337.418 372.419 337.294 371.784C334.546 357.628 340.385 328.258 340.276 328.902H340.272Z" fill="white"/>
</g>
<path opacity="0.48" d="M342.074 388.156H330.525L328.793 374.229H344.383L342.074 388.156Z" fill="#100708"/>
<path opacity="0.48" d="M344.817 374.66H328.361C328.054 374.66 327.759 374.537 327.542 374.319C327.325 374.1 327.203 373.804 327.203 373.496C327.203 373.187 327.325 372.891 327.542 372.672C327.759 372.454 328.054 372.331 328.361 372.331H344.817C345.124 372.331 345.418 372.454 345.636 372.672C345.853 372.891 345.975 373.187 345.975 373.496C345.975 373.648 345.945 373.8 345.886 373.941C345.828 374.082 345.743 374.211 345.636 374.319C345.528 374.427 345.4 374.513 345.26 374.571C345.119 374.63 344.969 374.66 344.817 374.66Z" fill="#3E2A2C"/>
</g>
<path d="M51.56 45C53.3733 45 54.8 45.4333 55.84 46.3C56.88 47.1667 57.4 48.36 57.4 49.88C57.4 51.4 56.88 52.5933 55.84 53.46C54.8 54.3267 53.3733 54.76 51.56 54.76H48.1V59H46.1V45H51.56ZM51.5 53.02C52.7667 53.02 53.7333 52.7533 54.4 52.22C55.0667 51.6733 55.4 50.8933 55.4 49.88C55.4 48.8667 55.0667 48.0933 54.4 47.56C53.7333 47.0133 52.7667 46.74 51.5 46.74H48.1V53.02H51.5ZM69.5992 53.76C69.5992 53.9067 69.5859 54.1 69.5592 54.34H60.9592C61.0792 55.2733 61.4859 56.0267 62.1792 56.6C62.8859 57.16 63.7592 57.44 64.7992 57.44C66.0659 57.44 67.0859 57.0133 67.8592 56.16L68.9192 57.4C68.4392 57.96 67.8392 58.3867 67.1192 58.68C66.4126 58.9733 65.6192 59.12 64.7392 59.12C63.6192 59.12 62.6259 58.8933 61.7592 58.44C60.8926 57.9733 60.2192 57.3267 59.7392 56.5C59.2726 55.6733 59.0392 54.74 59.0392 53.7C59.0392 52.6733 59.2659 51.7467 59.7192 50.92C60.1859 50.0933 60.8192 49.4533 61.6192 49C62.4326 48.5333 63.3459 48.3 64.3592 48.3C65.3726 48.3 66.2726 48.5333 67.0592 49C67.8592 49.4533 68.4792 50.0933 68.9192 50.92C69.3726 51.7467 69.5992 52.6933 69.5992 53.76ZM64.3592 49.92C63.4392 49.92 62.6659 50.2 62.0392 50.76C61.4259 51.32 61.0659 52.0533 60.9592 52.96H67.7592C67.6526 52.0667 67.2859 51.34 66.6592 50.78C66.0459 50.2067 65.2792 49.92 64.3592 49.92ZM76.8053 59.12C75.752 59.12 74.8053 58.8867 73.9653 58.42C73.1253 57.9533 72.4653 57.3133 71.9853 56.5C71.5186 55.6733 71.2853 54.74 71.2853 53.7C71.2853 52.66 71.5186 51.7333 71.9853 50.92C72.4653 50.0933 73.1253 49.4533 73.9653 49C74.8053 48.5333 75.752 48.3 76.8053 48.3C77.8586 48.3 78.7986 48.5333 79.6253 49C80.4653 49.4533 81.1186 50.0933 81.5853 50.92C82.0653 51.7333 82.3053 52.66 82.3053 53.7C82.3053 54.74 82.0653 55.6733 81.5853 56.5C81.1186 57.3133 80.4653 57.9533 79.6253 58.42C78.7986 58.8867 77.8586 59.12 76.8053 59.12ZM76.8053 57.44C77.4853 57.44 78.092 57.2867 78.6253 56.98C79.172 56.66 79.5986 56.22 79.9053 55.66C80.212 55.0867 80.3653 54.4333 80.3653 53.7C80.3653 52.9667 80.212 52.32 79.9053 51.76C79.5986 51.1867 79.172 50.7467 78.6253 50.44C78.092 50.1333 77.4853 49.98 76.8053 49.98C76.1253 49.98 75.512 50.1333 74.9653 50.44C74.432 50.7467 74.0053 51.1867 73.6853 51.76C73.3786 52.32 73.2253 52.9667 73.2253 53.7C73.2253 54.4333 73.3786 55.0867 73.6853 55.66C74.0053 56.22 74.432 56.66 74.9653 56.98C75.512 57.2867 76.1253 57.44 76.8053 57.44ZM90.5806 48.3C91.6073 48.3 92.5273 48.5267 93.3406 48.98C94.154 49.4333 94.7873 50.0667 95.2406 50.88C95.7073 51.6933 95.9406 52.6333 95.9406 53.7C95.9406 54.7667 95.7073 55.7133 95.2406 56.54C94.7873 57.3533 94.154 57.9867 93.3406 58.44C92.5273 58.8933 91.6073 59.12 90.5806 59.12C89.8206 59.12 89.1206 58.9733 88.4806 58.68C87.854 58.3867 87.3206 57.96 86.8806 57.4V62.88H84.9606V48.4H86.8006V50.08C87.2273 49.4933 87.7673 49.0533 88.4206 48.76C89.074 48.4533 89.794 48.3 90.5806 48.3ZM90.4206 57.44C91.1006 57.44 91.7073 57.2867 92.2406 56.98C92.7873 56.66 93.214 56.22 93.5206 55.66C93.8406 55.0867 94.0006 54.4333 94.0006 53.7C94.0006 52.9667 93.8406 52.32 93.5206 51.76C93.214 51.1867 92.7873 50.7467 92.2406 50.44C91.7073 50.1333 91.1006 49.98 90.4206 49.98C89.754 49.98 89.1473 50.14 88.6006 50.46C88.0673 50.7667 87.6406 51.2 87.3206 51.76C87.014 52.32 86.8606 52.9667 86.8606 53.7C86.8606 54.4333 87.014 55.0867 87.3206 55.66C87.6273 56.22 88.054 56.66 88.6006 56.98C89.1473 57.2867 89.754 57.44 90.4206 57.44ZM98.5934 44.16H100.513V59H98.5934V44.16ZM113.759 53.76C113.759 53.9067 113.746 54.1 113.719 54.34H105.119C105.239 55.2733 105.646 56.0267 106.339 56.6C107.046 57.16 107.919 57.44 108.959 57.44C110.226 57.44 111.246 57.0133 112.019 56.16L113.079 57.4C112.599 57.96 111.999 58.3867 111.279 58.68C110.573 58.9733 109.779 59.12 108.899 59.12C107.779 59.12 106.786 58.8933 105.919 58.44C105.053 57.9733 104.379 57.3267 103.899 56.5C103.433 55.6733 103.199 54.74 103.199 53.7C103.199 52.6733 103.426 51.7467 103.879 50.92C104.346 50.0933 104.979 49.4533 105.779 49C106.593 48.5333 107.506 48.3 108.519 48.3C109.533 48.3 110.433 48.5333 111.219 49C112.019 49.4533 112.639 50.0933 113.079 50.92C113.533 51.7467 113.759 52.6933 113.759 53.76ZM108.519 49.92C107.599 49.92 106.826 50.2 106.199 50.76C105.586 51.32 105.226 52.0533 105.119 52.96H111.919C111.813 52.0667 111.446 51.34 110.819 50.78C110.206 50.2067 109.439 49.92 108.519 49.92Z" fill="#089BAB"/>
<path d="M51.368 84.636V93H50.276V89.208H46.016V93H44.924V84.636H46.016V88.308H50.276V84.636H51.368ZM59.0326 89.46C59.0326 89.668 59.0206 89.888 58.9966 90.12H53.7406C53.7806 90.768 54.0006 91.276 54.4006 91.644C54.8086 92.004 55.3006 92.184 55.8766 92.184C56.3486 92.184 56.7406 92.076 57.0526 91.86C57.3726 91.636 57.5966 91.34 57.7246 90.972H58.9006C58.7246 91.604 58.3726 92.12 57.8446 92.52C57.3166 92.912 56.6606 93.108 55.8766 93.108C55.2526 93.108 54.6926 92.968 54.1966 92.688C53.7086 92.408 53.3246 92.012 53.0446 91.5C52.7646 90.98 52.6246 90.38 52.6246 89.7C52.6246 89.02 52.7606 88.424 53.0326 87.912C53.3046 87.4 53.6846 87.008 54.1726 86.736C54.6686 86.456 55.2366 86.316 55.8766 86.316C56.5006 86.316 57.0526 86.452 57.5326 86.724C58.0126 86.996 58.3806 87.372 58.6366 87.852C58.9006 88.324 59.0326 88.86 59.0326 89.46ZM57.9046 89.232C57.9046 88.816 57.8126 88.46 57.6286 88.164C57.4446 87.86 57.1926 87.632 56.8726 87.48C56.5606 87.32 56.2126 87.24 55.8286 87.24C55.2766 87.24 54.8046 87.416 54.4126 87.768C54.0286 88.12 53.8086 88.608 53.7526 89.232H57.9046ZM61.366 87.492C61.558 87.116 61.83 86.824 62.182 86.616C62.542 86.408 62.978 86.304 63.49 86.304V87.432H63.202C61.978 87.432 61.366 88.096 61.366 89.424V93H60.274V86.424H61.366V87.492ZM70.5506 89.46C70.5506 89.668 70.5386 89.888 70.5146 90.12H65.2586C65.2986 90.768 65.5186 91.276 65.9186 91.644C66.3266 92.004 66.8186 92.184 67.3946 92.184C67.8666 92.184 68.2586 92.076 68.5706 91.86C68.8906 91.636 69.1146 91.34 69.2426 90.972H70.4186C70.2426 91.604 69.8906 92.12 69.3626 92.52C68.8346 92.912 68.1786 93.108 67.3946 93.108C66.7706 93.108 66.2106 92.968 65.7146 92.688C65.2266 92.408 64.8426 92.012 64.5626 91.5C64.2826 90.98 64.1426 90.38 64.1426 89.7C64.1426 89.02 64.2786 88.424 64.5506 87.912C64.8226 87.4 65.2026 87.008 65.6906 86.736C66.1866 86.456 66.7546 86.316 67.3946 86.316C68.0186 86.316 68.5706 86.452 69.0506 86.724C69.5306 86.996 69.8986 87.372 70.1546 87.852C70.4186 88.324 70.5506 88.86 70.5506 89.46ZM69.4226 89.232C69.4226 88.816 69.3306 88.46 69.1466 88.164C68.9626 87.86 68.7106 87.632 68.3906 87.48C68.0786 87.32 67.7306 87.24 67.3466 87.24C66.7946 87.24 66.3226 87.416 65.9306 87.768C65.5466 88.12 65.3266 88.608 65.2706 89.232H69.4226ZM80.4552 86.424L76.4952 96.096H75.3672L76.6632 92.928L74.0112 86.424H75.2232L77.2872 91.752L79.3272 86.424H80.4552ZM84.2209 93.108C83.6049 93.108 83.0449 92.968 82.5409 92.688C82.0449 92.408 81.6529 92.012 81.3649 91.5C81.0849 90.98 80.9449 90.38 80.9449 89.7C80.9449 89.028 81.0889 88.436 81.3769 87.924C81.6729 87.404 82.0729 87.008 82.5769 86.736C83.0809 86.456 83.6449 86.316 84.2689 86.316C84.8929 86.316 85.4569 86.456 85.9609 86.736C86.4649 87.008 86.8609 87.4 87.1489 87.912C87.4449 88.424 87.5929 89.02 87.5929 89.7C87.5929 90.38 87.4409 90.98 87.1369 91.5C86.8409 92.012 86.4369 92.408 85.9249 92.688C85.4129 92.968 84.8449 93.108 84.2209 93.108ZM84.2209 92.148C84.6129 92.148 84.9809 92.056 85.3249 91.872C85.6689 91.688 85.9449 91.412 86.1529 91.044C86.3689 90.676 86.4769 90.228 86.4769 89.7C86.4769 89.172 86.3729 88.724 86.1649 88.356C85.9569 87.988 85.6849 87.716 85.3489 87.54C85.0129 87.356 84.6489 87.264 84.2569 87.264C83.8569 87.264 83.4889 87.356 83.1529 87.54C82.8249 87.716 82.5609 87.988 82.3609 88.356C82.1609 88.724 82.0609 89.172 82.0609 89.7C82.0609 90.236 82.1569 90.688 82.3489 91.056C82.5489 91.424 82.8129 91.7 83.1409 91.884C83.4689 92.06 83.8289 92.148 84.2209 92.148ZM94.6607 86.424V93H93.5687V92.028C93.3607 92.364 93.0687 92.628 92.6927 92.82C92.3247 93.004 91.9167 93.096 91.4687 93.096C90.9567 93.096 90.4967 92.992 90.0887 92.784C89.6807 92.568 89.3567 92.248 89.1167 91.824C88.8847 91.4 88.7687 90.884 88.7687 90.276V86.424H89.8487V90.132C89.8487 90.78 90.0127 91.28 90.3407 91.632C90.6687 91.976 91.1167 92.148 91.6847 92.148C92.2687 92.148 92.7287 91.968 93.0647 91.608C93.4007 91.248 93.5687 90.724 93.5687 90.036V86.424H94.6607ZM98.8957 89.7C98.8957 89.02 99.0317 88.428 99.3037 87.924C99.5757 87.412 99.9517 87.016 100.432 86.736C100.92 86.456 101.476 86.316 102.1 86.316C102.908 86.316 103.572 86.512 104.092 86.904C104.62 87.296 104.968 87.84 105.136 88.536H103.96C103.848 88.136 103.628 87.82 103.3 87.588C102.98 87.356 102.58 87.24 102.1 87.24C101.476 87.24 100.972 87.456 100.588 87.888C100.204 88.312 100.012 88.916 100.012 89.7C100.012 90.492 100.204 91.104 100.588 91.536C100.972 91.968 101.476 92.184 102.1 92.184C102.58 92.184 102.98 92.072 103.3 91.848C103.62 91.624 103.84 91.304 103.96 90.888H105.136C104.96 91.56 104.608 92.1 104.08 92.508C103.552 92.908 102.892 93.108 102.1 93.108C101.476 93.108 100.92 92.968 100.432 92.688C99.9517 92.408 99.5757 92.012 99.3037 91.5C99.0317 90.988 98.8957 90.388 98.8957 89.7ZM105.985 89.688C105.985 89.016 106.121 88.428 106.393 87.924C106.665 87.412 107.037 87.016 107.509 86.736C107.989 86.456 108.521 86.316 109.105 86.316C109.681 86.316 110.181 86.44 110.605 86.688C111.029 86.936 111.345 87.248 111.553 87.624V86.424H112.657V93H111.553V91.776C111.337 92.16 111.013 92.48 110.581 92.736C110.157 92.984 109.661 93.108 109.093 93.108C108.509 93.108 107.981 92.964 107.509 92.676C107.037 92.388 106.665 91.984 106.393 91.464C106.121 90.944 105.985 90.352 105.985 89.688ZM111.553 89.7C111.553 89.204 111.453 88.772 111.253 88.404C111.053 88.036 110.781 87.756 110.437 87.564C110.101 87.364 109.729 87.264 109.321 87.264C108.913 87.264 108.541 87.36 108.205 87.552C107.869 87.744 107.601 88.024 107.401 88.392C107.201 88.76 107.101 89.192 107.101 89.688C107.101 90.192 107.201 90.632 107.401 91.008C107.601 91.376 107.869 91.66 108.205 91.86C108.541 92.052 108.913 92.148 109.321 92.148C109.729 92.148 110.101 92.052 110.437 91.86C110.781 91.66 111.053 91.376 111.253 91.008C111.453 90.632 111.553 90.196 111.553 89.7ZM117.506 86.304C118.306 86.304 118.954 86.548 119.45 87.036C119.946 87.516 120.194 88.212 120.194 89.124V93H119.114V89.28C119.114 88.624 118.95 88.124 118.622 87.78C118.294 87.428 117.846 87.252 117.278 87.252C116.702 87.252 116.242 87.432 115.898 87.792C115.562 88.152 115.394 88.676 115.394 89.364V93H114.302V86.424H115.394V87.36C115.61 87.024 115.902 86.764 116.27 86.58C116.646 86.396 117.058 86.304 117.506 86.304ZM127.453 87.324H126.073V93H124.981V87.324H124.129V86.424H124.981V85.956C124.981 85.22 125.169 84.684 125.545 84.348C125.929 84.004 126.541 83.832 127.381 83.832V84.744C126.901 84.744 126.561 84.84 126.361 85.032C126.169 85.216 126.073 85.524 126.073 85.956V86.424H127.453V87.324ZM129.09 85.356C128.882 85.356 128.706 85.284 128.562 85.14C128.418 84.996 128.346 84.82 128.346 84.612C128.346 84.404 128.418 84.228 128.562 84.084C128.706 83.94 128.882 83.868 129.09 83.868C129.29 83.868 129.458 83.94 129.594 84.084C129.738 84.228 129.81 84.404 129.81 84.612C129.81 84.82 129.738 84.996 129.594 85.14C129.458 85.284 129.29 85.356 129.09 85.356ZM129.618 86.424V93H128.526V86.424H129.618ZM134.483 86.304C135.283 86.304 135.931 86.548 136.427 87.036C136.923 87.516 137.171 88.212 137.171 89.124V93H136.091V89.28C136.091 88.624 135.927 88.124 135.599 87.78C135.271 87.428 134.823 87.252 134.255 87.252C133.679 87.252 133.219 87.432 132.875 87.792C132.539 88.152 132.371 88.676 132.371 89.364V93H131.279V86.424H132.371V87.36C132.587 87.024 132.879 86.764 133.247 86.58C133.623 86.396 134.035 86.304 134.483 86.304ZM138.347 89.688C138.347 89.016 138.483 88.428 138.755 87.924C139.027 87.412 139.399 87.016 139.871 86.736C140.351 86.456 140.887 86.316 141.479 86.316C141.991 86.316 142.467 86.436 142.907 86.676C143.347 86.908 143.683 87.216 143.915 87.6V84.12H145.019V93H143.915V91.764C143.699 92.156 143.379 92.48 142.955 92.736C142.531 92.984 142.035 93.108 141.467 93.108C140.883 93.108 140.351 92.964 139.871 92.676C139.399 92.388 139.027 91.984 138.755 91.464C138.483 90.944 138.347 90.352 138.347 89.688ZM143.915 89.7C143.915 89.204 143.815 88.772 143.615 88.404C143.415 88.036 143.143 87.756 142.799 87.564C142.463 87.364 142.091 87.264 141.683 87.264C141.275 87.264 140.903 87.36 140.567 87.552C140.231 87.744 139.963 88.024 139.763 88.392C139.563 88.76 139.463 89.192 139.463 89.688C139.463 90.192 139.563 90.632 139.763 91.008C139.963 91.376 140.231 91.66 140.567 91.86C140.903 92.052 141.275 92.148 141.683 92.148C142.091 92.148 142.463 92.052 142.799 91.86C143.143 91.66 143.415 91.376 143.615 91.008C143.815 90.632 143.915 90.196 143.915 89.7ZM155.328 86.424L151.368 96.096H150.24L151.536 92.928L148.884 86.424H150.096L152.16 91.752L154.2 86.424H155.328ZM159.094 93.108C158.478 93.108 157.918 92.968 157.414 92.688C156.918 92.408 156.526 92.012 156.238 91.5C155.958 90.98 155.818 90.38 155.818 89.7C155.818 89.028 155.962 88.436 156.25 87.924C156.546 87.404 156.946 87.008 157.45 86.736C157.954 86.456 158.518 86.316 159.142 86.316C159.766 86.316 160.33 86.456 160.834 86.736C161.338 87.008 161.734 87.4 162.022 87.912C162.318 88.424 162.466 89.02 162.466 89.7C162.466 90.38 162.314 90.98 162.01 91.5C161.714 92.012 161.31 92.408 160.798 92.688C160.286 92.968 159.718 93.108 159.094 93.108ZM159.094 92.148C159.486 92.148 159.854 92.056 160.198 91.872C160.542 91.688 160.818 91.412 161.026 91.044C161.242 90.676 161.35 90.228 161.35 89.7C161.35 89.172 161.246 88.724 161.038 88.356C160.83 87.988 160.558 87.716 160.222 87.54C159.886 87.356 159.522 87.264 159.13 87.264C158.73 87.264 158.362 87.356 158.026 87.54C157.698 87.716 157.434 87.988 157.234 88.356C157.034 88.724 156.934 89.172 156.934 89.7C156.934 90.236 157.03 90.688 157.222 91.056C157.422 91.424 157.686 91.7 158.014 91.884C158.342 92.06 158.702 92.148 159.094 92.148ZM169.533 86.424V93H168.441V92.028C168.233 92.364 167.941 92.628 167.565 92.82C167.197 93.004 166.789 93.096 166.341 93.096C165.829 93.096 165.369 92.992 164.961 92.784C164.553 92.568 164.229 92.248 163.989 91.824C163.757 91.4 163.641 90.884 163.641 90.276V86.424H164.721V90.132C164.721 90.78 164.885 91.28 165.213 91.632C165.541 91.976 165.989 92.148 166.557 92.148C167.141 92.148 167.601 91.968 167.937 91.608C168.273 91.248 168.441 90.724 168.441 90.036V86.424H169.533ZM172.269 87.492C172.461 87.116 172.733 86.824 173.085 86.616C173.445 86.408 173.881 86.304 174.393 86.304V87.432H174.105C172.881 87.432 172.269 88.096 172.269 89.424V93H171.177V86.424H172.269V87.492ZM183.601 84.636V85.524H181.321V93H180.229V85.524H177.937V84.636H183.601ZM190.745 89.46C190.745 89.668 190.733 89.888 190.709 90.12H185.453C185.493 90.768 185.713 91.276 186.113 91.644C186.521 92.004 187.013 92.184 187.589 92.184C188.061 92.184 188.453 92.076 188.765 91.86C189.085 91.636 189.309 91.34 189.437 90.972H190.613C190.437 91.604 190.085 92.12 189.557 92.52C189.029 92.912 188.373 93.108 187.589 93.108C186.965 93.108 186.405 92.968 185.909 92.688C185.421 92.408 185.037 92.012 184.757 91.5C184.477 90.98 184.337 90.38 184.337 89.7C184.337 89.02 184.473 88.424 184.745 87.912C185.017 87.4 185.397 87.008 185.885 86.736C186.381 86.456 186.949 86.316 187.589 86.316C188.213 86.316 188.765 86.452 189.245 86.724C189.725 86.996 190.093 87.372 190.349 87.852C190.613 88.324 190.745 88.86 190.745 89.46ZM189.617 89.232C189.617 88.816 189.525 88.46 189.341 88.164C189.157 87.86 188.905 87.632 188.585 87.48C188.273 87.32 187.925 87.24 187.541 87.24C186.989 87.24 186.517 87.416 186.125 87.768C185.741 88.12 185.521 88.608 185.465 89.232H189.617ZM191.579 89.688C191.579 89.016 191.715 88.428 191.987 87.924C192.259 87.412 192.631 87.016 193.103 86.736C193.583 86.456 194.115 86.316 194.699 86.316C195.275 86.316 195.775 86.44 196.199 86.688C196.623 86.936 196.939 87.248 197.147 87.624V86.424H198.251V93H197.147V91.776C196.931 92.16 196.607 92.48 196.175 92.736C195.751 92.984 195.255 93.108 194.687 93.108C194.103 93.108 193.575 92.964 193.103 92.676C192.631 92.388 192.259 91.984 191.987 91.464C191.715 90.944 191.579 90.352 191.579 89.688ZM197.147 89.7C197.147 89.204 197.047 88.772 196.847 88.404C196.647 88.036 196.375 87.756 196.031 87.564C195.695 87.364 195.323 87.264 194.915 87.264C194.507 87.264 194.135 87.36 193.799 87.552C193.463 87.744 193.195 88.024 192.995 88.392C192.795 88.76 192.695 89.192 192.695 89.688C192.695 90.192 192.795 90.632 192.995 91.008C193.195 91.376 193.463 91.66 193.799 91.86C194.135 92.052 194.507 92.148 194.915 92.148C195.323 92.148 195.695 92.052 196.031 91.86C196.375 91.66 196.647 91.376 196.847 91.008C197.047 90.632 197.147 90.196 197.147 89.7ZM207.804 86.304C208.316 86.304 208.772 86.412 209.172 86.628C209.572 86.836 209.888 87.152 210.12 87.576C210.352 88 210.468 88.516 210.468 89.124V93H209.388V89.28C209.388 88.624 209.224 88.124 208.896 87.78C208.576 87.428 208.14 87.252 207.588 87.252C207.02 87.252 206.568 87.436 206.232 87.804C205.896 88.164 205.728 88.688 205.728 89.376V93H204.648V89.28C204.648 88.624 204.484 88.124 204.156 87.78C203.836 87.428 203.4 87.252 202.848 87.252C202.28 87.252 201.828 87.436 201.492 87.804C201.156 88.164 200.988 88.688 200.988 89.376V93H199.896V86.424H200.988V87.372C201.204 87.028 201.492 86.764 201.852 86.58C202.22 86.396 202.624 86.304 203.064 86.304C203.616 86.304 204.104 86.428 204.528 86.676C204.952 86.924 205.268 87.288 205.476 87.768C205.66 87.304 205.964 86.944 206.388 86.688C206.812 86.432 207.284 86.304 207.804 86.304ZM222.966 86.304C223.478 86.304 223.934 86.412 224.334 86.628C224.734 86.836 225.05 87.152 225.282 87.576C225.514 88 225.63 88.516 225.63 89.124V93H224.55V89.28C224.55 88.624 224.386 88.124 224.058 87.78C223.738 87.428 223.302 87.252 222.75 87.252C222.182 87.252 221.73 87.436 221.394 87.804C221.058 88.164 220.89 88.688 220.89 89.376V93H219.81V89.28C219.81 88.624 219.646 88.124 219.318 87.78C218.998 87.428 218.562 87.252 218.01 87.252C217.442 87.252 216.99 87.436 216.654 87.804C216.318 88.164 216.15 88.688 216.15 89.376V93H215.058V86.424H216.15V87.372C216.366 87.028 216.654 86.764 217.014 86.58C217.382 86.396 217.786 86.304 218.226 86.304C218.778 86.304 219.266 86.428 219.69 86.676C220.114 86.924 220.43 87.288 220.638 87.768C220.822 87.304 221.126 86.944 221.55 86.688C221.974 86.432 222.446 86.304 222.966 86.304ZM233.222 89.46C233.222 89.668 233.21 89.888 233.186 90.12H227.93C227.97 90.768 228.19 91.276 228.59 91.644C228.998 92.004 229.49 92.184 230.066 92.184C230.538 92.184 230.93 92.076 231.242 91.86C231.562 91.636 231.786 91.34 231.914 90.972H233.09C232.914 91.604 232.562 92.12 232.034 92.52C231.506 92.912 230.85 93.108 230.066 93.108C229.442 93.108 228.882 92.968 228.386 92.688C227.898 92.408 227.514 92.012 227.234 91.5C226.954 90.98 226.814 90.38 226.814 89.7C226.814 89.02 226.95 88.424 227.222 87.912C227.494 87.4 227.874 87.008 228.362 86.736C228.858 86.456 229.426 86.316 230.066 86.316C230.69 86.316 231.242 86.452 231.722 86.724C232.202 86.996 232.57 87.372 232.826 87.852C233.09 88.324 233.222 88.86 233.222 89.46ZM232.094 89.232C232.094 88.816 232.002 88.46 231.818 88.164C231.634 87.86 231.382 87.632 231.062 87.48C230.75 87.32 230.402 87.24 230.018 87.24C229.466 87.24 228.994 87.416 228.602 87.768C228.218 88.12 227.998 88.608 227.942 89.232H232.094ZM242.371 86.304C242.883 86.304 243.339 86.412 243.739 86.628C244.139 86.836 244.455 87.152 244.687 87.576C244.919 88 245.035 88.516 245.035 89.124V93H243.955V89.28C243.955 88.624 243.791 88.124 243.463 87.78C243.143 87.428 242.707 87.252 242.155 87.252C241.587 87.252 241.135 87.436 240.799 87.804C240.463 88.164 240.295 88.688 240.295 89.376V93H239.215V89.28C239.215 88.624 239.051 88.124 238.723 87.78C238.403 87.428 237.967 87.252 237.415 87.252C236.847 87.252 236.395 87.436 236.059 87.804C235.723 88.164 235.555 88.688 235.555 89.376V93H234.463V86.424H235.555V87.372C235.771 87.028 236.059 86.764 236.419 86.58C236.787 86.396 237.191 86.304 237.631 86.304C238.183 86.304 238.671 86.428 239.095 86.676C239.519 86.924 239.835 87.288 240.043 87.768C240.227 87.304 240.531 86.944 240.955 86.688C241.379 86.432 241.851 86.304 242.371 86.304ZM247.718 87.648C247.942 87.256 248.27 86.936 248.702 86.688C249.134 86.44 249.626 86.316 250.178 86.316C250.77 86.316 251.302 86.456 251.774 86.736C252.246 87.016 252.618 87.412 252.89 87.924C253.162 88.428 253.298 89.016 253.298 89.688C253.298 90.352 253.162 90.944 252.89 91.464C252.618 91.984 252.242 92.388 251.762 92.676C251.29 92.964 250.762 93.108 250.178 93.108C249.61 93.108 249.11 92.984 248.678 92.736C248.254 92.488 247.934 92.172 247.718 91.788V93H246.626V84.12H247.718V87.648ZM252.182 89.688C252.182 89.192 252.082 88.76 251.882 88.392C251.682 88.024 251.41 87.744 251.066 87.552C250.73 87.36 250.358 87.264 249.95 87.264C249.55 87.264 249.178 87.364 248.834 87.564C248.498 87.756 248.226 88.04 248.018 88.416C247.818 88.784 247.718 89.212 247.718 89.7C247.718 90.196 247.818 90.632 248.018 91.008C248.226 91.376 248.498 91.66 248.834 91.86C249.178 92.052 249.55 92.148 249.95 92.148C250.358 92.148 250.73 92.052 251.066 91.86C251.41 91.66 251.682 91.376 251.882 91.008C252.082 90.632 252.182 90.192 252.182 89.688ZM260.536 89.46C260.536 89.668 260.524 89.888 260.5 90.12H255.244C255.284 90.768 255.504 91.276 255.904 91.644C256.312 92.004 256.804 92.184 257.38 92.184C257.852 92.184 258.244 92.076 258.556 91.86C258.876 91.636 259.1 91.34 259.228 90.972H260.404C260.228 91.604 259.876 92.12 259.348 92.52C258.82 92.912 258.164 93.108 257.38 93.108C256.756 93.108 256.196 92.968 255.7 92.688C255.212 92.408 254.828 92.012 254.548 91.5C254.268 90.98 254.128 90.38 254.128 89.7C254.128 89.02 254.264 88.424 254.536 87.912C254.808 87.4 255.188 87.008 255.676 86.736C256.172 86.456 256.74 86.316 257.38 86.316C258.004 86.316 258.556 86.452 259.036 86.724C259.516 86.996 259.884 87.372 260.14 87.852C260.404 88.324 260.536 88.86 260.536 89.46ZM259.408 89.232C259.408 88.816 259.316 88.46 259.132 88.164C258.948 87.86 258.696 87.632 258.376 87.48C258.064 87.32 257.716 87.24 257.332 87.24C256.78 87.24 256.308 87.416 255.916 87.768C255.532 88.12 255.312 88.608 255.256 89.232H259.408ZM262.869 87.492C263.061 87.116 263.333 86.824 263.685 86.616C264.045 86.408 264.481 86.304 264.993 86.304V87.432H264.705C263.481 87.432 262.869 88.096 262.869 89.424V93H261.777V86.424H262.869V87.492ZM268.382 93.108C267.878 93.108 267.426 93.024 267.026 92.856C266.626 92.68 266.31 92.44 266.078 92.136C265.846 91.824 265.718 91.468 265.694 91.068H266.822C266.854 91.396 267.006 91.664 267.278 91.872C267.558 92.08 267.922 92.184 268.37 92.184C268.786 92.184 269.114 92.092 269.354 91.908C269.594 91.724 269.714 91.492 269.714 91.212C269.714 90.924 269.586 90.712 269.33 90.576C269.074 90.432 268.678 90.292 268.142 90.156C267.654 90.028 267.254 89.9 266.942 89.772C266.638 89.636 266.374 89.44 266.15 89.184C265.934 88.92 265.826 88.576 265.826 88.152C265.826 87.816 265.926 87.508 266.126 87.228C266.326 86.948 266.61 86.728 266.978 86.568C267.346 86.4 267.766 86.316 268.238 86.316C268.966 86.316 269.554 86.5 270.002 86.868C270.45 87.236 270.69 87.74 270.722 88.38H269.63C269.606 88.036 269.466 87.76 269.21 87.552C268.962 87.344 268.626 87.24 268.202 87.24C267.81 87.24 267.498 87.324 267.266 87.492C267.034 87.66 266.918 87.88 266.918 88.152C266.918 88.368 266.986 88.548 267.122 88.692C267.266 88.828 267.442 88.94 267.65 89.028C267.866 89.108 268.162 89.2 268.538 89.304C269.01 89.432 269.394 89.56 269.69 89.688C269.986 89.808 270.238 89.992 270.446 90.24C270.662 90.488 270.774 90.812 270.782 91.212C270.782 91.572 270.682 91.896 270.482 92.184C270.282 92.472 269.998 92.7 269.63 92.868C269.27 93.028 268.854 93.108 268.382 93.108Z" fill="#4D4D4D"/>
</g>
</g>
<defs>
<filter id="filter0_d" x="0" y="0" width="392" height="484" filterUnits="userSpaceOnUse" color-interpolation-filters="sRGB">
<feFlood flood-opacity="0" result="BackgroundImageFix"/>
<feColorMatrix in="SourceAlpha" type="matrix" values="0 0 0 0 0 0 0 0 0 0 0 0 0 0 0 0 0 0 127 0"/>
<feOffset dy="4"/>
<feGaussianBlur stdDeviation="10"/>
<feColorMatrix type="matrix" values="0 0 0 0 0 0 0 0 0 0 0 0 0 0 0 0 0 0 0.05 0"/>
<feBlend mode="normal" in2="BackgroundImageFix" result="effect1_dropShadow"/>
<feBlend mode="normal" in="SourceGraphic" in2="effect1_dropShadow" result="shape"/>
</filter>
<filter id="filter1_d" x="0" y="0" width="392" height="484" filterUnits="userSpaceOnUse" color-interpolation-filters="sRGB">
<feFlood flood-opacity="0" result="BackgroundImageFix"/>
<feColorMatrix in="SourceAlpha" type="matrix" values="0 0 0 0 0 0 0 0 0 0 0 0 0 0 0 0 0 0 127 0"/>
<feOffset dy="4"/>
<feGaussianBlur stdDeviation="10"/>
<feColorMatrix type="matrix" values="0 0 0 0 0 0 0 0 0 0 0 0 0 0 0 0 0 0 0.05 0"/>
<feBlend mode="normal" in2="BackgroundImageFix" result="effect1_dropShadow"/>
<feBlend mode="normal" in="SourceGraphic" in2="effect1_dropShadow" result="shape"/>
</filter>
<clipPath id="clip0">
<path d="M20 26C20 20.4771 24.4772 16 30 16H362C367.523 16 372 20.4772 372 26V450C372 455.523 367.523 460 362 460H30C24.4771 460 20 455.523 20 450V26Z" fill="white"/>
</clipPath>
</defs>
</svg>
