<svg width="776" height="424" viewBox="0 0 776 424" fill="none" xmlns="http://www.w3.org/2000/svg">
<g filter="url(#filter0_d)">
<g clip-path="url(#clip0)">
<g filter="url(#filter1_d)">
<path d="M20 26C20 20.4772 24.4772 16 30 16H746C751.523 16 756 20.4772 756 26V390C756 395.523 751.523 400 746 400H30C24.4771 400 20 395.523 20 390V26Z" fill="white"/>
</g>
<path d="M756 16H20V400H756V16Z" fill="white"/>
<path d="M756 16H20V319H756V16Z" fill="white"/>
<path opacity="0.33" d="M204.613 331.669C213.712 331.669 221.089 329.726 221.089 327.331C221.089 324.935 213.712 322.993 204.613 322.993C195.513 322.993 188.137 324.935 188.137 327.331C188.137 329.726 195.513 331.669 204.613 331.669Z" fill="#B4CDD6"/>
<path d="M385.723 354.531C452.021 354.531 505.766 350.27 505.766 345.014C505.766 339.758 452.021 335.497 385.723 335.497C319.425 335.497 265.68 339.758 265.68 345.014C265.68 350.27 319.425 354.531 385.723 354.531Z" fill="#F5F5F5"/>
<path d="M480.385 152.64H330.624V263.168H480.385V152.64Z" fill="white"/>
<path fill-rule="evenodd" clip-rule="evenodd" d="M402.379 334.188V266.068C402.379 264.662 403.94 263.513 405.842 263.513C407.749 263.513 409.306 264.662 409.306 266.068V334.188C409.306 335.595 407.749 336.745 405.842 336.745C403.939 336.745 402.379 335.595 402.379 334.188Z" fill="#050B1B"/>
<path d="M405.54 154.096H483.85V265.964H405.54V261.751H476.982V158.31H405.54V154.096ZM330.654 154.096H405.54V158.31H334.09V261.751H405.54V265.964H327.225V154.096H330.654Z" fill="#C6E9EF"/>
<path fill-rule="evenodd" clip-rule="evenodd" d="M348.173 342.673L385.503 267.88H392.764L354.778 343.983C353.134 347.281 346.509 346.446 348.173 342.673Z" fill="#050B1B"/>
<path fill-rule="evenodd" clip-rule="evenodd" d="M463.518 342.673L426.189 267.88H418.926L456.911 343.983C458.332 346.859 465.13 345.909 463.518 342.673Z" fill="#050B1B"/>
<path d="M440.617 303.429H371.071V307.796H440.617V303.429Z" fill="#050B1B"/>
<path d="M421.015 185.697H410.363V247.108H421.015V185.697Z" stroke="#53729D" stroke-width="2" stroke-miterlimit="10"/>
<path d="M408.698 208.852H398.041V247.107H408.698V208.852Z" stroke="#6D8AB1" stroke-width="2" stroke-miterlimit="10"/>
<path d="M396.379 221.807H385.723V247.106H396.379V221.807Z" stroke="#86A1C5" stroke-width="2" stroke-miterlimit="10"/>
<path d="M384.058 209.944H373.405V247.108H384.058V209.944Z" stroke="#A2BBD9" stroke-width="2" stroke-miterlimit="10"/>
<path d="M371.739 220.531H361.084V247.106H371.739V220.531Z" stroke="#BED3ED" stroke-width="2" stroke-miterlimit="10"/>
<path d="M361.084 250.407H425.037V181.331" stroke="#53729D" stroke-width="2" stroke-miterlimit="10"/>
<path d="M425.036 179.807C425.303 180.524 425.758 181.413 426.24 181.965L425.036 181.531L423.833 181.965C424.315 181.413 424.771 180.524 425.036 179.807Z" fill="#53729D"/>
<path fill-rule="evenodd" clip-rule="evenodd" d="M325.615 264.533H486.138C488.043 264.533 489.601 265.517 489.601 266.717C489.601 267.917 488.043 268.9 486.138 268.9H325.615C323.707 268.9 322.15 267.917 322.15 266.717C322.15 265.517 323.707 264.533 325.615 264.533Z" fill="#342B1E"/>
<path fill-rule="evenodd" clip-rule="evenodd" d="M325.615 149.733H486.138C488.043 149.733 489.601 150.716 489.601 151.916C489.601 153.118 488.043 154.1 486.138 154.1H325.615C323.707 154.1 322.15 153.118 322.15 151.916C322.15 150.713 323.707 149.733 325.615 149.733Z" fill="#342B1E"/>
<path d="M466.434 186.438H433.999C433.866 186.438 433.759 186.545 433.759 186.678V187.185C433.759 187.318 433.866 187.425 433.999 187.425H466.434C466.567 187.425 466.674 187.318 466.674 187.185V186.678C466.674 186.545 466.567 186.438 466.434 186.438Z" fill="#342B1E"/>
<path d="M466.434 188.838H433.999C433.866 188.838 433.759 188.946 433.759 189.078V189.586C433.759 189.719 433.866 189.826 433.999 189.826H466.434C466.567 189.826 466.674 189.719 466.674 189.586V189.078C466.674 188.946 466.567 188.838 466.434 188.838Z" fill="#342B1E"/>
<path d="M466.434 191.238H433.999C433.866 191.238 433.759 191.345 433.759 191.478V191.985C433.759 192.118 433.866 192.225 433.999 192.225H466.434C466.567 192.225 466.674 192.118 466.674 191.985V191.478C466.674 191.345 466.567 191.238 466.434 191.238Z" fill="#342B1E"/>
<path d="M466.434 193.637H433.999C433.866 193.637 433.759 193.745 433.759 193.877V194.385C433.759 194.517 433.866 194.625 433.999 194.625H466.434C466.567 194.625 466.674 194.517 466.674 194.385V193.877C466.674 193.745 466.567 193.637 466.434 193.637Z" fill="#342B1E"/>
<path d="M454.051 196.037H433.999C433.866 196.037 433.759 196.144 433.759 196.276V196.784C433.759 196.917 433.866 197.024 433.999 197.024H454.051C454.184 197.024 454.292 196.917 454.292 196.784V196.276C454.292 196.144 454.184 196.037 454.051 196.037Z" fill="#342B1E"/>
<path d="M286.776 318.951L285.904 334.387L284.9 337.288L280.444 336.069L279.928 330.37L279.004 320.16L286.776 318.951Z" fill="#F6D6CB"/>
<path d="M286.12 330.559L285.904 334.387L284.9 337.292L280.445 336.073L279.928 330.374C281.502 330.804 283.828 331.179 286.12 330.559Z" fill="#111751"/>
<path d="M304.711 314.973L303.787 328.124L303.338 334.512L297.658 335.456L297.394 328.414L297.036 318.884L304.711 314.973Z" fill="#F6D6CB"/>
<path d="M303.787 328.122L303.338 334.512L297.658 335.456L297.394 328.414C298.789 328.746 301.574 329.179 303.787 328.122Z" fill="#111751"/>
<path d="M310.103 277.775C308.079 290.18 305.021 319.603 305.021 319.603C302.705 321.183 300.484 321.263 298.85 320.957C297.921 320.794 297.029 320.465 296.216 319.987C294.626 311.787 293.262 281.321 293.195 279.807C293.195 280 293.174 280.253 293.14 280.553C292.833 283.369 291.291 290.237 291.291 290.237C288.463 297.651 287.075 321.717 287.075 321.717C280.102 324.232 278.181 320.913 278.181 320.913C278.181 320.913 274.858 287.961 276.71 283.607C278.562 279.253 276.913 258.449 275.816 250.876C275.444 248.31 275.407 245.583 275.522 243.098C275.658 240.153 275.998 237.222 276.541 234.324L281.341 233.9L309.378 231.428C309.378 231.428 309.475 232.622 309.618 234.646C309.673 235.397 309.732 236.264 309.795 237.227C310.477 247.475 311.605 268.564 310.103 277.775Z" fill="#243B7F"/>
<path d="M309.864 238.24C309.864 238.24 293.57 244.084 288.116 243.911C282.663 243.738 275.973 252.014 275.973 252.014C275.973 252.014 274.733 242.347 275.973 240.269C277.212 238.192 309.798 237.231 309.798 237.231L309.864 238.24Z" fill="#111751"/>
<path d="M296.216 319.986C294.615 311.722 293.242 280.839 293.194 279.778C293.189 280.037 293.172 280.296 293.141 280.553L293.194 279.749L299.364 243.56C299.364 243.56 300.981 250.001 297.525 268.766C294.516 285.105 297.92 313.805 298.85 320.953C297.921 320.79 297.029 320.463 296.216 319.986Z" fill="#111751"/>
<path d="M304.35 332.187C304.35 332.187 300.835 334.727 297.621 332.658C297.621 332.658 297.213 331.811 296.751 336.194C296.289 340.578 296.446 341.522 296.446 341.522C296.446 341.522 304.599 343.164 319.282 342.659C319.282 342.659 322.422 342.094 321.738 338.323C321.738 338.323 321.347 337.379 320.864 337.023C320.38 336.667 310.28 335.115 304.35 332.187Z" fill="#4E445C"/>
<path d="M296.417 340.766C296.417 340.766 317.148 342.482 321.404 341.119C321.404 341.119 321.39 341.316 320.604 343.562L296.401 342.976L296.417 340.766Z" fill="#0E0506"/>
<path opacity="0.32" d="M296.751 336.196C296.751 336.196 301.362 340.979 318.96 341.507C318.96 341.507 303.527 342.896 296.421 340.766L296.751 336.196Z" fill="#0E0506"/>
<path d="M285.905 334.387C285.905 334.387 283.413 336.981 280.2 334.913C280.2 334.913 279.791 334.064 279.329 338.448C278.867 342.833 279.024 343.776 279.024 343.776C279.024 343.776 287.177 345.418 301.86 344.913C301.86 344.913 305.001 344.347 304.316 340.576C304.316 340.576 303.926 339.633 303.441 339.277C302.957 338.921 291.834 337.312 285.905 334.387Z" fill="#4E445C"/>
<path d="M278.999 343.02C278.999 343.02 299.73 344.735 303.986 343.374C303.986 343.374 303.971 343.569 303.187 345.816L278.983 345.229L278.999 343.02Z" fill="#0E0506"/>
<path opacity="0.32" d="M279.329 338.45C279.329 338.45 283.939 343.232 301.538 343.761C301.538 343.761 286.105 345.15 278.999 343.02L279.329 338.45Z" fill="#0E0506"/>
<path d="M303.658 162.501C302.966 164.783 301.836 165.681 301.836 165.681L298.837 154.305C298.837 154.305 303.41 150.04 304.084 156.705C304.339 159.217 304.079 161.116 303.658 162.501Z" fill="#4F3B43"/>
<path d="M287.03 178.74C287.03 178.74 288.099 185.868 287.423 188.281C286.748 190.695 294.62 190.582 295.238 189.011C295.238 189.011 294.508 184.521 295.238 180.76C295.968 176.999 287.03 178.74 287.03 178.74Z" fill="#F1B7AC"/>
<path d="M296.439 155.129C296.439 155.129 303.41 155.279 302.89 167.103C302.89 167.103 302.44 168.45 303.564 170.995C304.689 173.539 299.741 183.417 295.394 182.893C291.046 182.369 284.074 179.75 281.75 173.389C281.75 173.389 277.777 170.471 278.977 166.655C280.178 162.838 296.439 155.129 296.439 155.129Z" fill="#F1B7AC"/>
<path d="M299.359 156.287C299.359 156.287 296.283 156.065 294.917 158.927C293.551 161.79 286.636 168.16 286.805 170.517L286.768 172.266L284.8 169.833C284.8 169.833 282.748 166.624 280.097 168.781C277.445 170.938 280.79 163.963 280.79 163.963C280.79 163.963 296.845 151.036 299.359 156.287Z" fill="#EFBEAF"/>
<path d="M288.154 164.783C288.154 164.783 285.606 166.466 286.763 172.267C286.763 172.267 283.764 169.834 283.539 165.681C283.313 161.528 288.154 164.783 288.154 164.783Z" fill="#331A24"/>
<path d="M299.778 156.611C299.778 156.611 296.757 153.596 294.058 159.097C293.423 160.412 292.603 161.631 291.623 162.715C288.934 165.678 285.373 167.084 281.688 167.458C281.688 167.458 280.641 167.6 280.202 168.513C280.183 168.547 280.167 168.582 280.155 168.618C279.811 169.464 279.98 170.917 281.749 173.382C281.749 173.382 282.672 175.751 283.808 176.966C283.808 176.966 285.405 178.341 283.21 178.957C281.015 179.573 282.198 174.579 280.626 173.906C279.74 173.527 277.139 171.712 275.922 169.213C274.981 167.275 274.869 164.919 277.025 162.511C279.839 159.368 281.579 152.857 287.427 150.22C297.533 145.668 301.113 154.213 299.778 156.611Z" fill="#58434A"/>
<path d="M284.365 177.88L284.353 177.853C284.321 177.683 284.253 177.522 284.155 177.38C283.016 174.575 283.32 173.821 283.32 173.821C283.218 173.815 283.117 173.801 283.018 173.779C282.606 173.684 282.218 173.506 281.877 173.256C281.537 173.005 281.252 172.687 281.04 172.322C279.94 170.492 279.86 169.342 280.155 168.626C279.939 169.039 278.971 170.394 275.922 169.221C277.139 171.72 279.738 173.533 280.626 173.913C282.199 174.586 281.018 179.582 283.21 178.964C284.181 178.692 284.409 178.27 284.362 177.885L284.365 177.88Z" fill="#331A24"/>
<path d="M287.358 181.352C287.358 181.352 291.152 185.474 294.917 185.026V182.83C294.917 182.83 290.956 182.248 287.194 179.951L287.358 181.352Z" fill="#F7908B"/>
<path d="M313.99 225.421C312.745 226.26 311.905 226.755 311.668 226.741C311.668 226.741 310.807 230.15 310.537 233.083C310.447 234.059 310.71 233.169 310.71 233.169C310.71 233.169 310.885 229.956 308.623 229.869C306.361 229.782 297.659 230.302 295.833 230.736C294.006 231.171 286.782 234.47 282.257 234.904C277.733 235.337 277.696 239.532 277.696 239.532C277.696 239.532 273.795 238.062 273.477 225.009C272.717 219.884 272.223 214.722 271.997 209.545C271.648 201.21 271.524 193.535 275.286 191.854C279.048 190.173 286.268 186.613 286.268 186.613L291.895 188.554L298.361 186.613C298.361 186.613 306.697 187.385 307.992 188.496C311.096 191.16 314.45 213.34 314.45 213.34C314.45 213.34 313.068 215.887 334.299 202.511L338.034 207.191C338.034 207.191 320.496 221.03 313.99 225.421Z" fill="#FF8A47"/>
<path d="M283.874 187.778C283.874 187.778 287.623 193.674 288.61 193.095C289.596 192.517 290.93 189.996 292.381 191.069C293.832 192.141 294.73 193.215 296.208 191.994C297.687 190.773 300.45 186.803 300.45 186.803C300.45 186.803 290.756 189.418 288.581 188.578C287.26 188.07 285.891 187.7 284.494 187.475L283.874 187.778Z" fill="#E67225"/>
<path d="M312.023 228.154C312.222 229.358 312.286 231.184 311.45 233.021C310.225 235.707 309.797 237.23 309.797 237.23L295.819 240.206C293.816 240.632 291.78 240.881 289.733 240.95L275.524 241.426C275.524 241.426 275.777 240.442 275.297 238.755C274.869 237.251 274.144 235.084 273.73 231.985C273.431 229.673 273.344 227.338 273.471 225.009C274.948 229.438 276.922 230.045 276.922 230.045C281.534 231.09 307.868 227.962 307.868 227.962C307.803 227.771 307.522 226.885 307.488 226.699C307.339 225.897 307.348 225.074 307.515 224.276C307.609 223.797 307.746 223.328 307.922 222.873C308.027 222.604 308.104 222.45 308.104 222.45C308.104 222.45 284.702 222.576 283.54 221.537C282.377 220.497 281.739 206.337 281.739 206.337C281.739 206.337 283.479 217.802 284.368 219.887C285.119 221.645 300.702 221.782 306.379 221.626C306.639 221.619 306.895 221.56 307.132 221.454C307.369 221.348 307.583 221.196 307.762 221.007C307.94 220.818 308.079 220.596 308.172 220.353C308.264 220.11 308.307 219.851 308.299 219.592C308.14 214.553 307.716 201.353 307.666 201.045C307.765 201.406 309.8 214.304 311.799 223.286C311.945 223.938 312.089 224.571 312.233 225.18C310.988 226.02 311.905 226.766 311.667 226.752C311.667 226.752 311.731 226.915 311.81 227.205C311.811 227.208 311.811 227.211 311.81 227.214C311.895 227.522 311.964 227.835 312.017 228.15L312.023 228.154Z" fill="#E67225"/>
<path d="M312.023 228.154C312.023 228.154 309.231 228.049 307.664 229.556C306.296 230.87 281.753 234.309 273.73 231.985C273.431 229.673 273.344 227.338 273.471 225.009C274.948 229.438 276.922 230.046 276.922 230.046C281.534 231.09 307.868 227.962 307.868 227.962C307.803 227.771 307.522 226.885 307.488 226.699C307.339 225.897 307.348 225.074 307.515 224.276C310.757 224.805 311.747 227.045 311.815 227.203C311.815 227.206 311.815 227.209 311.815 227.212L312.022 228.148L312.023 228.154Z" fill="#D15A18"/>
<path d="M334.955 203.991L336.962 206.955C336.962 206.955 337.483 205.754 339.491 204.713C341.5 203.673 345.347 199.225 345.749 198.904C345.914 198.778 346.002 198.273 346.022 197.682C346.051 196.958 346.006 196.234 345.888 195.519C345.871 195.423 345.85 195.334 345.83 195.266C345.782 195.063 345.765 194.853 345.78 194.645C345.823 193.688 346.262 192.306 346.392 191.181C346.551 189.781 345.749 190.221 345.749 190.221C344.311 191.075 343.625 195.198 343.584 195.454C343.583 195.459 343.583 195.463 343.584 195.467C343.584 195.467 340.254 198.471 339.853 198.271C339.452 198.07 340.054 197.068 340.415 196.467C340.775 195.866 340.576 193.665 340.054 193.184C339.533 192.703 339.493 195.548 338.41 196.846C337.327 198.144 336.806 199.599 337.087 200.959C337.251 201.761 336.605 202.615 335.975 203.216C335.666 203.512 335.324 203.772 334.955 203.991Z" fill="#F1B7AC"/>
<path d="M344.232 197.451C345.382 196.597 344.661 195.315 344.527 193.981C344.393 192.646 345.651 192.271 345.651 193.018C345.651 193.414 345.715 194.089 345.777 194.64C345.82 193.683 346.259 192.301 346.389 191.176C346.549 189.775 345.747 190.216 345.747 190.216C344.308 191.07 343.623 195.193 343.581 195.449C343.58 195.453 343.58 195.458 343.581 195.462C344.048 196.836 344.232 197.451 344.232 197.451Z" fill="#F7908B"/>
<path d="M334.955 203.991L336.962 206.955C336.962 206.955 337.483 205.754 339.491 204.713C341.5 203.673 345.347 199.225 345.749 198.904C345.914 198.778 346.002 198.273 346.022 197.682C344.981 198.393 343.189 201.415 340.975 202.549C339.428 203.319 337.666 203.549 335.972 203.203C335.665 203.504 335.324 203.768 334.955 203.991Z" fill="#F7908B"/>
<path d="M317.957 231.367L321.929 224.34C322.234 224.171 322.561 223.684 322.885 222.647L324.373 220.016L326.207 216.771L350.847 175.698C350.847 175.698 351.353 174.579 350.478 174.985C350.189 175.119 345.418 182.771 339.76 191.943C334.102 201.114 327.597 211.783 323.8 218.014L323.23 218.908L316.147 230.043C316.147 230.043 316.315 231.762 317.957 231.367Z" fill="#111751"/>
<path d="M317.957 231.366L321.929 224.34C322.234 224.171 322.561 223.683 322.885 222.647L324.373 220.016C322.874 220.278 323.204 219.006 323.234 218.912L316.15 230.048C316.15 230.048 316.315 231.762 317.957 231.366Z" fill="#010838"/>
<path d="M321.224 222.864C321.279 222.969 321.353 223.064 321.443 223.142C321.443 223.164 321.433 223.303 321.418 223.52C321.348 224.672 321.118 228.077 320.912 228.259C320.677 228.406 320.421 228.517 320.153 228.587C319.946 228.64 319.734 228.673 319.52 228.685C317.858 228.788 315.949 227.825 314.76 227.609C314.507 227.561 314.163 227.508 313.758 227.45L312.973 227.34L311.834 227.198L308.131 226.738L307.498 226.685C307.179 225.113 307.651 223.576 307.932 222.859C308.993 222.985 310.705 223.19 311.813 223.272C312.056 223.288 312.268 223.302 312.445 223.306C313.817 223.34 317.055 222.006 317.945 221.457C318.606 221.049 320.253 221.331 321.065 221.502C321.347 221.561 321.529 221.609 321.529 221.609L321.422 221.718C321.27 221.863 321.17 222.053 321.134 222.259C321.099 222.465 321.13 222.677 321.224 222.864Z" fill="#F1B7AC"/>
<path d="M309.436 224.864L309.203 226.872L310.776 227.063L311.046 224.834L309.436 224.864Z" fill="#100708"/>
<path d="M310.447 225.497C311.172 225.497 311.761 224.909 311.761 224.185C311.761 223.46 311.172 222.873 310.447 222.873C309.721 222.873 309.132 223.46 309.132 224.185C309.132 224.909 309.721 225.497 310.447 225.497Z" fill="#3E2A2C"/>
<path d="M286.492 185.06L291.887 188.549L296.412 184.611L299.776 186.581L294.917 191.85C294.917 191.85 293.918 189.591 291.881 188.549C291.881 188.549 289.384 190.287 288.458 191.85L284.358 187.333L286.492 185.06Z" fill="white"/>
<path d="M358.849 176.143H361.955C363.808 176.143 365.399 176.82 365.399 178.957C365.399 181.028 363.781 181.927 362.006 181.927H361.093V184.61H358.849V176.143ZM361.901 180.155C362.787 180.155 363.207 179.712 363.207 178.957C363.207 178.202 362.711 177.915 361.85 177.915H361.091V180.155H361.901Z" fill="#F89739"/>
<path d="M366.787 176.143H369.032V182.735H372.242V184.61H366.787V176.143Z" fill="#F89739"/>
<path d="M375.09 176.143H377.804L380.389 184.604H378.013L377.048 180.487C376.839 179.68 376.631 178.651 376.416 177.804H376.364C376.182 178.664 375.973 179.68 375.764 180.487L374.798 184.604H372.5L375.09 176.143ZM374.359 181.081H378.513V182.818H374.362L374.359 181.081Z" fill="#F89739"/>
<path d="M381.072 176.143H383.368L385.247 179.922L386.056 181.823H386.109C386.004 180.91 385.822 179.634 385.822 178.592V176.143H387.962V184.604H385.665L383.785 180.816L382.977 178.921H382.924C383.029 179.885 383.212 181.11 383.212 182.152V184.6H381.072V176.143Z" fill="#F89739"/>
<path d="M358.332 187.427C359.874 187.3 361.417 187.185 362.96 187.078C364.503 186.971 366.05 186.887 367.595 186.807C370.686 186.644 373.779 186.515 376.873 186.437C379.967 186.358 383.065 186.361 386.159 186.456C387.706 186.501 389.253 186.582 390.795 186.717C392.337 186.852 393.878 187.053 395.381 187.427C393.873 187.073 392.331 186.905 390.79 186.779C389.25 186.652 387.704 186.577 386.157 186.539C383.064 186.458 379.97 186.487 376.876 186.563C373.782 186.639 370.69 186.741 367.6 186.89C366.054 186.964 364.509 187.048 362.964 187.142C361.419 187.237 359.875 187.331 358.332 187.427Z" fill="black"/>
<path d="M357.376 191.153C359.021 190.953 360.665 190.767 362.31 190.586C363.954 190.406 365.599 190.249 367.243 190.093C370.532 189.783 373.836 189.503 377.138 189.274C380.439 189.046 383.747 188.895 387.056 188.825C388.711 188.791 390.367 188.786 392.021 188.835C393.676 188.872 395.327 189.01 396.966 189.248C395.326 189.031 393.674 188.914 392.02 188.897C390.367 188.856 388.712 188.868 387.057 188.909C383.751 188.989 380.447 189.172 377.145 189.399C373.844 189.627 370.546 189.88 367.251 190.176C365.602 190.325 363.955 190.482 362.31 190.648C360.665 190.814 359.02 190.982 357.376 191.153Z" fill="black"/>
<path d="M453.744 114.678C466.305 114.678 476.488 104.386 476.488 91.6897C476.488 78.9935 466.305 68.7013 453.744 68.7013C441.183 68.7013 431 78.9935 431 91.6897C431 104.386 441.183 114.678 453.744 114.678Z" fill="#C6E9EF"/>
<path d="M453.744 112.185C464.943 112.185 474.021 103.009 474.021 91.6897C474.021 80.3703 464.943 71.1941 453.744 71.1941C442.545 71.1941 433.467 80.3703 433.467 91.6897C433.467 103.009 442.545 112.185 453.744 112.185Z" fill="#F9FAFA"/>
<path d="M455.442 91.6897C455.438 92.0243 455.335 92.3502 455.145 92.6265C454.956 92.9027 454.689 93.117 454.379 93.2422C454.068 93.3674 453.727 93.3981 453.399 93.3303C453.07 93.2625 452.77 93.0992 452.534 92.8611C452.298 92.623 452.139 92.3207 452.075 91.9922C452.011 91.6637 452.046 91.3237 452.176 91.015C452.305 90.7063 452.523 90.4427 452.802 90.2574C453.081 90.0721 453.409 89.9733 453.744 89.9735C453.968 89.9748 454.19 90.0203 454.397 90.1073C454.604 90.1942 454.791 90.321 454.949 90.4804C455.107 90.6398 455.231 90.8286 455.316 91.0361C455.4 91.2436 455.443 91.4657 455.442 91.6897Z" fill="#C6E9EF"/>
<path d="M454.174 71.943H453.358V75.6923H454.174V71.943Z" fill="#C6E9EF"/>
<path d="M454.174 107.71H453.358V111.459H454.174V107.71Z" fill="#C6E9EF"/>
<path d="M473.314 92.1127V91.2881H469.605V92.1127H473.314Z" fill="#C6E9EF"/>
<path d="M437.928 92.1127V91.2881H434.219V92.1127H437.928Z" fill="#C6E9EF"/>
<path d="M453.318 91.0962L453.775 78.0992L454.231 91.0962H453.318Z" fill="#C6E9EF"/>
<path d="M453.246 91.9219L444.483 82.3977L453.892 91.2703L453.246 91.9219Z" fill="#C6E9EF"/>
<g opacity="0.47">
<path opacity="0.47" d="M587.864 217.782H528.268V331.619H587.864V217.782Z" fill="#4BB2B7"/>
<path opacity="0.47" d="M582.324 223.312V326.089H533.808V223.312H582.324ZM587.864 217.782H528.268V331.619H587.864V217.782Z" fill="#9DF7FC"/>
<path opacity="0.47" d="M584.83 273.552H531.412V279.082H584.83V273.552Z" fill="#9DF7FC"/>
<path opacity="0.47" d="M579.464 302.001H536.779V314.197H579.464V302.001Z" fill="white"/>
<path opacity="0.47" d="M579.464 304.767H536.779V305.557H579.464V304.767Z" fill="#D0E2E4"/>
<path opacity="0.47" d="M579.464 307.704H536.779V308.494H579.464V307.704Z" fill="#D0E2E4"/>
<path opacity="0.47" d="M579.464 310.754H536.779V311.544H579.464V310.754Z" fill="#D0E2E4"/>
<path opacity="0.47" d="M579.464 289.805H536.779V302.001H579.464V289.805Z" fill="white"/>
<path opacity="0.47" d="M579.464 292.57H536.779V293.361H579.464V292.57Z" fill="#D0E2E4"/>
<path opacity="0.47" d="M579.464 295.508H536.779V296.298H579.464V295.508Z" fill="#D0E2E4"/>
<path opacity="0.47" d="M579.464 298.557H536.779V299.348H579.464V298.557Z" fill="#D0E2E4"/>
<path opacity="0.47" d="M544.817 272.902V236.362H538.584V272.902H544.817Z" fill="#E5EAEE"/>
<path opacity="0.47" d="M546.845 273.494V235.77H544.817V273.494H546.845Z" fill="#668787"/>
<path opacity="0.47" d="M538.683 273.494V235.77H536.655V273.494H538.683Z" fill="#668787"/>
<path opacity="0.47" d="M555.006 272.903V236.363H548.774V272.903H555.006Z" fill="#E5EAEE"/>
<path opacity="0.47" d="M557.033 273.494V235.77H555.005V273.494H557.033Z" fill="#65566D"/>
<path opacity="0.47" d="M548.873 273.494V235.77H546.845V273.494H548.873Z" fill="#65566D"/>
<path opacity="0.47" d="M579.464 313.978H536.779V326.026H579.464V313.978Z" fill="#F89739"/>
<path opacity="0.47" d="M567.273 235.77H557.083V273.494H567.273V235.77Z" fill="#F89739"/>
<path opacity="0.47" d="M577.461 235.77H567.271V273.494H577.461V235.77Z" fill="#D0E2E4"/>
</g>
<path d="M239.012 297.053C238.264 297.649 237.592 298.334 237.011 299.093C236.824 297.493 236.637 295.897 236.451 294.303C236.338 293.344 236.228 292.362 236.451 291.422C236.612 290.738 236.956 290.061 236.83 289.368C236.33 289.926 236.07 290.658 236.108 291.406C235.77 290.136 235.623 288.83 235.299 287.556C234.887 285.934 234.567 283.594 234.318 280.885C236.993 276.844 238.745 276.776 238.745 276.776C238.745 276.776 239.957 275.996 238.745 276.219C237.769 276.399 235.203 279.033 234.239 280.048C234.429 279.847 234.096 278.22 234.075 277.901C234.021 277.116 233.972 276.33 233.929 275.544C233.841 273.951 233.449 272.353 233.962 270.817C234.488 269.247 235.269 267.773 236.273 266.455C236.138 266.337 235.945 266.506 235.848 266.657C235.097 267.84 234.38 269.044 233.698 270.268C233.503 264.502 233.427 258.735 233.469 252.967C233.196 253.18 233.169 253.577 233.167 253.923L233.119 258.959L231.327 257.432L231.179 257.652L232.72 259.652C232.875 259.82 232.991 260.018 233.062 260.235C233.132 260.451 233.155 260.68 233.129 260.906L233.164 267.392C231.63 265.638 230.011 263.823 227.844 262.962C228.952 263.402 230.093 264.738 230.88 265.6C231.77 266.589 232.548 267.672 233.201 268.831C233.275 273.377 233.422 278.019 233.687 281.382C233.15 280.493 232.564 279.634 231.931 278.811C231.931 278.811 231.211 278.266 231.534 278.638C231.761 278.9 233.036 281.082 233.769 282.348C233.802 282.7 233.837 283.037 233.873 283.35C234.282 286.904 234.912 290.449 235.447 293.988L229.889 286.972C229.539 287.343 229.882 287.934 230.216 288.32C231.824 290.177 233.312 292.134 234.671 294.179C235.05 294.741 235.412 295.316 235.635 295.955C235.857 296.594 235.932 297.302 235.998 297.99C236.391 302.077 236.702 306.286 235.508 310.214L237.495 310.206C237.371 307.027 237.244 303.848 237.116 300.67C237.095 300.437 237.11 300.202 237.16 299.973C237.23 299.759 237.336 299.558 237.474 299.379C237.824 298.885 238.24 298.44 238.71 298.057C238.883 297.94 239.028 297.786 239.133 297.605C239.233 297.414 239.198 297.148 239.012 297.053Z" fill="#4EBFC4"/>
<path d="M231.76 282.618C231.721 283.227 231.648 283.833 231.541 284.434C231.32 285.727 230.909 286.76 230.348 287.581C230.281 287.681 230.212 287.778 230.14 287.872L230.128 287.887L230.002 288.05C229.961 288.099 229.919 288.148 229.875 288.195C228.691 289.52 227.045 290.145 225.24 290.381C222.212 290.779 218.192 286.213 218.143 282.055C218.13 281.027 218.317 279.969 218.865 279.089C218.874 279.072 218.884 279.056 218.894 279.039L218.986 278.903L219.003 278.88L219.019 278.855C219.557 278.133 220.278 277.566 221.106 277.213C221.133 277.199 221.158 277.189 221.185 277.178C223.082 276.365 225.472 276.432 227.276 276.954C229.496 277.598 230.749 278.498 231.344 279.784C231.703 280.57 231.819 281.506 231.76 282.618Z" fill="#A5DDEA"/>
<path d="M230.348 287.581C230.281 287.681 230.212 287.778 230.14 287.871L230.128 287.887L230.002 288.049L218.974 278.928C218.978 278.919 218.983 278.911 218.988 278.903C218.993 278.895 218.998 278.887 219.003 278.879L230.348 287.581Z" fill="#4EBFC4"/>
<path d="M245.675 262.088C245.68 262.683 245.618 263.276 245.487 263.856C245.477 263.909 245.463 263.961 245.449 264.014C245.31 264.585 245.093 265.133 244.805 265.646C244.774 265.701 244.742 265.754 244.709 265.809C244.475 266.198 244.199 266.561 243.886 266.891C241.022 269.913 236.009 267.386 236.009 267.386C235.959 267.368 235.911 267.346 235.865 267.32C235.824 267.301 235.776 267.275 235.723 267.245L235.698 267.229L235.68 267.219L235.554 267.145L235.498 267.111C235.46 267.085 235.418 267.06 235.371 267.03C234.289 266.313 232.234 264.471 232.535 261.261C232.544 261.17 232.554 261.078 232.567 260.986C232.631 260.518 232.734 260.057 232.877 259.607C232.938 259.404 233.012 259.206 233.097 259.012C233.124 258.946 233.151 258.886 233.183 258.818C233.421 258.304 233.735 257.829 234.115 257.41C234.153 257.365 234.191 257.324 234.234 257.283C234.558 256.947 234.92 256.65 235.313 256.399L235.449 256.316C235.89 256.053 236.36 255.842 236.849 255.685C236.896 255.667 236.945 255.652 236.993 255.638C237.451 255.498 237.92 255.401 238.396 255.346C238.445 255.346 238.495 255.334 238.545 255.33C239.108 255.271 239.675 255.267 240.238 255.318L240.384 255.334C240.788 255.376 241.188 255.449 241.58 255.553C241.629 255.566 241.677 255.579 241.723 255.592C241.93 255.65 242.133 255.72 242.332 255.799C242.379 255.817 242.427 255.836 242.474 255.858L242.555 255.893C242.594 255.911 242.634 255.927 242.67 255.946C242.932 256.067 243.18 256.215 243.411 256.388L243.428 256.401C243.595 256.526 243.747 256.67 243.881 256.83C244.067 257.054 244.236 257.291 244.387 257.54C244.412 257.579 244.436 257.619 244.458 257.666C244.65 257.99 244.819 258.328 244.964 258.676C244.983 258.722 245 258.768 245.021 258.814C245.205 259.284 245.352 259.769 245.459 260.262C245.47 260.313 245.48 260.362 245.491 260.413C245.59 260.915 245.647 261.425 245.662 261.937C245.673 261.986 245.675 262.038 245.675 262.088Z" fill="#BBF2FF"/>
<path d="M232.214 279.027C232.197 279.052 232.178 279.076 232.157 279.099L231.983 279.292V279.298C231.969 279.312 231.956 279.325 231.942 279.336C231.764 279.51 231.564 279.659 231.347 279.78C230.109 280.466 228.55 280.529 227.116 280.37C227.01 280.359 226.903 280.346 226.796 280.331C226.543 280.298 226.301 280.259 226.063 280.216C225.587 280.129 225.087 280.028 224.594 279.893C224.502 279.868 224.409 279.841 224.318 279.812C223.669 279.631 223.053 279.347 222.493 278.972C222.437 278.936 222.38 278.894 222.327 278.846C221.948 278.558 221.63 278.198 221.393 277.785C221.366 277.739 221.341 277.691 221.315 277.64C221.31 277.631 221.305 277.622 221.3 277.612C221.236 277.486 221.174 277.341 221.11 277.201C220.976 276.889 220.86 276.571 220.761 276.247C220.746 276.198 220.734 276.149 220.718 276.098C220.59 275.646 220.502 275.183 220.455 274.715C220.455 274.665 220.446 274.616 220.443 274.565C220.393 273.964 220.435 273.359 220.569 272.771C220.58 272.723 220.592 272.677 220.606 272.633C220.716 272.21 220.889 271.807 221.119 271.436C221.146 271.393 221.172 271.35 221.202 271.309C221.404 271.009 221.645 270.735 221.916 270.495C221.945 270.468 221.977 270.442 222.009 270.415C222.119 270.323 222.235 270.234 222.356 270.149L222.429 270.101C222.447 270.087 222.466 270.075 222.485 270.064C222.729 269.9 222.983 269.75 223.244 269.616L223.26 269.607L223.362 269.555C223.428 269.523 223.489 269.49 223.561 269.459C223.828 269.336 224.101 269.225 224.379 269.13C224.426 269.113 224.473 269.098 224.521 269.084C224.926 268.952 225.341 268.852 225.762 268.785C225.811 268.776 225.859 268.769 225.911 268.764C226.382 268.694 226.858 268.669 227.333 268.688H227.486C228.038 268.718 228.584 268.81 229.115 268.963C229.167 268.977 229.218 268.993 229.268 269.01C229.807 269.176 230.322 269.409 230.801 269.704C230.852 269.736 230.901 269.768 230.951 269.804C233.129 271.361 234.079 276.68 232.214 279.027Z" fill="#5BC7D1"/>
<path d="M229.745 261.434C229.722 261.75 229.696 262.024 229.692 262.244C229.683 262.63 229.522 263.107 229.223 263.597C229.206 263.628 229.187 263.655 229.168 263.686L229.153 263.711L229.004 263.924L228.989 263.947C227.903 265.423 225.614 266.873 222.506 266.295C218.112 265.476 218.224 260.645 218.856 257.82C218.923 257.51 219.038 257.212 219.195 256.936C219.195 256.936 219.195 256.936 219.195 256.927C219.954 255.625 221.518 255.259 222.484 255.159C222.726 255.134 222.931 255.128 223.077 255.126C223.204 255.126 223.285 255.126 223.309 255.126C227.703 255.505 229.159 257.264 229.598 258.994C229.836 259.885 229.797 260.752 229.745 261.434Z" fill="#A5DDEA"/>
<path d="M231.565 257.623V257.631C231.521 257.733 231.469 257.833 231.41 257.927C231.077 258.448 230.557 258.821 229.957 258.972C228.365 259.429 222.957 256.067 221.691 253.211C221.218 252.139 220.774 250.822 221.195 249.665C221.243 249.535 221.327 249.421 221.437 249.336L221.487 249.297C221.955 248.979 222.789 249.007 223.277 249.037C224.02 249.095 224.747 249.278 225.428 249.579C227.113 250.295 228.59 251.509 229.821 252.841C230.5 253.572 231.633 254.687 231.775 255.745C231.876 256.379 231.804 257.027 231.565 257.623Z" fill="#4EBFC4"/>
<path d="M244.129 283.756C243.789 286.483 239.899 290.838 238.359 290.931C237.694 290.972 237.175 290.805 236.786 290.502C236.674 290.415 236.571 290.317 236.478 290.209C236.149 289.806 235.934 289.322 235.855 288.808C235.69 287.899 236.394 286.649 236.797 285.846C237.531 284.386 238.509 282.954 239.81 281.869C240.339 281.417 240.937 281.052 241.581 280.788C242.009 280.62 242.743 280.351 243.246 280.476C243.386 280.508 243.512 280.583 243.606 280.691C244.291 281.519 244.257 282.734 244.129 283.756Z" fill="#5BC7D1"/>
<path d="M240.015 247.86C240.015 247.926 240.015 247.986 240.006 248.055C239.953 248.862 239.741 249.651 239.383 250.377C239.347 250.45 239.311 250.52 239.274 250.593C239.232 250.672 239.189 250.751 239.147 250.829C238.135 252.627 236.318 253.817 234.2 253.467C234.2 253.467 233.964 253.457 233.584 253.4L233.441 253.377L233.38 253.369L233.176 253.332C231.69 253.049 229.037 252.195 228.298 249.656C228.278 249.585 228.259 249.513 228.242 249.44C228.19 249.224 228.154 249.004 228.132 248.783C228.1 248.476 228.096 248.167 228.118 247.859C228.118 247.8 228.128 247.74 228.135 247.681C228.181 247.237 228.28 246.8 228.431 246.38C228.447 246.33 228.466 246.277 228.486 246.226C228.64 245.83 228.831 245.449 229.057 245.089L229.145 244.951C229.396 244.576 229.679 244.224 229.99 243.899C230.025 243.862 230.06 243.825 230.095 243.791C230.32 243.567 230.558 243.356 230.808 243.16C230.88 243.103 230.952 243.046 231.026 242.991L231.153 242.896C231.54 242.609 231.948 242.351 232.372 242.122L232.499 242.059C232.853 241.875 233.224 241.723 233.606 241.605C233.652 241.589 233.701 241.576 233.749 241.564C234.045 241.481 234.349 241.429 234.656 241.41H234.729C234.855 241.403 234.982 241.403 235.108 241.41H235.129C235.37 241.424 235.608 241.467 235.84 241.536L235.948 241.571C236.195 241.659 236.429 241.777 236.645 241.922C236.73 241.979 236.814 242.039 236.898 242.1C236.939 242.131 236.978 242.16 237.016 242.191C237.352 242.458 237.664 242.754 237.948 243.075L238.052 243.191C238.323 243.505 238.576 243.832 238.811 244.163C238.844 244.207 238.875 244.254 238.906 244.298C238.936 244.342 238.965 244.381 238.992 244.424C239.345 244.953 239.617 245.531 239.8 246.14C239.815 246.194 239.831 246.246 239.843 246.298C239.974 246.808 240.032 247.334 240.015 247.86Z" fill="#A5DDEA"/>
<path d="M250.903 293.136C250.903 293.182 250.903 293.228 250.903 293.275C250.896 293.5 250.877 293.731 250.847 293.967C250.847 294.016 250.834 294.066 250.827 294.115C250.778 294.441 250.711 294.765 250.626 295.083C250.612 295.133 250.599 295.182 250.585 295.231C250.45 295.71 250.28 296.178 250.079 296.633C250.059 296.681 250.036 296.726 250.015 296.774C249.798 297.253 249.544 297.715 249.256 298.155C249.228 298.199 249.198 298.244 249.168 298.288C248.836 298.776 248.454 299.229 248.03 299.64L247.903 299.756C247.53 300.104 247.116 300.406 246.67 300.656C246.612 300.688 246.555 300.718 246.497 300.747C245.817 301.101 245.062 301.287 244.296 301.29C242.119 301.29 239.605 300.056 238.968 297.814L238.945 297.734V297.716C238.93 297.658 238.915 297.599 238.9 297.537C238.9 297.532 238.9 297.528 238.9 297.523C238.883 297.453 238.868 297.382 238.855 297.309C238.853 297.298 238.85 297.287 238.849 297.276C238.512 295.474 238.783 293.386 239.679 291.77C239.777 291.594 239.887 291.425 240.01 291.265C240.068 291.189 240.129 291.118 240.195 291.047C240.559 290.649 240.993 290.32 241.475 290.076C241.531 290.046 241.589 290.017 241.647 289.989C242.067 289.791 242.504 289.632 242.954 289.517L243.135 289.469C243.641 289.348 244.154 289.255 244.67 289.19L244.842 289.167C245.027 289.144 245.209 289.124 245.39 289.106C245.692 289.074 245.996 289.061 246.3 289.065H246.47C246.985 289.079 247.495 289.16 247.988 289.306C248.038 289.321 248.086 289.335 248.132 289.351C248.492 289.471 248.835 289.635 249.155 289.839L249.281 289.922C249.509 290.081 249.721 290.262 249.913 290.461C249.949 290.497 249.983 290.532 250.015 290.569C250.136 290.702 250.25 290.843 250.355 290.989L250.364 291.005C250.368 291.009 250.372 291.014 250.374 291.02C250.629 291.414 250.791 291.862 250.847 292.328C250.847 292.372 250.858 292.415 250.865 292.462C250.891 292.686 250.903 292.911 250.903 293.136Z" fill="#4EBFC4"/>
<path d="M231.565 257.623V257.631L231.41 257.927L221.437 249.34L221.487 249.301L231.565 257.623Z" fill="#F3F9FF"/>
<path d="M243.525 280.687L236.728 290.437C236.598 290.326 236.479 290.204 236.371 290.071L243.525 280.687Z" fill="#6198BA"/>
<path d="M229.229 263.6L229.168 263.686L229.153 263.711L229.004 263.925L228.989 263.947L219.195 256.946C219.195 256.946 219.195 256.946 219.195 256.937L229.219 263.601L229.229 263.6Z" fill="#F3F9FF"/>
<path d="M236.079 266.515L235.942 266.571C235.916 266.508 234.052 261.542 233.104 259.01C233.13 258.944 233.158 258.883 233.19 258.815C234.115 261.285 236.047 266.438 236.079 266.515Z" fill="#F3F9FF"/>
<path d="M236.613 265.676L236.551 266.003L234.121 257.407C234.159 257.363 234.196 257.321 234.24 257.281L236.613 265.676Z" fill="#F3F9FF"/>
<path d="M237.208 264.92L237.147 264.874L237.069 265.103C237.069 264.889 235.958 259.457 235.318 256.398L235.454 256.315C237.273 264.831 237.234 264.883 237.208 264.92Z" fill="#F3F9FF"/>
<path d="M235.565 267.075L235.498 267.108L235.431 267.141L235.376 267.027L232.537 261.259C232.545 261.168 232.556 261.076 232.568 260.983L235.565 267.075Z" fill="#F3F9FF"/>
<path d="M237.976 263.938L237.828 263.956L236.86 255.683C236.907 255.666 236.956 255.65 237.005 255.637L237.976 263.938Z" fill="#F3F9FF"/>
<path d="M238.698 262.881L238.539 263.095C238.48 260.728 238.401 256.987 238.401 255.351C238.45 255.351 238.5 255.339 238.55 255.335C238.558 256.84 238.635 260.356 238.698 262.881Z" fill="#F3F9FF"/>
<path d="M240.39 255.332L239.521 261.932L239.394 262.035L240.245 255.317L240.39 255.332Z" fill="#F3F9FF"/>
<path d="M241.728 255.591L240.763 260.094L240.562 260.318L241.585 255.552C241.634 255.565 241.683 255.577 241.728 255.591Z" fill="#F3F9FF"/>
<path d="M242.675 255.945C242.464 256.758 242.191 257.785 242.035 258.374L241.918 258.46C242.121 257.695 242.373 256.673 242.56 255.892C242.6 255.909 242.639 255.926 242.675 255.945Z" fill="#F3F9FF"/>
<path d="M244.807 265.644C244.775 265.7 244.744 265.753 244.711 265.807L236.019 266.905L236 266.757L244.807 265.644Z" fill="#F3F9FF"/>
<path d="M245.487 263.855C245.477 263.908 245.463 263.96 245.449 264.013L236.848 265.655L236.82 265.509L245.487 263.855Z" fill="#F3F9FF"/>
<path d="M245.674 262.088L237.519 264.605L237.476 264.465L245.673 261.939C245.673 261.986 245.674 262.038 245.674 262.088Z" fill="#F3F9FF"/>
<path d="M245.503 260.411C242.951 261.486 238.692 263.278 238.545 263.28L238.533 263.134C238.729 263.095 242.834 261.366 245.465 260.261C245.481 260.312 245.491 260.356 245.503 260.411Z" fill="#F3F9FF"/>
<path d="M245.032 258.813L239.89 261.429L239.822 261.303L244.975 258.68C244.994 258.72 245.012 258.767 245.032 258.813Z" fill="#F3F9FF"/>
<path d="M244.465 257.658L241.271 259.44L241.383 259.243L244.394 257.538C244.42 257.578 244.444 257.618 244.465 257.658Z" fill="#F3F9FF"/>
<path d="M240.191 291.042C239.834 293.399 239.398 296.293 239.283 297.066C239.265 297.186 239.255 297.254 239.252 297.263L239.104 297.247C239.104 297.247 239.104 297.211 239.117 297.157C239.199 296.608 239.638 293.703 240.003 291.262C240.065 291.185 240.127 291.114 240.191 291.042Z" fill="white"/>
<path d="M241.644 289.985L240.065 296.639V296.663L239.852 296.916L239.896 296.73L241.479 290.069C241.527 290.042 241.585 290.013 241.644 289.985Z" fill="white"/>
<path d="M243.131 289.465C241.648 294.274 241.189 295.686 241.032 296.106C240.97 296.279 240.956 296.284 240.946 296.291L240.914 296.222L240.736 296.383C240.744 296.368 240.763 296.32 240.792 296.239C241.045 295.502 242.107 292.189 242.95 289.513L243.131 289.465Z" fill="white"/>
<path d="M244.839 289.163L242.238 295.446L242.144 295.676L242.123 295.726L242.09 295.803L241.989 295.762L241.953 295.746L242.03 295.561L244.668 289.186L244.839 289.163Z" fill="white"/>
<path d="M246.468 289.063C245.691 290.494 244.42 292.901 243.423 294.797C243.384 294.87 243.347 294.942 243.308 295.014L243.246 295.14L243.003 295.25C243.018 295.223 243.031 295.196 243.046 295.169C243.085 295.096 243.123 295.02 243.164 294.944C244.116 293.133 245.457 290.601 246.296 289.067L246.468 289.063Z" fill="white"/>
<path d="M248.135 289.35L244.545 294.182L244.377 294.406L244.358 294.432H244.321L244.195 294.454L244.302 294.308L247.991 289.298C248.04 289.32 248.088 289.334 248.135 289.35Z" fill="white"/>
<path d="M249.281 289.921L246.476 293.122L246.312 293.31L246.143 293.504L245.858 293.601L245.917 293.533L246.094 293.332L249.157 289.838L249.281 289.921Z" fill="white"/>
<path d="M250.015 290.567L248.98 291.748L248.899 291.84L248.831 291.92L248.649 291.983L248.546 292.02L248.601 291.956L249.914 290.46C249.949 290.495 249.983 290.537 250.015 290.567Z" fill="white"/>
<path d="M246.673 300.651C246.614 300.683 246.558 300.713 246.499 300.742L238.964 297.72L238.944 297.711C238.929 297.653 238.913 297.594 238.898 297.532L239.126 297.623L246.673 300.651Z" fill="white"/>
<path d="M248.031 299.629L247.905 299.746L239.969 297.123L239.766 297.056L239.781 297.008L239.812 296.914L239.896 296.944L240.139 297.023L248.031 299.629Z" fill="white"/>
<path d="M249.252 298.149C249.224 298.194 249.194 298.239 249.165 298.283L240.954 296.552L240.843 296.529L240.87 296.403V296.389H240.887L241.14 296.442L249.252 298.149Z" fill="white"/>
<path d="M250.082 296.626C250.062 296.674 250.039 296.72 250.017 296.768C247.637 296.515 243.04 296.01 242.114 295.871C242.059 295.865 242.005 295.854 241.952 295.84L241.987 295.763L242.013 295.706C242.031 295.711 242.049 295.715 242.068 295.718C242.086 295.72 242.104 295.723 242.121 295.727L242.315 295.754C243.484 295.909 247.681 296.366 250.082 296.626Z" fill="white"/>
<path d="M250.626 295.083C250.612 295.133 250.599 295.182 250.585 295.231L243.648 294.979H243.538V294.893V294.831H243.639L243.881 294.84L250.626 295.083Z" fill="white"/>
<path d="M250.843 293.967C250.843 294.016 250.831 294.066 250.823 294.115L245.221 294.049H245.013H244.994L245.188 293.93H245.424L250.843 293.967Z" fill="white"/>
<path d="M250.903 293.136C250.903 293.182 250.903 293.228 250.903 293.275L246.626 293.227H246.492L246.684 293.108H246.831L250.903 293.136Z" fill="white"/>
<path d="M250.868 292.465L247.976 292.433H247.865L247.929 292.393L248.055 292.314H248.182L250.852 292.332C250.856 292.376 250.862 292.419 250.868 292.465Z" fill="white"/>
<path d="M233.709 252.228L233.621 252.347C233.573 252.312 230.312 249.653 228.115 247.863C228.115 247.803 228.125 247.744 228.131 247.685L233.709 252.228Z" fill="#F3F9FF"/>
<path d="M233.788 251.55L233.682 251.448L228.427 246.384C228.443 246.333 228.462 246.28 228.483 246.23L233.669 251.234L233.728 251.401L233.788 251.55Z" fill="#F3F9FF"/>
<path d="M233.881 250.282L233.808 250.275L233.853 250.51C233.762 250.358 231.133 247.409 229.047 245.095L229.135 244.956C233.891 250.182 233.885 250.242 233.881 250.282Z" fill="#F3F9FF"/>
<path d="M233.549 252.97L233.518 253.018L233.468 253.095L233.44 253.077L233.364 253.026L228.293 249.66C228.272 249.589 228.254 249.517 228.237 249.444L233.432 252.893L233.549 252.97Z" fill="#F3F9FF"/>
<path d="M234.045 249.052L233.926 249.142L229.987 243.904C230.021 243.867 230.056 243.83 230.092 243.796L234.045 249.052Z" fill="#F3F9FF"/>
<path d="M234.137 247.765L234.109 248.031C233.224 246.591 231.968 244.552 231.023 242.989L231.149 242.895C232.037 244.358 233.214 246.273 234.137 247.765Z" fill="#F3F9FF"/>
<path d="M234.372 246.538L234.314 246.692L232.367 242.119L232.494 242.056L234.372 246.538Z" fill="#F3F9FF"/>
<path d="M234.697 244.477L234.637 244.773L233.595 241.603C233.642 241.587 233.69 241.574 233.738 241.561L234.697 244.477Z" fill="#F3F9FF"/>
<path d="M234.965 242.306L234.943 242.455C234.855 242.137 234.752 241.776 234.647 241.407H234.72C234.814 241.748 234.898 242.062 234.965 242.306Z" fill="#F3F9FF"/>
<path d="M240.015 247.861C240.015 247.927 240.015 247.988 240.006 248.056L233.52 253.018L233.441 253.077L233.418 253.095L233.365 253.026L233.327 252.976L233.434 252.893L240.015 247.861Z" fill="#F3F9FF"/>
<path d="M239.383 250.379C239.347 250.453 239.311 250.522 239.274 250.595L233.437 253.374L233.391 253.396L233.377 253.365L233.327 253.262L239.383 250.379Z" fill="#F3F9FF"/>
<path d="M239.83 246.303L233.675 251.654L233.576 251.541L233.684 251.448L233.737 251.401L239.79 246.145C239.803 246.199 239.818 246.251 239.83 246.303Z" fill="#F3F9FF"/>
<path d="M238.979 244.428L233.919 249.922L233.811 249.821L238.889 244.3C238.924 244.344 238.953 244.385 238.979 244.428Z" fill="#F3F9FF"/>
<path d="M238.038 243.195C236.401 245.372 234.319 248.128 234.217 248.191L234.131 248.065C234.257 247.951 236.281 245.269 237.934 243.074L238.038 243.195Z" fill="#F3F9FF"/>
<path d="M237.002 242.196L234.497 246.086L234.371 246.006L236.883 242.105C236.925 242.136 236.964 242.171 237.002 242.196Z" fill="#F3F9FF"/>
<path d="M235.938 241.576L234.8 243.505L234.828 243.286L235.826 241.54L235.938 241.576Z" fill="#F3F9FF"/>
<path d="M230.877 278.186C230.825 278.202 227.285 279.162 224.588 279.893C224.495 279.868 224.403 279.841 224.312 279.812L230.835 278.044L230.877 278.186Z" fill="#F3F9FF"/>
<path d="M230.367 277.53L222.484 278.976C222.428 278.939 222.371 278.898 222.318 278.85L230.047 277.432L230.367 277.53Z" fill="#F3F9FF"/>
<path d="M229.649 276.927C229.45 276.911 224.555 277.432 221.384 277.792C221.357 277.745 221.332 277.697 221.306 277.646C229.402 276.702 229.445 276.743 229.478 276.773L229.43 276.827L229.649 276.927Z" fill="#F3F9FF"/>
<path d="M231.398 278.745L227.11 280.37C227.004 280.359 226.896 280.346 226.79 280.331L231.344 278.605L231.398 278.745Z" fill="#F3F9FF"/>
<path d="M228.629 276.073L220.752 276.253C220.737 276.204 220.725 276.155 220.709 276.104L228.627 275.925L228.629 276.073Z" fill="#F3F9FF"/>
<path d="M227.856 275.277C225.638 275.128 222.212 274.881 220.449 274.722C220.449 274.671 220.44 274.622 220.436 274.571C222.08 274.71 225.307 274.94 227.658 275.099L227.856 275.277Z" fill="#F3F9FF"/>
<path d="M226.718 274.147L220.566 272.777C220.578 272.729 220.589 272.683 220.603 272.639L226.627 274.008L226.718 274.147Z" fill="#F3F9FF"/>
<path d="M225.271 272.745L221.112 271.442C221.138 271.399 221.165 271.356 221.194 271.316L225.066 272.529L225.271 272.745Z" fill="#F3F9FF"/>
<path d="M223.503 271.065C223.029 270.89 222.458 270.686 221.909 270.498C221.938 270.471 221.969 270.444 222.001 270.418L223.428 270.941L223.503 271.065Z" fill="#F3F9FF"/>
<path d="M231.216 278.14H231.068L230.794 269.71C230.844 269.741 230.894 269.773 230.943 269.809L231.216 278.14Z" fill="#F3F9FF"/>
<path d="M230.041 277.203L229.893 277.218L229.107 268.972C229.159 268.986 229.21 269.002 229.26 269.019L230.041 277.203Z" fill="#F3F9FF"/>
<path d="M229.065 276.253L228.919 276.282L227.325 268.69H227.478L229.065 276.253Z" fill="#F3F9FF"/>
<path d="M227.84 275.061H227.692C227.672 274.886 226.595 271.455 225.754 268.792C225.803 268.783 225.851 268.775 225.903 268.77C226.736 271.398 227.847 274.936 227.84 275.061Z" fill="#F3F9FF"/>
<path d="M226.346 273.695L226.208 273.749L224.372 269.132C224.418 269.116 224.465 269.101 224.513 269.087L226.346 273.695Z" fill="#F3F9FF"/>
<path d="M224.361 271.83L224.174 271.704L223.237 269.62L223.252 269.611L223.354 269.559L224.361 271.83Z" fill="#F3F9FF"/>
<path d="M243.433 256.399L235.865 267.319C235.824 267.3 235.776 267.273 235.723 267.243L235.698 267.228L235.68 267.218L235.554 267.143L235.498 267.109L243.417 256.388L243.433 256.399Z" fill="#F3F9FF"/>
<path d="M248.349 276.559C246.265 279.323 242.124 280.038 239.289 277.997C238.89 277.713 238.543 277.362 238.262 276.961L238.239 276.93L238.22 276.903L238.185 276.851C238.129 276.769 238.079 276.684 238.03 276.598L238.022 276.583C236.678 274.204 237.516 270.691 238.669 268.375C239.808 266.102 242.201 264.524 244.789 264.728C246.434 264.854 247.65 265.8 248.458 267.127C248.458 267.13 248.458 267.132 248.458 267.135C248.568 267.314 248.669 267.501 248.764 267.694C248.79 267.752 248.818 267.81 248.845 267.87C250.108 270.624 249.911 274.484 248.349 276.559Z" fill="#A5DDEA"/>
<path d="M248.46 267.14L238.258 276.961L238.235 276.93L238.216 276.903L238.181 276.851C238.125 276.769 238.075 276.684 238.027 276.598L248.455 267.127C248.457 267.128 248.459 267.13 248.46 267.132C248.46 267.135 248.461 267.137 248.46 267.14Z" fill="#F3F9FF"/>
<path d="M232.214 279.027C232.197 279.052 232.178 279.076 232.157 279.099L231.983 279.292V279.298C231.969 279.312 231.956 279.325 231.942 279.336L222.417 270.103C222.435 270.09 222.454 270.078 222.474 270.067L232.214 279.027Z" fill="#F3F9FF"/>
<path d="M235.118 241.414L233.58 253.41C233.454 253.393 233.327 253.37 233.172 253.342L235.098 241.414H235.118Z" fill="#F3F9FF"/>
<g opacity="0.34">
<path opacity="0.34" d="M231.76 282.618C221.993 285.358 221.121 277.398 221.102 277.209C221.162 277.35 221.228 277.487 221.29 277.619C221.295 277.628 221.3 277.637 221.305 277.646C221.331 277.697 221.356 277.745 221.382 277.792C221.62 278.204 221.938 278.565 222.317 278.852C222.37 278.894 222.427 278.936 222.483 278.979C223.043 279.354 223.659 279.637 224.308 279.818C224.399 279.847 224.492 279.874 224.584 279.899C225.077 280.034 225.577 280.135 226.053 280.222C226.29 280.265 226.536 280.305 226.786 280.337C226.893 280.352 227 280.365 227.106 280.376C228.54 280.536 230.099 280.472 231.336 279.787C231.703 280.57 231.82 281.505 231.76 282.618Z" fill="#5BC7D1"/>
</g>
<g opacity="0.34">
<path opacity="0.34" d="M229.745 261.434C226.817 261.159 223.717 256.993 222.494 255.171L223.087 255.138C225.01 257.174 228.132 258.979 229.608 259.012C229.836 259.885 229.797 260.752 229.745 261.434Z" fill="#5BC7D1"/>
</g>
<path d="M250.373 291.023L238.943 297.729C238.925 297.661 238.907 297.589 238.891 297.518C238.874 297.447 238.859 297.377 238.845 297.303L250.356 290.989L250.365 291.004C250.369 291.01 250.371 291.017 250.373 291.023Z" fill="#6198BA"/>
<path d="M246.016 310.103V314.594C246.016 314.703 245.995 314.811 245.953 314.912C245.911 315.013 245.849 315.105 245.772 315.182C245.695 315.26 245.603 315.321 245.502 315.363C245.4 315.405 245.292 315.426 245.183 315.426V324.403C245.183 325.493 244.749 326.538 243.977 327.309C243.205 328.08 242.158 328.513 241.066 328.513H231.677C231.136 328.513 230.6 328.406 230.101 328.2C229.601 327.993 229.147 327.69 228.765 327.308C228.382 326.926 228.079 326.473 227.872 325.974C227.665 325.475 227.559 324.941 227.559 324.401V315.426C227.45 315.426 227.341 315.405 227.24 315.363C227.139 315.321 227.047 315.26 226.97 315.182C226.892 315.105 226.831 315.013 226.789 314.912C226.747 314.811 226.726 314.703 226.726 314.594V310.111C226.726 309.731 226.877 309.367 227.147 309.098C227.416 308.83 227.781 308.679 228.161 308.679H244.583C244.962 308.679 245.326 308.829 245.594 309.096C245.863 309.363 246.015 309.725 246.016 310.103Z" fill="#5BC7D1"/>
<path d="M245.186 315.426V324.404C245.186 325.493 244.753 326.539 243.981 327.309C243.209 328.08 242.162 328.513 241.07 328.513H237.168C240.061 328.318 241.021 325.971 241.165 323.403C241.291 321.188 241.671 316.998 238.81 316.373L234.475 315.426H245.186Z" fill="#4BB2B7"/>
<path d="M60.968 44.2V61H59L48.92 48.472V61H46.52V44.2H48.488L58.568 56.728V44.2H60.968ZM71.1086 61.144C69.8446 61.144 68.7086 60.864 67.7006 60.304C66.6926 59.744 65.9006 58.976 65.3246 58C64.7646 57.008 64.4846 55.888 64.4846 54.64C64.4846 53.392 64.7646 52.28 65.3246 51.304C65.9006 50.312 66.6926 49.544 67.7006 49C68.7086 48.44 69.8446 48.16 71.1086 48.16C72.3726 48.16 73.5006 48.44 74.4926 49C75.5006 49.544 76.2846 50.312 76.8446 51.304C77.4206 52.28 77.7086 53.392 77.7086 54.64C77.7086 55.888 77.4206 57.008 76.8446 58C76.2846 58.976 75.5006 59.744 74.4926 60.304C73.5006 60.864 72.3726 61.144 71.1086 61.144ZM71.1086 59.128C71.9246 59.128 72.6526 58.944 73.2926 58.576C73.9486 58.192 74.4606 57.664 74.8286 56.992C75.1966 56.304 75.3806 55.52 75.3806 54.64C75.3806 53.76 75.1966 52.984 74.8286 52.312C74.4606 51.624 73.9486 51.096 73.2926 50.728C72.6526 50.36 71.9246 50.176 71.1086 50.176C70.2926 50.176 69.5566 50.36 68.9006 50.728C68.2606 51.096 67.7486 51.624 67.3646 52.312C66.9966 52.984 66.8126 53.76 66.8126 54.64C66.8126 55.52 66.9966 56.304 67.3646 56.992C67.7486 57.664 68.2606 58.192 68.9006 58.576C69.5566 58.944 70.2926 59.128 71.1086 59.128ZM94.4923 60.256C94.1563 60.544 93.7403 60.768 93.2443 60.928C92.7483 61.072 92.2363 61.144 91.7083 61.144C90.4283 61.144 89.4363 60.8 88.7323 60.112C88.0283 59.424 87.6763 58.44 87.6763 57.16V50.176H85.5163V48.28H87.6763V45.496H89.9803V48.28H93.6283V50.176H89.9803V57.064C89.9803 57.752 90.1483 58.28 90.4843 58.648C90.8363 59.016 91.3323 59.2 91.9723 59.2C92.6763 59.2 93.2763 59 93.7723 58.6L94.4923 60.256ZM101.91 48.16C103.67 48.16 105.014 48.592 105.942 49.456C106.886 50.32 107.358 51.608 107.358 53.32V61H105.174V59.32C104.79 59.912 104.238 60.368 103.518 60.688C102.814 60.992 101.974 61.144 100.998 61.144C99.5738 61.144 98.4298 60.8 97.5658 60.112C96.7178 59.424 96.2938 58.52 96.2938 57.4C96.2938 56.28 96.7018 55.384 97.5178 54.712C98.3338 54.024 99.6298 53.68 101.406 53.68H105.054V53.224C105.054 52.232 104.766 51.472 104.19 50.944C103.614 50.416 102.766 50.152 101.646 50.152C100.894 50.152 100.158 50.28 99.4378 50.536C98.7178 50.776 98.1098 51.104 97.6138 51.52L96.6538 49.792C97.3098 49.264 98.0938 48.864 99.0058 48.592C99.9178 48.304 100.886 48.16 101.91 48.16ZM101.382 59.368C102.262 59.368 103.022 59.176 103.662 58.792C104.302 58.392 104.766 57.832 105.054 57.112V55.336H101.502C99.5498 55.336 98.5738 55.992 98.5738 57.304C98.5738 57.944 98.8218 58.448 99.3178 58.816C99.8138 59.184 100.502 59.368 101.382 59.368ZM115.27 61.144C114.23 61.144 113.23 61.008 112.27 60.736C111.31 60.448 110.558 60.088 110.014 59.656L110.974 57.832C111.534 58.232 112.214 58.552 113.014 58.792C113.814 59.032 114.622 59.152 115.438 59.152C117.454 59.152 118.462 58.576 118.462 57.424C118.462 57.04 118.326 56.736 118.054 56.512C117.782 56.288 117.438 56.128 117.022 56.032C116.622 55.92 116.046 55.8 115.294 55.672C114.27 55.512 113.43 55.328 112.774 55.12C112.134 54.912 111.582 54.56 111.118 54.064C110.654 53.568 110.422 52.872 110.422 51.976C110.422 50.824 110.902 49.904 111.862 49.216C112.822 48.512 114.11 48.16 115.726 48.16C116.574 48.16 117.422 48.264 118.27 48.472C119.118 48.68 119.814 48.96 120.358 49.312L119.374 51.136C118.334 50.464 117.11 50.128 115.702 50.128C114.726 50.128 113.982 50.288 113.47 50.608C112.958 50.928 112.702 51.352 112.702 51.88C112.702 52.296 112.846 52.624 113.134 52.864C113.422 53.104 113.774 53.28 114.19 53.392C114.622 53.504 115.222 53.632 115.99 53.776C117.014 53.952 117.838 54.144 118.462 54.352C119.102 54.544 119.646 54.88 120.094 55.36C120.542 55.84 120.766 56.512 120.766 57.376C120.766 58.528 120.27 59.448 119.278 60.136C118.302 60.808 116.966 61.144 115.27 61.144ZM128.589 55.072L125.949 57.52V61H123.645V43.192H125.949V54.616L132.885 48.28H135.669L130.317 53.536L136.197 61H133.365L128.589 55.072ZM141.684 61.144C140.644 61.144 139.644 61.008 138.684 60.736C137.724 60.448 136.972 60.088 136.428 59.656L137.388 57.832C137.948 58.232 138.628 58.552 139.428 58.792C140.228 59.032 141.036 59.152 141.852 59.152C143.868 59.152 144.876 58.576 144.876 57.424C144.876 57.04 144.74 56.736 144.468 56.512C144.196 56.288 143.852 56.128 143.436 56.032C143.036 55.92 142.46 55.8 141.708 55.672C140.684 55.512 139.844 55.328 139.188 55.12C138.548 54.912 137.996 54.56 137.532 54.064C137.068 53.568 136.836 52.872 136.836 51.976C136.836 50.824 137.316 49.904 138.276 49.216C139.236 48.512 140.524 48.16 142.14 48.16C142.988 48.16 143.836 48.264 144.684 48.472C145.532 48.68 146.228 48.96 146.772 49.312L145.788 51.136C144.748 50.464 143.524 50.128 142.116 50.128C141.14 50.128 140.396 50.288 139.884 50.608C139.372 50.928 139.116 51.352 139.116 51.88C139.116 52.296 139.26 52.624 139.548 52.864C139.836 53.104 140.188 53.28 140.604 53.392C141.036 53.504 141.636 53.632 142.404 53.776C143.428 53.952 144.252 54.144 144.876 54.352C145.516 54.544 146.06 54.88 146.508 55.36C146.956 55.84 147.18 56.512 147.18 57.376C147.18 58.528 146.684 59.448 145.692 60.136C144.716 60.808 143.38 61.144 141.684 61.144ZM161.136 48.16C162.896 48.16 164.24 48.592 165.168 49.456C166.112 50.32 166.584 51.608 166.584 53.32V61H164.4V59.32C164.016 59.912 163.464 60.368 162.744 60.688C162.04 60.992 161.2 61.144 160.224 61.144C158.8 61.144 157.656 60.8 156.792 60.112C155.944 59.424 155.52 58.52 155.52 57.4C155.52 56.28 155.928 55.384 156.744 54.712C157.56 54.024 158.856 53.68 160.632 53.68H164.28V53.224C164.28 52.232 163.992 51.472 163.416 50.944C162.84 50.416 161.992 50.152 160.872 50.152C160.12 50.152 159.384 50.28 158.664 50.536C157.944 50.776 157.336 51.104 156.84 51.52L155.88 49.792C156.536 49.264 157.32 48.864 158.232 48.592C159.144 48.304 160.112 48.16 161.136 48.16ZM160.608 59.368C161.488 59.368 162.248 59.176 162.888 58.792C163.528 58.392 163.992 57.832 164.28 57.112V55.336H160.728C158.776 55.336 157.8 55.992 157.8 57.304C157.8 57.944 158.048 58.448 158.544 58.816C159.04 59.184 159.728 59.368 160.608 59.368ZM174.496 61.144C173.456 61.144 172.456 61.008 171.496 60.736C170.536 60.448 169.784 60.088 169.24 59.656L170.2 57.832C170.76 58.232 171.44 58.552 172.24 58.792C173.04 59.032 173.848 59.152 174.664 59.152C176.68 59.152 177.688 58.576 177.688 57.424C177.688 57.04 177.552 56.736 177.28 56.512C177.008 56.288 176.664 56.128 176.248 56.032C175.848 55.92 175.272 55.8 174.52 55.672C173.496 55.512 172.656 55.328 172 55.12C171.36 54.912 170.808 54.56 170.344 54.064C169.88 53.568 169.648 52.872 169.648 51.976C169.648 50.824 170.128 49.904 171.088 49.216C172.048 48.512 173.336 48.16 174.952 48.16C175.8 48.16 176.648 48.264 177.496 48.472C178.344 48.68 179.04 48.96 179.584 49.312L178.6 51.136C177.56 50.464 176.336 50.128 174.928 50.128C173.952 50.128 173.208 50.288 172.696 50.608C172.184 50.928 171.928 51.352 171.928 51.88C171.928 52.296 172.072 52.624 172.36 52.864C172.648 53.104 173 53.28 173.416 53.392C173.848 53.504 174.448 53.632 175.216 53.776C176.24 53.952 177.064 54.144 177.688 54.352C178.328 54.544 178.872 54.88 179.32 55.36C179.768 55.84 179.992 56.512 179.992 57.376C179.992 58.528 179.496 59.448 178.504 60.136C177.528 60.808 176.192 61.144 174.496 61.144ZM186.52 61.144C185.48 61.144 184.48 61.008 183.52 60.736C182.56 60.448 181.808 60.088 181.264 59.656L182.224 57.832C182.784 58.232 183.464 58.552 184.264 58.792C185.064 59.032 185.872 59.152 186.688 59.152C188.704 59.152 189.712 58.576 189.712 57.424C189.712 57.04 189.576 56.736 189.304 56.512C189.032 56.288 188.688 56.128 188.272 56.032C187.872 55.92 187.296 55.8 186.544 55.672C185.52 55.512 184.68 55.328 184.024 55.12C183.384 54.912 182.832 54.56 182.368 54.064C181.904 53.568 181.672 52.872 181.672 51.976C181.672 50.824 182.152 49.904 183.112 49.216C184.072 48.512 185.36 48.16 186.976 48.16C187.824 48.16 188.672 48.264 189.52 48.472C190.368 48.68 191.064 48.96 191.608 49.312L190.624 51.136C189.584 50.464 188.36 50.128 186.952 50.128C185.976 50.128 185.232 50.288 184.72 50.608C184.208 50.928 183.952 51.352 183.952 51.88C183.952 52.296 184.096 52.624 184.384 52.864C184.672 53.104 185.024 53.28 185.44 53.392C185.872 53.504 186.472 53.632 187.24 53.776C188.264 53.952 189.088 54.144 189.712 54.352C190.352 54.544 190.896 54.88 191.344 55.36C191.792 55.84 192.016 56.512 192.016 57.376C192.016 58.528 191.52 59.448 190.528 60.136C189.552 60.808 188.216 61.144 186.52 61.144ZM194.895 48.28H197.199V61H194.895V48.28ZM196.047 45.832C195.599 45.832 195.223 45.688 194.919 45.4C194.631 45.112 194.487 44.76 194.487 44.344C194.487 43.928 194.631 43.576 194.919 43.288C195.223 42.984 195.599 42.832 196.047 42.832C196.495 42.832 196.863 42.976 197.151 43.264C197.455 43.536 197.607 43.88 197.607 44.296C197.607 44.728 197.455 45.096 197.151 45.4C196.863 45.688 196.495 45.832 196.047 45.832ZM213.766 48.28V59.272C213.766 61.496 213.214 63.136 212.11 64.192C211.006 65.264 209.358 65.8 207.166 65.8C205.966 65.8 204.822 65.632 203.734 65.296C202.646 64.976 201.766 64.512 201.094 63.904L202.198 62.128C202.79 62.64 203.518 63.04 204.382 63.328C205.262 63.632 206.166 63.784 207.094 63.784C208.582 63.784 209.678 63.432 210.382 62.728C211.102 62.024 211.462 60.952 211.462 59.512V58.504C210.918 59.16 210.246 59.656 209.446 59.992C208.662 60.312 207.806 60.472 206.878 60.472C205.662 60.472 204.558 60.216 203.566 59.704C202.59 59.176 201.822 58.448 201.262 57.52C200.702 56.576 200.422 55.504 200.422 54.304C200.422 53.104 200.702 52.04 201.262 51.112C201.822 50.168 202.59 49.44 203.566 48.928C204.558 48.416 205.662 48.16 206.878 48.16C207.838 48.16 208.726 48.336 209.542 48.688C210.374 49.04 211.054 49.56 211.582 50.248V48.28H213.766ZM207.142 58.456C207.974 58.456 208.718 58.28 209.374 57.928C210.046 57.576 210.566 57.088 210.934 56.464C211.318 55.824 211.51 55.104 211.51 54.304C211.51 53.072 211.102 52.08 210.286 51.328C209.47 50.56 208.422 50.176 207.142 50.176C205.846 50.176 204.79 50.56 203.974 51.328C203.158 52.08 202.75 53.072 202.75 54.304C202.75 55.104 202.934 55.824 203.302 56.464C203.686 57.088 204.206 57.576 204.862 57.928C205.534 58.28 206.294 58.456 207.142 58.456ZM224.96 48.16C226.576 48.16 227.856 48.632 228.8 49.576C229.76 50.504 230.24 51.872 230.24 53.68V61H227.936V53.944C227.936 52.712 227.64 51.784 227.048 51.16C226.456 50.536 225.608 50.224 224.504 50.224C223.256 50.224 222.272 50.592 221.552 51.328C220.832 52.048 220.472 53.088 220.472 54.448V61H218.168V48.28H220.376V50.2C220.84 49.544 221.464 49.04 222.248 48.688C223.048 48.336 223.952 48.16 224.96 48.16ZM246.071 54.712C246.071 54.888 246.055 55.12 246.023 55.408H235.703C235.847 56.528 236.335 57.432 237.167 58.12C238.015 58.792 239.063 59.128 240.311 59.128C241.831 59.128 243.055 58.616 243.983 57.592L245.255 59.08C244.679 59.752 243.959 60.264 243.095 60.616C242.247 60.968 241.295 61.144 240.239 61.144C238.895 61.144 237.703 60.872 236.663 60.328C235.623 59.768 234.815 58.992 234.239 58C233.679 57.008 233.399 55.888 233.399 54.64C233.399 53.408 233.671 52.296 234.215 51.304C234.775 50.312 235.535 49.544 236.495 49C237.471 48.44 238.567 48.16 239.783 48.16C240.999 48.16 242.079 48.44 243.023 49C243.983 49.544 244.727 50.312 245.255 51.304C245.799 52.296 246.071 53.432 246.071 54.712ZM239.783 50.104C238.679 50.104 237.751 50.44 236.999 51.112C236.263 51.784 235.831 52.664 235.703 53.752H243.863C243.735 52.68 243.295 51.808 242.543 51.136C241.807 50.448 240.887 50.104 239.783 50.104ZM261.27 43.192V61H259.062V58.984C258.55 59.688 257.902 60.224 257.118 60.592C256.334 60.96 255.47 61.144 254.526 61.144C253.294 61.144 252.19 60.872 251.214 60.328C250.238 59.784 249.47 59.024 248.91 58.048C248.366 57.056 248.094 55.92 248.094 54.64C248.094 53.36 248.366 52.232 248.91 51.256C249.47 50.28 250.238 49.52 251.214 48.976C252.19 48.432 253.294 48.16 254.526 48.16C255.438 48.16 256.278 48.336 257.046 48.688C257.814 49.024 258.454 49.528 258.966 50.2V43.192H261.27ZM254.718 59.128C255.518 59.128 256.246 58.944 256.902 58.576C257.558 58.192 258.07 57.664 258.438 56.992C258.806 56.304 258.99 55.52 258.99 54.64C258.99 53.76 258.806 52.984 258.438 52.312C258.07 51.624 257.558 51.096 256.902 50.728C256.246 50.36 255.518 50.176 254.718 50.176C253.902 50.176 253.166 50.36 252.51 50.728C251.87 51.096 251.358 51.624 250.974 52.312C250.606 52.984 250.422 53.76 250.422 54.64C250.422 55.52 250.606 56.304 250.974 56.992C251.358 57.664 251.87 58.192 252.51 58.576C253.166 58.944 253.902 59.128 254.718 59.128ZM279.227 60.256C278.891 60.544 278.475 60.768 277.979 60.928C277.483 61.072 276.971 61.144 276.443 61.144C275.163 61.144 274.171 60.8 273.467 60.112C272.763 59.424 272.411 58.44 272.411 57.16V50.176H270.251V48.28H272.411V45.496H274.715V48.28H278.363V50.176H274.715V57.064C274.715 57.752 274.883 58.28 275.219 58.648C275.571 59.016 276.067 59.2 276.707 59.2C277.411 59.2 278.011 59 278.507 58.6L279.227 60.256ZM287.038 61.144C285.774 61.144 284.638 60.864 283.63 60.304C282.622 59.744 281.83 58.976 281.254 58C280.694 57.008 280.414 55.888 280.414 54.64C280.414 53.392 280.694 52.28 281.254 51.304C281.83 50.312 282.622 49.544 283.63 49C284.638 48.44 285.774 48.16 287.038 48.16C288.302 48.16 289.43 48.44 290.422 49C291.43 49.544 292.214 50.312 292.774 51.304C293.35 52.28 293.638 53.392 293.638 54.64C293.638 55.888 293.35 57.008 292.774 58C292.214 58.976 291.43 59.744 290.422 60.304C289.43 60.864 288.302 61.144 287.038 61.144ZM287.038 59.128C287.854 59.128 288.582 58.944 289.222 58.576C289.878 58.192 290.39 57.664 290.758 56.992C291.126 56.304 291.31 55.52 291.31 54.64C291.31 53.76 291.126 52.984 290.758 52.312C290.39 51.624 289.878 51.096 289.222 50.728C288.582 50.36 287.854 50.176 287.038 50.176C286.222 50.176 285.486 50.36 284.83 50.728C284.19 51.096 283.678 51.624 283.294 52.312C282.926 52.984 282.742 53.76 282.742 54.64C282.742 55.52 282.926 56.304 283.294 56.992C283.678 57.664 284.19 58.192 284.83 58.576C285.486 58.944 286.222 59.128 287.038 59.128ZM314.526 48.28L308.358 62.272C307.814 63.568 307.174 64.48 306.438 65.008C305.718 65.536 304.846 65.8 303.822 65.8C303.198 65.8 302.59 65.696 301.998 65.488C301.422 65.296 300.942 65.008 300.558 64.624L301.542 62.896C302.198 63.52 302.958 63.832 303.822 63.832C304.382 63.832 304.846 63.68 305.214 63.376C305.598 63.088 305.942 62.584 306.246 61.864L306.654 60.976L301.038 48.28H303.438L307.878 58.456L312.27 48.28H314.526ZM321.773 61.144C320.509 61.144 319.373 60.864 318.365 60.304C317.357 59.744 316.565 58.976 315.989 58C315.429 57.008 315.149 55.888 315.149 54.64C315.149 53.392 315.429 52.28 315.989 51.304C316.565 50.312 317.357 49.544 318.365 49C319.373 48.44 320.509 48.16 321.773 48.16C323.037 48.16 324.165 48.44 325.157 49C326.165 49.544 326.949 50.312 327.509 51.304C328.085 52.28 328.373 53.392 328.373 54.64C328.373 55.888 328.085 57.008 327.509 58C326.949 58.976 326.165 59.744 325.157 60.304C324.165 60.864 323.037 61.144 321.773 61.144ZM321.773 59.128C322.589 59.128 323.317 58.944 323.957 58.576C324.613 58.192 325.125 57.664 325.493 56.992C325.861 56.304 326.045 55.52 326.045 54.64C326.045 53.76 325.861 52.984 325.493 52.312C325.125 51.624 324.613 51.096 323.957 50.728C323.317 50.36 322.589 50.176 321.773 50.176C320.957 50.176 320.221 50.36 319.565 50.728C318.925 51.096 318.413 51.624 318.029 52.312C317.661 52.984 317.477 53.76 317.477 54.64C317.477 55.52 317.661 56.304 318.029 56.992C318.413 57.664 318.925 58.192 319.565 58.576C320.221 58.944 320.957 59.128 321.773 59.128ZM343.415 48.28V61H341.231V59.08C340.767 59.736 340.151 60.248 339.383 60.616C338.631 60.968 337.807 61.144 336.911 61.144C335.215 61.144 333.879 60.68 332.903 59.752C331.927 58.808 331.439 57.424 331.439 55.6V48.28H333.743V55.336C333.743 56.568 334.039 57.504 334.631 58.144C335.223 58.768 336.071 59.08 337.175 59.08C338.391 59.08 339.351 58.712 340.055 57.976C340.759 57.24 341.111 56.2 341.111 54.856V48.28H343.415ZM365.503 48.28L359.335 62.272C358.791 63.568 358.151 64.48 357.415 65.008C356.695 65.536 355.823 65.8 354.799 65.8C354.175 65.8 353.567 65.696 352.975 65.488C352.399 65.296 351.918 65.008 351.534 64.624L352.519 62.896C353.175 63.52 353.935 63.832 354.799 63.832C355.359 63.832 355.823 63.68 356.191 63.376C356.575 63.088 356.919 62.584 357.223 61.864L357.631 60.976L352.014 48.28H354.415L358.855 58.456L363.247 48.28H365.503ZM378.797 54.712C378.797 54.888 378.781 55.12 378.749 55.408H368.429C368.573 56.528 369.061 57.432 369.893 58.12C370.741 58.792 371.789 59.128 373.037 59.128C374.557 59.128 375.781 58.616 376.709 57.592L377.981 59.08C377.405 59.752 376.685 60.264 375.821 60.616C374.973 60.968 374.021 61.144 372.965 61.144C371.621 61.144 370.429 60.872 369.389 60.328C368.349 59.768 367.541 58.992 366.965 58C366.405 57.008 366.125 55.888 366.125 54.64C366.125 53.408 366.397 52.296 366.941 51.304C367.501 50.312 368.261 49.544 369.221 49C370.197 48.44 371.293 48.16 372.509 48.16C373.725 48.16 374.805 48.44 375.749 49C376.709 49.544 377.453 50.312 377.981 51.304C378.525 52.296 378.797 53.432 378.797 54.712ZM372.509 50.104C371.405 50.104 370.477 50.44 369.725 51.112C368.989 51.784 368.557 52.664 368.429 53.752H376.589C376.461 52.68 376.021 51.808 375.269 51.136C374.533 50.448 373.613 50.104 372.509 50.104ZM389.149 60.256C388.813 60.544 388.397 60.768 387.901 60.928C387.405 61.072 386.893 61.144 386.365 61.144C385.085 61.144 384.093 60.8 383.389 60.112C382.685 59.424 382.333 58.44 382.333 57.16V50.176H380.173V48.28H382.333V45.496H384.637V48.28H388.285V50.176H384.637V57.064C384.637 57.752 384.805 58.28 385.141 58.648C385.493 59.016 385.989 59.2 386.629 59.2C387.333 59.2 387.933 59 388.429 58.6L389.149 60.256Z" fill="#089BAB"/>
<path d="M50.78 83.636L48.056 88.844V92H46.964V88.844L44.228 83.636H45.44L47.504 87.872L49.568 83.636H50.78ZM54.5998 92.108C53.9838 92.108 53.4238 91.968 52.9198 91.688C52.4238 91.408 52.0318 91.012 51.7438 90.5C51.4638 89.98 51.3238 89.38 51.3238 88.7C51.3238 88.028 51.4678 87.436 51.7558 86.924C52.0518 86.404 52.4518 86.008 52.9558 85.736C53.4598 85.456 54.0238 85.316 54.6478 85.316C55.2718 85.316 55.8358 85.456 56.3398 85.736C56.8438 86.008 57.2398 86.4 57.5278 86.912C57.8238 87.424 57.9718 88.02 57.9718 88.7C57.9718 89.38 57.8198 89.98 57.5158 90.5C57.2198 91.012 56.8158 91.408 56.3038 91.688C55.7918 91.968 55.2238 92.108 54.5998 92.108ZM54.5998 91.148C54.9918 91.148 55.3598 91.056 55.7038 90.872C56.0478 90.688 56.3238 90.412 56.5318 90.044C56.7478 89.676 56.8558 89.228 56.8558 88.7C56.8558 88.172 56.7518 87.724 56.5438 87.356C56.3358 86.988 56.0638 86.716 55.7278 86.54C55.3918 86.356 55.0278 86.264 54.6358 86.264C54.2358 86.264 53.8678 86.356 53.5318 86.54C53.2038 86.716 52.9398 86.988 52.7398 87.356C52.5398 87.724 52.4398 88.172 52.4398 88.7C52.4398 89.236 52.5358 89.688 52.7278 90.056C52.9278 90.424 53.1918 90.7 53.5198 90.884C53.8478 91.06 54.2078 91.148 54.5998 91.148ZM65.0396 85.424V92H63.9476V91.028C63.7396 91.364 63.4476 91.628 63.0716 91.82C62.7036 92.004 62.2956 92.096 61.8476 92.096C61.3356 92.096 60.8756 91.992 60.4676 91.784C60.0596 91.568 59.7356 91.248 59.4956 90.824C59.2636 90.4 59.1476 89.884 59.1476 89.276V85.424H60.2276V89.132C60.2276 89.78 60.3916 90.28 60.7196 90.632C61.0476 90.976 61.4956 91.148 62.0636 91.148C62.6476 91.148 63.1076 90.968 63.4436 90.608C63.7796 90.248 63.9476 89.724 63.9476 89.036V85.424H65.0396ZM72.9466 85.304C73.4426 85.304 73.8906 85.412 74.2906 85.628C74.6906 85.836 75.0026 86.152 75.2266 86.576C75.4586 87 75.5746 87.516 75.5746 88.124V92H74.4946V88.28C74.4946 87.624 74.3306 87.124 74.0026 86.78C73.6746 86.428 73.2266 86.252 72.6586 86.252C72.0826 86.252 71.6226 86.432 71.2786 86.792C70.9426 87.152 70.7746 87.676 70.7746 88.364V92H69.6826V83.12H70.7746V86.36C70.9906 86.024 71.2866 85.764 71.6626 85.58C72.0466 85.396 72.4746 85.304 72.9466 85.304ZM76.7504 88.688C76.7504 88.016 76.8864 87.428 77.1584 86.924C77.4304 86.412 77.8024 86.016 78.2744 85.736C78.7544 85.456 79.2864 85.316 79.8704 85.316C80.4464 85.316 80.9464 85.44 81.3704 85.688C81.7944 85.936 82.1104 86.248 82.3184 86.624V85.424H83.4224V92H82.3184V90.776C82.1024 91.16 81.7784 91.48 81.3464 91.736C80.9224 91.984 80.4264 92.108 79.8584 92.108C79.2744 92.108 78.7464 91.964 78.2744 91.676C77.8024 91.388 77.4304 90.984 77.1584 90.464C76.8864 89.944 76.7504 89.352 76.7504 88.688ZM82.3184 88.7C82.3184 88.204 82.2184 87.772 82.0184 87.404C81.8184 87.036 81.5464 86.756 81.2024 86.564C80.8664 86.364 80.4944 86.264 80.0864 86.264C79.6784 86.264 79.3064 86.36 78.9704 86.552C78.6344 86.744 78.3664 87.024 78.1664 87.392C77.9664 87.76 77.8664 88.192 77.8664 88.688C77.8664 89.192 77.9664 89.632 78.1664 90.008C78.3664 90.376 78.6344 90.66 78.9704 90.86C79.3064 91.052 79.6784 91.148 80.0864 91.148C80.4944 91.148 80.8664 91.052 81.2024 90.86C81.5464 90.66 81.8184 90.376 82.0184 90.008C82.2184 89.632 82.3184 89.196 82.3184 88.7ZM87.5157 90.992L89.5557 85.424H90.7197L88.1397 92H86.8677L84.2877 85.424H85.4637L87.5157 90.992ZM97.5943 88.46C97.5943 88.668 97.5823 88.888 97.5583 89.12H92.3023C92.3423 89.768 92.5623 90.276 92.9623 90.644C93.3703 91.004 93.8623 91.184 94.4383 91.184C94.9103 91.184 95.3023 91.076 95.6143 90.86C95.9343 90.636 96.1583 90.34 96.2863 89.972H97.4623C97.2863 90.604 96.9343 91.12 96.4063 91.52C95.8783 91.912 95.2223 92.108 94.4383 92.108C93.8143 92.108 93.2543 91.968 92.7583 91.688C92.2703 91.408 91.8863 91.012 91.6063 90.5C91.3263 89.98 91.1863 89.38 91.1863 88.7C91.1863 88.02 91.3223 87.424 91.5943 86.912C91.8663 86.4 92.2463 86.008 92.7343 85.736C93.2303 85.456 93.7983 85.316 94.4383 85.316C95.0623 85.316 95.6143 85.452 96.0943 85.724C96.5743 85.996 96.9423 86.372 97.1983 86.852C97.4623 87.324 97.5943 87.86 97.5943 88.46ZM96.4663 88.232C96.4663 87.816 96.3743 87.46 96.1903 87.164C96.0063 86.86 95.7543 86.632 95.4343 86.48C95.1223 86.32 94.7743 86.24 94.3903 86.24C93.8383 86.24 93.3663 86.416 92.9743 86.768C92.5903 87.12 92.3703 87.608 92.3143 88.232H96.4663ZM105.039 85.304C105.839 85.304 106.487 85.548 106.983 86.036C107.479 86.516 107.727 87.212 107.727 88.124V92H106.647V88.28C106.647 87.624 106.483 87.124 106.155 86.78C105.827 86.428 105.379 86.252 104.811 86.252C104.235 86.252 103.775 86.432 103.431 86.792C103.095 87.152 102.927 87.676 102.927 88.364V92H101.835V85.424H102.927V86.36C103.143 86.024 103.435 85.764 103.803 85.58C104.179 85.396 104.591 85.304 105.039 85.304ZM112.179 92.108C111.563 92.108 111.003 91.968 110.499 91.688C110.003 91.408 109.611 91.012 109.323 90.5C109.043 89.98 108.903 89.38 108.903 88.7C108.903 88.028 109.047 87.436 109.335 86.924C109.631 86.404 110.031 86.008 110.535 85.736C111.039 85.456 111.603 85.316 112.227 85.316C112.851 85.316 113.415 85.456 113.919 85.736C114.423 86.008 114.819 86.4 115.107 86.912C115.403 87.424 115.551 88.02 115.551 88.7C115.551 89.38 115.399 89.98 115.095 90.5C114.799 91.012 114.395 91.408 113.883 91.688C113.371 91.968 112.803 92.108 112.179 92.108ZM112.179 91.148C112.571 91.148 112.939 91.056 113.283 90.872C113.627 90.688 113.903 90.412 114.111 90.044C114.327 89.676 114.435 89.228 114.435 88.7C114.435 88.172 114.331 87.724 114.123 87.356C113.915 86.988 113.643 86.716 113.307 86.54C112.971 86.356 112.607 86.264 112.215 86.264C111.815 86.264 111.447 86.356 111.111 86.54C110.783 86.716 110.519 86.988 110.319 87.356C110.119 87.724 110.019 88.172 110.019 88.7C110.019 89.236 110.115 89.688 110.307 90.056C110.507 90.424 110.771 90.7 111.099 90.884C111.427 91.06 111.787 91.148 112.179 91.148ZM118.119 86.324V90.2C118.119 90.52 118.187 90.748 118.323 90.884C118.459 91.012 118.695 91.076 119.031 91.076H119.835V92H118.851C118.243 92 117.787 91.86 117.483 91.58C117.179 91.3 117.027 90.84 117.027 90.2V86.324H116.175V85.424H117.027V83.768H118.119V85.424H119.835V86.324H118.119ZM125.049 86.648C125.273 86.256 125.601 85.936 126.033 85.688C126.465 85.44 126.957 85.316 127.509 85.316C128.101 85.316 128.633 85.456 129.105 85.736C129.577 86.016 129.949 86.412 130.221 86.924C130.493 87.428 130.629 88.016 130.629 88.688C130.629 89.352 130.493 89.944 130.221 90.464C129.949 90.984 129.573 91.388 129.093 91.676C128.621 91.964 128.093 92.108 127.509 92.108C126.941 92.108 126.441 91.984 126.009 91.736C125.585 91.488 125.265 91.172 125.049 90.788V92H123.957V83.12H125.049V86.648ZM129.513 88.688C129.513 88.192 129.413 87.76 129.213 87.392C129.013 87.024 128.741 86.744 128.397 86.552C128.061 86.36 127.689 86.264 127.281 86.264C126.881 86.264 126.509 86.364 126.165 86.564C125.829 86.756 125.557 87.04 125.349 87.416C125.149 87.784 125.049 88.212 125.049 88.7C125.049 89.196 125.149 89.632 125.349 90.008C125.557 90.376 125.829 90.66 126.165 90.86C126.509 91.052 126.881 91.148 127.281 91.148C127.689 91.148 128.061 91.052 128.397 90.86C128.741 90.66 129.013 90.376 129.213 90.008C129.413 89.632 129.513 89.192 129.513 88.688ZM137.866 88.46C137.866 88.668 137.854 88.888 137.83 89.12H132.574C132.614 89.768 132.834 90.276 133.234 90.644C133.642 91.004 134.134 91.184 134.71 91.184C135.182 91.184 135.574 91.076 135.886 90.86C136.206 90.636 136.43 90.34 136.558 89.972H137.734C137.558 90.604 137.206 91.12 136.678 91.52C136.15 91.912 135.494 92.108 134.71 92.108C134.086 92.108 133.526 91.968 133.03 91.688C132.542 91.408 132.158 91.012 131.878 90.5C131.598 89.98 131.458 89.38 131.458 88.7C131.458 88.02 131.594 87.424 131.866 86.912C132.138 86.4 132.518 86.008 133.006 85.736C133.502 85.456 134.07 85.316 134.71 85.316C135.334 85.316 135.886 85.452 136.366 85.724C136.846 85.996 137.214 86.372 137.47 86.852C137.734 87.324 137.866 87.86 137.866 88.46ZM136.738 88.232C136.738 87.816 136.646 87.46 136.462 87.164C136.278 86.86 136.026 86.632 135.706 86.48C135.394 86.32 135.046 86.24 134.662 86.24C134.11 86.24 133.638 86.416 133.246 86.768C132.862 87.12 132.642 87.608 132.586 88.232H136.738ZM145.108 88.46C145.108 88.668 145.096 88.888 145.072 89.12H139.816C139.856 89.768 140.076 90.276 140.476 90.644C140.884 91.004 141.376 91.184 141.952 91.184C142.424 91.184 142.816 91.076 143.128 90.86C143.448 90.636 143.672 90.34 143.8 89.972H144.976C144.8 90.604 144.448 91.12 143.92 91.52C143.392 91.912 142.736 92.108 141.952 92.108C141.328 92.108 140.768 91.968 140.272 91.688C139.784 91.408 139.4 91.012 139.12 90.5C138.84 89.98 138.7 89.38 138.7 88.7C138.7 88.02 138.836 87.424 139.108 86.912C139.38 86.4 139.76 86.008 140.248 85.736C140.744 85.456 141.312 85.316 141.952 85.316C142.576 85.316 143.128 85.452 143.608 85.724C144.088 85.996 144.456 86.372 144.712 86.852C144.976 87.324 145.108 87.86 145.108 88.46ZM143.98 88.232C143.98 87.816 143.888 87.46 143.704 87.164C143.52 86.86 143.268 86.632 142.948 86.48C142.636 86.32 142.288 86.24 141.904 86.24C141.352 86.24 140.88 86.416 140.488 86.768C140.104 87.12 139.884 87.608 139.828 88.232H143.98ZM149.553 85.304C150.353 85.304 151.001 85.548 151.497 86.036C151.993 86.516 152.241 87.212 152.241 88.124V92H151.161V88.28C151.161 87.624 150.997 87.124 150.669 86.78C150.341 86.428 149.893 86.252 149.325 86.252C148.749 86.252 148.289 86.432 147.945 86.792C147.609 87.152 147.441 87.676 147.441 88.364V92H146.349V85.424H147.441V86.36C147.657 86.024 147.949 85.764 148.317 85.58C148.693 85.396 149.105 85.304 149.553 85.304ZM156.416 88.688C156.416 88.016 156.552 87.428 156.824 86.924C157.096 86.412 157.468 86.016 157.94 85.736C158.42 85.456 158.952 85.316 159.536 85.316C160.112 85.316 160.612 85.44 161.036 85.688C161.46 85.936 161.776 86.248 161.984 86.624V85.424H163.088V92H161.984V90.776C161.768 91.16 161.444 91.48 161.012 91.736C160.588 91.984 160.092 92.108 159.524 92.108C158.94 92.108 158.412 91.964 157.94 91.676C157.468 91.388 157.096 90.984 156.824 90.464C156.552 89.944 156.416 89.352 156.416 88.688ZM161.984 88.7C161.984 88.204 161.884 87.772 161.684 87.404C161.484 87.036 161.212 86.756 160.868 86.564C160.532 86.364 160.16 86.264 159.752 86.264C159.344 86.264 158.972 86.36 158.636 86.552C158.3 86.744 158.032 87.024 157.832 87.392C157.632 87.76 157.532 88.192 157.532 88.688C157.532 89.192 157.632 89.632 157.832 90.008C158.032 90.376 158.3 90.66 158.636 90.86C158.972 91.052 159.344 91.148 159.752 91.148C160.16 91.148 160.532 91.052 160.868 90.86C161.212 90.66 161.484 90.376 161.684 90.008C161.884 89.632 161.984 89.196 161.984 88.7ZM164.325 88.688C164.325 88.016 164.461 87.428 164.733 86.924C165.005 86.412 165.377 86.016 165.849 85.736C166.329 85.456 166.865 85.316 167.457 85.316C167.969 85.316 168.445 85.436 168.885 85.676C169.325 85.908 169.661 86.216 169.893 86.6V83.12H170.997V92H169.893V90.764C169.677 91.156 169.357 91.48 168.933 91.736C168.509 91.984 168.013 92.108 167.445 92.108C166.861 92.108 166.329 91.964 165.849 91.676C165.377 91.388 165.005 90.984 164.733 90.464C164.461 89.944 164.325 89.352 164.325 88.688ZM169.893 88.7C169.893 88.204 169.793 87.772 169.593 87.404C169.393 87.036 169.121 86.756 168.777 86.564C168.441 86.364 168.069 86.264 167.661 86.264C167.253 86.264 166.881 86.36 166.545 86.552C166.209 86.744 165.941 87.024 165.741 87.392C165.541 87.76 165.441 88.192 165.441 88.688C165.441 89.192 165.541 89.632 165.741 90.008C165.941 90.376 166.209 90.66 166.545 90.86C166.881 91.052 167.253 91.148 167.661 91.148C168.069 91.148 168.441 91.052 168.777 90.86C169.121 90.66 169.393 90.376 169.593 90.008C169.793 89.632 169.893 89.196 169.893 88.7ZM172.235 88.688C172.235 88.016 172.371 87.428 172.643 86.924C172.915 86.412 173.287 86.016 173.759 85.736C174.239 85.456 174.775 85.316 175.367 85.316C175.879 85.316 176.355 85.436 176.795 85.676C177.235 85.908 177.571 86.216 177.803 86.6V83.12H178.907V92H177.803V90.764C177.587 91.156 177.267 91.48 176.843 91.736C176.419 91.984 175.923 92.108 175.355 92.108C174.771 92.108 174.239 91.964 173.759 91.676C173.287 91.388 172.915 90.984 172.643 90.464C172.371 89.944 172.235 89.352 172.235 88.688ZM177.803 88.7C177.803 88.204 177.703 87.772 177.503 87.404C177.303 87.036 177.031 86.756 176.687 86.564C176.351 86.364 175.979 86.264 175.571 86.264C175.163 86.264 174.791 86.36 174.455 86.552C174.119 86.744 173.851 87.024 173.651 87.392C173.451 87.76 173.351 88.192 173.351 88.688C173.351 89.192 173.451 89.632 173.651 90.008C173.851 90.376 174.119 90.66 174.455 90.86C174.791 91.052 175.163 91.148 175.571 91.148C175.979 91.148 176.351 91.052 176.687 90.86C177.031 90.66 177.303 90.376 177.503 90.008C177.703 89.632 177.803 89.196 177.803 88.7ZM186.552 88.46C186.552 88.668 186.54 88.888 186.516 89.12H181.26C181.3 89.768 181.52 90.276 181.92 90.644C182.328 91.004 182.82 91.184 183.396 91.184C183.868 91.184 184.26 91.076 184.572 90.86C184.892 90.636 185.116 90.34 185.244 89.972H186.42C186.244 90.604 185.892 91.12 185.364 91.52C184.836 91.912 184.18 92.108 183.396 92.108C182.772 92.108 182.212 91.968 181.716 91.688C181.228 91.408 180.844 91.012 180.564 90.5C180.284 89.98 180.144 89.38 180.144 88.7C180.144 88.02 180.28 87.424 180.552 86.912C180.824 86.4 181.204 86.008 181.692 85.736C182.188 85.456 182.756 85.316 183.396 85.316C184.02 85.316 184.572 85.452 185.052 85.724C185.532 85.996 185.9 86.372 186.156 86.852C186.42 87.324 186.552 87.86 186.552 88.46ZM185.424 88.232C185.424 87.816 185.332 87.46 185.148 87.164C184.964 86.86 184.712 86.632 184.392 86.48C184.08 86.32 183.732 86.24 183.348 86.24C182.796 86.24 182.324 86.416 181.932 86.768C181.548 87.12 181.328 87.608 181.272 88.232H185.424ZM187.386 88.688C187.386 88.016 187.522 87.428 187.794 86.924C188.066 86.412 188.438 86.016 188.91 85.736C189.39 85.456 189.926 85.316 190.518 85.316C191.03 85.316 191.506 85.436 191.946 85.676C192.386 85.908 192.722 86.216 192.954 86.6V83.12H194.058V92H192.954V90.764C192.738 91.156 192.418 91.48 191.994 91.736C191.57 91.984 191.074 92.108 190.506 92.108C189.922 92.108 189.39 91.964 188.91 91.676C188.438 91.388 188.066 90.984 187.794 90.464C187.522 89.944 187.386 89.352 187.386 88.688ZM192.954 88.7C192.954 88.204 192.854 87.772 192.654 87.404C192.454 87.036 192.182 86.756 191.838 86.564C191.502 86.364 191.13 86.264 190.722 86.264C190.314 86.264 189.942 86.36 189.606 86.552C189.27 86.744 189.002 87.024 188.802 87.392C188.602 87.76 188.502 88.192 188.502 88.688C188.502 89.192 188.602 89.632 188.802 90.008C189.002 90.376 189.27 90.66 189.606 90.86C189.942 91.052 190.314 91.148 190.722 91.148C191.13 91.148 191.502 91.052 191.838 90.86C192.182 90.66 192.454 90.376 192.654 90.008C192.854 89.632 192.954 89.196 192.954 88.7ZM200.034 86.324V90.2C200.034 90.52 200.102 90.748 200.238 90.884C200.374 91.012 200.61 91.076 200.946 91.076H201.75V92H200.766C200.158 92 199.702 91.86 199.398 91.58C199.094 91.3 198.942 90.84 198.942 90.2V86.324H198.09V85.424H198.942V83.768H200.034V85.424H201.75V86.324H200.034ZM205.741 92.108C205.125 92.108 204.565 91.968 204.061 91.688C203.565 91.408 203.173 91.012 202.885 90.5C202.605 89.98 202.465 89.38 202.465 88.7C202.465 88.028 202.609 87.436 202.897 86.924C203.193 86.404 203.593 86.008 204.097 85.736C204.601 85.456 205.165 85.316 205.789 85.316C206.413 85.316 206.977 85.456 207.481 85.736C207.985 86.008 208.381 86.4 208.669 86.912C208.965 87.424 209.113 88.02 209.113 88.7C209.113 89.38 208.961 89.98 208.657 90.5C208.361 91.012 207.957 91.408 207.445 91.688C206.933 91.968 206.365 92.108 205.741 92.108ZM205.741 91.148C206.133 91.148 206.501 91.056 206.845 90.872C207.189 90.688 207.465 90.412 207.673 90.044C207.889 89.676 207.997 89.228 207.997 88.7C207.997 88.172 207.893 87.724 207.685 87.356C207.477 86.988 207.205 86.716 206.869 86.54C206.533 86.356 206.169 86.264 205.777 86.264C205.377 86.264 205.009 86.356 204.673 86.54C204.345 86.716 204.081 86.988 203.881 87.356C203.681 87.724 203.581 88.172 203.581 88.7C203.581 89.236 203.677 89.688 203.869 90.056C204.069 90.424 204.333 90.7 204.661 90.884C204.989 91.06 205.349 91.148 205.741 91.148ZM212.94 88.688C212.94 88.016 213.076 87.428 213.348 86.924C213.62 86.412 213.992 86.016 214.464 85.736C214.944 85.456 215.476 85.316 216.06 85.316C216.636 85.316 217.136 85.44 217.56 85.688C217.984 85.936 218.3 86.248 218.508 86.624V85.424H219.612V92H218.508V90.776C218.292 91.16 217.968 91.48 217.536 91.736C217.112 91.984 216.616 92.108 216.048 92.108C215.464 92.108 214.936 91.964 214.464 91.676C213.992 91.388 213.62 90.984 213.348 90.464C213.076 89.944 212.94 89.352 212.94 88.688ZM218.508 88.7C218.508 88.204 218.408 87.772 218.208 87.404C218.008 87.036 217.736 86.756 217.392 86.564C217.056 86.364 216.684 86.264 216.276 86.264C215.868 86.264 215.496 86.36 215.16 86.552C214.824 86.744 214.556 87.024 214.356 87.392C214.156 87.76 214.056 88.192 214.056 88.688C214.056 89.192 214.156 89.632 214.356 90.008C214.556 90.376 214.824 90.66 215.16 90.86C215.496 91.052 215.868 91.148 216.276 91.148C216.684 91.148 217.056 91.052 217.392 90.86C217.736 90.66 218.008 90.376 218.208 90.008C218.408 89.632 218.508 89.196 218.508 88.7ZM225.349 86.636C225.565 86.26 225.885 85.948 226.309 85.7C226.741 85.444 227.241 85.316 227.809 85.316C228.393 85.316 228.921 85.456 229.393 85.736C229.873 86.016 230.249 86.412 230.521 86.924C230.793 87.428 230.929 88.016 230.929 88.688C230.929 89.352 230.793 89.944 230.521 90.464C230.249 90.984 229.873 91.388 229.393 91.676C228.921 91.964 228.393 92.108 227.809 92.108C227.249 92.108 226.753 91.984 226.321 91.736C225.897 91.48 225.573 91.164 225.349 90.788V95.12H224.257V85.424H225.349V86.636ZM229.813 88.688C229.813 88.192 229.713 87.76 229.513 87.392C229.313 87.024 229.041 86.744 228.697 86.552C228.361 86.36 227.989 86.264 227.581 86.264C227.181 86.264 226.809 86.364 226.465 86.564C226.129 86.756 225.857 87.04 225.649 87.416C225.449 87.784 225.349 88.212 225.349 88.7C225.349 89.196 225.449 89.632 225.649 90.008C225.857 90.376 226.129 90.66 226.465 90.86C226.809 91.052 227.181 91.148 227.581 91.148C227.989 91.148 228.361 91.052 228.697 90.86C229.041 90.66 229.313 90.376 229.513 90.008C229.713 89.632 229.813 89.192 229.813 88.688ZM233.258 86.492C233.45 86.116 233.722 85.824 234.074 85.616C234.434 85.408 234.87 85.304 235.382 85.304V86.432H235.094C233.87 86.432 233.258 87.096 233.258 88.424V92H232.166V85.424H233.258V86.492ZM239.311 92.108C238.695 92.108 238.135 91.968 237.631 91.688C237.135 91.408 236.743 91.012 236.455 90.5C236.175 89.98 236.035 89.38 236.035 88.7C236.035 88.028 236.179 87.436 236.467 86.924C236.763 86.404 237.163 86.008 237.667 85.736C238.171 85.456 238.735 85.316 239.359 85.316C239.983 85.316 240.547 85.456 241.051 85.736C241.555 86.008 241.951 86.4 242.239 86.912C242.535 87.424 242.683 88.02 242.683 88.7C242.683 89.38 242.531 89.98 242.227 90.5C241.931 91.012 241.527 91.408 241.015 91.688C240.503 91.968 239.935 92.108 239.311 92.108ZM239.311 91.148C239.703 91.148 240.071 91.056 240.415 90.872C240.759 90.688 241.035 90.412 241.243 90.044C241.459 89.676 241.567 89.228 241.567 88.7C241.567 88.172 241.463 87.724 241.255 87.356C241.047 86.988 240.775 86.716 240.439 86.54C240.103 86.356 239.739 86.264 239.347 86.264C238.947 86.264 238.579 86.356 238.243 86.54C237.915 86.716 237.651 86.988 237.451 87.356C237.251 87.724 237.151 88.172 237.151 88.7C237.151 89.236 237.247 89.688 237.439 90.056C237.639 90.424 237.903 90.7 238.231 90.884C238.559 91.06 238.919 91.148 239.311 91.148ZM244.507 84.356C244.299 84.356 244.123 84.284 243.979 84.14C243.843 83.996 243.775 83.82 243.775 83.612C243.775 83.404 243.843 83.228 243.979 83.084C244.123 82.94 244.299 82.868 244.507 82.868C244.715 82.868 244.887 82.94 245.023 83.084C245.167 83.228 245.239 83.404 245.239 83.612C245.239 83.82 245.167 83.996 245.023 84.14C244.887 84.284 244.715 84.356 244.507 84.356ZM245.047 93.428C245.047 94.012 244.899 94.44 244.603 94.712C244.307 94.984 243.875 95.12 243.307 95.12H242.671V94.196H243.127C243.431 94.196 243.643 94.136 243.763 94.016C243.891 93.896 243.955 93.692 243.955 93.404V85.424H245.047V93.428ZM252.695 88.46C252.695 88.668 252.683 88.888 252.659 89.12H247.403C247.443 89.768 247.663 90.276 248.063 90.644C248.471 91.004 248.963 91.184 249.539 91.184C250.011 91.184 250.403 91.076 250.715 90.86C251.035 90.636 251.259 90.34 251.387 89.972H252.563C252.387 90.604 252.035 91.12 251.507 91.52C250.979 91.912 250.323 92.108 249.539 92.108C248.915 92.108 248.355 91.968 247.859 91.688C247.371 91.408 246.987 91.012 246.707 90.5C246.427 89.98 246.287 89.38 246.287 88.7C246.287 88.02 246.423 87.424 246.695 86.912C246.967 86.4 247.347 86.008 247.835 85.736C248.331 85.456 248.899 85.316 249.539 85.316C250.163 85.316 250.715 85.452 251.195 85.724C251.675 85.996 252.043 86.372 252.299 86.852C252.563 87.324 252.695 87.86 252.695 88.46ZM251.567 88.232C251.567 87.816 251.475 87.46 251.291 87.164C251.107 86.86 250.855 86.632 250.535 86.48C250.223 86.32 249.875 86.24 249.491 86.24C248.939 86.24 248.467 86.416 248.075 86.768C247.691 87.12 247.471 87.608 247.415 88.232H251.567ZM253.528 88.7C253.528 88.02 253.664 87.428 253.936 86.924C254.208 86.412 254.584 86.016 255.064 85.736C255.552 85.456 256.108 85.316 256.732 85.316C257.54 85.316 258.204 85.512 258.724 85.904C259.252 86.296 259.6 86.84 259.768 87.536H258.592C258.48 87.136 258.26 86.82 257.932 86.588C257.612 86.356 257.212 86.24 256.732 86.24C256.108 86.24 255.604 86.456 255.22 86.888C254.836 87.312 254.644 87.916 254.644 88.7C254.644 89.492 254.836 90.104 255.22 90.536C255.604 90.968 256.108 91.184 256.732 91.184C257.212 91.184 257.612 91.072 257.932 90.848C258.252 90.624 258.472 90.304 258.592 89.888H259.768C259.592 90.56 259.24 91.1 258.712 91.508C258.184 91.908 257.524 92.108 256.732 92.108C256.108 92.108 255.552 91.968 255.064 91.688C254.584 91.408 254.208 91.012 253.936 90.5C253.664 89.988 253.528 89.388 253.528 88.7ZM262.358 86.324V90.2C262.358 90.52 262.426 90.748 262.562 90.884C262.698 91.012 262.934 91.076 263.27 91.076H264.074V92H263.09C262.482 92 262.026 91.86 261.722 91.58C261.418 91.3 261.266 90.84 261.266 90.2V86.324H260.414V85.424H261.266V83.768H262.358V85.424H264.074V86.324H262.358ZM265.545 92.072C265.337 92.072 265.161 92 265.017 91.856C264.873 91.712 264.801 91.536 264.801 91.328C264.801 91.12 264.873 90.944 265.017 90.8C265.161 90.656 265.337 90.584 265.545 90.584C265.745 90.584 265.913 90.656 266.049 90.8C266.193 90.944 266.265 91.12 266.265 91.328C266.265 91.536 266.193 91.712 266.049 91.856C265.913 92 265.745 92.072 265.545 92.072Z" fill="#4D4D4D"/>
</g>
</g>
<defs>
<filter id="filter0_d" x="0" y="0" width="776" height="424" filterUnits="userSpaceOnUse" color-interpolation-filters="sRGB">
<feFlood flood-opacity="0" result="BackgroundImageFix"/>
<feColorMatrix in="SourceAlpha" type="matrix" values="0 0 0 0 0 0 0 0 0 0 0 0 0 0 0 0 0 0 127 0"/>
<feOffset dy="4"/>
<feGaussianBlur stdDeviation="10"/>
<feColorMatrix type="matrix" values="0 0 0 0 0 0 0 0 0 0 0 0 0 0 0 0 0 0 0.05 0"/>
<feBlend mode="normal" in2="BackgroundImageFix" result="effect1_dropShadow"/>
<feBlend mode="normal" in="SourceGraphic" in2="effect1_dropShadow" result="shape"/>
</filter>
<filter id="filter1_d" x="0" y="0" width="776" height="424" filterUnits="userSpaceOnUse" color-interpolation-filters="sRGB">
<feFlood flood-opacity="0" result="BackgroundImageFix"/>
<feColorMatrix in="SourceAlpha" type="matrix" values="0 0 0 0 0 0 0 0 0 0 0 0 0 0 0 0 0 0 127 0"/>
<feOffset dy="4"/>
<feGaussianBlur stdDeviation="10"/>
<feColorMatrix type="matrix" values="0 0 0 0 0 0 0 0 0 0 0 0 0 0 0 0 0 0 0.05 0"/>
<feBlend mode="normal" in2="BackgroundImageFix" result="effect1_dropShadow"/>
<feBlend mode="normal" in="SourceGraphic" in2="effect1_dropShadow" result="shape"/>
</filter>
<clipPath id="clip0">
<path d="M20 26C20 20.4772 24.4772 16 30 16H746C751.523 16 756 20.4772 756 26V390C756 395.523 751.523 400 746 400H30C24.4771 400 20 395.523 20 390V26Z" fill="white"/>
</clipPath>
</defs>
</svg>
