<svg width="30" height="30" viewBox="0 0 30 30" fill="none" xmlns="http://www.w3.org/2000/svg">
<path d="M25.6111 4.38891C19.7584 -1.4626 10.2402 -1.4626 4.38742 4.38891C-1.4628 10.2404 -1.4628 19.7611 4.38742 25.6126C7.31379 28.5377 11.1568 29.9996 14.9999 29.9996C18.843 29.9996 22.6847 28.5377 25.6111 25.6126C31.4626 19.7612 31.4626 10.2404 25.6111 4.38891ZM21.189 19.4222C21.678 19.9112 21.678 20.7016 21.189 21.1905C20.9452 21.4344 20.625 21.557 20.3048 21.557C19.9847 21.557 19.6645 21.4344 19.4207 21.1905L14.9999 16.7684L10.5803 21.1892C10.3352 21.4331 10.015 21.5557 9.6961 21.5557C9.37597 21.5557 9.05578 21.4331 8.81192 21.1892C8.32296 20.7003 8.32296 19.9086 8.81192 19.4209L13.2315 15.0001L8.81069 10.5793C8.32173 10.0904 8.32173 9.29873 8.81069 8.811C9.29842 8.32204 10.09 8.32204 10.579 8.811L14.9998 13.2318L19.4206 8.811C19.9096 8.32204 20.7 8.32204 21.1889 8.811C21.6779 9.29873 21.6779 10.0904 21.1889 10.5793L16.7681 15.0001L21.189 19.4222Z" fill="#DE6262"/>
</svg>
