<svg width="104" height="32" viewBox="0 0 104 32" fill="none" xmlns="http://www.w3.org/2000/svg">
<path d="M35.762 11.3451V23.9091H33.242V11.3451H35.762ZM43.7778 13.7931C44.9658 13.7931 45.9258 14.1711 46.6578 14.9271C47.3898 15.6711 47.7558 16.7151 47.7558 18.0591V23.9091H45.2358V18.4011C45.2358 17.6091 45.0378 17.0031 44.6418 16.5831C44.2458 16.1511 43.7058 15.9351 43.0218 15.9351C42.3258 15.9351 41.7738 16.1511 41.3658 16.5831C40.9698 17.0031 40.7718 17.6091 40.7718 18.4011V23.9091H38.2518V13.9371H40.7718V15.1791C41.1078 14.7471 41.5338 14.4111 42.0498 14.1711C42.5778 13.9191 43.1538 13.7931 43.7778 13.7931ZM53.0862 16.0071V20.8311C53.0862 21.1671 53.1642 21.4131 53.3202 21.5691C53.4882 21.7131 53.7642 21.7851 54.1482 21.7851H55.3182V23.9091H53.7342C51.6102 23.9091 50.5482 22.8771 50.5482 20.8131V16.0071H49.3602V13.9371H50.5482V11.4711H53.0862V13.9371H55.3182V16.0071H53.0862ZM66.4007 18.7071C66.4007 19.0671 66.3767 19.3911 66.3287 19.6791H59.0387C59.0987 20.3991 59.3507 20.9631 59.7947 21.3711C60.2387 21.7791 60.7847 21.9831 61.4327 21.9831C62.3687 21.9831 63.0347 21.5811 63.4307 20.7771H66.1487C65.8607 21.7371 65.3087 22.5291 64.4927 23.1531C63.6767 23.7651 62.6747 24.0711 61.4867 24.0711C60.5267 24.0711 59.6627 23.8611 58.8947 23.4411C58.1387 23.0091 57.5447 22.4031 57.1127 21.6231C56.6927 20.8431 56.4827 19.9431 56.4827 18.9231C56.4827 17.8911 56.6927 16.9851 57.1127 16.2051C57.5327 15.4251 58.1207 14.8251 58.8767 14.4051C59.6327 13.9851 60.5027 13.7751 61.4867 13.7751C62.4347 13.7751 63.2807 13.9791 64.0247 14.3871C64.7807 14.7951 65.3627 15.3771 65.7707 16.1331C66.1907 16.8771 66.4007 17.7351 66.4007 18.7071ZM63.7907 17.9871C63.7787 17.3391 63.5447 16.8231 63.0887 16.4391C62.6327 16.0431 62.0747 15.8451 61.4147 15.8451C60.7907 15.8451 60.2627 16.0371 59.8307 16.4211C59.4107 16.7931 59.1527 17.3151 59.0567 17.9871H63.7907ZM70.76 10.5891V23.9091H68.24V10.5891H70.76ZM86.9478 11.3451V23.9091H84.4278V15.7371L81.0618 23.9091H79.1538L75.7698 15.7371V23.9091H73.2498V11.3451H76.1118L80.1078 20.6871L84.1038 11.3451H86.9478ZM98.7093 18.7071C98.7093 19.0671 98.6853 19.3911 98.6373 19.6791H91.3473C91.4073 20.3991 91.6593 20.9631 92.1033 21.3711C92.5473 21.7791 93.0933 21.9831 93.7413 21.9831C94.6773 21.9831 95.3433 21.5811 95.7393 20.7771H98.4573C98.1693 21.7371 97.6173 22.5291 96.8013 23.1531C95.9853 23.7651 94.9833 24.0711 93.7953 24.0711C92.8353 24.0711 91.9713 23.8611 91.2033 23.4411C90.4473 23.0091 89.8533 22.4031 89.4213 21.6231C89.0013 20.8431 88.7913 19.9431 88.7913 18.9231C88.7913 17.8911 89.0013 16.9851 89.4213 16.2051C89.8413 15.4251 90.4293 14.8251 91.1853 14.4051C91.9413 13.9851 92.8113 13.7751 93.7953 13.7751C94.7433 13.7751 95.5893 13.9791 96.3333 14.3871C97.0893 14.7951 97.6713 15.3771 98.0793 16.1331C98.4993 16.8771 98.7093 17.7351 98.7093 18.7071ZM96.0993 17.9871C96.0873 17.3391 95.8533 16.8231 95.3973 16.4391C94.9413 16.0431 94.3833 15.8451 93.7233 15.8451C93.0993 15.8451 92.5713 16.0371 92.1393 16.4211C91.7193 16.7931 91.4613 17.3151 91.3653 17.9871H96.0993Z" fill="white"/>
<ellipse rx="5.79797" ry="5.64551" transform="matrix(0.967863 -0.251479 0.266341 0.963879 21.8291 17.1426)" fill="#FFF8BA"/>
<ellipse rx="4.7748" ry="4.64925" transform="matrix(0.967863 -0.251479 0.266341 0.963879 8.86684 20.1675)" fill="#FFF8BA"/>
<ellipse rx="4.7748" ry="4.64925" transform="matrix(0.967863 -0.251479 0.266341 0.963879 13.782 7.22586)" fill="#FFF8BA"/>
</svg>
