<svg width="588" height="808" viewBox="0 0 588 808" fill="none" xmlns="http://www.w3.org/2000/svg">
<path d="M175.76 0H868V808H527.607H187.214C187.214 808 206.099 742.06 207.647 637.732C209.195 533.404 144.182 309.579 146.039 170.268C147.897 30.9578 175.76 0 175.76 0Z" fill="#EDF5F6"/>
<path d="M655.322 148H234.103V659H655.322V148Z" fill="#EDF5F6"/>
<path d="M393 605C471.424 605 535 600.971 535 596C535 591.029 471.424 587 393 587C314.576 587 251 591.029 251 596C251 600.971 314.576 605 393 605Z" fill="#DAE8EB"/>
<path d="M655.322 148H234.103V575.092H655.322V148Z" fill="#EDF5F6"/>
<path d="M385.684 221.691H290.676V371.695H385.684V221.691Z" fill="white"/>
<path d="M508.556 221.691H399.615V371.695H508.556V221.691Z" fill="white"/>
<path d="M508.556 197.867H290.676V213.333H508.556V197.867Z" fill="white"/>
<path d="M374.335 331.598C373.311 334.982 371.639 336.315 371.639 336.315L367.203 319.447C367.203 319.447 373.972 313.121 374.97 322.996C375.343 326.728 374.96 329.545 374.335 331.598Z" fill="#4F3B43"/>
<path d="M374.335 331.598C373.311 334.982 371.639 336.315 371.639 336.315L367.203 319.447C367.203 319.447 373.417 320.463 374.335 331.598Z" fill="#0D0407"/>
<path d="M293.959 423.341C293.959 423.341 285.304 420.921 281.643 417.765L296.54 418.681L293.959 423.341Z" fill="#F7D9CE"/>
<path d="M376.632 506.903C382.988 537.863 378.648 565.327 378.648 565.327H367.531C364.533 522.633 358.79 521.385 357.792 511.395C356.794 501.406 353.049 470.947 353.049 470.947C353.049 470.947 344.058 503.412 344.308 506.401C346.363 531.054 334.905 564.188 334.905 564.188L330.822 563.561L324.472 562.581C327.358 503.156 322.81 507.429 324.472 494.223C325.728 484.258 331.911 441.32 331.911 441.32C331.911 441.32 364.279 437.944 372.274 439.239C372.492 439.274 372.707 439.326 372.917 439.396C375.014 440.069 376.646 442.314 377.831 445.576C379.017 448.839 379.749 453.049 380.076 457.75C380.586 465.118 380.076 473.623 378.648 481.183C375.291 498.914 376.632 506.903 376.632 506.903Z" fill="#2A3054"/>
<path d="M351.839 475.38C349.391 484.369 344.118 504.1 344.31 506.401C346.365 531.054 334.907 564.188 334.907 564.188L330.824 563.561C333.076 553.259 339.646 521.843 339.232 507.484C339.37 502.301 340.156 497.157 341.574 492.171C343.802 484.508 345.865 477.1 349.94 460.916C350.115 460.23 350.289 459.526 350.47 458.804C350.47 458.804 352.634 461.968 353.051 470.955C353.051 470.947 352.571 472.68 351.839 475.38Z" fill="#1F2542"/>
<path d="M376.632 506.903C382.987 537.863 378.648 565.328 378.648 565.328H376.097C375.883 550.486 375.158 524.089 372.693 515.638C369.197 503.658 370.362 494.003 370.362 494.003C372.249 481.008 372.28 467.81 370.457 454.806C370.213 453.098 369.953 451.521 369.687 450.091C368.544 443.911 367.368 440.412 367.368 440.412L372.921 439.404C375.018 440.077 376.65 442.322 377.835 445.584C379.021 448.847 379.753 453.057 380.08 457.758C380.59 465.126 380.08 473.631 378.652 481.191C375.291 498.914 376.632 506.903 376.632 506.903Z" fill="#1F2542"/>
<path d="M324.097 564.91L322.718 583.776L330.338 581.889C330.338 581.889 334.534 565.303 334.907 564.188C335.28 563.073 324.097 564.91 324.097 564.91Z" fill="#F7D9CE"/>
<path d="M368.086 563.337C368.086 563.337 370.304 570.238 369.308 580.114C368.312 589.991 377.186 581.445 377.186 581.445C377.186 581.445 379.487 562.339 379.189 560.95C378.89 559.56 368.086 563.337 368.086 563.337Z" fill="#F7D9CE"/>
<path d="M323.161 577.715C323.161 577.715 326.853 580.998 331.296 578.118C331.296 578.118 331.828 576.983 332.743 582.726C333.659 588.468 333.491 589.717 333.491 589.717C333.491 589.717 321.998 592.296 301.117 592.38C301.117 592.38 296.623 591.798 297.371 586.803C297.371 586.803 297.871 585.543 298.536 585.049C299.202 584.555 314.91 581.863 323.161 577.715Z" fill="#5A434B"/>
<path d="M369.515 577.229C369.515 577.229 370.524 581.713 377.569 578.194C377.569 578.194 378.247 576.563 379.215 581.999C380.182 587.436 380.271 587.881 380.271 587.881C380.271 587.881 369.64 597.869 356.435 597.762C356.435 597.762 346.308 595.709 353.632 590.715C353.632 590.711 362.954 584.885 369.515 577.229Z" fill="#5A434B"/>
<path d="M333.482 588.714C333.482 588.714 304.132 592.028 298.006 590.455C298.006 590.455 298.039 590.711 299.287 593.625C299.287 593.625 310.498 595.613 333.637 591.618L333.482 588.714Z" fill="#0E0506"/>
<path d="M380.271 587.882C380.271 587.882 360.381 602.529 350.974 593.764C350.974 593.764 349.714 601.69 359.764 600.47C371.139 599.089 380.848 590.878 380.848 590.878L380.271 587.882Z" fill="#0E0506"/>
<path d="M380.078 457.758C375.134 458.078 372.185 456.52 370.455 454.814C369.356 453.754 368.558 452.422 368.142 450.952L369.685 450.099L377.834 445.584C379.009 448.815 379.751 453.049 380.078 457.758Z" fill="#070F23"/>
<path d="M353.051 470.947C353.051 470.947 352.571 472.68 351.841 475.384L349.942 460.916C350.117 460.23 350.29 459.526 350.472 458.804C350.47 458.796 352.634 461.96 353.051 470.947Z" fill="#070F23"/>
<path d="M367.11 559.79C367.11 559.79 372.466 561.605 379.518 559.373C379.518 559.373 381.32 558.337 381.308 559.881C381.288 562.363 380.413 564.42 379.292 566.663C379.292 566.663 373.916 568.377 367.141 567.229C367.143 567.229 364.069 558.161 367.11 559.79Z" fill="#384063"/>
<path d="M323.899 567.624C323.899 567.624 326.307 569.183 330.58 570.403C334.852 571.623 328.426 580.889 323.26 576.346L323.161 577.715C323.161 577.715 327.075 580.887 331.295 578.118L333.983 567.632L323.976 566.195L323.899 567.624Z" fill="#EFBEAF"/>
<path d="M369.241 569.356C369.241 569.356 375.684 568.215 376.682 569.643C377.68 571.07 376.432 578.717 376.432 578.717L377.565 578.199L378.805 566.804C378.805 566.804 373.883 568.05 368.985 567.481L369.241 569.356Z" fill="#EFBEAF"/>
<path d="M324.651 558.839C324.651 558.839 328.914 561.498 336.192 560.186C336.192 560.186 338.333 559.042 337.903 560.916C337.349 563.335 336.129 566.189 334.494 568.092C334.494 568.092 329.497 568.407 322.921 566.408C322.921 566.408 321.84 556.838 324.651 558.839Z" fill="#384063"/>
<path opacity="0.32" d="M332.743 582.722C332.743 582.722 326.476 589.247 301.506 590.84C301.506 590.84 323.514 591.878 333.481 588.714L332.743 582.722Z" fill="#0E0506"/>
<path d="M349.722 355.679C349.722 355.679 351.303 366.249 350.305 369.826C349.307 373.403 360.958 373.24 361.873 370.909C361.873 370.909 360.79 364.255 361.873 358.675C362.956 353.096 349.722 355.679 349.722 355.679Z" fill="#F9CFC5"/>
<path d="M363.648 320.667C363.648 320.667 373.968 320.889 373.192 338.412C373.192 338.412 372.526 340.41 374.19 344.183C375.854 347.956 368.532 362.603 362.091 361.827C355.651 361.051 345.334 357.167 341.894 347.734C341.894 347.734 336.012 343.407 337.789 337.746C339.565 332.086 363.648 320.667 363.648 320.667Z" fill="#F7D9CE"/>
<path d="M367.971 322.383C367.971 322.383 363.418 322.054 361.398 326.299C359.377 330.544 349.14 339.991 349.39 343.485L349.333 346.08L346.419 342.471C346.419 342.471 343.383 337.714 339.456 340.912C335.53 344.11 340.483 333.768 340.483 333.768C340.483 333.768 364.251 314.589 367.971 322.383Z" fill="#EFBEAF"/>
<path d="M351.386 334.982C351.386 334.982 347.613 337.48 349.333 346.072C349.333 346.072 344.897 342.465 344.562 336.307C344.227 330.148 351.386 334.982 351.386 334.982Z" fill="#331A24"/>
<path d="M331.911 434.452V441.32C331.911 441.32 359.375 446.062 376.604 440.154C376.604 440.154 376.936 433.5 375.355 433.163C373.775 432.826 331.911 434.452 331.911 434.452Z" fill="#070F23"/>
<path d="M368.592 322.867C368.592 322.867 364.121 318.395 360.123 326.551C359.183 328.502 357.97 330.308 356.519 331.915C352.537 336.311 347.266 338.394 341.811 338.948C341.811 338.948 340.261 339.15 339.611 340.513C339.585 340.563 339.562 340.615 339.543 340.668C339.035 341.925 339.287 344.076 341.902 347.726C341.902 347.726 343.271 351.239 344.951 353.039C344.951 353.039 347.314 355.08 344.066 355.993C340.817 356.907 342.572 349.5 340.234 348.502C338.92 347.94 335.072 345.25 333.274 341.543C331.878 338.67 331.713 335.186 334.907 331.606C339.069 326.946 341.646 317.289 350.303 313.382C365.269 306.639 370.568 319.31 368.592 322.867Z" fill="#58434A"/>
<path d="M373.246 445.619L368.142 450.946C368.142 450.946 369.973 457.326 376.021 457.383L380.271 446.667L373.246 445.619Z" fill="#F7D9CE"/>
<path d="M386.286 382.141C382.179 373.484 378.517 373.268 378.517 373.268C364.648 369.719 363.369 367.247 362.553 366.751C361.736 366.255 361.494 367.338 361.494 367.338C356.209 373.171 350.615 367.338 350.615 367.338C348.012 369.175 342.063 370.246 335.492 372.242C328.92 374.238 327.252 377.485 327.252 377.485C323.09 383.891 321.59 417.265 321.59 417.265C320.759 420.431 295.128 417.6 295.128 417.6L293.697 421.086L292.463 424.093C304.616 428.753 327.029 429.751 327.029 429.751C325.922 435.522 329.471 435.966 329.471 435.966C346.262 439.17 361.546 438.335 369.455 437.5C372.707 437.156 374.71 436.815 375.059 436.748H375.091H375.117L372.294 445.955C374.958 450.619 380.061 450.392 380.061 450.392C396.376 427.422 399.149 415.547 399.593 412.109C400.036 408.671 390.392 390.811 386.286 382.141ZM378.644 426.833C378.644 426.833 375.468 398.918 375.216 398.329C375.565 398.786 386.645 413.472 386.609 413.878L378.642 426.825L378.644 426.833Z" fill="#FF8F52"/>
<path d="M368.592 322.867C368.592 322.867 364.122 318.394 360.123 326.551C359.184 328.502 357.97 330.308 356.52 331.915H356.508C361.22 324.051 360.704 320.131 363.452 317.441C366.201 314.751 368.592 322.867 368.592 322.867Z" fill="#442E36"/>
<path d="M345.776 354.402C345.776 354.388 345.766 354.376 345.76 354.364C345.711 354.112 345.611 353.872 345.465 353.66C343.772 349.502 344.229 348.385 344.229 348.385C344.079 348.374 343.929 348.353 343.782 348.323C343.172 348.182 342.598 347.918 342.094 347.546C341.591 347.174 341.169 346.703 340.856 346.161C339.227 343.449 339.108 341.743 339.537 340.68C339.218 341.285 337.785 343.302 333.274 341.561C335.073 345.268 338.92 347.958 340.235 348.52C342.566 349.529 340.815 356.927 344.066 356.011C345.506 355.608 345.843 354.981 345.772 354.41L345.776 354.402Z" fill="#331A24"/>
<path opacity="0.63" d="M388.16 416.489L387.756 417.066C387.13 417.988 386.437 418.865 385.683 419.687L383.723 421.833C383.209 422.395 382.667 422.926 382.11 423.434C380.803 424.613 378.773 426.692 378.65 426.819L386.617 413.872C386.653 413.468 375.573 398.78 375.224 398.323C375.468 398.912 378.652 426.827 378.652 426.827L375.123 436.732H375.097H375.065L363.545 438.103C369.796 432.861 367.9 391.035 368.787 390.703C369.419 390.467 376.637 395.59 380.281 400.107C380.281 400.107 385.205 406.897 388.077 410.851C388.67 411.667 388.997 412.648 389.012 413.657C389.027 414.666 388.729 415.655 388.16 416.489Z" fill="#DF6F2E"/>
<path d="M370.61 393.463L375.216 398.321L378.644 426.837C378.644 426.837 375.141 436.738 375.115 436.742L372.445 437.099C372.445 437.099 377.138 427.66 375.216 410.609C375.216 410.609 374.611 401.535 373.442 399.041C372.272 396.546 371.044 395.568 370.61 393.463Z" fill="#CD652B"/>
<path d="M249.811 416.182L241.872 377.606C241.825 377.381 241.83 377.148 241.884 376.925C241.939 376.701 242.043 376.493 242.188 376.315C242.333 376.137 242.516 375.993 242.724 375.894C242.931 375.796 243.158 375.745 243.388 375.745H283.786C284.144 375.745 284.491 375.869 284.768 376.097C285.044 376.324 285.234 376.64 285.304 376.991L293.128 416.182H249.811Z" fill="#089BAB"/>
<path d="M318.225 418.689H251.807C251.278 418.688 250.77 418.478 250.396 418.104C250.022 417.729 249.811 417.222 249.811 416.693C249.811 416.163 250.021 415.655 250.395 415.28C250.77 414.906 251.278 414.695 251.807 414.694H318.225C318.487 414.694 318.747 414.746 318.99 414.847C319.232 414.947 319.452 415.094 319.637 415.28C319.823 415.465 319.97 415.686 320.07 415.928C320.17 416.171 320.222 416.43 320.221 416.693C320.221 417.222 320.011 417.73 319.637 418.104C319.262 418.479 318.755 418.689 318.225 418.689Z" fill="#055D67"/>
<path d="M246.357 378.68L253.759 413.674H290.392L282.99 378.68H246.357Z" fill="#F3F9FF"/>
<path d="M255.675 378.68L248.502 388.823L249.436 393.231L260.087 378.68H255.675Z" fill="white"/>
<path d="M265.329 378.68L250.888 400.101L252.124 405.941L271.488 378.68H265.329Z" fill="white"/>
<path d="M278.064 378.68L253.759 413.674H265.91L284.419 385.432L282.99 378.68H278.064Z" fill="white"/>
<path d="M350.206 359.556C350.206 359.556 355.818 365.668 361.397 365.001V361.744C361.397 361.744 355.534 360.881 349.964 357.475L350.206 359.556Z" fill="#EFBEAF"/>
<path opacity="0.63" d="M330.245 390.134C330.245 390.134 329.913 407.334 327.019 429.751C327.019 429.751 304.606 428.753 292.453 424.093L293.687 421.087C299.035 422.932 320.068 429.711 323.359 423.426C327.14 416.219 327.36 387.585 330.245 390.134Z" fill="#FF8A47"/>
<path d="M368.592 322.867C368.592 322.867 372.359 328.11 373.164 334.361C373.164 334.351 372.817 325.73 368.592 322.867Z" fill="#EFBEAF"/>
<path d="M475.628 406.022C475.628 406.022 479.501 430.159 477.596 433.365C475.69 436.571 464.999 436.726 464.999 436.726L475.628 406.022Z" fill="#089BAB"/>
<path d="M437.349 441.469C432.842 447.434 430.933 443.673 430.933 443.673C430.35 441.705 429.586 439.729 429.465 437.68C428.642 423.664 427.65 411.668 427.65 410.908C427.65 410.03 420.508 405.447 419.439 403.85C418.37 402.253 411.913 399.615 412.18 398.658C412.446 397.7 420.044 399.803 421.762 401.025C423.48 402.247 427.543 404.05 429.86 404.324C432.177 404.598 431.719 403.201 432.812 401.138C433.905 399.075 435.893 399 436.48 399.281C437.067 399.561 435.875 400.325 435.46 403.533C435.221 405.655 434.373 407.662 433.018 409.313C432.481 409.95 432.614 411.145 432.614 411.145C432.931 418.203 434.873 423.089 435.752 424.962C436.012 425.519 436.179 425.809 436.179 425.809C436.179 425.809 441.856 435.502 437.349 441.469Z" fill="#F7D9CE"/>
<path d="M437.349 441.469C432.842 447.433 430.933 443.673 430.933 443.673C430.35 441.705 429.868 439.692 429.465 437.68C429.465 437.68 431.511 442.59 432.766 441.078C434.338 439.178 435.387 424.256 435.387 424.256C435.647 424.813 436.167 425.803 436.167 425.803C436.167 425.803 441.856 435.502 437.349 441.469Z" fill="#EFBEAF"/>
<path d="M467.747 347.692C467.747 347.692 454.666 342.001 455.352 358.544C456.037 375.087 461.637 381.808 456.546 385.881C451.454 389.954 455.324 395.453 457.564 396.77C459.804 398.087 466.729 386.285 466.729 386.285L467.747 347.692Z" fill="#4F3B43"/>
<path d="M466.068 348.607C466.068 348.607 457.972 348.049 455.832 356.449C455.832 356.449 455.227 359.506 454.687 360.575C454.146 361.643 447.048 365.997 448.043 367.372C449.037 368.747 450.944 368.671 450.791 370.046C450.638 371.421 449.722 376.079 452.09 377.305C454.457 378.531 463.013 379.291 463.241 382.346C463.468 385.401 461.18 393.421 461.18 393.421L468.969 394.796C468.969 394.796 478.517 382.651 477.525 379.291C476.533 375.932 474.087 350.496 474.087 350.496L466.068 348.607Z" fill="#F7D9CE"/>
<path d="M463.5 348.851C463.5 348.851 469.905 349.779 466.848 354.203C463.4 359.193 457.169 367.241 464.999 373.133C473.857 379.8 464.192 392.209 463.573 392.675C462.954 393.14 473.429 393.548 476.087 387.029C478.745 380.509 470.09 347.764 470.09 347.764L463.5 348.851Z" fill="#EFBEAF"/>
<path d="M498.402 384.048C496.561 389.291 492.038 391.449 487.714 392.249C486.459 392.479 485.187 392.614 483.911 392.652C481.942 392.73 479.971 392.61 478.025 392.296L481.252 383.951L484.444 375.684L477.086 349.311C478.348 348.905 479.694 348.836 480.992 349.109C483.887 349.714 487.541 352.319 488.823 361.113C491.068 376.513 502.372 372.746 498.402 384.048Z" fill="#443139"/>
<path d="M494.328 381.737C492.39 386.014 489.795 389.868 487.722 392.253C486.466 392.483 485.195 392.618 483.919 392.656C483.193 390.767 482.243 387.668 481.257 383.955C477.073 368.207 472.217 341.426 480.991 349.127C481.098 349.224 482.864 350.912 483.641 361.569C484.449 372.569 497.286 375.216 494.328 381.737Z" fill="#331A24"/>
<path d="M469.213 438.696C469.183 439.073 469.169 439.426 469.173 439.753C469.276 446.578 461.948 448.307 461.948 448.307L448.748 442.733L445.75 441.469L436.994 448.307C436.994 448.307 434.346 442.707 435.466 434.762C436.585 426.817 436.179 425.803 436.179 425.803C436.179 425.803 443.068 413.918 447.151 404.967C447.829 403.483 448.431 402.075 448.911 400.821C449.873 398.243 451.49 395.96 453.604 394.199C454.625 393.357 455.75 392.65 456.951 392.094C462.137 389.702 461.948 390.491 461.948 390.491C461.948 390.491 465.202 392.806 470.499 389.852C470.499 389.852 473.653 391.074 475.385 402.38C477.035 413.142 469.816 431.116 469.213 438.696Z" fill="#089BAB"/>
<path d="M456.133 430.449C455.237 435.327 452.269 439.432 448.748 442.733L445.75 441.469L436.994 448.307C436.994 448.307 436.269 446.77 435.736 444.167C435.114 441.07 435.023 437.89 435.466 434.762C436.589 426.819 436.18 425.803 436.18 425.803C436.18 425.803 443.068 413.918 447.151 404.967C447.151 404.967 453.687 411.266 455.836 420.453C456.629 423.728 456.73 427.133 456.133 430.449Z" fill="#9CD7DD"/>
<path d="M456.132 430.449C455.237 435.327 452.269 439.432 448.748 442.733L445.75 441.469L436.994 448.307C436.994 448.307 436.268 446.77 435.736 444.167C442.917 438.69 455.604 420.776 455.838 420.453C456.631 423.728 456.731 427.133 456.132 430.449Z" fill="#089BAB"/>
<path d="M469.213 438.696C469.183 439.073 469.169 439.426 469.173 439.753C469.276 446.578 461.948 448.307 461.948 448.307L445.75 441.469C445.75 441.469 451.753 437.01 456.132 430.449C455.943 430.816 451.426 439.64 456.132 440.235C460.95 440.848 469.213 438.696 469.213 438.696Z" fill="#263238"/>
<path d="M476.029 408.647L470.881 436.202L469.469 436.726L475.628 406.022L476.029 408.647Z" fill="#263238"/>
<path d="M442.287 564.606C442.287 564.606 441.4 568.866 441.666 571.829C441.932 574.791 436.941 587.571 435.873 588.386C434.804 589.2 431.9 591.695 426.395 591.898L426.756 590.648C426.756 590.648 430.789 586.807 432.715 581.358C434.641 575.91 434.288 561.908 434.288 561.908L442.287 564.606Z" fill="#F7D9CE"/>
<path d="M469.903 564.249C469.903 564.249 469.013 568.51 469.28 571.472C469.546 574.434 464.555 587.214 463.486 588.029C462.417 588.844 459.514 591.338 454.009 591.542L454.372 590.291C454.372 590.291 459.393 585.115 460.887 579.531C462.702 572.754 461.895 561.551 461.895 561.551L469.903 564.249Z" fill="#F7D9CE"/>
<path d="M441.13 574.039C440.951 574.833 440.714 575.613 440.42 576.372C439.519 578.503 438.053 580.455 436.791 582.401C435.42 584.506 434.169 586.682 432.758 588.773C432.048 589.84 431.233 590.683 429.856 590.908C429.221 591.008 428.575 591.018 427.936 590.939C427.545 590.89 427.13 590.662 426.761 590.648C426.436 590.634 426.126 590.834 425.86 590.981C424.835 591.546 423.902 592.247 422.883 592.822C421.994 593.324 421.028 593.649 420.111 594.094C419.824 594.234 419.419 594.411 419.328 594.734C419.195 595.21 419.731 595.679 420.135 595.867C421.345 596.434 423.101 596.121 424.385 596.093C427.116 596.03 429.963 596.155 432.671 595.748C433.56 595.613 434.47 595.397 435.04 594.699C436.105 593.401 436.418 591.497 437 590.001C437.494 588.739 438.085 587.43 439.083 586.434C439.834 585.71 440.726 585.151 441.705 584.793C442.048 584.663 442.207 584.563 442.382 584.891C442.671 585.432 442.469 586.367 442.499 586.96C442.558 588.156 442.798 594.173 442.812 594.603C442.812 594.776 442.741 595.222 442.84 595.371C442.967 595.572 442.804 595.452 443.157 595.5C443.328 595.524 444.177 595.564 444.326 595.46C444.546 595.304 444.389 594.09 444.391 593.752C444.391 592.558 444.426 591.365 444.496 590.172C444.621 587.884 444.697 585.518 445.248 583.276C445.709 581.431 446.256 579.868 446.095 577.943C446.008 576.924 445.798 575.852 445.234 574.964C444.427 573.686 442.864 572.746 441.658 571.829L441.13 574.039Z" fill="#282E5B"/>
<path d="M468.838 573.224C468.66 574.018 468.422 574.798 468.128 575.557C467.227 577.688 465.761 579.64 464.499 581.586C463.127 583.691 461.877 585.867 460.476 587.958C459.764 589.025 458.949 589.868 457.572 590.092C456.937 590.193 456.291 590.204 455.652 590.124C455.261 590.075 454.858 589.848 454.479 589.834C454.154 589.819 453.844 590.019 453.575 590.166C452.553 590.731 451.617 591.433 450.599 592.007C449.71 592.509 448.746 592.834 447.827 593.28C447.54 593.419 447.135 593.596 447.044 593.919C446.911 594.395 447.447 594.865 447.851 595.052C449.051 595.619 450.817 595.306 452.103 595.278C454.832 595.215 457.679 595.34 460.389 594.933C461.276 594.798 462.186 594.582 462.758 593.885C463.823 592.586 464.134 590.682 464.718 589.186C465.21 587.924 465.801 586.615 466.801 585.619C467.551 584.895 468.444 584.336 469.423 583.978C469.766 583.849 469.925 583.748 470.1 584.077C470.389 584.617 470.187 585.553 470.217 586.145C470.276 587.341 470.516 593.358 470.53 593.788C470.53 593.961 470.461 594.407 470.558 594.556C470.687 594.758 470.524 594.637 470.875 594.685C471.048 594.709 471.897 594.75 472.044 594.645C472.266 594.49 472.109 593.276 472.109 592.937C472.109 591.743 472.144 590.55 472.214 589.358C472.339 587.069 472.405 584.704 472.966 582.461C473.429 580.616 473.974 579.054 473.813 577.128C473.728 576.11 473.516 575.037 472.952 574.15C472.145 572.871 470.582 571.931 469.376 571.014L468.838 573.224Z" fill="#282E5B"/>
<path d="M470.814 475.515C468.774 489.59 466.882 511.111 467.543 514.503C467.558 514.563 467.568 514.632 467.58 514.705C467.6 514.828 467.624 514.971 467.648 515.134C467.673 515.297 467.691 515.434 467.715 515.608C467.713 515.628 467.713 515.648 467.715 515.668C468.8 523.819 472.151 562.813 471.574 564.729C470.883 564.979 468.651 565.572 465.154 565.572C463.91 565.572 462.668 565.505 461.432 565.37C461.173 565.34 460.909 565.31 460.639 565.273C456.626 564.795 452.663 563.959 448.799 562.775C448.799 562.775 450.327 519.75 450.021 512.111C449.867 508.28 449.678 504.651 449.524 501.979L449.51 501.745L449.478 501.18C449.432 500.357 449.387 499.65 449.351 499.087C449.337 498.837 449.321 498.615 449.311 498.426L449.301 498.289L449.289 498.087L449.278 497.918L449.264 497.744V497.607L441.632 509.379C441.632 509.379 444.076 526.174 444.687 539.005C445.298 551.836 444.229 565.61 444.229 565.61C444.229 565.61 440.833 566.731 434.3 566.479C430.075 566.287 425.878 565.68 421.772 564.664C421.772 564.664 421.925 511.353 425.9 501.884C428.902 494.721 438.892 465.739 443.443 450.603C443.443 450.603 443.443 450.603 443.443 450.591V450.581C443.449 450.567 443.454 450.552 443.457 450.537C443.473 450.48 443.499 450.388 443.536 450.267C444.947 445.564 445.814 442.265 445.742 441.481C445.742 441.481 447.153 441.804 449.349 442.104C454.376 442.792 463.496 443.379 469.165 439.765C469.165 439.765 470.185 442.616 472.22 447.2C474.254 451.783 474.664 455.856 472.22 467.261C471.768 469.395 471.288 472.252 470.814 475.515Z" fill="#5A434B"/>
<path d="M471.581 564.733C470.889 564.983 468.657 565.576 465.16 565.576C463.917 565.576 462.674 565.509 461.438 565.374C462.188 552.739 463.434 527.465 461.333 517.566C458.482 504.122 449.531 501.983 449.531 501.983L449.517 501.749L449.484 501.184L449.357 499.091L449.317 498.43L449.307 498.293L449.295 498.091L449.285 497.921L449.271 497.748V497.611L466.735 471.03C466.937 477.243 470.821 475.529 470.821 475.529C468.78 489.604 466.888 511.125 467.55 514.517C467.564 514.577 467.574 514.646 467.586 514.719C467.606 514.842 467.631 514.985 467.655 515.148C467.679 515.311 467.693 515.449 467.721 515.622C467.719 515.642 467.719 515.662 467.721 515.682C468.768 523.829 471.831 562.867 471.581 564.733Z" fill="#3F292C"/>
<path opacity="0.51" d="M467.366 474.17L449.531 501.975L449.264 497.597L466.729 471.018C466.729 471.018 466.87 472.932 467.366 474.17Z" fill="#110708"/>
<path d="M449.265 497.597L441.632 509.379C441.632 509.379 444.076 526.174 444.687 539.005C445.298 551.835 444.229 565.61 444.229 565.61C444.229 565.61 440.834 566.731 434.3 566.479C437.123 552.321 438.378 511.105 438.737 508.909C439.14 506.364 466.741 471.028 466.741 471.028L449.265 497.597Z" fill="#3F292C"/>
<path d="M449.357 442.092L448.752 442.733C448.752 442.733 445.846 445.629 443.455 450.579V450.569C443.461 450.555 443.466 450.54 443.469 450.525C443.485 450.468 443.511 450.375 443.548 450.254C443.935 448.934 445.328 444.096 445.754 441.469C445.75 441.469 447.161 441.791 449.357 442.092Z" fill="#3F292C"/>
<path d="M489.033 375.355C485.778 370.804 480.684 366.096 481.092 356.251C481.092 356.062 481.104 355.876 481.108 355.693C481.115 355.208 481.093 354.723 481.041 354.241V354.217C481.302 345.728 469.058 342.842 463.403 348.877L463.504 348.857C464.198 348.728 467.868 348.268 468.973 352.688C470.197 357.578 459.54 363.482 463.391 368.473C467.243 373.464 479.259 380.082 465.206 391.997C465.206 391.997 483.433 400.246 490.055 387.619C492.906 382.167 491.501 378.805 489.033 375.355Z" fill="#4F3B43"/>
<path d="M474.061 396.207C473.629 396.246 467.06 394.871 464.005 393.878L466.36 392.467C466.36 392.467 472.337 394.189 473.434 394.336L474.061 396.207Z" fill="#263238"/>
<path d="M463.801 368.975C463.946 369.143 469.733 379.189 465.711 385.095C465.711 385.095 469.155 381.887 467.89 373.23L463.801 368.975Z" fill="#331A24"/>
<path d="M454.291 335.93C453.168 335.05 452.325 332.3 452.325 332.3C455.319 328.893 456.884 324.464 456.695 319.932C456.506 315.401 454.577 311.117 451.31 307.972C448.042 304.826 443.688 303.062 439.153 303.045C434.618 303.029 430.251 304.761 426.96 307.883C423.67 311.004 421.71 315.274 421.488 319.803C421.266 324.333 422.798 328.774 425.767 332.203C428.736 335.631 432.912 337.783 437.427 338.21C441.942 338.638 446.448 337.308 450.008 334.498C450.008 334.498 455.414 336.809 454.291 335.93Z" fill="#FFB09B"/>
<path d="M378.027 307.33C379.15 306.451 379.991 303.701 379.991 303.701C376.994 300.294 375.426 295.863 375.614 291.329C375.801 286.796 377.729 282.509 380.996 279.361C384.264 276.213 388.619 274.445 393.156 274.427C397.694 274.408 402.063 276.14 405.356 279.261C408.65 282.382 410.612 286.653 410.837 291.185C411.061 295.717 409.53 300.16 406.561 303.592C403.592 307.023 399.415 309.178 394.898 309.607C390.381 310.037 385.872 308.709 382.31 305.898C382.31 305.898 376.904 308.215 378.027 307.33Z" fill="#7BC8D0"/>
<path d="M388.704 296.441L388.666 295.939C388.551 294.915 388.898 293.755 389.864 292.614C390.735 291.57 391.217 290.815 391.217 289.946C391.217 288.96 390.598 288.303 389.382 288.285C388.684 288.284 388.003 288.495 387.428 288.89L386.966 287.68C387.621 287.216 388.704 286.907 389.729 286.907C391.947 286.907 392.955 288.279 392.955 289.749C392.955 291.063 392.221 292.029 391.293 293.112C390.442 294.12 390.134 294.985 390.19 295.971L390.21 296.455L388.704 296.441ZM389.4 300.365C388.743 300.365 388.279 299.843 388.279 299.166C388.27 299.008 388.293 298.851 388.347 298.703C388.402 298.555 388.486 298.421 388.595 298.307C388.704 298.193 388.836 298.104 388.981 298.043C389.126 297.983 389.283 297.953 389.44 297.956C390.116 297.956 390.58 298.458 390.58 299.166C390.58 299.843 390.136 300.365 389.42 300.365H389.4Z" fill="white"/>
<path d="M396.034 300.357C395.377 300.357 394.913 299.835 394.913 299.157C394.904 299.003 394.927 298.848 394.981 298.702C395.034 298.557 395.117 298.423 395.224 298.311C395.331 298.199 395.46 298.11 395.603 298.049C395.746 297.989 395.899 297.958 396.054 297.96C396.75 297.96 397.196 298.462 397.196 299.157C397.196 299.853 396.75 300.357 396.054 300.357H396.034ZM395.397 296.395L395.127 287.119H396.982L396.712 296.395H395.397Z" fill="white"/>
<path d="M434.848 314.106L433.084 314.598L435.231 322.293L436.995 321.801L434.848 314.106Z" fill="white"/>
<path d="M439.158 312.903L437.173 313.457L439.32 321.152L441.305 320.598L439.158 312.903Z" fill="white"/>
<path d="M430.65 324.74C430.65 324.74 440.579 333.693 447.885 319.931C447.883 319.931 442.979 339.505 430.65 324.74Z" fill="white"/>
<g opacity="0.1">
<path opacity="0.1" d="M42.9143 536.896C42.8948 536.821 42.8485 536.756 42.7842 536.713C42.72 536.669 42.6421 536.651 42.5654 536.662C42.413 536.687 42.2686 536.748 42.144 536.839C41.5084 537.235 40.8414 537.577 40.1497 537.864C39.3615 538.192 38.5448 538.448 37.7098 538.628C37.1351 538.751 36.5342 538.846 36.0462 539.172C35.5583 539.499 35.2558 539.995 34.794 540.33C34.2677 540.713 33.6003 540.842 33.0236 541.136C32.0859 541.626 31.4386 542.548 31.0071 543.514C30.5756 544.48 30.3477 545.53 30.011 546.526C29.9243 546.834 29.7807 547.123 29.5875 547.377C29.348 547.625 29.0676 547.83 28.7588 547.982C25.0686 550.101 22.1045 553.469 20.1667 557.236C19.9912 557.577 19.8259 557.919 19.6666 558.266C20.1243 553.552 20.6889 548.807 21.3543 545.201C21.4822 545.19 21.6094 545.172 21.7355 545.147C22.3263 544.979 22.8929 544.736 23.4212 544.423C25.236 543.465 27.0649 542.499 28.6862 541.237C31.3923 539.132 33.4168 536.291 35.3969 533.49C35.5804 533.232 35.7518 532.847 35.5542 532.623C35.5416 532.608 35.5274 532.594 35.5119 532.583C33.9108 533.907 31.8943 534.46 29.8658 535.022C30.1098 533.98 30.1239 532.022 30.628 530.669C31.2279 529.135 31.6258 527.53 31.8117 525.894C31.9145 524.886 33.2938 523.44 32.9429 522.478C32.6546 521.682 30.3397 523.781 29.4706 524.648C28.6015 525.515 27.2283 527.396 25.8531 528.193C24.4778 528.989 22.6711 532.895 22.2436 534.486C21.8403 535.998 22.2033 538.743 22.2436 539.013L21.6568 539.523C21.0922 540.017 20.5115 540.531 20.1787 541.201C19.6948 542.185 19.8138 543.36 20.1223 544.413C20.2139 544.669 20.2715 544.935 20.2937 545.206C20.2888 545.424 20.2577 545.64 20.2009 545.851C19.4246 549.255 18.7572 552.679 18.2288 556.123C18.0111 551.017 17.7933 545.899 17.9969 540.834C18.0776 538.846 17.9707 536.765 16.9887 535.033C16.3838 533.968 15.4965 533.105 14.6174 532.256C12.4678 530.183 10.284 528.084 7.66866 526.644C7.4549 527.571 7.55931 528.542 7.96508 529.403C8.26956 530.042 8.72931 530.59 9.11042 531.185C10.4937 533.351 10.7841 536.037 11.8851 538.358C12.823 540.316 14.3086 541.961 16.162 543.092C16.6681 543.401 16.9807 543.562 17.1702 543.796C17.3597 544.03 17.4364 544.278 17.4928 544.77C17.6824 546.472 17.7066 548.198 17.757 549.912C17.8397 552.66 17.8881 555.411 17.9203 558.163C17.8558 558.636 17.794 559.112 17.7348 559.589C17.3199 557.978 16.7583 556.408 16.0571 554.899C15.7446 553.897 15.3812 552.911 14.9682 551.947C14.8452 551.662 14.9339 550.95 14.8856 550.622C14.7263 549.501 14.6033 548.279 13.6575 547.526C13.0154 546.998 12.342 546.51 11.6411 546.063C11.2136 544.135 8.41475 541.917 8.51154 540.856C8.60026 539.872 7.70495 539.015 7.25932 538.106C6.33981 536.202 4.82142 536.503 3.55307 535.061C3.21431 534.678 1.92176 532.427 1.27448 532.764C0.627197 533.101 0.851028 536.109 0.90144 536.456C1.06074 537.533 1.4116 538.942 2.41176 539.553C3.47847 540.205 3.86563 542.752 4.52702 544.048C3.07114 543.431 1.31884 541.812 1.18172 542.592C1.18172 542.592 3.78496 547.559 4.9908 547.994C6.19665 548.43 8.94709 549.682 9.76577 550.501C10.3949 551.13 12.4961 551.844 13.7684 552.098C14.8037 553.788 15.6273 555.599 16.2204 557.49C16.6237 559.44 17.0109 561.724 17.2872 563.983C17.2374 564.578 17.1917 565.174 17.15 565.769L17.1198 566.239C15.7083 559.625 12.246 557.367 12.246 557.367C12.119 553.213 8.75755 553.023 7.14237 553.023C5.52719 553.023 3.87571 552.295 2.79892 551.977C1.89958 551.713 1.3874 551.67 1.2281 551.957C1.19807 552.019 1.18354 552.089 1.18575 552.158C1.18575 552.664 3.95636 553.425 5.21867 554.187C5.37595 554.282 9.81417 557.262 10.401 557.5C10.9321 557.683 11.4788 557.818 12.0343 557.903C14.3169 559.077 15.5853 562.882 16.3132 564.973C16.7165 566.13 16.8879 568.363 16.9585 570.127C16.9585 570.339 16.9585 570.552 16.9484 570.764C16.9484 570.871 16.9484 570.978 16.9484 571.087H7.30369C7.30369 571.087 6.95483 581.258 10.4574 585.099C9.70729 585.24 4.79118 585.906 2.27666 585.666C-0.687526 585.373 0.0928392 586.134 0.0928392 586.134H17.4666H17.4303H17.4505H17.4666C17.5538 586.12 17.6391 586.097 17.7207 586.063C17.7638 586.044 17.8055 586.023 17.8457 585.998C21.7556 583.657 22.0702 574.66 22.0803 571.903C22.0803 571.393 22.0702 571.097 22.0702 571.097H18.9648C18.9931 569.964 18.985 568.677 18.9084 567.278C18.9669 566.499 19.0294 565.693 19.0939 564.858C19.1576 564.529 19.2425 564.206 19.348 563.888C20.1808 561.501 21.6266 557.159 24.2318 555.822C24.8653 555.728 25.4889 555.577 26.095 555.371C26.7645 555.1 31.8278 551.701 32.0093 551.592C33.441 550.723 36.6028 549.856 36.6028 549.275C36.6093 549.207 36.5988 549.139 36.572 549.077C36.5452 549.014 36.5031 548.96 36.4495 548.918C36.1934 548.738 35.643 548.813 34.7678 549.067C33.5378 549.428 31.6564 550.261 29.8113 550.261C27.9663 550.261 24.133 550.477 23.9878 555.215C23.9878 555.215 21.1789 557.046 19.3278 562.162C19.3581 561.813 19.3883 561.464 19.4206 561.113C19.7254 559.933 20.1198 558.778 20.6002 557.657C21.3045 556.011 22.2262 554.467 23.3405 553.066C24.2086 551.982 25.1977 551.002 26.2886 550.144C27.0604 549.544 27.8775 549.005 28.7325 548.531C29.3375 548.196 30.2872 547.486 30.9204 547.563C31.7754 547.666 32.6223 547.984 33.4813 547.722C34.0862 547.535 34.5883 547.089 35.0642 546.661C36.6169 545.266 38.22 543.919 39.6275 542.378C41.0349 540.838 42.2488 539.084 42.8941 537.097C42.9162 537.033 42.9231 536.964 42.9143 536.896ZM14.5629 552.201H14.6456C14.7565 552.185 14.9239 552.517 15.1255 553.11C14.9467 552.8 14.7592 552.496 14.5629 552.201ZM18.3781 559.662C18.3781 559.635 18.3781 559.607 18.3781 559.579C18.5797 557.579 18.8519 555.586 19.1423 553.614C19.5214 551.041 20.0074 548.484 20.4832 545.925C20.4978 545.783 20.5425 545.646 20.6143 545.522C20.6833 545.422 20.781 545.344 20.8946 545.3C20.0457 549.424 19.0011 554.905 18.3781 559.664V559.662Z" fill="black"/>
</g>
<path d="M371.678 255.161C373.478 254.1 375.027 252.686 375.531 250.724C376.444 247.185 373.041 244.697 370.064 243.731C366.62 242.614 362.315 242.459 358.962 243.933C356.927 244.83 354.957 246.21 353.677 248.022C353.368 248.445 353.082 248.884 352.82 249.337C352.495 247.419 351.873 245.563 350.977 243.836C349.864 241.658 347.934 239.331 345.218 239.378C342.703 239.42 341.027 242.126 340.051 244.052C339.262 245.608 338.662 247.253 338.265 248.952C337.68 247.206 336.182 245.524 334.998 244.516C334.01 243.675 332.669 242.961 331.32 243.153C329.707 243.382 328.537 244.461 327.729 245.794C326.783 247.357 326.334 249.363 326.366 251.299C322.914 249.377 317.056 251.172 316.396 255.146L371.678 255.161Z" fill="#E9F5FF"/>
<path d="M519.082 282.34C520.885 281.28 522.431 279.866 522.936 277.904C523.849 274.365 520.445 271.877 517.471 270.911C514.025 269.794 509.72 269.639 506.366 271.113C504.332 272.01 502.362 273.389 501.081 275.202C500.773 275.625 500.488 276.064 500.226 276.517C499.901 274.599 499.278 272.743 498.381 271.016C497.268 268.838 495.338 266.511 492.622 266.558C490.108 266.6 488.432 269.306 487.458 271.232C486.667 272.787 486.067 274.432 485.671 276.132C485.085 274.385 483.586 272.704 482.403 271.696C481.415 270.855 480.074 270.141 478.725 270.332C477.112 270.562 475.942 271.641 475.136 272.974C474.19 274.537 473.74 276.543 473.77 278.479C470.318 276.555 464.462 278.352 463.801 282.326L519.082 282.34Z" fill="#F3F9FF"/>
</svg>
