<svg width="16" height="16" viewBox="0 0 16 16" fill="none" xmlns="http://www.w3.org/2000/svg">
    <path d="M14.2934 7.36653L8.1667 13.4932C7.41613 14.2438 6.39815 14.6654 5.3367 14.6654C4.27524 14.6654 3.25726 14.2438 2.5067 13.4932C1.75613 12.7426 1.33447 11.7247 1.33447 10.6632C1.33447 9.60174 1.75613 8.58376 2.5067 7.8332L8.63336 1.70653C9.13374 1.20616 9.81239 0.925049 10.52 0.925049C11.2277 0.925049 11.9063 1.20616 12.4067 1.70653C12.9071 2.20691 13.1882 2.88556 13.1882 3.5932C13.1882 4.30084 12.9071 4.97949 12.4067 5.47987L6.27336 11.6065C6.02318 11.8567 5.68385 11.9973 5.33003 11.9973C4.97621 11.9973 4.63688 11.8567 4.3867 11.6065C4.13651 11.3563 3.99596 11.017 3.99596 10.6632C3.99596 10.3094 4.13651 9.97005 4.3867 9.71986L10.0467 4.06653" stroke="#A5A5A5" stroke-linecap="round" stroke-linejoin="round"/>
</svg>
