<svg width="400" height="286" viewBox="0 0 400 286" fill="none" xmlns="http://www.w3.org/2000/svg">
<path opacity="0.33" d="M16.6128 262.668C25.7123 262.668 33.0888 260.726 33.0888 258.331C33.0888 255.935 25.7123 253.993 16.6128 253.993C7.5133 253.993 0.136719 255.935 0.136719 258.331C0.136719 260.726 7.5133 262.668 16.6128 262.668Z" fill="#B4CDD6"/>
<path d="M197.723 285.531C264.021 285.531 317.766 281.27 317.766 276.014C317.766 270.758 264.021 266.497 197.723 266.497C131.425 266.497 77.6797 270.758 77.6797 276.014C77.6797 281.27 131.425 285.531 197.723 285.531Z" fill="white"/>
<path d="M292.385 83.6396H142.624V194.168H292.385V83.6396Z" fill="white"/>
<path fill-rule="evenodd" clip-rule="evenodd" d="M214.379 265.188V197.067C214.379 195.662 215.94 194.513 217.842 194.513C219.749 194.513 221.306 195.662 221.306 197.067V265.188C221.306 266.595 219.749 267.745 217.842 267.745C215.939 267.745 214.379 266.595 214.379 265.188Z" fill="#050B1B"/>
<path d="M217.539 85.0956H295.849V196.964H217.539V192.751H288.982V89.3097H217.539V85.0956ZM142.654 85.0956H217.539V89.3097H146.09V192.751H217.539V196.964H139.225V85.0956H142.654Z" fill="#C6E9EF"/>
<path fill-rule="evenodd" clip-rule="evenodd" d="M160.173 273.673L197.503 198.879H204.764L166.779 274.983C165.134 278.281 158.51 277.446 160.173 273.673Z" fill="#050B1B"/>
<path fill-rule="evenodd" clip-rule="evenodd" d="M275.518 273.672L238.189 198.879H230.926L268.911 274.983C270.332 277.859 277.13 276.909 275.518 273.672Z" fill="#050B1B"/>
<path d="M252.617 234.429H183.071V238.796H252.617V234.429Z" fill="#050B1B"/>
<path d="M233.015 116.696H222.363V178.107H233.015V116.696Z" stroke="#53729D" stroke-width="2" stroke-miterlimit="10"/>
<path d="M220.698 139.852H210.041V178.107H220.698V139.852Z" stroke="#6D8AB1" stroke-width="2" stroke-miterlimit="10"/>
<path d="M208.379 152.807H197.723V178.106H208.379V152.807Z" stroke="#86A1C5" stroke-width="2" stroke-miterlimit="10"/>
<path d="M196.059 140.944H185.405V178.108H196.059V140.944Z" stroke="#A2BBD9" stroke-width="2" stroke-miterlimit="10"/>
<path d="M183.739 151.531H173.084V178.106H183.739V151.531Z" stroke="#BED3ED" stroke-width="2" stroke-miterlimit="10"/>
<path d="M173.084 181.407H237.036V112.331" stroke="#53729D" stroke-width="2" stroke-miterlimit="10"/>
<path d="M237.037 110.807C237.304 111.524 237.758 112.413 238.24 112.965L237.037 112.53L235.834 112.965C236.316 112.413 236.771 111.524 237.037 110.807Z" fill="#53729D"/>
<path fill-rule="evenodd" clip-rule="evenodd" d="M137.615 195.533H298.138C300.043 195.533 301.602 196.517 301.602 197.716C301.602 198.917 300.043 199.9 298.138 199.9H137.615C135.708 199.9 134.15 198.917 134.15 197.716C134.15 196.517 135.708 195.533 137.615 195.533Z" fill="#342B1E"/>
<path fill-rule="evenodd" clip-rule="evenodd" d="M137.615 80.7325H298.138C300.043 80.7325 301.602 81.7163 301.602 82.916C301.602 84.1182 300.043 85.0994 298.138 85.0994H137.615C135.708 85.0994 134.15 84.1182 134.15 82.916C134.15 81.7125 135.708 80.7325 137.615 80.7325Z" fill="#342B1E"/>
<path d="M278.434 117.438H245.999C245.866 117.438 245.759 117.545 245.759 117.678V118.185C245.759 118.318 245.866 118.425 245.999 118.425H278.434C278.567 118.425 278.674 118.318 278.674 118.185V117.678C278.674 117.545 278.567 117.438 278.434 117.438Z" fill="#342B1E"/>
<path d="M278.434 119.838H245.999C245.866 119.838 245.759 119.946 245.759 120.078V120.586C245.759 120.718 245.866 120.826 245.999 120.826H278.434C278.567 120.826 278.674 120.718 278.674 120.586V120.078C278.674 119.946 278.567 119.838 278.434 119.838Z" fill="#342B1E"/>
<path d="M278.434 122.238H245.999C245.866 122.238 245.759 122.345 245.759 122.478V122.985C245.759 123.118 245.866 123.225 245.999 123.225H278.434C278.567 123.225 278.674 123.118 278.674 122.985V122.478C278.674 122.345 278.567 122.238 278.434 122.238Z" fill="#342B1E"/>
<path d="M278.434 124.637H245.999C245.866 124.637 245.759 124.744 245.759 124.877V125.385C245.759 125.517 245.866 125.625 245.999 125.625H278.434C278.567 125.625 278.674 125.517 278.674 125.385V124.877C278.674 124.744 278.567 124.637 278.434 124.637Z" fill="#342B1E"/>
<path d="M266.051 127.036H245.999C245.866 127.036 245.759 127.144 245.759 127.276V127.784C245.759 127.917 245.866 128.024 245.999 128.024H266.051C266.184 128.024 266.292 127.917 266.292 127.784V127.276C266.292 127.144 266.184 127.036 266.051 127.036Z" fill="#342B1E"/>
<path d="M98.7758 249.951L97.9042 265.387L96.8998 268.288L92.4447 267.069L91.9286 261.37L91.0039 251.16L98.7758 249.951Z" fill="#F6D6CB"/>
<path d="M98.1207 261.559L97.9044 265.387L96.9 268.292L92.4448 267.073L91.9287 261.374C93.5023 261.804 95.8286 262.179 98.1207 261.559Z" fill="#111751"/>
<path d="M116.711 245.973L115.786 259.124L115.337 265.512L109.658 266.456L109.393 259.414L109.035 249.884L116.711 245.973Z" fill="#F6D6CB"/>
<path d="M115.787 259.122L115.338 265.512L109.658 266.456L109.394 259.414C110.789 259.746 113.574 260.179 115.787 259.122Z" fill="#111751"/>
<path d="M122.103 208.775C120.079 221.18 117.022 250.603 117.022 250.603C114.705 252.183 112.484 252.263 110.85 251.957C109.921 251.793 109.029 251.465 108.216 250.987C106.626 242.786 105.262 212.321 105.195 210.807C105.195 211 105.174 211.253 105.14 211.553C104.834 214.369 103.292 221.236 103.292 221.236C100.463 228.65 99.0756 252.717 99.0756 252.717C92.1019 255.232 90.1817 251.913 90.1817 251.913C90.1817 251.913 86.8586 218.961 88.7105 214.607C90.5624 210.252 88.9129 189.449 87.8162 181.876C87.4443 179.31 87.4076 176.583 87.5227 174.098C87.6582 171.153 87.9985 168.221 88.541 165.324L93.3415 164.899L121.378 162.428C121.378 162.428 121.475 163.622 121.618 165.646C121.673 166.397 121.732 167.263 121.796 168.227C122.477 178.475 123.606 199.564 122.103 208.775Z" fill="#243B7F"/>
<path d="M121.864 169.24C121.864 169.24 105.57 175.084 100.116 174.911C94.6632 174.738 87.9728 183.013 87.9728 183.013C87.9728 183.013 86.7332 173.347 87.9728 171.269C89.2125 169.192 121.798 168.231 121.798 168.231L121.864 169.24Z" fill="#111751"/>
<path d="M108.216 250.986C106.614 242.722 105.242 211.839 105.194 210.778C105.189 211.037 105.171 211.296 105.141 211.553L105.194 210.749L111.364 174.56C111.364 174.56 112.981 181 109.525 199.766C106.516 216.104 109.92 244.804 110.849 251.953C109.921 251.79 109.029 251.463 108.216 250.986Z" fill="#111751"/>
<path d="M116.35 263.187C116.35 263.187 112.836 265.727 109.622 263.658C109.622 263.658 109.213 262.811 108.751 267.194C108.29 271.577 108.447 272.522 108.447 272.522C108.447 272.522 116.599 274.164 131.283 273.659C131.283 273.659 134.422 273.094 133.738 269.323C133.738 269.323 133.347 268.379 132.864 268.023C132.381 267.666 122.28 266.114 116.35 263.187Z" fill="#4E445C"/>
<path d="M108.417 271.766C108.417 271.766 129.148 273.482 133.404 272.119C133.404 272.119 133.39 272.316 132.604 274.562L108.4 273.976L108.417 271.766Z" fill="#0E0506"/>
<path opacity="0.32" d="M108.751 267.196C108.751 267.196 113.362 271.979 130.96 272.507C130.96 272.507 115.527 273.896 108.421 271.766L108.751 267.196Z" fill="#0E0506"/>
<path d="M97.9051 265.387C97.9051 265.387 95.4131 267.981 92.2001 265.912C92.2001 265.912 91.7903 265.064 91.3286 269.448C90.8669 273.833 91.0237 274.776 91.0237 274.776C91.0237 274.776 99.1764 276.418 113.86 275.913C113.86 275.913 117.001 275.347 116.315 271.576C116.315 271.576 115.926 270.633 115.441 270.277C114.957 269.921 103.834 268.312 97.9051 265.387Z" fill="#4E445C"/>
<path d="M90.9986 274.02C90.9986 274.02 111.73 275.735 115.986 274.373C115.986 274.373 115.971 274.569 115.187 276.816L90.9834 276.229L90.9986 274.02Z" fill="#0E0506"/>
<path opacity="0.32" d="M91.3292 269.45C91.3292 269.45 95.9399 274.232 113.538 274.761C113.538 274.761 98.1056 276.15 90.999 274.02L91.3292 269.45Z" fill="#0E0506"/>
<path d="M115.658 93.501C114.966 95.7829 113.836 96.6808 113.836 96.6808L110.837 85.3054C110.837 85.3054 115.41 81.0396 116.084 87.7047C116.339 90.2165 116.079 92.1157 115.658 93.501Z" fill="#4F3B43"/>
<path d="M99.0303 109.74C99.0303 109.74 100.099 116.868 99.4237 119.281C98.7482 121.695 106.62 121.582 107.239 120.011C107.239 120.011 106.509 115.521 107.239 111.76C107.968 107.999 99.0303 109.74 99.0303 109.74Z" fill="#F1B7AC"/>
<path d="M108.438 86.1287C108.438 86.1287 115.41 86.2789 114.89 98.1027C114.89 98.1027 114.439 99.4502 115.564 101.995C116.688 104.539 111.741 114.417 107.394 113.893C103.046 113.369 96.0735 110.75 93.7497 104.389C93.7497 104.389 89.7765 101.471 90.977 97.6544C92.1774 93.8382 108.438 86.1287 108.438 86.1287Z" fill="#F1B7AC"/>
<path d="M111.359 87.2867C111.359 87.2867 108.283 87.0644 106.917 89.9272C105.55 92.79 98.6361 99.1597 98.8044 101.517L98.7677 103.266L96.7994 100.833C96.7994 100.833 94.7477 97.6241 92.0963 99.781C89.445 101.938 92.7895 94.9633 92.7895 94.9633C92.7895 94.9633 108.844 82.0358 111.359 87.2867Z" fill="#EFBEAF"/>
<path d="M100.155 95.783C100.155 95.783 97.6058 97.4663 98.7632 103.266C98.7632 103.266 95.764 100.834 95.5389 96.6809C95.3137 92.5274 100.155 95.783 100.155 95.783Z" fill="#331A24"/>
<path d="M111.778 87.6113C111.778 87.6113 108.757 84.5957 106.058 90.0965C105.423 91.4121 104.603 92.6304 103.623 93.7145C100.933 96.6783 97.3724 98.0839 93.6876 98.4577C93.6876 98.4577 92.6402 98.6003 92.2013 99.5134C92.1826 99.5469 92.1669 99.5819 92.1544 99.6182C91.8104 100.464 91.9799 101.917 93.7483 104.382C93.7483 104.382 94.6717 106.751 95.8076 107.965C95.8076 107.965 97.404 109.341 95.2093 109.957C93.0146 110.573 94.1974 105.579 92.625 104.906C91.7396 104.527 89.1388 102.712 87.9219 100.213C86.9808 98.2745 86.8682 95.9194 89.0249 93.5112C91.8382 90.368 93.5788 83.8569 99.4267 81.2201C109.532 76.6677 113.112 85.2132 111.778 87.6113Z" fill="#58434A"/>
<path d="M96.3642 108.88L96.3529 108.853C96.3204 108.683 96.2527 108.522 96.1543 108.379C95.0158 105.575 95.3194 104.821 95.3194 104.821C95.2177 104.815 95.1166 104.801 95.0171 104.779C94.6051 104.684 94.2171 104.506 93.877 104.255C93.5369 104.005 93.252 103.687 93.0399 103.322C91.9394 101.492 91.8597 100.342 92.1544 99.6256C91.9381 100.039 90.9704 101.394 87.9219 100.22C89.1388 102.72 91.737 104.533 92.625 104.913C94.1986 105.586 93.0171 110.582 95.2093 109.964C96.1808 109.692 96.4085 109.27 96.3617 108.885L96.3642 108.88Z" fill="#331A24"/>
<path d="M99.3575 112.352C99.3575 112.352 103.152 116.474 106.917 116.026V113.83C106.917 113.83 102.956 113.248 99.1943 110.951L99.3575 112.352Z" fill="#F7908B"/>
<path d="M125.99 156.421C124.746 157.26 123.906 157.755 123.668 157.741C123.668 157.741 122.808 161.15 122.537 164.083C122.447 165.059 122.71 164.168 122.71 164.168C122.71 164.168 122.885 160.956 120.623 160.869C118.361 160.782 109.66 161.302 107.833 161.736C106.006 162.171 98.7823 165.47 94.2575 165.904C89.7328 166.337 89.6961 170.532 89.6961 170.532C89.6961 170.532 85.7949 169.062 85.4774 156.009C84.7174 150.883 84.2234 145.722 83.9974 140.545C83.6483 132.21 83.5243 124.535 87.2863 122.854C91.0483 121.173 98.2687 117.613 98.2687 117.613L103.895 119.554L110.362 117.613C110.362 117.613 118.698 118.385 119.992 119.496C123.096 122.159 126.451 144.34 126.451 144.34C126.451 144.34 125.068 146.887 146.299 133.511L150.035 138.191C150.035 138.191 132.496 152.03 125.99 156.421Z" fill="#FF8A47"/>
<path d="M95.874 118.778C95.874 118.778 99.6234 124.674 100.61 124.095C101.597 123.517 102.93 120.996 104.381 122.069C105.832 123.141 106.73 124.215 108.209 122.994C109.687 121.773 112.45 117.803 112.45 117.803C112.45 117.803 102.757 120.418 100.581 119.578C99.2605 119.07 97.8908 118.7 96.4939 118.475L95.874 118.778Z" fill="#E67225"/>
<path d="M124.022 159.154C124.221 160.358 124.286 162.184 123.449 164.02C122.225 166.707 121.796 168.229 121.796 168.229L107.818 171.206C105.816 171.632 103.779 171.881 101.733 171.95L87.5234 172.426C87.5234 172.426 87.7764 171.442 87.297 169.755C86.8681 168.251 86.1433 166.084 85.7297 162.985C85.4307 160.672 85.3439 158.337 85.4703 156.009C86.9478 160.438 88.9212 161.045 88.9212 161.045C93.5332 162.09 119.867 158.962 119.867 158.962C119.803 158.771 119.522 157.884 119.488 157.699C119.338 156.897 119.347 156.074 119.514 155.275C119.609 154.797 119.745 154.327 119.921 153.872C120.026 153.603 120.104 153.449 120.104 153.449C120.104 153.449 96.7019 153.576 95.5394 152.536C94.3769 151.497 93.7381 137.337 93.7381 137.337C93.7381 137.337 95.4787 148.802 96.368 150.887C97.1181 152.645 112.701 152.781 118.378 152.626C118.638 152.619 118.894 152.56 119.132 152.454C119.369 152.348 119.583 152.196 119.761 152.007C119.94 151.818 120.079 151.595 120.171 151.353C120.263 151.11 120.307 150.851 120.298 150.592C120.139 145.553 119.715 132.353 119.666 132.045C119.765 132.406 121.8 145.304 123.799 154.285C123.944 154.938 124.088 155.571 124.232 156.18C122.988 157.019 123.905 157.766 123.667 157.752C123.667 157.752 123.73 157.915 123.81 158.205C123.811 158.208 123.811 158.211 123.81 158.214C123.894 158.522 123.963 158.835 124.016 159.15L124.022 159.154Z" fill="#E67225"/>
<path d="M124.022 159.154C124.022 159.154 121.231 159.049 119.663 160.555C118.296 161.87 93.752 165.309 85.7297 162.985C85.4307 160.673 85.3439 158.338 85.4703 156.009C86.9478 160.438 88.9212 161.045 88.9212 161.045C93.5332 162.09 119.867 158.962 119.867 158.962C119.803 158.771 119.522 157.885 119.488 157.699C119.338 156.897 119.347 156.074 119.514 155.276C122.756 155.805 123.747 158.045 123.815 158.203C123.815 158.206 123.815 158.209 123.815 158.212L124.021 159.147L124.022 159.154Z" fill="#D15A18"/>
<path d="M146.955 134.991L148.961 137.955C148.961 137.955 149.482 136.754 151.491 135.713C153.5 134.673 157.347 130.225 157.749 129.904C157.913 129.778 158.002 129.273 158.022 128.682C158.05 127.958 158.005 127.233 157.888 126.519C157.87 126.423 157.85 126.334 157.83 126.266C157.782 126.063 157.764 125.853 157.779 125.645C157.822 124.688 158.261 123.306 158.392 122.181C158.551 120.78 157.749 121.221 157.749 121.221C156.311 122.075 155.625 126.198 155.583 126.454C155.583 126.458 155.583 126.463 155.583 126.467C155.583 126.467 152.254 129.471 151.853 129.27C151.452 129.07 152.054 128.068 152.415 127.467C152.775 126.866 152.575 124.665 152.054 124.184C151.533 123.703 151.492 126.548 150.41 127.846C149.327 129.144 148.806 130.599 149.087 131.959C149.251 132.761 148.605 133.614 147.975 134.216C147.666 134.512 147.324 134.772 146.955 134.991Z" fill="#F1B7AC"/>
<path d="M156.232 128.451C157.382 127.597 156.661 126.315 156.527 124.981C156.393 123.646 157.65 123.271 157.65 124.018C157.65 124.413 157.715 125.089 157.777 125.64C157.82 124.682 158.258 123.301 158.389 122.176C158.548 120.775 157.746 121.216 157.746 121.216C156.308 122.07 155.622 126.193 155.581 126.449C155.58 126.453 155.58 126.458 155.581 126.462C156.047 127.836 156.232 128.451 156.232 128.451Z" fill="#F7908B"/>
<path d="M146.955 134.991L148.961 137.955C148.961 137.955 149.482 136.754 151.491 135.713C153.5 134.673 157.347 130.225 157.749 129.904C157.913 129.778 158.002 129.273 158.022 128.682C156.981 129.393 155.189 132.415 152.975 133.549C151.427 134.319 149.666 134.549 147.972 134.203C147.665 134.504 147.323 134.768 146.955 134.991Z" fill="#F7908B"/>
<path d="M129.957 162.366L133.929 155.34C134.233 155.171 134.561 154.683 134.885 153.647L136.372 151.016L138.207 147.771L162.847 106.697C162.847 106.697 163.353 105.579 162.477 105.985C162.189 106.119 157.418 113.771 151.759 122.942C146.101 132.114 139.597 142.783 135.799 149.013L135.23 149.907L128.146 161.043C128.146 161.043 128.315 162.762 129.957 162.366Z" fill="#111751"/>
<path d="M129.957 162.366L133.929 155.34C134.234 155.171 134.561 154.683 134.885 153.646L136.373 151.016C134.874 151.277 135.204 150.006 135.234 149.912L128.15 161.048C128.15 161.048 128.315 162.762 129.957 162.366Z" fill="#010838"/>
<path d="M133.224 153.864C133.279 153.969 133.353 154.064 133.443 154.141C133.443 154.164 133.433 154.303 133.418 154.52C133.348 155.672 133.118 159.077 132.912 159.258C132.677 159.406 132.421 159.517 132.153 159.587C131.946 159.64 131.734 159.673 131.52 159.685C129.858 159.788 127.949 158.825 126.76 158.609C126.507 158.561 126.163 158.508 125.758 158.45L124.973 158.34L123.834 158.198L120.131 157.738L119.498 157.685C119.179 156.113 119.651 154.576 119.932 153.859C120.993 153.985 122.705 154.189 123.813 154.272C124.056 154.288 124.268 154.302 124.445 154.306C125.817 154.34 129.055 153.006 129.945 152.457C130.606 152.049 132.253 152.331 133.065 152.502C133.347 152.56 133.529 152.608 133.529 152.608L133.422 152.718C133.27 152.863 133.17 153.052 133.134 153.259C133.099 153.465 133.13 153.677 133.224 153.864Z" fill="#F1B7AC"/>
<path d="M121.436 155.864L121.203 157.872L122.775 158.063L123.046 155.834L121.436 155.864Z" fill="#100708"/>
<path d="M122.447 156.497C123.173 156.497 123.761 155.909 123.761 155.185C123.761 154.46 123.173 153.873 122.447 153.873C121.721 153.873 121.133 154.46 121.133 155.185C121.133 155.909 121.721 156.497 122.447 156.497Z" fill="#3E2A2C"/>
<path d="M98.4924 116.06L103.887 119.549L108.412 115.61L111.776 117.58L106.917 122.85C106.917 122.85 105.918 120.591 103.881 119.549C103.881 119.549 101.384 121.287 100.458 122.85L96.3584 118.333L98.4924 116.06Z" fill="white"/>
<path d="M170.849 107.143H173.954C175.807 107.143 177.399 107.82 177.399 109.957C177.399 112.028 175.781 112.927 174.006 112.927H173.093V115.61H170.849V107.143ZM173.901 111.155C174.786 111.155 175.206 110.712 175.206 109.957C175.206 109.201 174.711 108.915 173.849 108.915H173.09V111.155H173.901Z" fill="#F89739"/>
<path d="M178.787 107.143H181.032V113.735H184.243V115.61H178.787V107.143Z" fill="#F89739"/>
<path d="M187.089 107.143H189.804L192.388 115.604H190.013L189.048 111.487C188.839 110.68 188.63 109.651 188.415 108.804H188.363C188.181 109.664 187.972 110.68 187.764 111.487L186.797 115.604H184.5L187.089 107.143ZM186.358 112.081H190.512V113.818H186.362L186.358 112.081Z" fill="#F89739"/>
<path d="M193.072 107.143H195.368L197.248 110.921L198.056 112.823H198.109C198.004 111.91 197.822 110.634 197.822 109.592V107.143H199.962V115.604H197.665L195.786 111.815L194.977 109.921H194.924C195.029 110.885 195.213 112.11 195.213 113.152V115.6H193.072V107.143Z" fill="#F89739"/>
<path d="M170.332 118.426C171.874 118.3 173.417 118.185 174.961 118.078C176.504 117.971 178.051 117.887 179.595 117.806C182.687 117.644 185.78 117.515 188.874 117.436C191.968 117.358 195.066 117.361 198.16 117.455C199.707 117.501 201.254 117.582 202.796 117.717C204.338 117.852 205.879 118.053 207.381 118.426C205.874 118.073 204.332 117.905 202.791 117.779C201.25 117.652 199.704 117.577 198.157 117.539C195.064 117.458 191.97 117.487 188.876 117.563C185.782 117.639 182.691 117.741 179.6 117.89C178.055 117.964 176.509 118.048 174.964 118.142C173.419 118.237 171.875 118.331 170.332 118.426Z" fill="black"/>
<path d="M169.377 122.153C171.021 121.952 172.666 121.767 174.31 121.586C175.955 121.406 177.599 121.249 179.244 121.092C182.532 120.783 185.837 120.503 189.138 120.274C192.44 120.046 195.748 119.895 199.057 119.825C200.711 119.79 202.367 119.785 204.022 119.835C205.677 119.872 207.328 120.01 208.966 120.248C207.326 120.031 205.675 119.914 204.02 119.897C202.367 119.856 200.712 119.868 199.058 119.909C195.751 119.989 192.447 120.172 189.146 120.399C185.844 120.626 182.546 120.88 179.251 121.176C177.603 121.325 175.956 121.482 174.31 121.648C172.665 121.814 171.021 121.982 169.377 122.153Z" fill="black"/>
<path d="M369.744 69.678C382.305 69.678 392.488 59.3857 392.488 46.6896C392.488 33.9934 382.305 23.7012 369.744 23.7012C357.183 23.7012 347 33.9934 347 46.6896C347 59.3857 357.183 69.678 369.744 69.678Z" fill="#C6E9EF"/>
<path d="M369.744 67.1851C380.943 67.1851 390.021 58.0089 390.021 46.6895C390.021 35.3702 380.943 26.194 369.744 26.194C358.545 26.194 349.467 35.3702 349.467 46.6895C349.467 58.0089 358.545 67.1851 369.744 67.1851Z" fill="#F9FAFA"/>
<path d="M371.442 46.6896C371.438 47.0242 371.335 47.3501 371.145 47.6264C370.956 47.9026 370.689 48.1168 370.379 48.2421C370.068 48.3673 369.727 48.3979 369.399 48.3301C369.07 48.2623 368.77 48.0991 368.534 47.861C368.298 47.6229 368.139 47.3206 368.075 46.9921C368.011 46.6636 368.046 46.3236 368.176 46.0149C368.305 45.7062 368.523 45.4426 368.802 45.2573C369.081 45.0719 369.409 44.9732 369.744 44.9734C369.968 44.9747 370.19 45.0202 370.397 45.1071C370.604 45.1941 370.791 45.3209 370.949 45.4803C371.107 45.6397 371.231 45.8285 371.316 46.036C371.4 46.2435 371.443 46.4656 371.442 46.6896Z" fill="#C6E9EF"/>
<path d="M370.174 26.9429H369.358V30.6922H370.174V26.9429Z" fill="#C6E9EF"/>
<path d="M370.174 62.7097H369.358V66.459H370.174V62.7097Z" fill="#C6E9EF"/>
<path d="M389.314 47.1126V46.288H385.606V47.1126H389.314Z" fill="#C6E9EF"/>
<path d="M353.928 47.1126V46.288H350.219V47.1126H353.928Z" fill="#C6E9EF"/>
<path d="M369.317 46.0961L369.774 33.0991L370.231 46.0961H369.317Z" fill="#C6E9EF"/>
<path d="M369.246 46.9218L360.483 37.3976L369.892 46.2702L369.246 46.9218Z" fill="#C6E9EF"/>
<g opacity="0.47">
<path opacity="0.47" d="M399.864 148.782H340.268V262.619H399.864V148.782Z" fill="#4BB2B7"/>
<path opacity="0.47" d="M394.324 154.312V257.089H345.808V154.312H394.324ZM399.864 148.782H340.268V262.619H399.864V148.782Z" fill="#9DF7FC"/>
<path opacity="0.47" d="M396.83 204.552H343.412V210.082H396.83V204.552Z" fill="#9DF7FC"/>
<path opacity="0.47" d="M391.464 233.001H348.779V245.197H391.464V233.001Z" fill="white"/>
<path opacity="0.47" d="M391.464 235.766H348.779V236.557H391.464V235.766Z" fill="#D0E2E4"/>
<path opacity="0.47" d="M391.464 238.704H348.779V239.494H391.464V238.704Z" fill="#D0E2E4"/>
<path opacity="0.47" d="M391.464 241.754H348.779V242.544H391.464V241.754Z" fill="#D0E2E4"/>
<path opacity="0.47" d="M391.464 220.804H348.779V233.001H391.464V220.804Z" fill="white"/>
<path opacity="0.47" d="M391.464 223.57H348.779V224.361H391.464V223.57Z" fill="#D0E2E4"/>
<path opacity="0.47" d="M391.464 226.508H348.779V227.298H391.464V226.508Z" fill="#D0E2E4"/>
<path opacity="0.47" d="M391.464 229.557H348.779V230.348H391.464V229.557Z" fill="#D0E2E4"/>
<path opacity="0.47" d="M356.817 203.902V167.362H350.585V203.902H356.817Z" fill="#E5EAEE"/>
<path opacity="0.47" d="M358.845 204.494V166.77H356.817V204.494H358.845Z" fill="#668787"/>
<path opacity="0.47" d="M350.684 204.494V166.77H348.656V204.494H350.684Z" fill="#668787"/>
<path opacity="0.47" d="M367.006 203.903V167.363H360.773V203.903H367.006Z" fill="#E5EAEE"/>
<path opacity="0.47" d="M369.032 204.494V166.77H367.005V204.494H369.032Z" fill="#65566D"/>
<path opacity="0.47" d="M360.872 204.494V166.77H358.844V204.494H360.872Z" fill="#65566D"/>
<path opacity="0.47" d="M391.464 244.978H348.779V257.026H391.464V244.978Z" fill="#F89739"/>
<path opacity="0.47" d="M379.272 166.77H369.083V204.494H379.272V166.77Z" fill="#F89739"/>
<path opacity="0.47" d="M389.461 166.77H379.271V204.494H389.461V166.77Z" fill="#D0E2E4"/>
</g>
<path d="M51.012 228.053C50.2642 228.649 49.5921 229.334 49.0109 230.093C48.8237 228.493 48.6369 226.896 48.4505 225.303C48.3379 224.344 48.2279 223.362 48.4505 222.422C48.6124 221.738 48.9565 221.061 48.83 220.368C48.3297 220.926 48.0702 221.658 48.1077 222.406C47.77 221.135 47.6232 219.83 47.2994 218.556C46.887 216.934 46.567 214.594 46.3178 211.885C48.9932 207.844 50.7451 207.776 50.7451 207.776C50.7451 207.776 51.957 206.996 50.7451 207.219C49.7686 207.399 47.2033 210.033 46.2394 211.048C46.4291 210.847 46.0964 209.22 46.0749 208.901C46.021 208.116 45.9725 207.33 45.9295 206.544C45.8409 204.951 45.4488 203.352 45.9623 201.817C46.4884 200.246 47.2692 198.773 48.2734 197.455C48.1381 197.336 47.9445 197.506 47.8484 197.657C47.097 198.84 46.3802 200.043 45.698 201.268C45.5032 195.502 45.4268 189.735 45.469 183.967C45.1958 184.18 45.1692 184.577 45.1667 184.923L45.1186 189.959L43.3274 188.432L43.1794 188.652L44.7201 190.652C44.8748 190.82 44.9914 191.018 45.0619 191.235C45.1324 191.451 45.1552 191.68 45.1287 191.906L45.1641 198.392C43.6298 196.638 42.0106 194.823 39.8438 193.962C40.9519 194.402 42.0928 195.738 42.8796 196.6C43.77 197.588 44.5484 198.672 45.2008 199.83C45.2755 204.377 45.4222 209.019 45.6866 212.382C45.15 211.492 44.5638 210.634 43.9308 209.811C43.9308 209.811 43.2111 209.266 43.5336 209.638C43.7613 209.9 45.0364 212.082 45.7688 213.348C45.8017 213.7 45.8371 214.037 45.8725 214.35C46.2824 217.904 46.9123 221.449 47.4474 224.988L41.8892 217.972C41.5388 218.343 41.8816 218.934 42.2155 219.32C43.8235 221.176 45.3116 223.134 46.6707 225.179C47.0502 225.741 47.412 226.316 47.6346 226.955C47.8572 227.594 47.9319 228.302 47.9977 228.99C48.3911 233.077 48.7022 237.286 47.5081 241.214L49.4954 241.205C49.3705 238.027 49.2441 234.848 49.1159 231.67C49.095 231.437 49.11 231.202 49.1602 230.973C49.2297 230.758 49.3358 230.558 49.4739 230.379C49.824 229.885 50.2398 229.44 50.7097 229.057C50.8832 228.94 51.0281 228.786 51.1335 228.605C51.2334 228.414 51.198 228.148 51.012 228.053Z" fill="#4EBFC4"/>
<path d="M43.7604 213.618C43.7213 214.227 43.6483 214.833 43.5416 215.434C43.3202 216.727 42.9091 217.76 42.3487 218.581C42.2817 218.681 42.2121 218.778 42.14 218.871L42.1286 218.887L42.0021 219.049C41.9617 219.099 41.9199 219.148 41.8756 219.195C40.6916 220.519 39.0459 221.144 37.2408 221.381C34.2125 221.778 30.1925 217.213 30.1432 213.055C30.1305 212.027 30.3177 210.969 30.8655 210.088C30.8743 210.072 30.8844 210.056 30.8946 210.039L30.9869 209.903L31.0033 209.88L31.0198 209.855C31.5578 209.133 32.278 208.566 33.107 208.213C33.1335 208.199 33.1588 208.189 33.1854 208.178C35.0828 207.364 37.4723 207.431 39.2762 207.954C41.4962 208.598 42.7497 209.497 43.3443 210.784C43.7035 211.57 43.8199 212.505 43.7604 213.618Z" fill="#A5DDEA"/>
<path d="M42.3481 218.581C42.281 218.681 42.2115 218.778 42.1394 218.871L42.128 218.886L42.0015 219.049L30.9736 209.928C30.9778 209.919 30.9824 209.911 30.9875 209.903C30.9931 209.895 30.9981 209.887 31.0027 209.879L42.3481 218.581Z" fill="#4EBFC4"/>
<path d="M57.6747 193.088C57.6807 193.683 57.6178 194.276 57.4875 194.856C57.4774 194.909 57.4635 194.961 57.4496 195.014C57.3099 195.585 57.0933 196.133 56.8057 196.646C56.7741 196.701 56.7425 196.754 56.7096 196.809C56.4755 197.198 56.1994 197.561 55.8861 197.891C53.0222 200.913 48.0092 198.386 48.0092 198.386C47.9595 198.368 47.9113 198.346 47.865 198.32C47.8245 198.301 47.7765 198.275 47.7233 198.244L47.698 198.229L47.6803 198.219L47.5538 198.145L47.4982 198.111C47.4602 198.085 47.4185 198.06 47.3717 198.03C46.2889 197.312 44.2346 195.471 44.5357 192.261C44.5445 192.17 44.5546 192.078 44.5673 191.986C44.6309 191.518 44.7346 191.057 44.8772 190.607C44.9387 190.404 45.0122 190.206 45.0973 190.012C45.1239 189.946 45.1517 189.886 45.1833 189.818C45.4211 189.304 45.7354 188.829 46.1156 188.409C46.1535 188.365 46.1915 188.324 46.2345 188.283C46.5577 187.947 46.92 187.65 47.3135 187.399L47.4488 187.316C47.8902 187.053 48.36 186.841 48.8491 186.684C48.896 186.667 48.9453 186.652 48.9934 186.638C49.4512 186.498 49.9207 186.401 50.3962 186.346C50.4455 186.346 50.4949 186.333 50.5455 186.33C51.1079 186.271 51.6748 186.267 52.238 186.318L52.3847 186.333C52.7883 186.376 53.1879 186.449 53.5801 186.553C53.6294 186.566 53.6775 186.578 53.723 186.592C53.9299 186.65 54.1334 186.719 54.3327 186.799C54.3795 186.817 54.4276 186.836 54.4744 186.857L54.5554 186.893C54.5946 186.911 54.6338 186.927 54.6705 186.946C54.9323 187.067 55.1807 187.215 55.4117 187.388L55.4282 187.4C55.5951 187.526 55.7471 187.67 55.881 187.83C56.0669 188.054 56.236 188.291 56.387 188.54C56.4123 188.579 56.4364 188.619 56.4579 188.666C56.6503 188.99 56.8194 189.328 56.9638 189.676C56.9828 189.722 57.0005 189.768 57.0208 189.814C57.2055 190.284 57.3523 190.768 57.4597 191.262C57.4698 191.313 57.4799 191.362 57.4913 191.412C57.5906 191.915 57.6477 192.425 57.6621 192.937C57.6735 192.986 57.6747 193.038 57.6747 193.088Z" fill="#BBF2FF"/>
<path d="M44.2138 210.026C44.1967 210.052 44.1777 210.076 44.1569 210.098L43.9823 210.292V210.298C43.9684 210.312 43.9557 210.324 43.9418 210.336C43.764 210.51 43.5636 210.659 43.346 210.78C42.1089 211.466 40.5492 211.529 39.116 211.37C39.0098 211.359 38.9022 211.346 38.796 211.331C38.543 211.298 38.3001 211.259 38.0623 211.216C37.5867 211.129 37.087 211.028 36.5937 210.893C36.5013 210.867 36.409 210.841 36.3179 210.812C35.6686 210.631 35.0524 210.347 34.4926 209.972C34.4369 209.936 34.38 209.894 34.3269 209.846C33.9475 209.558 33.6297 209.197 33.3921 208.785C33.3655 208.738 33.3402 208.69 33.3149 208.64C33.3094 208.631 33.3043 208.622 33.2997 208.612C33.2352 208.486 33.1732 208.341 33.11 208.2C32.976 207.889 32.8594 207.571 32.7608 207.247C32.7457 207.198 32.733 207.148 32.7178 207.098C32.5891 206.646 32.501 206.183 32.4547 205.715C32.4547 205.665 32.4459 205.615 32.4421 205.565C32.3922 204.964 32.4348 204.359 32.5686 203.77C32.58 203.722 32.5913 203.677 32.6053 203.633C32.7152 203.21 32.8884 202.807 33.1188 202.436C33.1454 202.393 33.172 202.35 33.2011 202.309C33.404 202.009 33.6441 201.735 33.9158 201.495C33.9449 201.468 33.9765 201.442 34.0081 201.415C34.1182 201.323 34.2345 201.233 34.356 201.149L34.4281 201.101C34.4461 201.087 34.4651 201.075 34.485 201.064C34.7288 200.9 34.9823 200.75 35.244 200.616L35.2591 200.607L35.3616 200.555C35.4274 200.522 35.4881 200.49 35.5602 200.459C35.8271 200.335 36.1003 200.225 36.3786 200.13C36.4254 200.113 36.4722 200.098 36.5203 200.084C36.9254 199.952 37.3403 199.852 37.7612 199.785C37.8106 199.776 37.8586 199.769 37.9105 199.763C38.381 199.694 38.857 199.669 39.3323 199.688H39.4854C40.0371 199.718 40.5837 199.81 41.1146 199.963C41.1665 199.977 41.2171 199.993 41.2677 200.01C41.8062 200.176 42.3213 200.409 42.8008 200.704C42.8514 200.736 42.9008 200.767 42.9501 200.804C45.1284 202.361 46.0783 207.68 44.2138 210.026Z" fill="#5BC7D1"/>
<path d="M41.7446 192.434C41.7218 192.75 41.6952 193.024 41.6914 193.243C41.6826 193.63 41.5219 194.107 41.2221 194.597C41.2057 194.628 41.1867 194.655 41.1677 194.686L41.1526 194.711L41.0033 194.924L40.9881 194.947C39.9028 196.423 37.6132 197.873 34.5052 197.295C30.112 196.476 30.2233 191.645 30.8558 188.82C30.9228 188.51 31.0371 188.211 31.1948 187.936C31.1948 187.936 31.1948 187.936 31.1948 187.927C31.9538 186.625 33.5173 186.259 34.4837 186.159C34.7253 186.134 34.9302 186.127 35.077 186.126C35.2035 186.126 35.2844 186.126 35.3085 186.126C39.7029 186.505 41.1589 188.264 41.5978 189.994C41.8357 190.885 41.7964 191.752 41.7446 192.434Z" fill="#A5DDEA"/>
<path d="M43.5652 188.623V188.631C43.5209 188.733 43.4689 188.832 43.4096 188.927C43.0766 189.447 42.5572 189.821 41.9574 189.972C40.3648 190.429 34.9571 187.067 33.6909 184.211C33.2178 183.139 32.7738 181.821 33.1951 180.665C33.2429 180.535 33.3266 180.421 33.4367 180.336L33.4873 180.297C33.9553 179.979 34.7889 180.007 35.2772 180.037C36.0196 180.094 36.7468 180.278 37.4276 180.579C39.1125 181.295 40.59 182.508 41.8208 183.841C42.5001 184.572 43.6335 185.687 43.7752 186.745C43.8761 187.379 43.8036 188.027 43.5652 188.623Z" fill="#4EBFC4"/>
<path d="M56.1287 214.756C55.7884 217.483 51.8986 221.838 50.3592 221.931C49.6938 221.971 49.1752 221.805 48.7856 221.502C48.6735 221.415 48.5705 221.316 48.4782 221.209C48.1488 220.806 47.9334 220.322 47.8546 219.808C47.6901 218.899 48.3934 217.649 48.797 216.846C49.5306 215.386 50.5084 213.954 51.8101 212.869C52.3389 212.417 52.9367 212.052 53.581 211.788C54.0086 211.62 54.7423 211.351 55.2457 211.476C55.3857 211.508 55.512 211.583 55.6062 211.691C56.2906 212.519 56.2564 213.734 56.1287 214.756Z" fill="#5BC7D1"/>
<path d="M52.0154 178.86C52.0154 178.926 52.0155 178.986 52.0066 179.054C51.9531 179.862 51.7413 180.651 51.383 181.377C51.3475 181.45 51.3109 181.519 51.2742 181.593C51.2324 181.672 51.1894 181.751 51.1477 181.829C50.1357 183.627 48.318 184.817 46.2004 184.467C46.2004 184.467 45.9639 184.457 45.5844 184.4L45.4414 184.377L45.3807 184.368L45.1758 184.332C43.6907 184.049 41.0368 183.195 40.2981 180.656C40.2779 180.585 40.2589 180.513 40.2425 180.44C40.1905 180.224 40.1538 180.004 40.1324 179.783C40.1006 179.476 40.096 179.167 40.1185 178.859C40.1185 178.799 40.1286 178.74 40.1349 178.681C40.1808 178.237 40.2802 177.8 40.4309 177.38C40.4474 177.329 40.4663 177.276 40.4866 177.226C40.6398 176.83 40.8309 176.449 41.0571 176.089L41.1456 175.95C41.396 175.576 41.6788 175.224 41.9906 174.899C42.0248 174.862 42.0602 174.825 42.0956 174.791C42.3204 174.567 42.5582 174.356 42.8078 174.16C42.8799 174.103 42.952 174.046 43.0266 173.991L43.1531 173.896C43.5407 173.609 43.9482 173.351 44.3725 173.122L44.499 173.059C44.8535 172.874 45.224 172.723 45.6059 172.605C45.6527 172.589 45.7008 172.576 45.7488 172.564C46.0449 172.48 46.3489 172.429 46.6558 172.409H46.7292C46.8556 172.403 46.9822 172.403 47.1087 172.409H47.1289C47.37 172.424 47.6085 172.466 47.8398 172.536L47.9486 172.571C48.1948 172.658 48.4289 172.776 48.6456 172.922C48.7303 172.979 48.8138 173.038 48.8986 173.1C48.9391 173.131 48.9783 173.16 49.0162 173.191C49.352 173.458 49.664 173.754 49.9485 174.075L50.0522 174.191C50.3229 174.505 50.5759 174.832 50.8112 175.162C50.8441 175.207 50.8757 175.253 50.9061 175.298C50.9364 175.342 50.9655 175.381 50.9921 175.424C51.3448 175.953 51.6172 176.531 51.8004 177.14C51.8156 177.194 51.8308 177.246 51.8434 177.298C51.9744 177.808 52.0323 178.334 52.0154 178.86Z" fill="#A5DDEA"/>
<path d="M62.9022 224.136C62.9022 224.182 62.9022 224.228 62.9022 224.275C62.8959 224.5 62.8769 224.731 62.8465 224.967C62.8465 225.016 62.8339 225.066 62.8263 225.115C62.7774 225.441 62.7102 225.764 62.6252 226.083C62.6113 226.133 62.5986 226.182 62.5847 226.231C62.449 226.71 62.28 227.178 62.0787 227.633C62.0585 227.681 62.0357 227.726 62.0142 227.774C61.7971 228.253 61.5434 228.715 61.2552 229.155C61.2274 229.199 61.197 229.244 61.1679 229.288C60.8352 229.776 60.4537 230.229 60.0295 230.64L59.903 230.756C59.5293 231.104 59.1153 231.406 58.6697 231.656C58.6115 231.688 58.5546 231.718 58.4964 231.747C57.8167 232.101 57.0619 232.287 56.2953 232.29C54.1184 232.29 51.6049 231.056 50.9674 228.814L50.9446 228.734V228.716C50.9294 228.658 50.9142 228.599 50.8991 228.537C50.8997 228.532 50.8997 228.528 50.8991 228.523C50.8826 228.452 50.8674 228.382 50.8548 228.308C50.8521 228.298 50.85 228.287 50.8485 228.276C50.512 226.474 50.7827 224.386 51.6783 222.77C51.7762 222.593 51.887 222.425 52.0097 222.265C52.0679 222.189 52.1286 222.118 52.1944 222.047C52.5584 221.649 52.9922 221.32 53.4745 221.076C53.5302 221.046 53.5883 221.017 53.6465 220.989C54.0661 220.791 54.5036 220.632 54.9532 220.517L55.1341 220.469C55.6405 220.348 56.1532 220.255 56.6698 220.19L56.8418 220.167C57.0265 220.144 57.2086 220.124 57.3895 220.106C57.6916 220.074 57.9953 220.06 58.299 220.065H58.4698C58.9842 220.079 59.4945 220.16 59.9878 220.306C60.0371 220.321 60.0852 220.335 60.132 220.351C60.4915 220.471 60.8348 220.635 61.154 220.839L61.2805 220.922C61.5083 221.081 61.7201 221.262 61.913 221.461C61.9484 221.497 61.9826 221.532 62.0142 221.569C62.1359 221.702 62.2495 221.842 62.3545 221.989L62.3633 222.004C62.3678 222.009 62.3713 222.014 62.3735 222.02C62.6286 222.414 62.7904 222.862 62.8465 223.328C62.8465 223.372 62.8579 223.415 62.8643 223.462C62.8902 223.686 62.9028 223.911 62.9022 224.136Z" fill="#4EBFC4"/>
<path d="M43.565 188.623V188.63L43.4094 188.927L33.4365 180.34L33.4871 180.301L43.565 188.623Z" fill="#F3F9FF"/>
<path d="M55.5257 211.687L48.7278 221.437C48.5982 221.326 48.4789 221.204 48.3711 221.071L55.5257 211.687Z" fill="#6198BA"/>
<path d="M41.229 194.6L41.1682 194.686L41.1531 194.711L41.0038 194.924L40.9886 194.947L31.1953 187.946C31.1953 187.946 31.1953 187.946 31.1953 187.937L41.2188 194.601L41.229 194.6Z" fill="#F3F9FF"/>
<path d="M48.0787 197.514L47.9421 197.571C47.9155 197.508 46.0522 192.542 45.1035 190.01C45.1301 189.944 45.1579 189.883 45.1895 189.815C46.1155 192.285 48.0471 197.437 48.0787 197.514Z" fill="#F3F9FF"/>
<path d="M48.6121 196.676L48.5501 197.003L46.1201 188.407C46.1581 188.363 46.196 188.321 46.239 188.281L48.6121 196.676Z" fill="#F3F9FF"/>
<path d="M49.2082 195.919L49.1475 195.874L49.0691 196.103C49.0691 195.889 47.9584 190.456 47.3184 187.398L47.4537 187.315C49.2727 195.831 49.2335 195.883 49.2082 195.919Z" fill="#F3F9FF"/>
<path d="M47.5654 198.075L47.4984 198.108L47.4313 198.141L47.3769 198.027L44.5371 192.259C44.546 192.168 44.5561 192.075 44.5687 191.983L47.5654 198.075Z" fill="#F3F9FF"/>
<path d="M49.9761 194.938L49.8281 194.956L48.8604 186.683C48.9072 186.666 48.9565 186.65 49.0045 186.636L49.9761 194.938Z" fill="#F3F9FF"/>
<path d="M50.6986 193.881L50.5392 194.095C50.4798 191.728 50.4014 187.986 50.4014 186.351C50.4507 186.351 50.5 186.338 50.5506 186.335C50.5582 187.84 50.6354 191.356 50.6986 193.881Z" fill="#F3F9FF"/>
<path d="M52.3891 186.332L51.52 192.931L51.3936 193.035L52.2449 186.317L52.3891 186.332Z" fill="#F3F9FF"/>
<path d="M53.7278 186.591L52.7627 191.094L52.5615 191.318L53.5849 186.552C53.6342 186.565 53.6823 186.577 53.7278 186.591Z" fill="#F3F9FF"/>
<path d="M54.6757 186.945C54.4644 187.758 54.1912 188.785 54.0356 189.374L53.918 189.46C54.1216 188.695 54.3733 187.673 54.5605 186.892C54.5998 186.909 54.639 186.926 54.6757 186.945Z" fill="#F3F9FF"/>
<path d="M56.8066 196.644C56.775 196.7 56.7434 196.753 56.7105 196.807L48.019 197.905L48 197.757L56.8066 196.644Z" fill="#F3F9FF"/>
<path d="M57.4878 194.855C57.4777 194.908 57.4638 194.96 57.4499 195.013L48.8481 196.654L48.8203 196.509L57.4878 194.855Z" fill="#F3F9FF"/>
<path d="M57.6747 193.088L49.5196 195.605L49.4766 195.465L57.6735 192.939C57.6735 192.986 57.6747 193.038 57.6747 193.088Z" fill="#F3F9FF"/>
<path d="M57.5021 191.411C54.9507 192.486 50.6916 194.278 50.5449 194.28L50.5322 194.134C50.7283 194.095 54.8331 192.366 57.4642 191.261C57.4806 191.311 57.4908 191.356 57.5021 191.411Z" fill="#F3F9FF"/>
<path d="M57.0317 189.813L51.8896 192.429L51.8213 192.303L56.9747 189.68C56.9937 189.72 57.0114 189.767 57.0317 189.813Z" fill="#F3F9FF"/>
<path d="M56.4654 188.658L53.2715 190.44L53.3828 190.243L56.3946 188.538C56.4198 188.577 56.4439 188.618 56.4654 188.658Z" fill="#F3F9FF"/>
<path d="M52.191 222.042C51.8343 224.399 51.3979 227.293 51.2828 228.066C51.2651 228.186 51.255 228.254 51.2525 228.263L51.1045 228.246C51.1045 228.246 51.1045 228.211 51.1171 228.157C51.1994 227.607 51.6383 224.703 52.0026 222.262C52.0646 222.185 52.1265 222.114 52.191 222.042Z" fill="white"/>
<path d="M53.644 220.985L52.0641 227.639V227.663L51.8516 227.916L51.8958 227.73L53.4783 221.069C53.5263 221.042 53.5845 221.013 53.644 220.985Z" fill="white"/>
<path d="M55.1309 220.465C53.6484 225.274 53.1892 226.686 53.0323 227.106C52.9704 227.279 52.9564 227.284 52.9463 227.29L52.9147 227.222L52.7363 227.383C52.7439 227.367 52.7629 227.319 52.792 227.239C53.045 226.502 54.1076 223.189 54.95 220.513L55.1309 220.465Z" fill="white"/>
<path d="M56.8385 220.163L54.2377 226.446L54.1441 226.676L54.1226 226.726L54.0898 226.803L53.9885 226.761L53.9531 226.746L54.0303 226.561L56.6678 220.186L56.8385 220.163Z" fill="white"/>
<path d="M58.4676 220.063C57.6909 221.494 56.4197 223.901 55.4229 225.796C55.3837 225.87 55.347 225.942 55.3078 226.014L55.2458 226.14L55.0029 226.25C55.0181 226.223 55.0308 226.196 55.0459 226.169C55.0851 226.096 55.1231 226.02 55.1636 225.944C56.1161 224.133 57.4569 221.601 58.2956 220.067L58.4676 220.063Z" fill="white"/>
<path d="M60.1347 220.35L56.5447 225.182L56.3765 225.406L56.3575 225.432H56.3208L56.1943 225.454L56.3019 225.308L59.9905 220.298C60.0398 220.32 60.0879 220.334 60.1347 220.35Z" fill="white"/>
<path d="M61.2813 220.921L58.4769 224.122L58.3125 224.31L58.143 224.503L57.8584 224.601L57.9178 224.532L58.0949 224.332L61.1574 220.838L61.2813 220.921Z" fill="white"/>
<path d="M62.0145 221.567L60.9798 222.748L60.8988 222.84L60.8305 222.92L60.6484 222.983L60.5459 223.019L60.6003 222.956L61.9133 221.46C61.9487 221.495 61.9829 221.537 62.0145 221.567Z" fill="white"/>
<path d="M58.6729 231.651C58.6147 231.683 58.5578 231.713 58.4996 231.742L50.9642 228.72L50.944 228.711C50.9288 228.653 50.9136 228.594 50.8984 228.532L51.1261 228.623L58.6729 231.651Z" fill="white"/>
<path d="M60.0308 230.629L59.9043 230.746L51.968 228.123L51.7656 228.056L51.7808 228.008L51.8112 227.914L51.8959 227.943L52.1388 228.023L60.0308 230.629Z" fill="white"/>
<path d="M61.2522 229.149C61.2244 229.193 61.194 229.239 61.165 229.283L52.9541 227.552L52.8428 227.529L52.8706 227.403V227.389H52.887L53.14 227.442L61.2522 229.149Z" fill="white"/>
<path d="M62.082 227.626C62.0618 227.674 62.039 227.72 62.0175 227.768C59.6369 227.515 55.04 227.01 54.1141 226.871C54.0594 226.865 54.0053 226.854 53.9521 226.84L53.9876 226.763L54.0129 226.706C54.0312 226.711 54.0497 226.715 54.0685 226.718C54.0864 226.72 54.1042 226.723 54.1216 226.727L54.3152 226.754C55.484 226.909 59.6811 227.366 62.082 227.626Z" fill="white"/>
<path d="M62.6256 226.083C62.6117 226.132 62.5991 226.182 62.5851 226.231L55.6481 225.978H55.5381V225.893V225.831H55.6393L55.8809 225.84L62.6256 226.083Z" fill="white"/>
<path d="M62.8433 224.967C62.8433 225.016 62.8307 225.065 62.8231 225.115L57.2206 225.049H57.0131H56.9941L57.1877 224.93H57.4242L62.8433 224.967Z" fill="white"/>
<path d="M62.9031 224.136C62.9031 224.181 62.9031 224.228 62.9031 224.275L58.6263 224.227H58.4922L58.6845 224.108H58.8312L62.9031 224.136Z" fill="white"/>
<path d="M62.8682 223.465L59.9753 223.432H59.8652L59.9285 223.393L60.055 223.314H60.1815L62.8518 223.331C62.8556 223.376 62.8619 223.419 62.8682 223.465Z" fill="white"/>
<path d="M45.7092 183.228L45.6206 183.347C45.5725 183.311 42.3115 180.653 40.1143 178.862C40.1143 178.803 40.1244 178.744 40.1307 178.684L45.7092 183.228Z" fill="#F3F9FF"/>
<path d="M45.7876 182.55L45.6814 182.448L40.4268 177.384C40.4432 177.333 40.4622 177.28 40.4824 177.23L45.6687 182.234L45.7282 182.401L45.7876 182.55Z" fill="#F3F9FF"/>
<path d="M45.8816 181.282L45.8082 181.275L45.8537 181.509C45.7627 181.358 43.1328 178.409 41.0469 176.094L41.1354 175.956C45.8917 181.182 45.8853 181.242 45.8816 181.282Z" fill="#F3F9FF"/>
<path d="M45.5489 183.969L45.5185 184.017L45.4679 184.094L45.4401 184.077L45.3642 184.026L40.293 180.659C40.2727 180.589 40.2537 180.517 40.2373 180.444L45.4325 183.892L45.5489 183.969Z" fill="#F3F9FF"/>
<path d="M46.0443 180.052L45.9254 180.142L41.9863 174.904C42.0205 174.867 42.0559 174.83 42.0913 174.796L46.0443 180.052Z" fill="#F3F9FF"/>
<path d="M46.1368 178.765L46.109 179.031C45.2235 177.591 43.9674 175.551 43.0225 173.989L43.149 173.895C44.037 175.358 45.2134 177.273 46.1368 178.765Z" fill="#F3F9FF"/>
<path d="M46.3721 177.538L46.314 177.692L44.3672 173.119L44.4937 173.056L46.3721 177.538Z" fill="#F3F9FF"/>
<path d="M46.6975 175.477L46.6368 175.773L45.5957 172.603C45.6425 172.586 45.6906 172.574 45.7386 172.561L46.6975 175.477Z" fill="#F3F9FF"/>
<path d="M46.9653 173.306L46.9425 173.455C46.8552 173.137 46.7515 172.776 46.6465 172.407H46.7198C46.8135 172.748 46.8982 173.062 46.9653 173.306Z" fill="#F3F9FF"/>
<path d="M52.015 178.861C52.015 178.927 52.015 178.988 52.0061 179.056L45.5194 184.017L45.441 184.077L45.4182 184.094L45.3651 184.026L45.3271 183.976L45.4334 183.892L52.015 178.861Z" fill="#F3F9FF"/>
<path d="M51.3825 181.379C51.3471 181.453 51.3104 181.522 51.2737 181.595L45.4372 184.373L45.3904 184.396L45.3765 184.365L45.3271 184.262L51.3825 181.379Z" fill="#F3F9FF"/>
<path d="M51.8301 177.303L45.6748 182.653L45.5762 182.541L45.6837 182.448L45.7368 182.401L51.7897 177.145C51.8023 177.199 51.8175 177.251 51.8301 177.303Z" fill="#F3F9FF"/>
<path d="M50.9792 175.428L45.9193 180.922L45.8105 180.821L50.8894 175.3C50.9235 175.344 50.9526 175.385 50.9792 175.428Z" fill="#F3F9FF"/>
<path d="M50.0383 174.195C48.4015 176.372 46.3193 179.128 46.2169 179.191L46.1309 179.065C46.2574 178.951 48.2813 176.269 49.9346 174.074L50.0383 174.195Z" fill="#F3F9FF"/>
<path d="M49.0022 173.196L46.4976 177.086L46.3711 177.006L48.8833 173.105C48.925 173.136 48.9643 173.171 49.0022 173.196Z" fill="#F3F9FF"/>
<path d="M47.9383 172.576L46.7998 174.505L46.8276 174.286L47.8257 172.54L47.9383 172.576Z" fill="#F3F9FF"/>
<path d="M42.8766 209.185C42.8248 209.202 39.2842 210.162 36.5873 210.893C36.4949 210.868 36.4026 210.841 36.3115 210.812L42.8349 209.044L42.8766 209.185Z" fill="#F3F9FF"/>
<path d="M42.3673 208.53L34.4841 209.976C34.4284 209.939 34.3715 209.898 34.3184 209.85L42.0472 208.432L42.3673 208.53Z" fill="#F3F9FF"/>
<path d="M41.649 207.926C41.4504 207.911 36.5551 208.432 33.3838 208.792C33.3572 208.745 33.3319 208.697 33.3066 208.646C41.4024 207.702 41.4454 207.743 41.4783 207.772L41.4302 207.827L41.649 207.926Z" fill="#F3F9FF"/>
<path d="M43.3983 209.745L39.1101 211.37C39.0038 211.359 38.8963 211.346 38.79 211.331L43.3439 209.605L43.3983 209.745Z" fill="#F3F9FF"/>
<path d="M40.6289 207.073L32.752 207.253C32.7368 207.204 32.7242 207.155 32.709 207.104L40.6263 206.925L40.6289 207.073Z" fill="#F3F9FF"/>
<path d="M39.8568 206.277C37.638 206.128 34.2125 205.881 32.4492 205.722C32.4492 205.671 32.4403 205.622 32.4365 205.571C34.081 205.71 37.3079 205.94 39.6582 206.099L39.8568 206.277Z" fill="#F3F9FF"/>
<path d="M38.7179 205.147L32.5664 203.777C32.5778 203.729 32.5892 203.683 32.6031 203.639L38.6268 205.008L38.7179 205.147Z" fill="#F3F9FF"/>
<path d="M37.2705 203.745L33.1113 202.442C33.1379 202.399 33.1645 202.356 33.1936 202.316L37.0656 203.529L37.2705 203.745Z" fill="#F3F9FF"/>
<path d="M35.502 202.064C35.029 201.89 34.4572 201.686 33.9082 201.497C33.9373 201.471 33.9689 201.444 34.0005 201.418L35.4274 201.941L35.502 202.064Z" fill="#F3F9FF"/>
<path d="M43.2165 209.14H43.0685L42.7939 200.709C42.8445 200.741 42.8939 200.773 42.9432 200.809L43.2165 209.14Z" fill="#F3F9FF"/>
<path d="M42.0409 208.203L41.8929 208.218L41.1074 199.972C41.1593 199.986 41.2099 200.002 41.2605 200.019L42.0409 208.203Z" fill="#F3F9FF"/>
<path d="M41.0645 207.253L40.919 207.282L39.3252 199.69H39.4783L41.0645 207.253Z" fill="#F3F9FF"/>
<path d="M39.8398 206.061H39.6918C39.6716 205.886 38.5951 202.455 37.7539 199.791C37.8032 199.783 37.8513 199.775 37.9032 199.77C38.7355 202.398 39.8474 205.936 39.8398 206.061Z" fill="#F3F9FF"/>
<path d="M38.3457 204.695L38.2078 204.749L36.3711 200.132C36.4179 200.116 36.4647 200.101 36.5128 200.087L38.3457 204.695Z" fill="#F3F9FF"/>
<path d="M36.3609 202.83L36.1737 202.703L35.2363 200.62L35.2515 200.611L35.354 200.559L36.3609 202.83Z" fill="#F3F9FF"/>
<path d="M55.4331 187.399L47.8649 198.319C47.8244 198.3 47.7763 198.273 47.7232 198.243L47.6979 198.228L47.6802 198.218L47.5537 198.143L47.498 198.109L55.4167 187.388L55.4331 187.399Z" fill="#F3F9FF"/>
<path d="M60.3483 207.559C58.2649 210.323 54.1234 211.038 51.2886 208.997C50.8898 208.712 50.5424 208.362 50.2615 207.961L50.2387 207.93L50.2197 207.902L50.1843 207.851C50.1287 207.769 50.0781 207.684 50.03 207.598L50.0211 207.583C48.6777 205.204 49.5151 201.691 50.6688 199.375C51.8072 197.102 54.2006 195.524 56.7887 195.728C58.4331 195.854 59.65 196.8 60.457 198.127C60.4579 198.129 60.4579 198.132 60.457 198.135C60.5671 198.314 60.6683 198.501 60.7632 198.694C60.7897 198.752 60.8176 198.81 60.8441 198.869C62.1078 201.624 61.9105 205.484 60.3483 207.559Z" fill="#A5DDEA"/>
<path d="M60.4597 198.139L50.2578 207.96L50.2351 207.93L50.2161 207.902L50.1807 207.851C50.125 207.769 50.0744 207.684 50.0264 207.598L60.4546 198.127C60.4567 198.128 60.4584 198.13 60.4593 198.132C60.4602 198.135 60.4603 198.137 60.4597 198.139Z" fill="#F3F9FF"/>
<path d="M44.2141 210.027C44.197 210.052 44.178 210.076 44.1572 210.099L43.9826 210.292V210.298C43.9687 210.312 43.9561 210.325 43.9422 210.336L34.417 201.103C34.435 201.09 34.454 201.077 34.4739 201.067L44.2141 210.027Z" fill="#F3F9FF"/>
<path d="M47.1187 172.413L45.5805 184.41C45.454 184.393 45.3275 184.37 45.1719 184.342L47.0984 172.413H47.1187Z" fill="#F3F9FF"/>
<g opacity="0.34">
<path opacity="0.34" d="M43.7601 213.618C33.9934 216.358 33.1205 208.397 33.1016 208.209C33.1623 208.349 33.2281 208.487 33.29 208.618C33.2946 208.628 33.2997 208.637 33.3052 208.646C33.3305 208.697 33.3558 208.745 33.3824 208.791C33.62 209.204 33.9378 209.564 34.3172 209.852C34.3703 209.894 34.4272 209.935 34.4829 209.978C35.0428 210.353 35.6589 210.637 36.3082 210.818C36.3993 210.847 36.4917 210.874 36.584 210.899C37.0773 211.034 37.577 211.135 38.0526 211.222C38.2904 211.265 38.5358 211.304 38.7863 211.337C38.8926 211.352 39.0001 211.365 39.1063 211.376C40.5395 211.535 42.0992 211.472 43.3364 210.787C43.7032 211.57 43.8196 212.505 43.7601 213.618Z" fill="#5BC7D1"/>
</g>
<g opacity="0.34">
<path opacity="0.34" d="M41.7449 192.434C38.8165 192.159 35.7174 187.993 34.4941 186.171L35.0874 186.138C37.0101 188.173 40.132 189.979 41.6083 190.012C41.8359 190.885 41.7967 191.752 41.7449 192.434Z" fill="#5BC7D1"/>
</g>
<path d="M62.3723 222.023L50.9421 228.729C50.9244 228.661 50.9067 228.589 50.8903 228.518C50.8738 228.447 50.8586 228.376 50.8447 228.303L62.3558 221.989L62.3647 222.004C62.3682 222.01 62.3708 222.017 62.3723 222.023Z" fill="#6198BA"/>
<path d="M58.0162 241.103V245.594C58.0162 245.703 57.9946 245.811 57.9527 245.912C57.9108 246.013 57.8494 246.105 57.772 246.182C57.6946 246.26 57.6027 246.321 57.5016 246.363C57.4005 246.404 57.292 246.426 57.1826 246.426V255.403C57.1826 256.493 56.7489 257.538 55.977 258.309C55.205 259.08 54.1581 259.513 53.0664 259.513H43.6766C43.1358 259.513 42.6003 259.406 42.1007 259.2C41.601 258.993 41.1471 258.69 40.7647 258.308C40.3824 257.926 40.0791 257.473 39.8722 256.974C39.6654 256.475 39.559 255.941 39.5592 255.401V246.426C39.4497 246.426 39.3413 246.404 39.2402 246.363C39.139 246.321 39.0471 246.26 38.9697 246.182C38.8923 246.105 38.8309 246.013 38.789 245.912C38.7471 245.811 38.7256 245.703 38.7256 245.594V241.111C38.7259 240.731 38.8773 240.367 39.1465 240.098C39.4157 239.83 39.7808 239.679 40.1613 239.679H56.583C56.962 239.679 57.3256 239.829 57.5942 240.096C57.8628 240.363 58.0145 240.725 58.0162 241.103Z" fill="#5BC7D1"/>
<path d="M57.1863 246.426V255.404C57.1863 256.493 56.7526 257.539 55.9807 258.309C55.2088 259.08 54.1618 259.513 53.0701 259.513H49.1677C52.0607 259.318 53.0208 256.971 53.165 254.403C53.2915 252.188 53.671 247.998 50.8096 247.373L46.4746 246.426H57.1863Z" fill="#4BB2B7"/>
</svg>
