<svg width="20" height="20" viewBox="0 0 20 20" fill="none" xmlns="http://www.w3.org/2000/svg">
<g clip-path="url(#clip0)">
<path d="M14.1667 17.5V15.8333C14.1667 14.9493 13.8155 14.1014 13.1904 13.4763C12.5653 12.8512 11.7174 12.5 10.8334 12.5H4.16671C3.28265 12.5 2.43481 12.8512 1.80968 13.4763C1.18456 14.1014 0.833374 14.9493 0.833374 15.8333V17.5" stroke="#089BAB" stroke-width="1.5" stroke-linecap="round" stroke-linejoin="round"/>
<path d="M7.50008 9.16667C9.34103 9.16667 10.8334 7.67428 10.8334 5.83333C10.8334 3.99238 9.34103 2.5 7.50008 2.5C5.65913 2.5 4.16675 3.99238 4.16675 5.83333C4.16675 7.67428 5.65913 9.16667 7.50008 9.16667Z" stroke="#089BAB" stroke-width="1.5" stroke-linecap="round" stroke-linejoin="round"/>
<path d="M19.1667 17.5001V15.8334C19.1662 15.0948 18.9204 14.3774 18.4679 13.7937C18.0154 13.2099 17.3819 12.793 16.6667 12.6084" stroke="#089BAB" stroke-width="2" stroke-linecap="round" stroke-linejoin="round"/>
<path d="M13.3334 2.6084C14.0504 2.79198 14.6859 3.20898 15.1397 3.79366C15.5936 4.37833 15.8399 5.09742 15.8399 5.83757C15.8399 6.57771 15.5936 7.2968 15.1397 7.88147C14.6859 8.46615 14.0504 8.88315 13.3334 9.06673" stroke="#089BAB" stroke-width="2" stroke-linecap="round" stroke-linejoin="round"/>
</g>
<defs>
<clipPath id="clip0">
<path d="M0 2C0 0.895431 0.895431 0 2 0H18C19.1046 0 20 0.895431 20 2V18C20 19.1046 19.1046 20 18 20H2C0.895431 20 0 19.1046 0 18V2Z" fill="white"/>
</clipPath>
</defs>
</svg>
