<svg width="24" height="24" viewBox="0 0 24 24" fill="none" xmlns="http://www.w3.org/2000/svg">
<path d="M20.6004 5.00006C20.5216 4.99993 20.4435 5.01541 20.3708 5.04559C20.298 5.07578 20.2319 5.12007 20.1763 5.17593L6.97653 18.3757C6.86876 18.4891 6.80957 18.6402 6.81157 18.7966C6.81358 18.9531 6.87662 19.1025 6.98726 19.2132C7.09789 19.3238 7.24738 19.3869 7.40383 19.3889C7.56028 19.3909 7.71133 19.3317 7.82477 19.2239L21.0245 6.02416C21.1084 5.94025 21.1655 5.83337 21.1886 5.71702C21.2117 5.60067 21.1998 5.48008 21.1544 5.37048C21.1091 5.26088 21.0322 5.16719 20.9336 5.10126C20.835 5.03533 20.719 5.00011 20.6004 5.00006Z" fill="#858383"/>
<path d="M13.9878 7.39999C12.432 7.39999 10.9316 7.86048 9.52841 8.76871C8.25081 9.5937 7.10071 10.7753 6.20222 12.1811V12.1841C6.94996 13.2555 7.76894 14.1615 8.64868 14.892C8.65664 14.8986 8.66313 14.9069 8.66774 14.9161C8.67236 14.9254 8.67499 14.9356 8.67549 14.9459C8.67598 14.9563 8.67432 14.9667 8.67061 14.9763C8.6669 14.986 8.66122 14.9948 8.65393 15.0022L7.90694 15.7481C7.89367 15.7615 7.87584 15.7694 7.85701 15.7702C7.83818 15.771 7.81972 15.7647 7.80532 15.7526C6.87084 14.9651 6.00348 13.9991 5.21487 12.8681C5.07919 12.6734 5.00447 12.4427 5.00019 12.2054C4.99592 11.9681 5.06229 11.7349 5.19087 11.5354C6.18122 9.98557 7.45583 8.68022 8.8763 7.76111C10.4756 6.72501 12.1969 6.20002 13.9878 6.20002C14.9545 6.20302 15.9144 6.36232 16.8303 6.67176C16.8424 6.67585 16.8532 6.68297 16.8618 6.69242C16.8703 6.70188 16.8763 6.71336 16.8792 6.72579C16.8821 6.73821 16.8818 6.75117 16.8783 6.76344C16.8748 6.7757 16.8682 6.78687 16.8591 6.79588L16.0499 7.60511C16.0313 7.62329 16.0082 7.6363 15.9831 7.64287C15.9579 7.64945 15.9314 7.64936 15.9063 7.64261C15.2796 7.48123 14.635 7.39971 13.9878 7.39999Z" fill="#858383"/>
<path d="M22.8069 12.8523C21.8147 14.3868 20.5273 15.6903 19.0843 16.6221C17.488 17.6541 15.7255 18.1997 13.9878 18.1997C13.0314 18.198 12.082 18.0354 11.1795 17.7186C11.1675 17.7144 11.1567 17.7072 11.1482 17.6977C11.1397 17.6882 11.1338 17.6767 11.131 17.6643C11.1282 17.6519 11.1286 17.639 11.1321 17.6268C11.1357 17.6145 11.1423 17.6034 11.1514 17.5945L11.9595 16.7864C11.9783 16.7679 12.0017 16.7547 12.0272 16.7481C12.0527 16.7415 12.0796 16.7418 12.105 16.7489C12.7188 16.9149 13.3519 16.9993 13.9878 16.9997C15.5137 16.9997 17.0095 16.5336 18.4334 15.6123C19.735 14.7723 20.8986 13.5918 21.7993 12.1998C21.8 12.199 21.8003 12.1979 21.8003 12.1968C21.8003 12.1957 21.8 12.1947 21.7993 12.1938C21.1455 11.1645 20.3341 10.2442 19.3948 9.4665C19.3868 9.45987 19.3802 9.45164 19.3755 9.44233C19.3709 9.43302 19.3682 9.42284 19.3676 9.41243C19.3671 9.40202 19.3687 9.39162 19.3725 9.38188C19.3762 9.37214 19.3819 9.36329 19.3892 9.35588L20.1355 8.61002C20.1487 8.59669 20.1664 8.58879 20.1851 8.58789C20.2039 8.58698 20.2223 8.59314 20.2367 8.60514C21.2394 9.44944 22.1074 10.4418 22.8106 11.5481C22.9349 11.743 23.0007 11.9696 23 12.2007C22.9993 12.4319 22.9323 12.6581 22.8069 12.8523Z" fill="#858383"/>
<path d="M14.0006 15.7998C13.731 15.7999 13.4622 15.7698 13.1993 15.7098C13.186 15.707 13.1737 15.7007 13.1637 15.6916C13.1538 15.6824 13.1465 15.6707 13.1426 15.6577C13.1388 15.6446 13.1385 15.6308 13.1419 15.6177C13.1453 15.6046 13.1521 15.5926 13.1618 15.5831L17.3838 11.3621C17.3934 11.3525 17.4053 11.3456 17.4185 11.3422C17.4316 11.3389 17.4454 11.3391 17.4584 11.343C17.4714 11.3468 17.4831 11.3541 17.4923 11.3641C17.5015 11.3741 17.5078 11.3864 17.5106 11.3996C17.6308 11.9269 17.6307 12.4744 17.5102 13.0016C17.3898 13.5287 17.1522 14.022 16.815 14.4448C16.4778 14.8675 16.0496 15.2088 15.5624 15.4434C15.0752 15.678 14.5414 15.7998 14.0006 15.7998Z" fill="#858383"/>
<path d="M10.6174 13.0376C10.6079 13.0472 10.5959 13.0541 10.5828 13.0575C10.5696 13.0608 10.5558 13.0606 10.5428 13.0567C10.5298 13.0529 10.5181 13.0456 10.5089 13.0356C10.4997 13.0256 10.4934 13.0133 10.4907 13.0001C10.3547 12.4059 10.3717 11.787 10.5403 11.2013C10.7088 10.6156 11.0233 10.0823 11.4543 9.65129C11.8853 9.22032 12.4186 8.90582 13.0043 8.73728C13.59 8.56873 14.209 8.55165 14.8031 8.68765C14.8164 8.6904 14.8286 8.69671 14.8386 8.7059C14.8486 8.71508 14.8559 8.7268 14.8597 8.7398C14.8636 8.75281 14.8638 8.76661 14.8605 8.77975C14.8571 8.79288 14.8502 8.80486 14.8406 8.81439L10.6174 13.0376Z" fill="#858383"/>
</svg>
