<svg width="20" height="20" viewBox="0 0 20 20" fill="none" xmlns="http://www.w3.org/2000/svg">
<path d="M12.6976 9.49885C12.6976 10.9574 11.4877 12.1398 9.99511 12.1398C8.50255 12.1398 7.29259 10.9574 7.29259 9.49885C7.29259 8.04028 8.50255 6.8579 9.99511 6.8579C11.4877 6.85788 12.6976 8.04029 12.6976 9.49885ZM10 4C8.45463 4.00699 6.85279 4.39073 5.33644 5.12541C4.21057 5.69338 3.11335 6.49469 2.16091 7.48376C1.69312 7.98864 1.09646 8.7197 1 9.4997C1.0114 10.1754 1.72195 11.0093 2.16091 11.5157C3.05405 12.4659 4.1227 13.2448 5.33644 13.8746C6.7505 14.5746 8.31568 14.9776 10 15C11.5468 14.9929 13.1483 14.6047 14.663 13.8746C15.7889 13.3066 16.8866 12.5047 17.8391 11.5157C18.3069 11.0108 18.9035 10.2797 19 9.4997C18.9886 8.82404 18.278 7.99005 17.8391 7.48373C16.9459 6.53351 15.8767 5.75516 14.663 5.12538C13.2497 4.42593 11.6806 4.02569 10 4ZM9.99886 5.36549C12.3406 5.36549 14.239 7.21668 14.239 9.5003C14.239 11.7839 12.3406 13.6351 9.99886 13.6351C7.65708 13.6351 5.75873 11.7839 5.75873 9.5003C5.75873 7.21668 7.65708 5.36549 9.99886 5.36549Z" fill="#404040"/>
</svg>
