<svg width="20" height="20" viewBox="0 0 20 20" fill="none" xmlns="http://www.w3.org/2000/svg">
<mask id="path-1-inside-1" fill="white">
<path d="M12.25 13.5C12.4489 13.5 12.6397 13.579 12.7803 13.7197C12.921 13.8603 13 14.0511 13 14.25C13 14.4489 12.921 14.6397 12.7803 14.7803C12.6397 14.921 12.4489 15 12.25 15H7.75C7.55109 15 7.36032 14.921 7.21967 14.7803C7.07902 14.6397 7 14.4489 7 14.25C7 14.0511 7.07902 13.8603 7.21967 13.7197C7.36032 13.579 7.55109 13.5 7.75 13.5H12.25ZM14.25 9.25C14.4489 9.25 14.6397 9.32902 14.7803 9.46967C14.921 9.61032 15 9.80109 15 10C15 10.1989 14.921 10.3897 14.7803 10.5303C14.6397 10.671 14.4489 10.75 14.25 10.75H5.75C5.55109 10.75 5.36032 10.671 5.21967 10.5303C5.07902 10.3897 5 10.1989 5 10C5 9.80109 5.07902 9.61032 5.21967 9.46967C5.36032 9.32902 5.55109 9.25 5.75 9.25H14.25ZM16.25 5C16.4489 5 16.6397 5.07902 16.7803 5.21967C16.921 5.36032 17 5.55109 17 5.75C17 5.94891 16.921 6.13968 16.7803 6.28033C16.6397 6.42098 16.4489 6.5 16.25 6.5H3.75C3.55109 6.5 3.36032 6.42098 3.21967 6.28033C3.07902 6.13968 3 5.94891 3 5.75C3 5.55109 3.07902 5.36032 3.21967 5.21967C3.36032 5.07902 3.55109 5 3.75 5H16.25Z"/>
</mask>
<path d="M12.25 13.5C12.4489 13.5 12.6397 13.579 12.7803 13.7197C12.921 13.8603 13 14.0511 13 14.25C13 14.4489 12.921 14.6397 12.7803 14.7803C12.6397 14.921 12.4489 15 12.25 15H7.75C7.55109 15 7.36032 14.921 7.21967 14.7803C7.07902 14.6397 7 14.4489 7 14.25C7 14.0511 7.07902 13.8603 7.21967 13.7197C7.36032 13.579 7.55109 13.5 7.75 13.5H12.25ZM14.25 9.25C14.4489 9.25 14.6397 9.32902 14.7803 9.46967C14.921 9.61032 15 9.80109 15 10C15 10.1989 14.921 10.3897 14.7803 10.5303C14.6397 10.671 14.4489 10.75 14.25 10.75H5.75C5.55109 10.75 5.36032 10.671 5.21967 10.5303C5.07902 10.3897 5 10.1989 5 10C5 9.80109 5.07902 9.61032 5.21967 9.46967C5.36032 9.32902 5.55109 9.25 5.75 9.25H14.25ZM16.25 5C16.4489 5 16.6397 5.07902 16.7803 5.21967C16.921 5.36032 17 5.55109 17 5.75C17 5.94891 16.921 6.13968 16.7803 6.28033C16.6397 6.42098 16.4489 6.5 16.25 6.5H3.75C3.55109 6.5 3.36032 6.42098 3.21967 6.28033C3.07902 6.13968 3 5.94891 3 5.75C3 5.55109 3.07902 5.36032 3.21967 5.21967C3.36032 5.07902 3.55109 5 3.75 5H16.25Z" fill="#404040"/>
<path d="M5 10H3.5H5ZM16.25 5V3.5V5ZM16.25 6.5V8V6.5ZM3.75 6.5V8V6.5ZM3.75 5V3.5V5ZM12.25 15C12.0511 15 11.8603 14.921 11.7197 14.7803L13.841 12.659C13.419 12.2371 12.8467 12 12.25 12V15ZM11.7197 14.7803C11.579 14.6397 11.5 14.4489 11.5 14.25H14.5C14.5 13.6533 14.2629 13.081 13.841 12.659L11.7197 14.7803ZM11.5 14.25C11.5 14.0511 11.579 13.8603 11.7197 13.7197L13.841 15.841C14.2629 15.419 14.5 14.8467 14.5 14.25H11.5ZM11.7197 13.7197C11.8603 13.579 12.0511 13.5 12.25 13.5V16.5C12.8467 16.5 13.419 16.2629 13.841 15.841L11.7197 13.7197ZM12.25 13.5H7.75V16.5H12.25V13.5ZM7.75 13.5C7.94892 13.5 8.13968 13.579 8.28033 13.7197L6.15901 15.841C6.58097 16.2629 7.15326 16.5 7.75 16.5V13.5ZM8.28033 13.7197C8.42098 13.8603 8.5 14.0511 8.5 14.25H5.5C5.5 14.8467 5.73705 15.419 6.15901 15.841L8.28033 13.7197ZM8.5 14.25C8.5 14.4489 8.42098 14.6397 8.28033 14.7803L6.15901 12.659C5.73705 13.081 5.5 13.6533 5.5 14.25H8.5ZM8.28033 14.7803C8.13968 14.921 7.94892 15 7.75 15V12C7.15326 12 6.58097 12.2371 6.15901 12.659L8.28033 14.7803ZM7.75 15H12.25V12H7.75V15ZM14.25 10.75C14.0511 10.75 13.8603 10.671 13.7197 10.5303L15.841 8.40901C15.419 7.98706 14.8467 7.75 14.25 7.75V10.75ZM13.7197 10.5303C13.579 10.3897 13.5 10.1989 13.5 10H16.5C16.5 9.40326 16.2629 8.83096 15.841 8.40901L13.7197 10.5303ZM13.5 10C13.5 9.80108 13.579 9.61032 13.7197 9.46967L15.841 11.591C16.2629 11.169 16.5 10.5967 16.5 10H13.5ZM13.7197 9.46967C13.8603 9.32902 14.0511 9.25 14.25 9.25V12.25C14.8467 12.25 15.419 12.0129 15.841 11.591L13.7197 9.46967ZM14.25 9.25H5.75V12.25H14.25V9.25ZM5.75 9.25C5.94891 9.25 6.13968 9.32902 6.28033 9.46967L4.15901 11.591C4.58097 12.0129 5.15326 12.25 5.75 12.25V9.25ZM6.28033 9.46967C6.42098 9.61032 6.5 9.80109 6.5 10H3.5C3.5 10.5967 3.73705 11.169 4.15901 11.591L6.28033 9.46967ZM6.5 10C6.5 10.1989 6.42098 10.3897 6.28033 10.5303L4.15901 8.40901C3.73705 8.83097 3.5 9.40326 3.5 10H6.5ZM6.28033 10.5303C6.13968 10.671 5.94891 10.75 5.75 10.75V7.75C5.15326 7.75 4.58097 7.98705 4.15901 8.40901L6.28033 10.5303ZM5.75 10.75H14.25V7.75H5.75V10.75ZM16.25 6.5C16.0511 6.5 15.8603 6.42098 15.7197 6.28033L17.841 4.15901C17.419 3.73705 16.8467 3.5 16.25 3.5V6.5ZM15.7197 6.28033C15.579 6.13968 15.5 5.94891 15.5 5.75H18.5C18.5 5.15327 18.263 4.58097 17.841 4.15901L15.7197 6.28033ZM15.5 5.75C15.5 5.55109 15.579 5.36032 15.7197 5.21967L17.841 7.34099C18.263 6.91903 18.5 6.34673 18.5 5.75H15.5ZM15.7197 5.21967C15.8603 5.07902 16.0511 5 16.25 5V8C16.8467 8 17.419 7.76295 17.841 7.34099L15.7197 5.21967ZM16.25 5H3.75V8H16.25V5ZM3.75 5C3.94891 5 4.13968 5.07902 4.28033 5.21967L2.15901 7.34099C2.58097 7.76295 3.15326 8 3.75 8V5ZM4.28033 5.21967C4.42098 5.36032 4.5 5.55109 4.5 5.75H1.5C1.5 6.34674 1.73705 6.91903 2.15901 7.34099L4.28033 5.21967ZM4.5 5.75C4.5 5.94891 4.42098 6.13968 4.28033 6.28033L2.15901 4.15901C1.73705 4.58097 1.5 5.15326 1.5 5.75H4.5ZM4.28033 6.28033C4.13968 6.42098 3.94891 6.5 3.75 6.5V3.5C3.15326 3.5 2.58097 3.73705 2.15901 4.15901L4.28033 6.28033ZM3.75 6.5H16.25V3.5H3.75V6.5Z" fill="#089BAB" mask="url(#path-1-inside-1)"/>
</svg>
