<svg width="14" height="18" viewBox="0 0 14 18" fill="none" xmlns="http://www.w3.org/2000/svg">
<path d="M6.89905 2.03762C6.11309 2.03762 5.4642 2.30649 4.90811 2.86258C4.35189 3.4188 4.08291 4.06781 4.08291 4.85352C4.08291 5.63946 4.35189 6.28847 4.9081 6.84456C5.46445 7.40067 6.11335 7.66965 6.89905 7.66965C7.68488 7.66965 8.33389 7.40079 8.8901 6.84458C8.8901 6.84458 8.8901 6.84457 8.8901 6.84457M6.89905 2.03762L8.96082 2.79187C9.53564 3.36682 9.81519 4.04126 9.81519 4.85352C9.81519 5.66602 9.53564 6.34033 8.96082 6.91528L8.8901 6.84457M6.89905 2.03762C7.68488 2.03762 8.33389 2.30649 8.8901 2.86257M6.89905 2.03762L8.8901 2.86257M8.8901 6.84457C9.4462 6.28835 9.71519 5.63946 9.71519 4.85352C9.71519 4.06781 9.4462 3.4188 8.8901 2.86257M8.8901 6.84457L8.8901 2.86257M9.69461 7.64896L9.69462 7.64895C10.4624 6.88107 10.8528 5.93902 10.8528 4.85352C10.8528 3.76838 10.4625 2.82621 9.6945 2.05808L9.69448 2.05806C8.92647 1.2903 7.9843 0.9 6.89905 0.9C5.81355 0.9 4.8715 1.29031 4.10361 2.0582C3.33572 2.82608 2.94529 3.76826 2.94529 4.85352C2.94529 5.93901 3.33572 6.88119 4.10361 7.64908L4.10362 7.6491C4.87174 8.41684 5.81391 8.80728 6.89905 8.80728C7.98442 8.80728 8.9266 8.41697 9.69461 7.64896Z" fill="#495057" stroke="#495057" stroke-width="0.2"/>
<path d="M13.6109 12.2746L13.6109 12.2746C13.6757 12.6367 13.72 12.9804 13.7419 13.2963M13.6109 12.2746L13.7419 13.2963M13.6109 12.2746C13.5453 11.9089 13.4606 11.5626 13.359 11.2453L13.359 11.2452M13.6109 12.2746L13.359 11.2452M13.7419 13.2963C13.7634 13.6034 13.7743 13.9237 13.7744 14.2483V14.2483C13.7744 15.1065 13.5008 15.8107 12.9542 16.3309L12.8853 16.2584M13.7419 13.2963L12.8853 16.2584M12.8853 16.2584L12.9542 16.3309C12.4153 16.8435 11.7051 17.1 10.8521 17.1H3.14795C2.29469 17.1 1.58443 16.8435 1.04569 16.3309M12.8853 16.2584L1.04569 16.3309M13.359 11.2452C13.2533 10.9154 13.11 10.59 12.9328 10.2784C12.7482 9.95347 12.5305 9.66916 12.2849 9.43432C12.0261 9.18663 11.7103 8.9887 11.3475 8.8449L11.3475 8.84488M13.359 11.2452L11.3475 8.84488M11.3475 8.84488C10.9838 8.701 10.5823 8.62876 10.1552 8.62876C9.95979 8.62876 9.77996 8.71155 9.47425 8.91058L9.47418 8.91062M11.3475 8.84488L9.47418 8.91062M9.47418 8.91062C9.28676 9.03285 9.06742 9.17428 8.8225 9.33077C8.62263 9.4581 8.34741 9.58006 8.00137 9.69183L8.00132 9.69184M9.47418 8.91062L8.00132 9.69184M8.00132 9.69184C7.66861 9.7995 7.33158 9.85386 6.99951 9.85386C6.6677 9.85386 6.33065 9.7995 5.99769 9.69184L5.99765 9.69183M8.00132 9.69184L5.99765 9.69183M5.99765 9.69183C5.6519 9.58015 5.37655 9.45818 5.17709 9.33087M5.99765 9.69183L5.17709 9.33087M0.64047 11.2454L0.640479 11.2454C0.746175 10.9152 0.889626 10.5899 1.06661 10.2784C1.06661 10.2784 1.06661 10.2784 1.06661 10.2784L1.15356 10.3278L0.64047 11.2454ZM0.64047 11.2454C0.539009 11.5627 0.454387 11.9089 0.388759 12.2745L0.64047 11.2454ZM1.04569 16.3309L1.04566 16.3308C0.499164 15.8103 0.225562 15.1064 0.225562 14.2484L1.04569 16.3309ZM12.1698 15.5067L12.1698 15.5067C12.4804 15.2111 12.6367 14.8048 12.6368 14.2485C12.6367 13.95 12.6268 13.6564 12.607 13.3758L12.6065 13.3688H12.6066C12.5874 13.0964 12.5485 12.7959 12.4912 12.4754C12.4342 12.158 12.3616 11.8608 12.2756 11.5921C12.1941 11.3374 12.0824 11.0843 11.9437 10.8405L11.9437 10.8404C11.8124 10.6093 11.6624 10.4131 11.4985 10.2563L11.5676 10.1841L11.4985 10.2563C11.3484 10.1127 11.1572 9.99311 10.9288 9.90267C10.7273 9.82296 10.4999 9.77735 10.251 9.76806C10.2185 9.78631 10.1684 9.81614 10.0954 9.8636L10.0409 9.77979M12.1698 15.5067L8.32056 10.6792M12.1698 15.5067C11.8512 15.81 11.4246 15.9624 10.8519 15.9624H3.14795C2.57511 15.9624 2.14859 15.81 1.83006 15.5068C1.51947 15.2111 1.36318 14.8046 1.36318 14.2484C1.36318 13.9508 1.373 13.6571 1.39261 13.3753L1.39261 13.3753C1.4116 13.1007 1.45051 12.7981 1.50846 12.4756L1.50846 12.4756C1.56553 12.1579 1.63802 11.8606 1.7239 11.5923M12.1698 15.5067L2.0557 10.8403M10.0409 9.77979L10.0955 9.86354C9.90244 9.98949 9.68623 10.1288 9.43471 10.2896L9.43462 10.2896C9.14815 10.4723 8.78319 10.6348 8.3513 10.7744M10.0409 9.77979C10.1356 9.71814 10.1941 9.68469 10.2269 9.66724L10.0409 9.77979ZM8.3513 10.7744L8.32056 10.6792M8.3513 10.7744C8.35131 10.7744 8.35131 10.7744 8.35131 10.7744L8.32056 10.6792M8.3513 10.7744C7.90635 10.9182 7.45153 10.9915 6.99963 10.9915C6.54773 10.9915 6.09303 10.9182 5.64782 10.7742M8.32056 10.6792C7.88513 10.8199 7.44067 10.8915 6.99963 10.8915C6.55859 10.8915 6.11426 10.8199 5.67859 10.6791C5.25244 10.5415 4.89575 10.3821 4.6189 10.2056C4.37329 10.0487 4.15112 9.9054 3.95837 9.77979C3.86365 9.71802 3.80518 9.68469 3.77234 9.66724M5.64782 10.7742C5.64784 10.7742 5.64785 10.7742 5.64787 10.7742L5.67858 10.6791L5.64782 10.7742ZM5.64782 10.7742C5.2163 10.6349 4.85123 10.4723 4.56514 10.2899L4.56507 10.2898C4.31924 10.1328 4.09681 9.98936 3.90378 9.86357L3.90375 9.86355C3.83092 9.81606 3.78083 9.78629 3.74829 9.76806M3.74829 9.76806C3.75717 9.76772 3.76608 9.76744 3.77501 9.7672L3.77234 9.66724M3.74829 9.76806C3.73938 9.76306 3.73178 9.75893 3.7254 9.75554L3.77234 9.66724M3.74829 9.76806C3.49947 9.77734 3.27213 9.82297 3.07074 9.90267L3.07073 9.90268C2.84216 9.99312 2.65102 10.1126 2.50092 10.2563L2.50092 10.2563C2.33703 10.4132 2.187 10.6094 2.0557 10.8403M3.77234 9.66724C3.50293 9.67444 3.25476 9.72229 3.03394 9.80969M3.03394 9.80969C2.79517 9.90417 2.59253 10.0302 2.43176 10.1841L3.03394 9.80969ZM3.03394 9.80969L2.0557 10.8403M1.7239 11.5923C1.80557 11.3373 1.91712 11.0843 2.0557 10.8403M1.7239 11.5923L1.62866 11.5618L1.7239 11.5923C1.7239 11.5923 1.7239 11.5923 1.7239 11.5923ZM5.17709 9.33087C4.9345 9.17585 4.71504 9.03442 4.52481 8.91048L5.17709 9.33087ZM1.71431 9.43446L1.71431 9.43446L2.65189 8.84502C2.28928 8.98858 1.97343 9.18652 1.71431 9.43446ZM3.84412 8.62864C3.41679 8.62864 3.01548 8.701 2.65191 8.84501L3.84412 8.62864ZM0.388755 12.2746C0.323765 12.6362 0.279678 12.98 0.257785 13.2967L0.388755 12.2746Z" fill="#495057" stroke="#495057" stroke-width="0.2"/>
</svg>
