<svg width="40" height="40" viewBox="0 0 40 40" fill="none" xmlns="http://www.w3.org/2000/svg">
<circle cx="20" cy="20" r="19.25" stroke="#404040" stroke-width="1.5" stroke-dasharray="5 5"/>
<path d="M27.5 28.3332V26.1109C27.5 24.9322 27.1049 23.8017 26.4016 22.9683C25.6984 22.1348 24.7446 21.6665 23.75 21.6665H16.25C15.2554 21.6665 14.3016 22.1348 13.5983 22.9683C12.8951 23.8017 12.5 24.9322 12.5 26.1109V28.3332" stroke="#404040" stroke-linecap="round" stroke-linejoin="round"/>
<path d="M20.0002 18.3333C22.3013 18.3333 24.1668 16.4679 24.1668 14.1667C24.1668 11.8655 22.3013 10 20.0002 10C17.699 10 15.8335 11.8655 15.8335 14.1667C15.8335 16.4679 17.699 18.3333 20.0002 18.3333Z" stroke="#404040" stroke-linecap="round" stroke-linejoin="round"/>
</svg>
