<svg width="20" height="20" viewBox="0 0 20 20" fill="none" xmlns="http://www.w3.org/2000/svg">
<path d="M10.8337 2.5H5.62533C5.23855 2.5 4.86762 2.65804 4.59413 2.93934C4.32064 3.22064 4.16699 3.60218 4.16699 4V16C4.16699 16.3978 4.32064 16.7794 4.59413 17.0607C4.86762 17.342 5.23855 17.5 5.62533 17.5H14.3753C14.7621 17.5 15.133 17.342 15.4065 17.0607C15.68 16.7794 15.8337 16.3978 15.8337 16V7.5L10.8337 2.5Z" stroke="#858383" stroke-width="1.5" stroke-linecap="round" stroke-linejoin="round"/>
<path d="M10.833 2.5V7.5H15.833" stroke="#858383" stroke-width="1.5" stroke-linecap="round" stroke-linejoin="round"/>
<path d="M11.6143 13.2514C11.6305 13.2499 11.6468 13.2484 11.6633 13.247L11.6573 13.2832L11.6143 13.2514Z" fill="#858383" stroke="#858383"/>
</svg>
