<svg width="16" height="16" viewBox="0 0 16 16" fill="none" xmlns="http://www.w3.org/2000/svg">
<path d="M0.5 4C0.5 2.067 2.067 0.5 4 0.5H12C13.933 0.5 15.5 2.067 15.5 4V12C15.5 13.933 13.933 15.5 12 15.5H4C2.067 15.5 0.5 13.933 0.5 12V4Z" fill="white" stroke="#DBDBDB"/>
<path fill-rule="evenodd" clip-rule="evenodd" d="M0 4C0 1.79086 1.79086 0 4 0H12C14.2091 0 16 1.79086 16 4V12C16 14.2091 14.2091 16 12 16H4C1.79086 16 0 14.2091 0 12V4Z" fill="#089BAB"/>
<path fill-rule="evenodd" clip-rule="evenodd" d="M10.9702 4.96979C11.1101 4.83106 11.299 4.75299 11.4961 4.75244C11.6931 4.7519 11.8825 4.82893 12.0232 4.96689C12.1639 5.10484 12.2447 5.29263 12.248 5.48966C12.2514 5.68669 12.1771 5.87712 12.0412 6.01979L8.04916 11.0098C7.98055 11.0837 7.89774 11.143 7.80569 11.1842C7.71364 11.2253 7.61423 11.2475 7.51341 11.2494C7.41259 11.2512 7.31243 11.2328 7.21891 11.195C7.1254 11.1573 7.04046 11.1011 6.96916 11.0298L4.32416 8.38379C4.25047 8.31513 4.19137 8.23233 4.15038 8.14033C4.10938 8.04833 4.08734 7.94902 4.08557 7.84831C4.08379 7.74761 4.10231 7.64758 4.14004 7.55419C4.17776 7.46081 4.2339 7.37597 4.30512 7.30475C4.37634 7.23354 4.46117 7.17739 4.55456 7.13967C4.64795 7.10195 4.74798 7.08342 4.84868 7.0852C4.94938 7.08698 5.0487 7.10902 5.1407 7.15001C5.2327 7.191 5.3155 7.25011 5.38416 7.32379L7.47816 9.41679L10.9512 4.99179C10.9574 4.98405 10.964 4.9767 10.9712 4.96979H10.9702Z" fill="white"/>
</svg>
