<svg width="30" height="30" viewBox="0 0 30 30" fill="none" xmlns="http://www.w3.org/2000/svg">
<path d="M15 0C6.72632 0 0 6.72632 0 15C0 23.2737 6.72632 30 15 30C23.2737 30 30 23.2737 30 15C30 6.72632 23.2737 0 15 0ZM15 5.30526C16.2947 5.30526 17.3368 6.37895 17.2737 7.67368L16.8316 16.4526C16.7684 17.4316 15.9789 18.1895 15.0316 18.1895C14.0526 18.1895 13.2632 17.4316 13.2316 16.4526L12.7895 7.67368C12.6632 6.41053 13.7053 5.30526 15 5.30526ZM15 24.6947C13.6737 24.6947 12.6 23.6211 12.6 22.2947C12.6 20.9684 13.6737 19.8947 15 19.8947C16.3263 19.8947 17.4 20.9684 17.4 22.2947C17.4 23.6211 16.3263 24.6947 15 24.6947Z" fill="#FF8A47"/>
</svg>
